<svg width="24" height="25" viewBox="0 0 24 25" fill="none" xmlns="http://www.w3.org/2000/svg">
<g filter="url(#filter0_d_12267_7414)">
<path d="M3.13057 0H0V1.56526H3.13057V0Z" fill="white"/>
<path d="M11.996 22.4348H9.38721V24H11.996V22.4348Z" fill="white"/>
<path d="M20.8676 22.4348H18.2588V24H20.8676V22.4348Z" fill="white"/>
<path d="M22.4378 19.8274H20.8726V22.4362H22.4378V19.8274Z" fill="white"/>
<path d="M18.2628 18.2618H12.0017H9.3929H7.82764V22.4359H9.3929V19.8271H12.0017V22.4359H13.5669V19.8271H16.6975V22.4359H18.2628V19.8271H20.8716V18.2618H18.2628Z" fill="white"/>
<path d="M4.69466 4.17322V1.56439H3.12939V5.73848H4.69466V10.4343H6.25992V8.869H10.434V5.73848H11.9993V8.869H16.6951V5.73848H18.2604V8.869H22.4344V10.4343H23.9997V4.17322H4.69466Z" fill="white"/>
<path d="M18.2583 10.4344V15.1302H16.693V10.4344H11.9972V15.1302H10.4319V10.4344H6.25781V18.2607H7.82312V16.6955H20.867V15.1302H22.4323V10.4344H18.2583Z" fill="white"/>
</g>
<defs>
<filter id="filter0_d_12267_7414" x="0" y="0" width="23.9995" height="25" filterUnits="userSpaceOnUse" color-interpolation-filters="sRGB">
<feFlood flood-opacity="0" result="BackgroundImageFix"/>
<feColorMatrix in="SourceAlpha" type="matrix" values="0 0 0 0 0 0 0 0 0 0 0 0 0 0 0 0 0 0 127 0" result="hardAlpha"/>
<feOffset dy="1"/>
<feColorMatrix type="matrix" values="0 0 0 0 0 0 0 0 0 0 0 0 0 0 0 0 0 0 0.25 0"/>
<feBlend mode="normal" in2="BackgroundImageFix" result="effect1_dropShadow_12267_7414"/>
<feBlend mode="normal" in="SourceGraphic" in2="effect1_dropShadow_12267_7414" result="shape"/>
</filter>
</defs>
</svg>
