<svg xmlns="http://www.w3.org/2000/svg" width="19" height="19" fill="none" viewBox="0 0 19 19">
    <path fill="#393441" d="M2.478 0H0v1.24h2.478V0zM9.496 17.76H7.431V19h2.065v-1.24zM16.52 17.76h-2.066V19h2.065v-1.24zM17.762 15.697h-1.239v2.065h1.24v-2.065z"/>
    <path fill="#393441" d="M14.458 14.457H6.197v3.304h1.24v-2.065h2.065v2.065h1.239v-2.065h2.478v2.065h1.24v-2.065h2.065v-1.24h-2.066zM3.716 3.304V1.239H2.477v3.304h1.24v3.718h1.238V7.02H8.26V4.543h1.239v2.478h3.717V4.543h1.24v2.478h3.304v1.24H19V3.304H3.715z"/>
    <path fill="#393441" d="M14.454 8.26v3.718h-1.239V8.261H9.498v3.717h-1.24V8.261H4.955v6.195h1.24v-1.239H16.52v-1.239h1.239V8.261h-3.305z"/>
</svg>
