<svg xmlns="http://www.w3.org/2000/svg" width="100" height="76" fill="none" viewBox="0 0 100 76">
    <path fill="#613819" d="M84 76H16v-4h4v-8h-4V32h4V16h-4V4h4V0h16v4h28V0h16v4h4v12h-4v16h4v32h-4v8h4v4z"/>
    <path fill="#C7731D" d="M20 4h16v4h28V4h16v12h-4v16h4v32h-4v4H24v-4h-4V32h4V16h-4V4z"/>
    <path fill="#FFB4C5" d="M20 4v12h4v-4h4V8h4V4H20zM80 4v12h-4v-4h-4V8h-4V4h12zM64 44v4h8v-4h-8zM80 72v4h-8v-4h8zM20 72v4h8v-4h-8zM28 44v4h8v-4h-8z"/>
    <path fill="#FF9929" d="M28 36h-4v4h52v-4h-4V16h4v-4h-4V8H56v4h-4v8h-4v-8h-4V8H28v4h-4v4h4v20zM28 72h44V60H28v12z"/>
    <path fill="#fff" d="M24 60V40h4v-4h4v-4h36v4h4v4h4v20h-4v4h-4v4H32v-4h-4v-4h-4z"/>
    <path fill="#613819" d="M100 44H88v-8h4v-4h4v4h4v8z"/>
    <path fill="#FFB4C5" d="M96 36v4h-8v-4h8z"/>
    <path fill="#613819" d="M0 44h12v-8H8v-4H4v4H0v8z"/>
    <path fill="#FFB4C5" d="M4 36v4h8v-4H4z"/>
    <path fill="#C7731D" d="M44 28V16H32v12h12z"/>
    <path fill="#070200" d="M40 28v-8h-8v8h8z"/>
    <path fill="#fff" d="M40 24h-4v-4h4v4z"/>
    <path fill="#C7731D" d="M68 28V16H56v12h12z"/>
    <path fill="#070200" d="M64 28v-8h-8v8h8z"/>
    <path fill="#fff" d="M64 24h-4v-4h4v4z"/>
    <path fill="#613819" d="M40 32v8h20v-8H40z"/>
    <path fill="#FFB4C5" d="M56 32v4H44v-4h12z"/>
    <path fill="#933B1C" d="M52 36h-4v-4h4v4z"/>
    <path fill="#fff" d="M52 40h-4v-4h4v4z"/>
</svg>
