<svg width="199" height="54" viewBox="0 0 199 54" fill="none" xmlns="http://www.w3.org/2000/svg">
<path d="M196 1V2H197V3H198V51H197V52H196V53H3V52H2V51H1V3H2V2H3V1H196Z" fill="#595467" stroke="#595467" stroke-width="2"/>
<path d="M2.03516 10H10.0352V6H8.03516V4H0.0351562V14H2.03516V10ZM8.03516 6V8H2.03516V6H8.03516ZM12.0273 14H22.0273V12H14.0273V4H12.0273V14ZM32.0195 14H34.0195V4H24.0195V14H26.0195V10H32.0195V14ZM26.0195 6H32.0195V8H26.0195V6ZM36.0117 10H40.0117V14H42.0117V10H46.0117V4H44.0117V8H38.0117V4H36.0117V10ZM59.9961 14H69.9961V8H63.9961V10H67.9961V12H61.9961V6H69.9961V4H59.9961V14ZM79.9883 14H81.9883V4H71.9883V14H73.9883V10H79.9883V14ZM73.9883 6H79.9883V8H73.9883V6ZM85.9805 8H87.9805V10H89.9805V8H87.9805V6H85.9805V4H83.9805V14H85.9805V8ZM91.9805 14H93.9805V4H91.9805V6H89.9805V8H91.9805V14ZM95.9727 14H105.973V12H97.9727V10H101.973V8H97.9727V6H105.973V4H95.9727V14Z" transform="translate(67 18)" fill="white"/>
<path fill-rule="evenodd" clip-rule="evenodd" d="M6.10526 0H22.8947V1.53846H24.4211V3.07692H25.9474V4.61538H27.4737V10.7692H29V16.9231H27.4737V18.4615H25.9474V20H22.8947V18.4615H21.3684V16.9231H19.8421V15.3846H18.3158V13.8462H10.6842V15.3846H9.15789V16.9231H7.63158V18.4615H6.10526V20H3.05263V18.4615H1.52632V16.9231H0V13.8462V10.7692H1.52632V4.61538H3.05263V3.07692H4.57895V1.53846H6.10526V0ZM6.86842 7.69231V9.23077H9.92105V7.69231H11.4474V4.61538H9.92105V3.07692H6.86842V4.61538H5.34211V7.69231H6.86842ZM6.86842 7.69231V4.61538H9.92105V7.69231H6.86842ZM16.0263 6.15385H19.0789V7.69231H16.0263V6.15385ZM23.6579 7.69231H20.6053V9.23077H23.6579V7.69231Z" transform="translate(24 17)" fill="#03E1E4"/>
</svg>
