<svg width="16" height="17" viewBox="0 0 16 17" fill="none" xmlns="http://www.w3.org/2000/svg">
    <g filter="url(#6zz0nprm5a)">
        <path fill-rule="evenodd" clip-rule="evenodd" d="M1 6V5h1v1H1zm13 0v1h-1v2h-1v1h-1v1h-1v1H9v2h2v1h1v1H4v-1h1v-1h2v-2H6v-1H5v-1H4V9H3V7H2V6h1V1H1v4H0V0h16v5h-1V1h-2v5h1zm0 0h1V5h-1v1z" fill="#2F3045"/>
    </g>
    <defs>
        <filter id="6zz0nprm5a" x="0" y="0" width="16" height="17" filterUnits="userSpaceOnUse" color-interpolation-filters="sRGB">
            <feFlood flood-opacity="0" result="BackgroundImageFix"/>
            <feColorMatrix in="SourceAlpha" values="0 0 0 0 0 0 0 0 0 0 0 0 0 0 0 0 0 0 127 0" result="hardAlpha"/>
            <feOffset dy="1"/>
            <feComposite in2="hardAlpha" operator="out"/>
            <feColorMatrix values="0 0 0 0 0 0 0 0 0 0 0 0 0 0 0 0 0 0 0.25 0"/>
            <feBlend in2="BackgroundImageFix" result="effect1_dropShadow_13782_5216"/>
            <feBlend in="SourceGraphic" in2="effect1_dropShadow_13782_5216" result="shape"/>
        </filter>
    </defs>
</svg>
