<svg width="32" height="32" viewBox="0 0 32 32" fill="none" xmlns="http://www.w3.org/2000/svg">
<g clip-path="url(#clip0)">
<g filter="url(#filter0_d)">
<path d="M4.91335 0H1V1.95665H4.91335V0Z" fill="white"/>
<path d="M15.9955 28.0444H12.7344V30.0011H15.9955V28.0444Z" fill="white"/>
<path d="M27.0853 28.0444H23.8242V30.0011H27.0853V28.0444Z" fill="white"/>
<path d="M29.0484 24.7852H27.0918V28.0463H29.0484V24.7852Z" fill="white"/>
<path d="M23.8295 22.8281H16.0029H12.7418H10.7852V28.0459H12.7418V24.7848H16.0029V28.0459H17.9595V24.7848H21.8729V28.0459H23.8295V24.7848H27.0906V22.8281H23.8295Z" fill="white"/>
<path d="M6.86876 5.21672V1.95557H4.91211V7.17337H6.86876V13.0434H8.8254V11.0867H14.0432V7.17337H15.9998V11.0867H21.8698V7.17337H23.8265V11.0867H29.0443V13.0434H31.0009V5.21672H6.86876Z" fill="white"/>
<path d="M23.8234 13.0435V18.9135H21.8667V13.0435H15.9967V18.9135H14.0401V13.0435H8.82227V22.8267H10.779V20.8701H27.0845V18.9135H29.0412V13.0435H23.8234Z" fill="white"/>
</g>
</g>
<defs>
<filter id="filter0_d" x="1" y="0" width="30.0009" height="32.0011" filterUnits="userSpaceOnUse" color-interpolation-filters="sRGB">
<feFlood flood-opacity="0" result="BackgroundImageFix"/>
<feColorMatrix in="SourceAlpha" type="matrix" values="0 0 0 0 0 0 0 0 0 0 0 0 0 0 0 0 0 0 127 0"/>
<feOffset dy="2"/>
<feColorMatrix type="matrix" values="0 0 0 0 0 0 0 0 0 0 0 0 0 0 0 0 0 0 0.25 0"/>
<feBlend mode="normal" in2="BackgroundImageFix" result="effect1_dropShadow"/>
<feBlend mode="normal" in="SourceGraphic" in2="effect1_dropShadow" result="shape"/>
</filter>
<clipPath id="clip0">
<rect width="32" height="32" fill="white"/>
</clipPath>
</defs>
</svg>
