<svg width="32" height="32" viewBox="0 0 32 32" fill="none" xmlns="http://www.w3.org/2000/svg">
<g filter="url(#filter0_d)">
<path d="M17.3044 0H14.6956V1.9565H17.3044V0Z" fill="white"/>
<path d="M12.7391 3.91311H10.7826V5.86961H12.7391V3.91311Z" fill="white"/>
<path d="M10.7826 5.86961L8.82615 5.86963V7.82614H10.7827L10.7826 5.86961Z" fill="white"/>
<path d="M8.82615 7.82614H6.86963V9.78264H8.82615V7.82614Z" fill="white"/>
<path d="M6.86963 9.78264L4.91311 9.78259V11.7391H6.86962L6.86963 9.78264Z" fill="white"/>
<path d="M4.91311 11.7391L2.95651 11.7391V13.6956H4.91302L4.91311 11.7391Z" fill="white"/>
<path d="M2.95651 13.6956H1V15.6521H2.9565L2.95651 13.6956Z" fill="white"/>
<path d="M21.2174 0V3.91306H19.2609V5.86956H21.2174V7.82606H23.174V1.9565H25.1305V11.7391H27.087V0H21.2174Z" fill="white"/>
<path d="M19.2609 1.95651L17.3044 1.9565V3.91301L19.2609 3.91306L19.2609 1.95651Z" fill="white"/>
<path d="M14.6956 1.9565L12.7391 1.95651L12.7391 3.91311L14.6956 3.91301V1.9565Z" fill="white"/>
<path d="M29.0434 11.7391L27.087 11.7391L27.0869 13.6956H29.0434V11.7391Z" fill="white"/>
<path d="M31 13.6956H29.0434L29.0435 15.6521H31V13.6956Z" fill="white"/>
<path d="M27.0869 15.6522L27.0869 13.6956L25.1304 13.6957L25.1305 11.7391L23.1739 11.7392V9.78267H21.2174L21.2174 7.82606L19.2609 7.82611L19.2609 5.86956L17.3044 5.86961L17.3044 3.91301H14.6956L14.6957 5.86961H12.7391L12.7391 7.82611L10.7827 7.82614L10.7826 9.78267L8.82615 9.78264L8.82608 11.7392L6.86962 11.7391L6.86958 13.6957L4.91302 13.6956L4.91308 15.6522L2.9565 15.6521L2.95651 30H12.0869V18.2609H19.9131V30H29.0435L29.0435 15.6521L27.0869 15.6522Z" fill="white"/>
</g>
<defs>
<filter id="filter0_d" x="1" y="0" width="30" height="32" filterUnits="userSpaceOnUse" color-interpolation-filters="sRGB">
<feFlood flood-opacity="0" result="BackgroundImageFix"/>
<feColorMatrix in="SourceAlpha" type="matrix" values="0 0 0 0 0 0 0 0 0 0 0 0 0 0 0 0 0 0 127 0"/>
<feOffset dy="2"/>
<feColorMatrix type="matrix" values="0 0 0 0 0 0 0 0 0 0 0 0 0 0 0 0 0 0 0.25 0"/>
<feBlend mode="normal" in2="BackgroundImageFix" result="effect1_dropShadow"/>
<feBlend mode="normal" in="SourceGraphic" in2="effect1_dropShadow" result="shape"/>
</filter>
</defs>
</svg>
