<svg width="24" height="24" viewBox="0 0 24 24" fill="none" xmlns="http://www.w3.org/2000/svg">
<path d="M19.3043 3.65217V0H18.2609H17.7391H6.26086H4.69566V3.65217H0V5.21738V9.91303H1.5652V11.4782H3.13041V13.0434H4.69561V14.6086H6.26081V16.1738H7.82602V17.739H9.39122V19.3043H6.26077V20.8695H4.69556V22.4347V24H6.26077H17.739H19.3043V20.8695H17.739V19.3043H14.6086V17.7391H16.1738V16.1739H17.739V14.6087H18.2607H19.3042V13.0435H20.8694V11.4783H22.4346V9.91308H24V5.21738V3.65217H19.3043ZM4.69566 9.91303H3.13045V8.34783H1.5652V5.73914H3.13041H4.69561V9.91303H4.69566ZM22.4348 8.34783H20.8696V9.91303H19.3044V5.73914H20.8696H22.4348V8.34783Z" fill="#03E1E4"/>
</svg>
