<svg width="32" height="32" viewBox="0 0 32 32" fill="none" xmlns="http://www.w3.org/2000/svg">
<g filter="url(#filter0_d)">
<rect y="10.0002" width="3" height="5.99998" fill="white"/>
<rect x="2" y="8" width="3" height="9.99996" fill="white"/>
<rect x="4" y="5.99976" width="2" height="21.9999" fill="white"/>
<rect x="10.0011" y="5.99976" width="2" height="21.9999" fill="white"/>
<rect x="6.0011" y="28" width="4" height="1.99999" fill="white"/>
<rect x="4" y="5.99976" width="12" height="1.99999" fill="white"/>
<rect x="4" y="18" width="12" height="1.99999" fill="white"/>
<rect x="15.9989" y="3.99976" width="4" height="1.99999" fill="white"/>
<rect x="15.9989" y="19.9998" width="4" height="1.99999" fill="white"/>
<rect x="22.0005" y="24.0002" width="4" height="1.99999" fill="white"/>
<rect x="22.0005" width="4" height="1.99999" fill="white"/>
<rect x="19.9989" y="2" width="2" height="1.99999" fill="white"/>
<rect x="19.9989" y="21.9998" width="2" height="1.99999" fill="white"/>
<rect x="26" y="2" width="2" height="21.9999" fill="white"/>
<rect x="27" y="8" width="3" height="9.99996" fill="white"/>
<rect x="29" y="10" width="3" height="5.99998" fill="white"/>
<rect x="4" y="5.99976" width="8" height="13.9999" fill="white"/>
</g>
<defs>
<filter id="filter0_d" x="0" y="0" width="32" height="32" filterUnits="userSpaceOnUse" color-interpolation-filters="sRGB">
<feFlood flood-opacity="0" result="BackgroundImageFix"/>
<feColorMatrix in="SourceAlpha" type="matrix" values="0 0 0 0 0 0 0 0 0 0 0 0 0 0 0 0 0 0 127 0"/>
<feOffset dy="2"/>
<feColorMatrix type="matrix" values="0 0 0 0 0 0 0 0 0 0 0 0 0 0 0 0 0 0 0.25 0"/>
<feBlend mode="normal" in2="BackgroundImageFix" result="effect1_dropShadow"/>
<feBlend mode="normal" in="SourceGraphic" in2="effect1_dropShadow" result="shape"/>
</filter>
</defs>
</svg>
