<svg width="30" height="32" viewBox="0 0 30 32" fill="none" xmlns="http://www.w3.org/2000/svg">
<g filter="url(#filter0_d)">
<path fill-rule="evenodd" clip-rule="evenodd" d="M10.5882 1.76465H19.4117V3.52935H22.9411V5.29406H24.7058V7.05877H26.4705V10.5882H28.2352V19.4117H26.4705V22.9411H24.7058V24.7058H22.9411V26.4705H19.4117V28.2352H10.5882V26.4705H7.05877V24.7058H5.29406V22.9411H3.52935V19.4117H1.76465V10.5882H3.52935V7.05877H5.29406V5.29406H7.05877V3.52935H10.5882V1.76465ZM19.4117 7.05877H10.5882V8.82347H8.82347V12.3529H10.5882V14.1176H8.82347V17.647H10.5882V22.9411H14.1176V17.647H15.8823V19.4117H17.647V22.9411H21.1764V19.4117H19.4117V17.647H17.647V15.8823H19.4117V14.1176H21.1764V8.82347H19.4117V7.05877ZM14.1176 8.82347V14.1176H17.647V8.82347H14.1176Z" fill="#2F3045"/>
<path fill-rule="evenodd" clip-rule="evenodd" d="M8.82353 0H21.1765V1.76471H24.7059V3.52941H26.4706V5.29412H28.2353V8.82353H30V21.1765H28.2353V24.7059H26.4706V26.4706H24.7059V28.2353H21.1765V30H8.82353V28.2353H5.29412V26.4706H3.52941V24.7059H1.76471V21.1765H0V8.82353H1.76471V5.29412H3.52941V3.52941H5.29412V1.76471H8.82353V0ZM10.5882 1.76471V3.52941H7.05882V5.29412H5.29412V7.05882H3.52941V10.5882H1.76471V19.4118H3.52941V22.9412H5.29412V24.7059H7.05882V26.4706H10.5882V28.2353H19.4118V26.4706H22.9412V24.7059H24.7059V22.9412H26.4706V19.4118H28.2353V10.5882H26.4706V7.05882H24.7059V5.29412H22.9412V3.52941H19.4118V1.76471H10.5882ZM17.6471 8.82353H14.1176V14.1176H17.6471V8.82353ZM10.5882 8.82353V7.05882H19.4118V8.82353H21.1765V14.1176H19.4118V15.8824H17.6471V17.6471H19.4118V19.4118H21.1765V22.9412H17.6471V19.4118H15.8824V17.6471H14.1176V22.9412H10.5882V17.6471H8.82353V14.1176H10.5882V12.3529H8.82353V8.82353H10.5882Z" fill="#03E1E4"/>
</g>
<defs>
<filter id="filter0_d" x="0" y="0" width="30" height="32" filterUnits="userSpaceOnUse" color-interpolation-filters="sRGB">
<feFlood flood-opacity="0" result="BackgroundImageFix"/>
<feColorMatrix in="SourceAlpha" type="matrix" values="0 0 0 0 0 0 0 0 0 0 0 0 0 0 0 0 0 0 127 0"/>
<feOffset dy="2"/>
<feColorMatrix type="matrix" values="0 0 0 0 0 0 0 0 0 0 0 0 0 0 0 0 0 0 0.25 0"/>
<feBlend mode="normal" in2="BackgroundImageFix" result="effect1_dropShadow"/>
<feBlend mode="normal" in="SourceGraphic" in2="effect1_dropShadow" result="shape"/>
</filter>
</defs>
</svg>
