<svg width="16" height="17" viewBox="0 0 16 17" fill="none" xmlns="http://www.w3.org/2000/svg">
    <g filter="url(#aw2my3z7fa)" fill="#fff">
        <path fill-rule="evenodd" clip-rule="evenodd" d="M2.5 3v1h11V3h-1V2h-2V0h-5v2h-2v1h-1zm4-1h3V1h-3v1z"/>
        <path d="M1.5 4v1h1V4h-1z"/>
        <path fill-rule="evenodd" clip-rule="evenodd" d="M2.5 15h1v1h9v-1h1V5h-11v10zm4-1V6h-1v8h1zm3 0V6h1v8h-1z"/>
        <path d="M14.5 5V4h-1v1h1z"/>
    </g>
    <defs>
        <filter id="aw2my3z7fa" x="1.5" y="0" width="13" height="17" filterUnits="userSpaceOnUse" color-interpolation-filters="sRGB">
            <feFlood flood-opacity="0" result="BackgroundImageFix"/>
            <feColorMatrix in="SourceAlpha" values="0 0 0 0 0 0 0 0 0 0 0 0 0 0 0 0 0 0 127 0" result="hardAlpha"/>
            <feOffset dy="1"/>
            <feComposite in2="hardAlpha" operator="out"/>
            <feColorMatrix values="0 0 0 0 0 0 0 0 0 0 0 0 0 0 0 0 0 0 0.25 0"/>
            <feBlend in2="BackgroundImageFix" result="effect1_dropShadow_14088_20689"/>
            <feBlend in="SourceGraphic" in2="effect1_dropShadow_14088_20689" result="shape"/>
        </filter>
    </defs>
</svg>
