<svg width="24" height="24" viewBox="0 0 24 24" fill="none" xmlns="http://www.w3.org/2000/svg">
    <path fill-rule="evenodd" clip-rule="evenodd" d="M0 9v7.5h1.5v6H3V24h18v-1.5h1.5v-6H24V9h-1.5V7.5H24V3h-1.5V1.5H21V0h-4.5v1.5H15V3h-1.5v4.5H15V9H6V6h1.5V3H9V0H7.5v3H6v3H4.5v3H0zm16.5 0H15v1.5h1.5V12h-.75v9h1.5v-9H21v-1.5h1.5V9H21V7.5h1.5V3H21V1.5h-4.5V3H15v4.5h1.5V9zm0 0H21v1.5h-4.5V9zm-5.25 12h-1.5v-9h1.5v9zM18 6V3h1.5v1.5H21V6h-3zM8.25 21v-9h-1.5v9h1.5zm6 0v-9h-1.5v9h1.5z" fill="#03E1E4"/>
</svg>
