<svg width="24" height="24" viewBox="0 0 24 24" fill="none" xmlns="http://www.w3.org/2000/svg">
    <path d="M9 13.5v-9H6v9h3zM10.5 4.5v-3H9v3h1.5zM13.5 0h-3v1.5h3V0zM18 3v3h3V4.5h-1.5V3H18zM21 1.5V0h-4.5v1.5H21zM15 3h1.5V1.5H15V3zM13.5 7.5H15V3h-1.5v4.5zM16.5 9V7.5H15V9h1.5zM21 10.5V9h-4.5v1.5H21zM22.5 7.5H21V9h1.5V7.5zM24 7.5V3h-1.5v4.5H24zM22.5 1.5H21V3h1.5V1.5z" fill="#03E1E4"/>
    <path d="M16.5 13.5V15H24V9h-1.5v1.5H21V12h-4.5v-1.5H15V9h-1.5V7.5H12v-3h-1.5v9h6zM6 15v7.5h1.5V24H18v-1.5h3V21h1.5v-1.5H24v-3h-6V18h-1.5v1.5h-6V18h6v-3H6zM4.5 15v9H0v-9h4.5z" fill="#03E1E4"/>
</svg>
