<svg xmlns="http://www.w3.org/2000/svg" width="46" height="46" fill="none" viewBox="0 0 46 46">
    <path fill="#7F808A" d="M12.6 25.035v1.788h-1.8v1.788H9v1.788H7.2v1.788H5.4v1.788H3.6v1.789H0v-3.577h1.8V30.4h1.8v-1.788h1.8v-1.788h1.8v-1.788H9v-1.789h1.8v-1.788h1.8V19.67h1.8v-1.788h1.8v-1.788H18v-1.789h1.8v-1.788h1.8V10.73h1.8V8.941h1.8V5.365h-3.6V3.576H18V1.788h-3.6V0h9v1.788H27v1.788h1.8v1.789h1.8V1.788h1.8v1.788h1.8v1.789h-3.6v1.788h1.8V8.94h1.8v3.576H36v7.153h-3.6v-5.365h-1.8V10.73H27v1.788h-1.8v1.789h-1.8v1.788h-1.8v1.788h-1.8v1.788H18v1.788h-1.8v1.788h-1.8v1.789h-1.8z"/>
    <path fill="#AB7100" d="M32.4 1.8h-1.8v3.6h3.6V3.6h-1.8V1.8zM27 9h-3.6v1.8h-1.8v1.8h-1.8v1.8H18v1.8h-1.8V18h-1.8v1.8h-1.8v1.8h-1.8v1.8H9v1.8H7.2V27H5.4v1.8H3.6v1.8H1.8v1.8H0V36h3.6v-1.8h1.8v-1.8h1.8v-1.8H9v-1.8h1.8V27h1.8v-1.8h1.8v-1.8h1.8v-1.8H18v-1.8h1.8V18h1.8v-1.8h1.8v-1.8h1.8v-1.8H27V9z"/>
    <path fill="#FFDC00" d="M40.545 46h-9.09v-1.818h-1.818v-1.818h-1.819v-1.819H26v-9.09h1.818v-1.819h1.819v-1.818h1.818V26h9.09v1.818h1.819v1.818h1.818v1.819H46v9.09h-1.818v1.819h-1.818v1.818h-1.819V46z"/>
    <path fill="#F0BC00" d="M31.455 26h9.091v1.818h-9.091zM31.455 44.182h9.091V46h-9.091zM26 31.455h1.818v9.091H26zM44.182 31.455H46v9.091h-1.818zM27.818 29.636h1.818v1.818h-1.818zM29.637 27.818h1.818v1.818h-1.818zM40.545 27.818h1.818v1.818h-1.818zM42.364 29.636h1.818v1.818h-1.818zM42.364 40.545h1.818v1.818h-1.818zM40.545 42.364h1.818v1.818h-1.818zM29.637 42.364h1.818v1.818h-1.818zM27.818 40.545h1.818v1.818h-1.818z"/>
    <path fill="#B98500" fill-rule="evenodd" d="M35.091 29.636h1.818v1.819h1.818v1.818h-3.636v1.818h3.636v1.818h-3.636v1.818h3.636v1.818H36.91v1.819h-1.818v-1.819h-1.818v-9.09h1.818v-1.819zm3.636 9.091V36.91h1.819v1.818h-1.819zm0-3.636h1.819v-1.818h-1.819v1.818z" clip-rule="evenodd"/>
    <path fill="#F0BC00" d="M33.273 29.636h1.818v1.818h-1.818zM33.273 40.545h1.818v1.818h-1.818zM36.909 36.909h1.818v1.818h-1.818zM36.909 33.273h1.818v1.818h-1.818zM31.455 31.455h1.818v9.091h-1.818z"/>
</svg>
