<svg xmlns="http://www.w3.org/2000/svg" width="20" height="20" fill="none" viewBox="0 0 20 20">
    <path fill="#393441" d="M2.609 0H0v1.304h2.609V0zM9.996 18.696H7.822V20h2.174v-1.304zM17.389 18.696h-2.174V20h2.174v-1.304zM18.697 16.522h-1.305v2.174h1.305v-2.174zM15.22 15.218H6.522v3.478h1.305v-2.174h2.174v2.174h1.304v-2.174h2.609v2.174h1.304v-2.174h2.174v-1.304H15.22zM3.912 3.478V1.304H2.607v3.478h1.305v3.913h1.304V7.391h3.478V4.782H10v2.609h3.913V4.782h1.304v2.609h3.479v1.304h1.304V3.478H3.912zM15.215 8.695v3.913h-1.304V8.695H9.998v3.913H8.693V8.695H5.215v6.522h1.304v-1.304h10.87v-1.305h1.304V8.695h-3.478z"/>
</svg>
