<svg xmlns="http://www.w3.org/2000/svg" width="15" height="15" fill="none" viewBox="0 0 15 15">
    <path fill="#7E7DA0" d="M12.065 2.935H9.783v.978h2.282v-.978zM12.065 6.196H9.783v.978h2.282v-.978zM13.043 3.913h-.978v2.283h.978V3.913zM9.783 3.913h-.979v2.283h.979V3.913zM6.522 0H4.565v.978h1.957V0zM6.522 2.935H4.565v.978h1.957v-.978zM7.5.978h-.978v1.957H7.5V.978zM4.565.978h-.978v1.957h.978V.978zM2.935 8.152H0V15h2.935V8.152zM11.413 9.13v.979h-1.304v.978H6.196v-.978h3.913V8.152H3.913v5.87h.978V15h5.218v-.978h1.956v-.979h.979v-.978h.978v-.978H15V9.13h-3.587z"/>
</svg>
