<svg xmlns="http://www.w3.org/2000/svg" width="26" height="18" fill="none" viewBox="0 0 26 18">
    <path fill="#03E1E4" fill-rule="evenodd" d="M5.474 0h15.052v1.38h1.369v1.379h1.368v1.379h1.369v5.517H26v5.517h-1.368v1.38h-1.369v1.379h-2.737v-1.38h-1.368v-1.379h-1.369v-1.379h-1.368v-1.38H9.58v1.38H8.21v1.38H6.842v1.379H5.474v1.379H2.737v-1.38H1.368v-1.379H0V9.655h1.368V4.138h1.369v-1.38h1.368V1.38h1.369V0zm.684 6.897v1.379h2.737v-1.38h1.368V4.139H8.895v-1.38H6.158v1.38H4.789v2.759h1.369zm0 0v-2.76h2.737v2.76H6.158zm8.21-1.38h2.737v1.38h-2.737v-1.38zm6.842 1.38h-2.736v1.379h2.736v-1.38z" clip-rule="evenodd"/>
</svg>
