<svg xmlns="http://www.w3.org/2000/svg" width="24" height="24" fill="none" viewBox="0 0 24 24">
    <path fill="#fff" d="M13.043 0h-2.086v1.565h2.086V0zM9.391 3.13H7.826v1.566h1.565V3.13zM7.826 4.696H6.261V6.26h1.565V4.696zM6.26 6.26H4.697v1.566H6.26V6.261zM4.696 7.826H3.13v1.565h1.566V7.826zM3.13 9.391H1.565v1.566H3.13V9.39zM1.565 10.957H0v1.565h1.565v-1.566zM16.174 0v3.13h-1.565v1.566h1.565V6.26h1.565V1.565h1.565v7.826h1.566V0h-4.696zM14.609 1.565h-1.566V3.13h1.566V1.565zM10.957 1.565H9.39V3.13h1.566V1.565zM22.435 9.391H20.87v1.566h1.565V9.39z"/>
    <path fill="#fff" d="M24 10.957h-1.565v1.565H24v-1.566zM20.87 12.522v-1.566h-1.566V9.392H17.74V7.826h-1.565V6.261h-1.565V4.696h-1.566V3.13h-2.086v1.566H9.39V6.26H7.826v1.565H6.261v1.565H4.696v1.566H3.13v1.565H1.565V24H8.87v-9.391h6.26V24h7.305V12.522H20.87z"/>
</svg>
