<svg xmlns="http://www.w3.org/2000/svg" width="20" height="14" fill="none" viewBox="0 0 20 14">
    <path fill="#393441" fill-rule="evenodd" d="M1.12 1.68H.56V2.8H0v8.4h.56v1.12h.56v.56h.56v.56h.56V14h2.8v-.56h.56v-1.12h.56v-2.24h.56v-.56h5.6v.56h.56v2.24h.56v1.12H14V14h2.8v-.56h.56v-.56h.56v-.56h.56V11.2h.56V2.8h-.56V1.68h-.56v-.56h-.56V.56h-.56V0H14v.56h-.56v.56h-.56v.56H6.16v-.56H5.6V.56h-.56V0h-2.8v.56h-.56v.56h-.56v.56zm1.68 0h1.68V2.8h-.56v.56h-.56V2.8H2.8V1.68zM1.12 5.04V3.36h1.12v.56h.56v.56h-.56v.56H1.12zm3.36-1.12h.56v-.56h1.12v1.68H5.04v-.56h-.56v-.56zm-.56 1.12h-.56v.56H2.8v1.12h1.68V5.6h-.56v-.56zm3.36 1.12h1.68v1.12H7.28V6.16zm4.48 0h-1.68v1.12h1.68V6.16zm4.48-4.48h-1.68v1.68h-1.68v1.68h1.68v1.68h1.68V5.04h1.68V3.36h-1.68V1.68zm0 1.68v1.68h-1.68V3.36h1.68z" clip-rule="evenodd"/>
</svg>
