<svg width="180" height="51" viewBox="0 0 180 51" fill="none" xmlns="http://www.w3.org/2000/svg">
<g filter="url(#filter0_d)">
<path d="M15.9635 11.72L5.4995 12.104L5.3555 7.592L14.0435 7.304L12.9395 4.712L17.1155 2.936L18.8915 7.112L28.0595 6.776L29.3555 2.936L33.6755 4.424L32.9075 6.632L42.6995 6.248L42.8435 10.712L31.3715 11.144L29.2595 17.336L24.9875 15.848L26.5235 11.336L20.7635 11.528L21.4355 13.016L17.3075 14.792L15.9635 11.72ZM33.6755 14.456L37.7075 12.392L41.3075 19.448L37.2755 21.464L33.6755 14.456ZM14.6195 27.464L17.7395 26.072L19.5155 30.248L15.7235 31.928L16.9235 36.536L16.1555 38.888L8.7155 44.552L5.9795 41.096L12.2195 36.152L11.5955 33.752L6.6995 35.864L4.8755 31.736L10.4435 29.288L9.2915 24.824L6.3155 25.736L5.0675 21.368L8.1875 20.456L6.9875 15.704L11.3555 14.648L12.5075 19.16L16.0595 18.104L17.3075 22.424L13.6115 23.528L14.6195 27.464ZM23.8355 43.688L19.6595 42.008L25.6595 27.608L20.6675 27.944L20.3795 23.384L27.5795 22.952L29.8835 17.432L34.1075 19.208L32.6675 22.616L42.2675 21.992L42.5555 26.504L30.6995 27.272L23.8355 43.688ZM30.7955 32.216L34.3475 29.384L43.6595 41.336L40.0595 44.024L30.7955 32.216ZM63.6238 6.776L65.7838 4.472L84.9358 3.08L87.3838 5.24L88.1038 17.192L85.9438 19.592L66.0238 20.504L63.6718 18.296L63.6238 6.776ZM59.5438 4.232L61.6558 8.312L49.6558 14.456L47.5918 10.376L59.5438 4.232ZM80.8558 9.272L81.1438 13.832L68.2318 14.696V15.896L83.3998 15.176L82.9198 7.832L68.1838 8.84V10.088L80.8558 9.272ZM53.3997 20.984L49.9438 22.616L47.9758 18.44L60.9358 12.2L62.9038 16.376L58.0078 18.728L57.2398 44.12L52.6797 44.024L53.3997 20.984ZM83.4478 28.76L89.1118 28.616L89.2558 33.176L83.7358 33.32L84.3598 41.672L81.8158 44.072L72.5998 42.776L73.2238 38.264L79.6558 39.176L79.2238 33.416L60.7438 33.8L60.5998 29.24L78.8878 28.856L78.7438 26.6H64.0558V22.04H87.1918V26.6H83.3038L83.4478 28.76ZM65.9758 34.376L71.0157 41.816L67.2238 44.36L62.1838 36.92L65.9758 34.376ZM114.596 16.616L108.788 17.528L108.068 13.016L115.988 11.768L118.1 4.376L122.516 5.624L120.98 11L129.62 9.608L132.26 12.008L129.908 40.424L127.028 42.488L117.14 39.704L118.34 35.336L125.588 37.304L127.46 14.504L119.588 15.8L111.812 43.112L107.396 41.912L114.596 16.616ZM102.404 32.408L106.388 30.344L108.452 34.376L95.108 41.288L92.996 37.256L97.892 34.76L97.7 12.584L92.948 11.816L93.668 7.256L107.348 9.416L106.676 13.928L102.26 13.256L102.404 32.408ZM166.816 27.8L163.024 30.248L162.352 29.192L150.064 31.304L148 27.512L153.52 21.416L149.776 21.512L147.904 17.864L151.6 12.968L138.256 13.4L138.16 8.84L154.048 8.36L151.744 5.864L155.056 2.792L159.568 7.592L158.944 8.216L175.024 7.688L175.168 12.2L157.408 12.776L157.456 12.824L154.384 16.808L157.744 16.712L160.336 13.832L163.696 16.808L155.728 25.688L159.712 25.016L159.04 23.912L162.88 21.512L164.896 24.728L167.104 21.32L175.168 26.408L172.768 30.248L165.424 25.64L166.816 27.8ZM171.136 14.072L173.776 17.72L168.928 21.224L166.288 17.528L171.136 14.072ZM142.768 14.504L147.616 18.008L144.976 21.704L140.128 18.152L142.768 14.504ZM146.56 21.992L149.2 25.688L140.896 31.544L138.304 27.8L146.56 21.992ZM155.44 34.376L155.68 30.632L160.144 30.872L159.952 34.184L175.696 33.368L175.936 37.88L159.712 38.696L159.376 44.648L154.864 44.408L155.2 38.936L137.728 39.8L137.536 35.288L155.44 34.376Z" fill="url(#paint0_linear)"/>
<path d="M15.9635 11.72L16.8797 11.3192L16.6069 10.6957L15.9268 10.7207L15.9635 11.72ZM5.4995 12.104L4.50001 12.1359L4.53206 13.1402L5.53617 13.1033L5.4995 12.104ZM5.3555 7.592L5.32237 6.59255L4.32415 6.62564L4.35601 7.6239L5.3555 7.592ZM14.0435 7.304L14.0766 8.30345L15.5355 8.25509L14.9635 6.91214L14.0435 7.304ZM12.9395 4.712L12.5481 3.79176L11.6274 4.18334L12.0195 5.10386L12.9395 4.712ZM17.1155 2.936L18.0357 2.54463L17.6444 1.6244L16.7241 2.01576L17.1155 2.936ZM18.8915 7.112L17.9713 7.50336L18.2405 8.13653L18.9281 8.11133L18.8915 7.112ZM28.0595 6.776L28.0961 7.77533L28.7862 7.75004L29.007 7.09578L28.0595 6.776ZM29.3555 2.936L29.6812 1.99051L28.7298 1.66281L28.408 2.61622L29.3555 2.936ZM33.6755 4.424L34.62 4.75252L34.9495 3.80517L34.0012 3.47851L33.6755 4.424ZM32.9075 6.632L31.963 6.30348L31.4812 7.6887L32.9467 7.63123L32.9075 6.632ZM42.6995 6.248L43.699 6.21576L43.6665 5.20931L42.6603 5.24877L42.6995 6.248ZM42.8435 10.712L42.8811 11.7113L43.8751 11.6739L43.843 10.6798L42.8435 10.712ZM31.3715 11.144L31.3339 10.1447L30.647 10.1706L30.425 10.8212L31.3715 11.144ZM29.2595 17.336L28.9306 18.2804L29.881 18.6114L30.206 17.6588L29.2595 17.336ZM24.9875 15.848L24.0409 15.5257L23.7209 16.4657L24.6586 16.7924L24.9875 15.848ZM26.5235 11.336L27.4702 11.6583L27.9365 10.2883L26.4902 10.3366L26.5235 11.336ZM20.7635 11.528L20.7302 10.5286L19.2374 10.5783L19.8521 11.9396L20.7635 11.528ZM21.4355 13.016L21.8307 13.9346L22.7659 13.5322L22.3469 12.6044L21.4355 13.016ZM17.3075 14.792L16.3913 15.1928L16.7897 16.1034L17.7027 15.7106L17.3075 14.792ZM33.6755 14.456L33.2198 13.5659L32.3284 14.0222L32.786 14.9129L33.6755 14.456ZM37.7075 12.392L38.5983 11.9375L38.1432 11.0456L37.2518 11.5019L37.7075 12.392ZM41.3075 19.448L41.7547 20.3424L42.6564 19.8916L42.1983 18.9935L41.3075 19.448ZM37.2755 21.464L36.386 21.9209L36.838 22.8008L37.7227 22.3584L37.2755 21.464ZM14.6195 27.464L13.6508 27.7121L13.9448 28.8601L15.0269 28.3772L14.6195 27.464ZM17.7395 26.072L18.6597 25.6806L18.2614 24.7441L17.3321 25.1588L17.7395 26.072ZM19.5155 30.248L19.9206 31.1623L20.8213 30.7632L20.4357 29.8566L19.5155 30.248ZM15.7235 31.928L15.3184 31.0137L14.5417 31.3578L14.7558 32.18L15.7235 31.928ZM16.9235 36.536L17.8741 36.8464L17.9651 36.5677L17.8912 36.284L16.9235 36.536ZM16.1555 38.888L16.7612 39.6837L17.0093 39.4948L17.1061 39.1984L16.1555 38.888ZM8.7155 44.552L7.93145 45.1727L8.5405 45.942L9.32123 45.3477L8.7155 44.552ZM5.9795 41.096L5.35849 40.3122L4.575 40.933L5.19545 41.7167L5.9795 41.096ZM12.2195 36.152L12.8405 36.9358L13.3513 36.5311L13.1873 35.9004L12.2195 36.152ZM11.5955 33.752L12.5633 33.5004L12.2699 32.372L11.1994 32.8338L11.5955 33.752ZM6.6995 35.864L5.78481 36.2682L6.18543 37.1748L7.09559 36.7822L6.6995 35.864ZM4.8755 31.736L4.47303 30.8206L3.5559 31.2238L3.96081 32.1402L4.8755 31.736ZM10.4435 29.288L10.846 30.2034L11.6242 29.8613L11.4118 29.0381L10.4435 29.288ZM9.2915 24.824L10.2598 24.5741L9.99844 23.5615L8.9985 23.8679L9.2915 24.824ZM6.3155 25.736L5.35398 26.0107L5.63399 26.9908L6.6085 26.6921L6.3155 25.736ZM5.0675 21.368L4.78693 20.4082L3.83292 20.687L4.10598 21.6427L5.0675 21.368ZM8.1875 20.456L8.46807 21.4158L9.393 21.1455L9.15706 20.2112L8.1875 20.456ZM6.9875 15.704L6.75251 14.732L5.7706 14.9694L6.01794 15.9488L6.9875 15.704ZM11.3555 14.648L12.3244 14.4006L12.0802 13.444L11.1205 13.676L11.3555 14.648ZM12.5075 19.16L11.5386 19.4074L11.7958 20.4148L12.7925 20.1185L12.5075 19.16ZM16.0595 18.104L17.0202 17.8265L16.7405 16.8583L15.7745 17.1455L16.0595 18.104ZM17.3075 22.424L17.5937 23.3822L18.5433 23.0985L18.2682 22.1465L17.3075 22.424ZM13.6115 23.528L13.3253 22.5698L12.4043 22.8449L12.6428 23.7761L13.6115 23.528ZM23.8355 43.688L23.4623 44.6157L24.3775 44.9839L24.7581 44.0738L23.8355 43.688ZM19.6595 42.008L18.7364 41.6234L18.347 42.5579L19.2863 42.9357L19.6595 42.008ZM25.6595 27.608L26.5826 27.9926L27.2038 26.5018L25.5923 26.6103L25.6595 27.608ZM20.6675 27.944L19.6695 28.007L19.7328 29.0092L20.7347 28.9417L20.6675 27.944ZM20.3795 23.384L20.3196 22.3858L19.3183 22.4459L19.3815 23.447L20.3795 23.384ZM27.5795 22.952L27.6394 23.9502L28.2621 23.9128L28.5023 23.3372L27.5795 22.952ZM29.8835 17.432L30.2711 16.5102L29.3469 16.1216L28.9607 17.0468L29.8835 17.432ZM34.1075 19.208L35.0286 19.5972L35.4186 18.6744L34.4951 18.2862L34.1075 19.208ZM32.6675 22.616L31.7464 22.2268L31.1159 23.719L32.7324 23.6139L32.6675 22.616ZM42.2675 21.992L43.2655 21.9283L43.2017 20.9292L42.2026 20.9941L42.2675 21.992ZM42.5555 26.504L42.6201 27.5019L43.6171 27.4373L43.5535 26.4403L42.5555 26.504ZM30.6995 27.272L30.6349 26.2741L30.0161 26.3142L29.7769 26.8862L30.6995 27.272ZM30.7955 32.216L30.1721 31.4341L29.3963 32.0526L30.0087 32.8333L30.7955 32.216ZM34.3475 29.384L35.1363 28.7694L34.5148 27.9717L33.7241 28.6021L34.3475 29.384ZM43.6595 41.336L44.2578 42.1373L45.0757 41.5266L44.4483 40.7214L43.6595 41.336ZM40.0595 44.024L39.2727 44.6413L39.8754 45.4094L40.6578 44.8253L40.0595 44.024ZM15.9268 10.7207L5.46283 11.1047L5.53617 13.1033L16.0002 12.7193L15.9268 10.7207ZM6.49899 12.0721L6.35499 7.5601L4.35601 7.6239L4.50001 12.1359L6.49899 12.0721ZM5.38863 8.59145L14.0766 8.30345L14.0104 6.30455L5.32237 6.59255L5.38863 8.59145ZM14.9635 6.91214L13.8595 4.32014L12.0195 5.10386L13.1235 7.69586L14.9635 6.91214ZM13.3309 5.63223L17.5069 3.85623L16.7241 2.01576L12.5481 3.79176L13.3309 5.63223ZM16.1953 3.32736L17.9713 7.50336L19.8117 6.72063L18.0357 2.54463L16.1953 3.32736ZM18.9281 8.11133L28.0961 7.77533L28.0229 5.77667L18.8549 6.11267L18.9281 8.11133ZM29.007 7.09578L30.303 3.25578L28.408 2.61622L27.112 6.45622L29.007 7.09578ZM29.0298 3.88148L33.3498 5.36948L34.0012 3.47851L29.6812 1.99051L29.0298 3.88148ZM32.731 4.09548L31.963 6.30348L33.852 6.96052L34.62 4.75252L32.731 4.09548ZM32.9467 7.63123L42.7387 7.24723L42.6603 5.24877L32.8683 5.63277L32.9467 7.63123ZM41.7 6.28024L41.844 10.7442L43.843 10.6798L43.699 6.21576L41.7 6.28024ZM42.8059 9.71271L31.3339 10.1447L31.4091 12.1433L42.8811 11.7113L42.8059 9.71271ZM30.425 10.8212L28.313 17.0132L30.206 17.6588L32.318 11.4668L30.425 10.8212ZM29.5884 16.3916L25.3164 14.9036L24.6586 16.7924L28.9306 18.2804L29.5884 16.3916ZM25.9342 16.1703L27.4702 11.6583L25.5769 11.0137L24.0409 15.5257L25.9342 16.1703ZM26.4902 10.3366L20.7302 10.5286L20.7968 12.5274L26.5568 12.3354L26.4902 10.3366ZM19.8521 11.9396L20.5241 13.4276L22.3469 12.6044L21.6749 11.1164L19.8521 11.9396ZM21.0403 12.0974L16.9123 13.8734L17.7027 15.7106L21.8307 13.9346L21.0403 12.0974ZM18.2237 14.3912L16.8797 11.3192L15.0473 12.1208L16.3913 15.1928L18.2237 14.3912ZM34.1312 15.3461L38.1632 13.2821L37.2518 11.5019L33.2198 13.5659L34.1312 15.3461ZM36.8167 12.8465L40.4167 19.9025L42.1983 18.9935L38.5983 11.9375L36.8167 12.8465ZM40.8603 18.5536L36.8283 20.5696L37.7227 22.3584L41.7547 20.3424L40.8603 18.5536ZM38.165 21.0071L34.565 13.9991L32.786 14.9129L36.386 21.9209L38.165 21.0071ZM15.0269 28.3772L18.1469 26.9852L17.3321 25.1588L14.2121 26.5508L15.0269 28.3772ZM16.8193 26.4634L18.5953 30.6394L20.4357 29.8566L18.6597 25.6806L16.8193 26.4634ZM19.1104 29.3337L15.3184 31.0137L16.1286 32.8423L19.9206 31.1623L19.1104 29.3337ZM14.7558 32.18L15.9558 36.788L17.8912 36.284L16.6912 31.676L14.7558 32.18ZM15.9729 36.2256L15.2049 38.5776L17.1061 39.1984L17.8741 36.8464L15.9729 36.2256ZM15.5498 38.0923L8.10977 43.7563L9.32123 45.3477L16.7612 39.6837L15.5498 38.0923ZM9.49955 43.9313L6.76355 40.4753L5.19545 41.7167L7.93145 45.1727L9.49955 43.9313ZM6.60051 41.8798L12.8405 36.9358L11.5985 35.3682L5.35849 40.3122L6.60051 41.8798ZM13.1873 35.9004L12.5633 33.5004L10.6277 34.0036L11.2517 36.4036L13.1873 35.9004ZM11.1994 32.8338L6.30341 34.9458L7.09559 36.7822L11.9916 34.6702L11.1994 32.8338ZM7.61419 35.4598L5.79019 31.3318L3.96081 32.1402L5.78481 36.2682L7.61419 35.4598ZM5.27797 32.6514L10.846 30.2034L10.041 28.3726L4.47303 30.8206L5.27797 32.6514ZM11.4118 29.0381L10.2598 24.5741L8.32322 25.0739L9.47522 29.5379L11.4118 29.0381ZM8.9985 23.8679L6.0225 24.7799L6.6085 26.6921L9.5845 25.7801L8.9985 23.8679ZM7.27702 25.4613L6.02902 21.0933L4.10598 21.6427L5.35398 26.0107L7.27702 25.4613ZM5.34807 22.3278L8.46807 21.4158L7.90693 19.4962L4.78693 20.4082L5.34807 22.3278ZM9.15706 20.2112L7.95706 15.4592L6.01794 15.9488L7.21794 20.7008L9.15706 20.2112ZM7.22249 16.676L11.5905 15.62L11.1205 13.676L6.75251 14.732L7.22249 16.676ZM10.3866 14.8954L11.5386 19.4074L13.4764 18.9126L12.3244 14.4006L10.3866 14.8954ZM12.7925 20.1185L16.3445 19.0625L15.7745 17.1455L12.2225 18.2015L12.7925 20.1185ZM15.0988 18.3815L16.3468 22.7015L18.2682 22.1465L17.0202 17.8265L15.0988 18.3815ZM17.0213 21.4658L13.3253 22.5698L13.8977 24.4862L17.5937 23.3822L17.0213 21.4658ZM12.6428 23.7761L13.6508 27.7121L15.5882 27.2159L14.5802 23.2799L12.6428 23.7761ZM24.2087 42.7603L20.0327 41.0803L19.2863 42.9357L23.4623 44.6157L24.2087 42.7603ZM20.5826 42.3926L26.5826 27.9926L24.7364 27.2234L18.7364 41.6234L20.5826 42.3926ZM25.5923 26.6103L20.6003 26.9463L20.7347 28.9417L25.7267 28.6057L25.5923 26.6103ZM21.6655 27.881L21.3775 23.321L19.3815 23.447L19.6695 28.007L21.6655 27.881ZM20.4394 24.3822L27.6394 23.9502L27.5196 21.9538L20.3196 22.3858L20.4394 24.3822ZM28.5023 23.3372L30.8063 17.8172L28.9607 17.0468L26.6567 22.5668L28.5023 23.3372ZM29.4959 18.3538L33.7199 20.1298L34.4951 18.2862L30.2711 16.5102L29.4959 18.3538ZM33.1864 18.8188L31.7464 22.2268L33.5886 23.0052L35.0286 19.5972L33.1864 18.8188ZM32.7324 23.6139L42.3324 22.9899L42.2026 20.9941L32.6026 21.6181L32.7324 23.6139ZM41.2695 22.0557L41.5575 26.5677L43.5535 26.4403L43.2655 21.9283L41.2695 22.0557ZM42.4909 25.5061L30.6349 26.2741L30.7641 28.2699L42.6201 27.5019L42.4909 25.5061ZM29.7769 26.8862L22.9129 43.3022L24.7581 44.0738L31.6221 27.6578L29.7769 26.8862ZM31.4189 32.9979L34.9709 30.1659L33.7241 28.6021L30.1721 31.4341L31.4189 32.9979ZM33.5587 29.9986L42.8707 41.9506L44.4483 40.7214L35.1363 28.7694L33.5587 29.9986ZM43.0612 40.5347L39.4612 43.2227L40.6578 44.8253L44.2578 42.1373L43.0612 40.5347ZM40.8463 43.4067L31.5823 31.5987L30.0087 32.8333L39.2727 44.6413L40.8463 43.4067ZM63.6238 6.776L62.8942 6.09206L62.6221 6.38231L62.6238 6.78016L63.6238 6.776ZM65.7838 4.472L65.7113 3.47463L65.3215 3.50296L65.0542 3.78806L65.7838 4.472ZM84.9358 3.08L85.5974 2.33016L85.2823 2.05217L84.8633 2.08263L84.9358 3.08ZM87.3838 5.24L88.3819 5.17986L88.357 4.76508L88.0454 4.49016L87.3838 5.24ZM88.1038 17.192L88.847 17.861L89.1271 17.5498L89.1019 17.1319L88.1038 17.192ZM85.9438 19.592L85.9895 20.591L86.4073 20.5718L86.687 20.261L85.9438 19.592ZM66.0238 20.504L65.3393 21.2331L65.6474 21.5223L66.0695 21.503L66.0238 20.504ZM63.6718 18.296L62.6718 18.3002L62.6736 18.7305L62.9873 19.0251L63.6718 18.296ZM59.5438 4.232L60.4318 3.77229L59.9734 2.88674L59.0866 3.34263L59.5438 4.232ZM61.6558 8.312L62.1115 9.20211L63.0056 8.74433L62.5438 7.85229L61.6558 8.312ZM49.6558 14.456L48.7634 14.9074L49.217 15.8041L50.1115 15.3461L49.6558 14.456ZM47.5918 10.376L47.1346 9.48663L46.2509 9.94086L46.6994 10.8274L47.5918 10.376ZM80.8558 9.272L81.8538 9.20897L81.7907 8.20973L80.7915 8.27407L80.8558 9.272ZM81.1438 13.832L81.2105 14.8298L82.2046 14.7633L82.1418 13.769L81.1438 13.832ZM68.2318 14.696L68.165 13.6982L67.2318 13.7607V14.696H68.2318ZM68.2318 15.896H67.2318V16.9446L68.2792 16.8949L68.2318 15.896ZM83.3998 15.176L83.4472 16.1749L84.464 16.1266L84.3976 15.1108L83.3998 15.176ZM82.9198 7.832L83.9176 7.76678L83.8522 6.76588L82.8515 6.83433L82.9198 7.832ZM68.1838 8.84L68.1155 7.84233L67.1838 7.90607V8.84H68.1838ZM68.1838 10.088H67.1838V11.1545L68.248 11.0859L68.1838 10.088ZM53.3997 20.984L54.3993 21.0152L54.4503 19.382L52.9727 20.0798L53.3997 20.984ZM49.9438 22.616L49.0392 23.0423L49.4658 23.9476L50.3708 23.5202L49.9438 22.616ZM47.9758 18.44L47.5419 17.539L46.6484 17.9692L47.0712 18.8663L47.9758 18.44ZM60.9358 12.2L61.8403 11.7737L61.4105 10.8616L60.5019 11.299L60.9358 12.2ZM62.9038 16.376L63.3368 17.2774L64.2315 16.8476L63.8083 15.9497L62.9038 16.376ZM58.0078 18.728L57.5747 17.8266L57.0266 18.0899L57.0082 18.6978L58.0078 18.728ZM57.2398 44.12L57.2187 45.1198L58.2093 45.1406L58.2393 44.1502L57.2398 44.12ZM52.6797 44.024L51.6802 43.9928L51.6487 45.0025L52.6587 45.0238L52.6797 44.024ZM83.4478 28.76L82.45 28.8265L82.5138 29.7841L83.4732 29.7597L83.4478 28.76ZM89.1118 28.616L90.1113 28.5844L90.0799 27.5911L89.0863 27.6163L89.1118 28.616ZM89.2558 33.176L89.2818 34.1757L90.287 34.1494L90.2553 33.1444L89.2558 33.176ZM83.7358 33.32L83.7097 32.3203L82.6603 32.3477L82.7385 33.3945L83.7358 33.32ZM84.3598 41.672L85.046 42.3994L85.3925 42.0725L85.357 41.5975L84.3598 41.672ZM81.8158 44.072L81.6765 45.0623L82.1524 45.1292L82.502 44.7994L81.8158 44.072ZM72.5998 42.776L71.6092 42.639L71.4725 43.6273L72.4605 43.7663L72.5998 42.776ZM73.2238 38.264L73.3641 37.2739L72.3706 37.133L72.2332 38.127L73.2238 38.264ZM79.6558 39.176L79.5154 40.1661L80.7459 40.3406L80.6529 39.1012L79.6558 39.176ZM79.2238 33.416L80.221 33.3412L80.1501 32.3965L79.203 32.4162L79.2238 33.416ZM60.7438 33.8L59.7442 33.8316L59.7755 34.8203L60.7645 34.7998L60.7438 33.8ZM60.5998 29.24L60.5788 28.2402L59.5684 28.2614L59.6002 29.2716L60.5998 29.24ZM78.8878 28.856L78.9087 29.8558L79.9522 29.8339L79.8857 28.7923L78.8878 28.856ZM78.7438 26.6L79.7417 26.5363L79.682 25.6H78.7438V26.6ZM64.0558 26.6H63.0558V27.6H64.0558V26.6ZM64.0558 22.04V21.04H63.0558V22.04H64.0558ZM87.1918 22.04H88.1918V21.04H87.1918V22.04ZM87.1918 26.6V27.6H88.1918V26.6H87.1918ZM83.3038 26.6V25.6H82.2349L82.306 26.6665L83.3038 26.6ZM65.9758 34.376L66.8037 33.8152L66.2453 32.9909L65.4186 33.5456L65.9758 34.376ZM71.0157 41.816L71.5729 42.6464L72.407 42.0868L71.8437 41.2552L71.0157 41.816ZM67.2238 44.36L66.3958 44.9208L66.9542 45.7451L67.7809 45.1904L67.2238 44.36ZM62.1838 36.92L61.6266 36.0896L60.7925 36.6492L61.3558 37.4808L62.1838 36.92ZM64.3533 7.45994L66.5133 5.15594L65.0542 3.78806L62.8942 6.09206L64.3533 7.45994ZM65.8562 5.46937L85.0082 4.07737L84.8633 2.08263L65.7113 3.47463L65.8562 5.46937ZM84.2741 3.82984L86.7221 5.98984L88.0454 4.49016L85.5974 2.33016L84.2741 3.82984ZM86.3856 5.30013L87.1056 17.2521L89.1019 17.1319L88.3819 5.17986L86.3856 5.30013ZM87.3605 16.523L85.2005 18.923L86.687 20.261L88.847 17.861L87.3605 16.523ZM85.898 18.593L65.978 19.505L66.0695 21.503L85.9895 20.591L85.898 18.593ZM66.7082 19.7749L64.3562 17.5669L62.9873 19.0251L65.3393 21.2331L66.7082 19.7749ZM64.6717 18.2918L64.6237 6.77183L62.6238 6.78016L62.6718 18.3002L64.6717 18.2918ZM58.6557 4.69171L60.7677 8.7717L62.5438 7.85229L60.4318 3.77229L58.6557 4.69171ZM61.2 7.42188L49.2 13.5659L50.1115 15.3461L62.1115 9.20211L61.2 7.42188ZM50.5481 14.0046L48.4841 9.92459L46.6994 10.8274L48.7634 14.9074L50.5481 14.0046ZM48.0489 11.2654L60.0009 5.12137L59.0866 3.34263L47.1346 9.48663L48.0489 11.2654ZM79.8577 9.33503L80.1457 13.895L82.1418 13.769L81.8538 9.20897L79.8577 9.33503ZM81.077 12.8342L68.165 13.6982L68.2985 15.6938L81.2105 14.8298L81.077 12.8342ZM67.2318 14.696V15.896H69.2318V14.696H67.2318ZM68.2792 16.8949L83.4472 16.1749L83.3523 14.1771L68.1843 14.8971L68.2792 16.8949ZM84.3976 15.1108L83.9176 7.76678L81.9219 7.89722L82.4019 15.2412L84.3976 15.1108ZM82.8515 6.83433L68.1155 7.84233L68.252 9.83767L82.988 8.82967L82.8515 6.83433ZM67.1838 8.84V10.088H69.1838V8.84H67.1838ZM68.248 11.0859L80.92 10.2699L80.7915 8.27407L68.1195 9.09006L68.248 11.0859ZM52.9727 20.0798L49.5167 21.7118L50.3708 23.5202L53.8268 21.8882L52.9727 20.0798ZM50.8483 22.1897L48.8803 18.0137L47.0712 18.8663L49.0392 23.0423L50.8483 22.1897ZM48.4096 19.341L61.3696 13.101L60.5019 11.299L47.5419 17.539L48.4096 19.341ZM60.0312 12.6263L61.9992 16.8023L63.8083 15.9497L61.8403 11.7737L60.0312 12.6263ZM62.4707 15.4746L57.5747 17.8266L58.4408 19.6294L63.3368 17.2774L62.4707 15.4746ZM57.0082 18.6978L56.2402 44.0898L58.2393 44.1502L59.0073 18.7582L57.0082 18.6978ZM57.2608 43.1202L52.7008 43.0242L52.6587 45.0238L57.2187 45.1198L57.2608 43.1202ZM53.6793 44.0552L54.3993 21.0152L52.4002 20.9528L51.6802 43.9928L53.6793 44.0552ZM83.4732 29.7597L89.1372 29.6157L89.0863 27.6163L83.4223 27.7603L83.4732 29.7597ZM88.1122 28.6476L88.2563 33.2076L90.2553 33.1444L90.1113 28.5844L88.1122 28.6476ZM89.2297 32.1763L83.7097 32.3203L83.7618 34.3197L89.2818 34.1757L89.2297 32.1763ZM82.7385 33.3945L83.3625 41.7465L85.357 41.5975L84.733 33.2455L82.7385 33.3945ZM83.6735 40.9446L81.1295 43.3446L82.502 44.7994L85.046 42.3994L83.6735 40.9446ZM81.955 43.0817L72.739 41.7857L72.4605 43.7663L81.6765 45.0623L81.955 43.0817ZM73.5903 42.913L74.2143 38.401L72.2332 38.127L71.6092 42.639L73.5903 42.913ZM73.0834 39.2541L79.5154 40.1661L79.7961 38.1859L73.3641 37.2739L73.0834 39.2541ZM80.6529 39.1012L80.221 33.3412L78.2266 33.4908L78.6586 39.2508L80.6529 39.1012ZM79.203 32.4162L60.723 32.8002L60.7645 34.7998L79.2445 34.4158L79.203 32.4162ZM61.7433 33.7684L61.5993 29.2084L59.6002 29.2716L59.7442 33.8316L61.7433 33.7684ZM60.6207 30.2398L78.9087 29.8558L78.8668 27.8562L60.5788 28.2402L60.6207 30.2398ZM79.8857 28.7923L79.7417 26.5363L77.7458 26.6637L77.8898 28.9197L79.8857 28.7923ZM78.7438 25.6H64.0558V27.6H78.7438V25.6ZM65.0558 26.6V22.04H63.0558V26.6H65.0558ZM64.0558 23.04H87.1918V21.04H64.0558V23.04ZM86.1918 22.04V26.6H88.1918V22.04H86.1918ZM87.1918 25.6H83.3038V27.6H87.1918V25.6ZM82.306 26.6665L82.45 28.8265L84.4455 28.6935L84.3015 26.5335L82.306 26.6665ZM65.1478 34.9368L70.1878 42.3768L71.8437 41.2552L66.8037 33.8152L65.1478 34.9368ZM70.4586 40.9856L66.6666 43.5296L67.7809 45.1904L71.5729 42.6464L70.4586 40.9856ZM68.0517 43.7992L63.0117 36.3592L61.3558 37.4808L66.3958 44.9208L68.0517 43.7992ZM62.7409 37.7504L66.5329 35.2064L65.4186 33.5456L61.6266 36.0896L62.7409 37.7504ZM114.596 16.616L115.558 16.8898L115.986 15.3855L114.441 15.6281L114.596 16.616ZM108.788 17.528L107.8 17.6856L107.958 18.6706L108.943 18.5159L108.788 17.528ZM108.068 13.016L107.912 12.0282L106.923 12.1841L107.08 13.1736L108.068 13.016ZM115.988 11.768L116.144 12.7558L116.774 12.6565L116.95 12.0427L115.988 11.768ZM118.1 4.376L118.372 3.41369L117.412 3.14251L117.138 4.10128L118.1 4.376ZM122.516 5.624L123.478 5.89872L123.753 4.93443L122.788 4.66169L122.516 5.624ZM120.98 11L120.018 10.7253L119.586 12.2374L121.139 11.9873L120.98 11ZM129.62 9.608L130.293 8.86806L129.936 8.54413L129.461 8.62073L129.62 9.608ZM132.26 12.008L133.257 12.0905L133.297 11.5995L132.933 11.2681L132.26 12.008ZM129.908 40.424L130.491 41.2368L130.866 40.9674L130.905 40.5065L129.908 40.424ZM127.028 42.488L126.757 43.4506L127.22 43.5809L127.611 43.3008L127.028 42.488ZM117.14 39.704L116.176 39.4391L115.912 40.3973L116.869 40.6666L117.14 39.704ZM118.34 35.336L118.602 34.3709L117.64 34.1097L117.376 35.0711L118.34 35.336ZM125.588 37.304L125.326 38.2691L126.486 38.5841L126.585 37.3858L125.588 37.304ZM127.46 14.504L128.457 14.5858L128.561 13.3092L127.298 13.5173L127.46 14.504ZM119.588 15.8L119.426 14.8133L118.8 14.9163L118.626 15.5262L119.588 15.8ZM111.812 43.112L111.55 44.077L112.503 44.3361L112.774 43.3858L111.812 43.112ZM107.396 41.912L106.434 41.6382L106.157 42.6116L107.134 42.877L107.396 41.912ZM102.404 32.408L101.404 32.4155L101.416 34.0459L102.864 33.2959L102.404 32.408ZM106.388 30.344L107.278 29.8883L106.82 28.9938L105.928 29.4561L106.388 30.344ZM108.452 34.376L108.912 35.2639L109.796 34.8062L109.342 33.9203L108.452 34.376ZM95.108 41.288L94.2222 41.752L94.6841 42.6338L95.5679 42.1759L95.108 41.288ZM92.996 37.256L92.5418 36.3651L91.641 36.8243L92.1102 37.72L92.996 37.256ZM97.892 34.76L98.3462 35.6509L98.8973 35.3699L98.892 34.7513L97.892 34.76ZM97.7 12.584L98.7 12.5753L98.6927 11.7315L97.8595 11.5968L97.7 12.584ZM92.948 11.816L91.9602 11.66L91.8048 12.6442L92.7885 12.8032L92.948 11.816ZM93.668 7.256L93.824 6.26824L92.8362 6.11227L92.6802 7.10004L93.668 7.256ZM107.348 9.416L108.337 9.56331L108.483 8.58284L107.504 8.42823L107.348 9.416ZM106.676 13.928L106.526 14.9166L107.517 15.0675L107.665 14.0753L106.676 13.928ZM102.26 13.256L102.41 12.2674L101.251 12.091L101.26 13.2635L102.26 13.256ZM114.441 15.6281L108.633 16.5401L108.943 18.5159L114.751 17.6039L114.441 15.6281ZM109.776 17.3704L109.056 12.8584L107.08 13.1736L107.8 17.6856L109.776 17.3704ZM108.224 14.0038L116.144 12.7558L115.832 10.7802L107.912 12.0282L108.224 14.0038ZM116.95 12.0427L119.062 4.65072L117.138 4.10128L115.026 11.4933L116.95 12.0427ZM117.828 5.33831L122.244 6.58631L122.788 4.66169L118.372 3.41369L117.828 5.33831ZM121.554 5.34928L120.018 10.7253L121.942 11.2747L123.478 5.89872L121.554 5.34928ZM121.139 11.9873L129.779 10.5953L129.461 8.62073L120.821 10.0127L121.139 11.9873ZM128.947 10.3479L131.587 12.7479L132.933 11.2681L130.293 8.86806L128.947 10.3479ZM131.263 11.9255L128.911 40.3415L130.905 40.5065L133.257 12.0905L131.263 11.9255ZM129.325 39.6112L126.445 41.6752L127.611 43.3008L130.491 41.2368L129.325 39.6112ZM127.299 41.5254L117.411 38.7414L116.869 40.6666L126.757 43.4506L127.299 41.5254ZM118.104 39.9689L119.304 35.6009L117.376 35.0711L116.176 39.4391L118.104 39.9689ZM118.078 36.3011L125.326 38.2691L125.85 36.3389L118.602 34.3709L118.078 36.3011ZM126.585 37.3858L128.457 14.5858L126.463 14.4222L124.591 37.2222L126.585 37.3858ZM127.298 13.5173L119.426 14.8133L119.75 16.7867L127.622 15.4907L127.298 13.5173ZM118.626 15.5262L110.85 42.8382L112.774 43.3858L120.55 16.0738L118.626 15.5262ZM112.074 42.147L107.658 40.947L107.134 42.877L111.55 44.077L112.074 42.147ZM108.358 42.1858L115.558 16.8898L113.634 16.3422L106.434 41.6382L108.358 42.1858ZM102.864 33.2959L106.848 31.2319L105.928 29.4561L101.944 31.5201L102.864 33.2959ZM105.498 30.7997L107.562 34.8317L109.342 33.9203L107.278 29.8883L105.498 30.7997ZM107.992 33.4881L94.6481 40.4001L95.5679 42.1759L108.912 35.2639L107.992 33.4881ZM95.9938 40.824L93.8818 36.792L92.1102 37.72L94.2222 41.752L95.9938 40.824ZM93.4502 38.1469L98.3462 35.6509L97.4378 33.8691L92.5418 36.3651L93.4502 38.1469ZM98.892 34.7513L98.7 12.5753L96.7 12.5927L96.892 34.7687L98.892 34.7513ZM97.8595 11.5968L93.1075 10.8288L92.7885 12.8032L97.5405 13.5712L97.8595 11.5968ZM93.9358 11.972L94.6558 7.41196L92.6802 7.10004L91.9602 11.66L93.9358 11.972ZM93.512 8.24376L107.192 10.4038L107.504 8.42823L93.824 6.26824L93.512 8.24376ZM106.359 9.26869L105.687 13.7807L107.665 14.0753L108.337 9.56331L106.359 9.26869ZM106.826 12.9394L102.41 12.2674L102.11 14.2446L106.526 14.9166L106.826 12.9394ZM101.26 13.2635L101.404 32.4155L103.404 32.4005L103.26 13.2485L101.26 13.2635ZM166.816 27.8L167.359 28.6401L168.198 28.0982L167.657 27.2583L166.816 27.8ZM163.024 30.248L162.181 30.7849L162.721 31.6341L163.567 31.0881L163.024 30.248ZM162.352 29.192L163.196 28.6551L162.839 28.0937L162.183 28.2065L162.352 29.192ZM150.064 31.304L149.186 31.7821L149.528 32.4108L150.234 32.2895L150.064 31.304ZM148 27.512L147.259 26.8408L146.783 27.3668L147.122 27.9901L148 27.512ZM153.52 21.416L154.262 22.0872L155.829 20.3565L153.495 20.4163L153.52 21.416ZM149.776 21.512L148.887 21.9686L149.174 22.5278L149.802 22.5117L149.776 21.512ZM147.904 17.864L147.106 17.2615L146.728 17.7623L147.015 18.3206L147.904 17.864ZM151.6 12.968L152.398 13.5705L153.659 11.9008L151.568 11.9685L151.6 12.968ZM138.256 13.4L137.256 13.421L137.278 14.4322L138.289 14.3995L138.256 13.4ZM138.16 8.84L138.13 7.84046L137.14 7.87038L137.16 8.86105L138.16 8.84ZM154.048 8.36L154.078 9.35954L156.271 9.29331L154.783 7.68172L154.048 8.36ZM151.744 5.864L151.064 5.13083L150.333 5.80924L151.009 6.54228L151.744 5.864ZM155.056 2.792L155.785 2.10709L155.105 1.38329L154.376 2.05883L155.056 2.792ZM159.568 7.592L160.275 8.2991L160.961 7.61353L160.297 6.90709L159.568 7.592ZM158.944 8.216L158.237 7.50889L156.448 9.29852L158.977 9.21546L158.944 8.216ZM175.024 7.688L176.024 7.6561L175.992 6.65569L174.991 6.68854L175.024 7.688ZM175.168 12.2L175.201 13.1995L176.2 13.1671L176.168 12.1681L175.168 12.2ZM157.408 12.776L157.376 11.7765L155.069 11.8513L156.701 13.4831L157.408 12.776ZM157.456 12.824L158.248 13.4346L158.785 12.7385L158.163 12.1169L157.456 12.824ZM154.384 16.808L153.592 16.1974L152.304 17.8678L154.413 17.8076L154.384 16.808ZM157.744 16.712L157.773 17.7116L158.201 17.6994L158.488 17.381L157.744 16.712ZM160.336 13.832L160.999 13.0834L160.257 12.4256L159.593 13.163L160.336 13.832ZM163.696 16.808L164.441 17.4759L165.113 16.7267L164.359 16.0594L163.696 16.808ZM155.728 25.688L154.984 25.0201L153.073 27.15L155.895 26.6741L155.728 25.688ZM159.712 25.016L159.879 26.0021L161.334 25.7566L160.566 24.4961L159.712 25.016ZM159.04 23.912L158.51 23.064L157.672 23.5878L158.186 24.4319L159.04 23.912ZM162.88 21.512L163.728 20.9809L163.197 20.1347L162.35 20.664L162.88 21.512ZM164.896 24.728L164.049 25.2591L164.882 26.5886L165.736 25.2717L164.896 24.728ZM167.104 21.32L167.638 20.4743L166.802 19.947L166.265 20.7763L167.104 21.32ZM175.168 26.408L176.016 26.938L176.544 26.0936L175.702 25.5623L175.168 26.408ZM172.768 30.248L172.237 31.0951L173.085 31.6275L173.616 30.778L172.768 30.248ZM165.424 25.64L165.956 24.7929L164.584 26.1817L165.424 25.64ZM171.136 14.072L171.946 13.4857L171.364 12.6814L170.556 13.2577L171.136 14.072ZM173.776 17.72L174.362 18.5305L175.173 17.9443L174.586 17.1337L173.776 17.72ZM168.928 21.224L168.115 21.8052L168.699 22.6235L169.514 22.0345L168.928 21.224ZM166.288 17.528L165.708 16.7137L164.893 17.2947L165.475 18.1092L166.288 17.528ZM142.768 14.504L143.354 13.6935L142.544 13.1081L141.958 13.9177L142.768 14.504ZM147.616 18.008L148.43 18.5892L149.008 17.78L148.202 17.1975L147.616 18.008ZM144.976 21.704L144.385 22.5107L145.202 23.1089L145.79 22.2852L144.976 21.704ZM140.128 18.152L139.318 17.5657L138.735 18.3711L139.537 18.9587L140.128 18.152ZM146.56 21.992L147.374 21.4108L146.797 20.6029L145.985 21.1741L146.56 21.992ZM149.2 25.688L149.777 26.5052L150.599 25.9254L150.014 25.1068L149.2 25.688ZM140.896 31.544L140.074 32.1132L140.648 32.9426L141.473 32.3612L140.896 31.544ZM138.304 27.8L137.729 26.9821L136.917 27.5532L137.482 28.3692L138.304 27.8ZM155.44 34.376L155.491 35.3747L156.381 35.3294L156.438 34.44L155.44 34.376ZM155.68 30.632L155.734 29.6334L154.746 29.5803L154.682 30.568L155.68 30.632ZM160.144 30.872L161.143 30.9299L161.201 29.9274L160.198 29.8734L160.144 30.872ZM159.952 34.184L158.954 34.1261L158.889 35.2404L160.004 35.1827L159.952 34.184ZM175.696 33.368L176.695 33.3149L176.642 32.3177L175.644 32.3693L175.696 33.368ZM175.936 37.88L175.986 38.8787L176.988 38.8284L176.935 37.8269L175.936 37.88ZM159.712 38.696L159.662 37.6973L158.764 37.7424L158.714 38.6396L159.712 38.696ZM159.376 44.648L159.323 45.6466L160.318 45.6995L160.375 44.7044L159.376 44.648ZM154.864 44.408L153.866 44.3467L153.804 45.353L154.811 45.4066L154.864 44.408ZM155.2 38.936L156.198 38.9973L156.267 37.882L155.151 37.9372L155.2 38.936ZM137.728 39.8L136.729 39.8425L136.772 40.8485L137.778 40.7988L137.728 39.8ZM137.536 35.288L137.485 34.2893L136.495 34.3397L136.537 35.3305L137.536 35.288ZM166.274 26.9599L162.482 29.4079L163.567 31.0881L167.359 28.6401L166.274 26.9599ZM163.868 29.7111L163.196 28.6551L161.509 29.7289L162.181 30.7849L163.868 29.7111ZM162.183 28.2065L149.895 30.3185L150.234 32.2895L162.522 30.1775L162.183 28.2065ZM150.943 30.8259L148.879 27.0339L147.122 27.9901L149.186 31.7821L150.943 30.8259ZM148.742 28.1832L154.262 22.0872L152.779 20.7448L147.259 26.8408L148.742 28.1832ZM153.495 20.4163L149.751 20.5123L149.802 22.5117L153.546 22.4157L153.495 20.4163ZM150.666 21.0554L148.794 17.4074L147.015 18.3206L148.887 21.9686L150.666 21.0554ZM148.702 18.4665L152.398 13.5705L150.802 12.3655L147.106 17.2615L148.702 18.4665ZM151.568 11.9685L138.224 12.4005L138.289 14.3995L151.633 13.9675L151.568 11.9685ZM139.256 13.3789L139.16 8.81895L137.16 8.86105L137.256 13.421L139.256 13.3789ZM138.19 9.83954L154.078 9.35954L154.018 7.36046L138.13 7.84046L138.19 9.83954ZM154.783 7.68172L152.479 5.18572L151.009 6.54228L153.313 9.03828L154.783 7.68172ZM152.424 6.59717L155.736 3.52517L154.376 2.05883L151.064 5.13083L152.424 6.59717ZM154.328 3.47691L158.84 8.27691L160.297 6.90709L155.785 2.10709L154.328 3.47691ZM158.861 6.88489L158.237 7.50889L159.651 8.92311L160.275 8.2991L158.861 6.88489ZM158.977 9.21546L175.057 8.68746L174.991 6.68854L158.911 7.21654L158.977 9.21546ZM174.025 7.7199L174.169 12.2319L176.168 12.1681L176.024 7.6561L174.025 7.7199ZM175.136 11.2005L157.376 11.7765L157.441 13.7755L175.201 13.1995L175.136 11.2005ZM156.701 13.4831L156.749 13.5311L158.163 12.1169L158.115 12.0689L156.701 13.4831ZM156.664 12.2134L153.592 16.1974L155.176 17.4186L158.248 13.4346L156.664 12.2134ZM154.413 17.8076L157.773 17.7116L157.716 15.7124L154.356 15.8084L154.413 17.8076ZM158.488 17.381L161.08 14.501L159.593 13.163L157.001 16.043L158.488 17.381ZM159.673 14.5806L163.033 17.5566L164.359 16.0594L160.999 13.0834L159.673 14.5806ZM162.952 16.1401L154.984 25.0201L156.473 26.3559L164.441 17.4759L162.952 16.1401ZM155.895 26.6741L159.879 26.0021L159.546 24.0299L155.562 24.7019L155.895 26.6741ZM160.566 24.4961L159.894 23.3921L158.186 24.4319L158.858 25.5359L160.566 24.4961ZM159.57 24.76L163.41 22.36L162.35 20.664L158.51 23.064L159.57 24.76ZM162.033 22.0431L164.049 25.2591L165.744 24.1969L163.728 20.9809L162.033 22.0431ZM165.736 25.2717L167.944 21.8637L166.265 20.7763L164.057 24.1843L165.736 25.2717ZM166.571 22.1657L174.635 27.2537L175.702 25.5623L167.638 20.4743L166.571 22.1657ZM174.32 25.878L171.92 29.718L173.616 30.778L176.016 26.938L174.32 25.878ZM173.3 29.4009L165.956 24.7929L164.893 26.4871L172.237 31.0951L173.3 29.4009ZM164.584 26.1817L165.976 28.3417L167.657 27.2583L166.265 25.0983L164.584 26.1817ZM170.326 14.6583L172.966 18.3063L174.586 17.1337L171.946 13.4857L170.326 14.6583ZM173.19 16.9095L168.342 20.4135L169.514 22.0345L174.362 18.5305L173.19 16.9095ZM169.742 20.6428L167.102 16.9468L165.475 18.1092L168.115 21.8052L169.742 20.6428ZM166.869 18.3423L171.717 14.8863L170.556 13.2577L165.708 16.7137L166.869 18.3423ZM142.182 15.3145L147.03 18.8185L148.202 17.1975L143.354 13.6935L142.182 15.3145ZM146.803 17.4268L144.163 21.1228L145.79 22.2852L148.43 18.5892L146.803 17.4268ZM145.567 20.8973L140.719 17.3453L139.537 18.9587L144.385 22.5107L145.567 20.8973ZM140.938 18.7383L143.578 15.0903L141.958 13.9177L139.318 17.5657L140.938 18.7383ZM145.747 22.5732L148.387 26.2692L150.014 25.1068L147.374 21.4108L145.747 22.5732ZM148.624 24.8708L140.32 30.7268L141.473 32.3612L149.777 26.5052L148.624 24.8708ZM141.718 30.9748L139.126 27.2308L137.482 28.3692L140.074 32.1132L141.718 30.9748ZM138.88 28.6179L147.136 22.8099L145.985 21.1741L137.729 26.9821L138.88 28.6179ZM156.438 34.44L156.678 30.696L154.682 30.568L154.442 34.312L156.438 34.44ZM155.627 31.6306L160.091 31.8706L160.198 29.8734L155.734 29.6334L155.627 31.6306ZM159.146 30.8141L158.954 34.1261L160.951 34.2419L161.143 30.9299L159.146 30.8141ZM160.004 35.1827L175.748 34.3667L175.644 32.3693L159.9 33.1853L160.004 35.1827ZM174.698 33.4211L174.938 37.9331L176.935 37.8269L176.695 33.3149L174.698 33.4211ZM175.886 36.8813L159.662 37.6973L159.762 39.6947L175.986 38.8787L175.886 36.8813ZM158.714 38.6396L158.378 44.5916L160.375 44.7044L160.711 38.7524L158.714 38.6396ZM159.429 43.6494L154.917 43.4094L154.811 45.4066L159.323 45.6466L159.429 43.6494ZM155.862 44.4693L156.198 38.9973L154.202 38.8747L153.866 44.3467L155.862 44.4693ZM155.151 37.9372L137.679 38.8012L137.778 40.7988L155.25 39.9348L155.151 37.9372ZM138.727 39.7575L138.535 35.2455L136.537 35.3305L136.729 39.8425L138.727 39.7575ZM137.587 36.2867L155.491 35.3747L155.389 33.3773L137.485 34.2893L137.587 36.2867Z" fill="url(#paint1_linear)"/>
</g>
<defs>
<filter id="filter0_d" x="0.555908" y="0.382812" width="179.432" height="50.5587" filterUnits="userSpaceOnUse" color-interpolation-filters="sRGB">
<feFlood flood-opacity="0" result="BackgroundImageFix"/>
<feColorMatrix in="SourceAlpha" type="matrix" values="0 0 0 0 0 0 0 0 0 0 0 0 0 0 0 0 0 0 127 0"/>
<feOffset dy="2"/>
<feGaussianBlur stdDeviation="1.5"/>
<feColorMatrix type="matrix" values="0 0 0 0 0.0705882 0 0 0 0 0.556863 0 0 0 0 0.564706 0 0 0 0.75 0"/>
<feBlend mode="normal" in2="BackgroundImageFix" result="effect1_dropShadow"/>
<feBlend mode="normal" in="SourceGraphic" in2="effect1_dropShadow" result="shape"/>
</filter>
<linearGradient id="paint0_linear" x1="90.5" y1="-1" x2="90.5" y2="47" gradientUnits="userSpaceOnUse">
<stop stop-color="#09C3C5"/>
<stop offset="1" stop-color="#128F91"/>
</linearGradient>
<linearGradient id="paint1_linear" x1="90.5" y1="-1" x2="90.5" y2="47" gradientUnits="userSpaceOnUse">
<stop stop-color="#9AF8F9"/>
<stop offset="1" stop-color="#36E9EB"/>
</linearGradient>
</defs>
</svg>
