<svg xmlns="http://www.w3.org/2000/svg" width="54" height="54" fill="none" viewBox="0 0 54 54">
    <path fill="#19151C" stroke="#595467" stroke-width="2" d="M52 3h1v48h-1v1h-1v1H3v-1H2v-1H1V3h1V2h1V1h48v1h1v1z"/>
    <path fill="#03E1E4" d="M37 20.044h-1.305v13.913H37V20.044zM34.39 21.783h-1.304v10.434h1.304V21.783zM31.78 23.956h-1.303v6.087h1.304v-6.087zM27.869 18.304V17H25.26v1.304h-1.304v1.305h-1.304v1.304h-1.304v1.304h-3.044v1.305H17v6.956h1.304v1.305h3.044v1.304h1.304v1.304h1.304v1.305h1.304V37h2.609v-1.304h1.304V18.304H27.87z"/>
</svg>
