<svg xmlns="http://www.w3.org/2000/svg" width="54" height="54" fill="none" viewBox="0 0 54 54">
    <path fill="#34313D" stroke="#595467" stroke-width="2" d="M52 3h1v48h-1v1h-1v1H3v-1H2v-1H1V3h1V2h1V1h48v1h1v1z"/>
    <path fill="#938C9E" d="M27.87 18.304V17h-2.61v1.304h-1.304v1.305h-1.304v1.304h-1.304v1.304h-3.044v1.305H17v6.956h1.304v1.305h3.044v1.304h1.304v1.304h1.304v1.305h1.305V37h2.609v-1.304h1.304V18.304H27.87zM31.782 28.74h-1.304v1.304h1.304v-1.305zM33.087 27.435h-1.304v1.304h1.304v-1.304zM34.391 26.13h-1.304v1.305h1.304V26.13zM35.695 24.826h-1.304v1.304h1.304v-1.304zM37 23.522h-1.304v1.304H37v-1.304zM37 28.74h-1.304v1.304H37v-1.305zM35.695 27.435h-1.304v1.304h1.304v-1.304z"/>
    <path fill="#938C9E" d="M34.391 26.13h-1.304v1.305h1.304V26.13zM33.087 24.826h-1.304v1.304h1.304v-1.304zM31.782 23.522h-1.304v1.304h1.304v-1.304z"/>
</svg>
