<svg xmlns="http://www.w3.org/2000/svg" width="28" height="28" fill="none" viewBox="0 0 28 28">
    <path fill="#FDD73B" d="M16.333 0h-4.666v1.12H10.5v2.24H9.333V5.6H8.167v2.24H7v2.24H5.833v2.24H4.667v2.24H3.5v2.24H2.333v2.24H1.167v2.24H0v4.48h1.167v1.12h1.166V28h23.334v-1.12h1.166v-1.12H28v-4.48h-1.167v-2.24h-1.166V16.8H24.5v-2.24h-1.167v-2.24h-1.166v-2.24H21V7.84h-1.167V5.6h-1.166V3.36H17.5V1.12h-1.167V0z"/>
    <path fill="#393441" d="M12.835 21.285v-1.12h2.333v1.12h1.167v2.24h-1.167v1.12h-2.333v-1.12h-1.167v-2.24h1.167zM16.336 7.835h-4.667v1.12h-1.167v5.6h1.167v2.24h1.167v2.24h2.333v-2.24h1.167v-2.24h1.166v-5.6h-1.166v-1.12z"/>
</svg>
