<svg width="23" height="23" viewBox="0 0 23 23" fill="none" xmlns="http://www.w3.org/2000/svg">
<path d="M21.5 9.00001H23V5.99999H21.5V1.49999H20V0H18.5H15.5V1.49999H14V2.99997H9.00001V1.49999H7.50002V0H4.5H3.00002V1.49999H1.49999V5.99999H0V9.00001H1.49999H9.00001V10.5002H1.50035V21.5002H2.99997V23H20V21.5002H21.5003V10.5002H14V8.99996H21.5V9.00001ZM14 4.5H15.5V3.00002H18.5V6.00003H14V4.5ZM9.00001 5.99999H4.5V3.00002H7.50002V4.5H9.00001V5.99999ZM12.5 7V21.5H10.5V9.00001V5.99999H12.5V7Z" fill="#DFDFDF"/>
</svg>
