<svg xmlns="http://www.w3.org/2000/svg" width="29" height="29" fill="none"><path fill="#03E1E4" d="M3.783 0H0v1.891h3.783V0z"/><path fill="#03E1E4" d="M23.956 5.044v2.521h-3.783v9.457H14.5V7.565h-3.782V5.044H5.673V1.89H3.782v5.044h1.891v5.674h1.891v9.457h1.892v-1.892h15.76v-1.891h1.892v-5.674H29V5.044h-5.044zm-9.455 22.065H11.35V29h3.15v-1.891zm10.717 0h-3.153V29h3.152v-1.891zm1.892-3.152h-1.892v3.152h1.892v-3.152z"/><path fill="#03E1E4" d="M22.066 22.066H9.458v5.044h1.89v-3.153h3.153v3.153h1.89v-3.153h3.784v3.153h1.89v-3.153h3.153v-1.891h-3.152zM18.283 1.891V0H16.39v1.891H14.5v1.892h1.891V15.13h1.892V3.783h1.891V1.89h-1.891zM14.5 3.783h-1.892v1.891H14.5V3.783z"/><path fill="#03E1E4" d="M22.065 3.783h-1.892v1.891h1.892V3.783z"/></svg>