<svg xmlns="http://www.w3.org/2000/svg" width="24" height="20" fill="none"><path fill="#7E7DA1" d="M1.519 11.14V9.62h-1.52V3.038h1.52V1.519h1.519V0h5.57v1.519h-1.52v1.519H5.57v1.519H4.05v6.582h1.52v1.52h1.518v1.518H5.57v1.52H0v-1.52h1.52v-1.519h1.519V11.14h-1.52zM20.253 0v1.519h1.52v1.519h1.518V9.62h-1.519v1.52h-1.519v1.518h1.52v1.52h1.518v1.518h-5.57v-1.519h-1.518v-1.519h1.518V11.14h1.52V4.557h-1.52V3.038h-1.518V1.519h-1.52V0h5.57z"/><path fill="#7E7DA1" d="M7.09 12.662v-1.519H5.57V4.561h1.52V3.042h1.518V1.523h6.076v1.519h1.52v1.519h1.518v6.582h-1.519v1.52h-1.519v1.518h1.52v1.52h1.518V20H5.57v-4.3h1.52v-1.519h1.518v-1.519H7.09z"/></svg>