<svg xmlns="http://www.w3.org/2000/svg" width="214" height="155" fill="none"><path stroke="#000" stroke-width="2" d="M10.205 146.026h192.968M0 148.02h213.379m-19.483 3.989H18.555m162.615 1.994H32.207m170.967-3.988H10.206" opacity=".2"/><path fill="#BE4A2F" fill-rule="evenodd" d="M123.489 147.084v-5.605h-2.8v-5.605h-11.201v5.605h2.8v5.605h11.201zm-16.802-11.21h11.202v-5.605h-11.202v5.605zm5.599-5.605h11.202v-5.605h-11.202v5.605zm-5.599-5.605h11.202v-5.605h-11.202v5.605zm2.801-5.605h11.201v-5.605h-11.201v5.605z" clip-rule="evenodd"/><path fill="#FEE761" fill-rule="evenodd" d="M134.692 147.084h2.8v-5.605h-2.8v5.605zm-2.803-5.605h2.801v-5.605h-2.801v5.605zm-2.8-5.605h2.8v-5.605h-2.8v5.605zm5.603-5.605h2.8v-5.605h-2.8v5.605zm-8.402-5.605h2.801v-5.605h-2.801v5.605zm2.799-5.605h2.8v-5.605h-2.8v5.605z" clip-rule="evenodd"/><path fill="#F77622" fill-rule="evenodd" d="M109.488 147.084h2.8v-5.605h-2.8v5.605zm16.802-11.21h-5.6v5.605h2.8v5.605h5.601v-5.605h-2.801v-5.605zm-19.603 5.605h2.801v-5.605h-2.801v5.605zm11.202-5.605h5.601v-5.605h-5.601v5.605zm-14.002 0h2.8v-5.605h-2.8v5.605zm19.603-5.605h5.601v-5.605h-5.601v5.605zm-14.002 0h2.8v-5.605h-2.8v5.605zm8.401-5.605h5.601v-5.605h-5.601v5.605zm-14.002 0h2.8v-5.605h-2.8v5.605zm16.803-5.605h5.6v-5.605h-5.6v5.605zm-14.003 0h2.801v-5.605h-2.801v5.605z" clip-rule="evenodd"/><path fill="#FEAE34" fill-rule="evenodd" d="M129.089 147.084h2.8v-5.605h-2.8v5.605zm8.401 0h2.801v-5.605h-2.801v5.605zm-2.798-5.605h2.8v-5.605h-2.8v5.605zm-8.402 0h2.801v-5.605h-2.801v5.605zm5.599-5.605h2.801v-5.605h-2.801v5.605zm-8.399 0h2.8v-5.605h-2.8v5.605zm5.599-5.605h2.8v-5.605h-2.8v5.605zm8.401 0h2.801v-5.605h-2.801v5.605zm-5.601-5.605h2.801v-5.605h-2.801v5.605zm-8.399 0h2.8v-5.605h-2.8v5.605zm2.8-5.605h2.801v-5.605h-2.801v5.605zm8.402 0h2.8v-5.605h-2.8v5.605z" clip-rule="evenodd"/><path fill="#ECF0F1" fill-rule="evenodd" d="M131.889 147.084h2.801v-5.605h-2.801v5.605zm-2.8-5.605h2.8v-5.605h-2.8v5.605zm-2.799-5.605h2.801v-5.605h-2.801v5.605zm5.599-5.605h2.801v-5.605h-2.801v5.605zm-2.8-5.605h2.8v-5.605h-2.8v5.605zm2.8-5.605h2.801v-5.605h-2.801v5.605z" clip-rule="evenodd"/><path fill="#BE4A2F" fill-rule="evenodd" d="M123.489 113.453v-5.605h-2.8v-5.605h-11.201v5.605h2.8v5.605h11.201zm-16.802-11.21h11.202v-5.605h-11.202v5.605z" clip-rule="evenodd"/><path fill="#BE4A2F" fill-rule="evenodd" d="M109.488 96.638h11.201v-5.606h-11.201v5.606zm2.798-5.606h11.202v-5.605h-11.202v5.605zm-2.798-5.605h11.201v-5.605h-11.201v5.605z" clip-rule="evenodd"/><path fill="#FEE761" fill-rule="evenodd" d="M134.692 113.453h2.8v-5.605h-2.8v5.605zm-2.803-5.605h2.801v-5.605h-2.801v5.605zm-2.8-5.605h2.8v-5.605h-2.8v5.605zm2.8-5.605h2.801v-5.606h-2.801v5.606zm0-5.606h2.801v-5.605h-2.801v5.605zm-2.8-5.605h2.8v-5.605h-2.8v5.605z" clip-rule="evenodd"/><path fill="#F77622" fill-rule="evenodd" d="M109.488 113.453h2.8v-5.605h-2.8v5.605zm16.802-11.21h-5.6v5.605h2.8v5.605h5.601v-5.605h-2.801v-5.605zm-19.603 5.605h2.801v-5.605h-2.801v5.605zm11.202-5.605h5.601v-5.605h-5.601v5.605zm-14.002 0h2.8v-5.605h-2.8v5.605z" clip-rule="evenodd"/><path fill="#F77622" fill-rule="evenodd" d="M120.69 96.638h5.6v-5.606h-5.6v5.606zm-14.003 0h2.801v-5.606h-2.801v5.606zm16.803-5.606h5.601v-5.605h-5.601v5.605zm-14.002 0h2.8v-5.605h-2.8v5.605zm11.202-5.605h5.6v-5.605h-5.6v5.605zm-14.003 0h2.801v-5.605h-2.801v5.605z" clip-rule="evenodd"/><path fill="#FEAE34" fill-rule="evenodd" d="M129.089 113.453h2.8v-5.605h-2.8v5.605zm8.401 0h2.801v-5.605h-2.801v5.605zm-2.798-5.605h2.8v-5.605h-2.8v5.605zm-8.402 0h2.801v-5.605h-2.801v5.605zm5.599-5.605h2.801v-5.605h-2.801v5.605zm-8.399 0h2.8v-5.605h-2.8v5.605zm2.8-5.605h2.801v-5.606h-2.801v5.606zm8.402 0h2.8v-5.606h-2.8v5.606zm2.798-5.606h2.801v-5.605h-2.801v5.605zm-8.401 0h2.8v-5.605h-2.8v5.605z" clip-rule="evenodd"/><path fill="#FEAE34" fill-rule="evenodd" d="M126.29 85.427h2.801v-5.605h-2.801v5.605zm8.402 0h2.8v-5.605h-2.8v5.605z" clip-rule="evenodd"/><path fill="#ECF0F1" fill-rule="evenodd" d="M131.889 113.453h2.801v-5.605h-2.801v5.605zm-2.8-5.605h2.8v-5.605h-2.8v5.605zm-2.799-5.605h2.801v-5.605h-2.801v5.605z" clip-rule="evenodd"/><path fill="#ECF0F1" fill-rule="evenodd" d="M129.089 96.638h2.8v-5.606h-2.8v5.606zm5.603-5.606h2.8v-5.605h-2.8v5.605zm-2.803-5.605h2.801v-5.605h-2.801v5.605z" clip-rule="evenodd"/><path fill="#FEE761" fill-rule="evenodd" d="M21.746 134.004h2.8v-2.802h14.002v5.605h2.8v2.803H18.946v-2.803h2.8v-2.803zm28.004 0h2.8v-2.802h14.002v5.605h2.8v2.803H46.95v-2.803h2.8v-2.803zm-14-11.21v-2.802h2.8v-2.803h2.8v-2.802h14.003v5.605h2.8v2.802H35.75z" clip-rule="evenodd"/><path fill="#F77622" fill-rule="evenodd" d="M86.155 148.018H69.353v-8.408h16.802v8.408zm-36.403-16.816v5.605h-2.8v11.21H41.35v-11.21h-2.8v-5.605h11.2zm25.202-8.408v8.408h8.4v5.605h-16.8v-5.605h-8.401v-8.408h16.802zm-2.801-2.802H55.351v-5.605h16.802v5.605z" clip-rule="evenodd"/><path fill="#FEAE34" fill-rule="evenodd" d="M41.348 148.018H18.946v-8.408h22.402v8.408zm28.005 0H46.95v-8.408h22.403v8.408zm16.802-8.408H69.353v-2.803h16.802v2.803zm-28.002-8.408H35.75v-8.408h22.403v8.408zm16.801-8.408H58.152v-2.802h16.802v2.802z" clip-rule="evenodd"/><path fill="#ECF0F1" fill-rule="evenodd" d="M24.548 134.004h-2.8v-2.802h2.8v2.802zm28.004 0h-2.8v-2.802h2.8v2.802zm-11.204-16.815h-2.8v-2.802h2.8v2.802z" clip-rule="evenodd"/><path fill="#5A6988" fill-rule="evenodd" d="M102.021 134.008h2.8v-19.619h33.605v-2.802h-36.405v2.802h-2.8v16.816h2.8v2.803z" clip-rule="evenodd"/><path fill="#8B9BB4" fill-rule="evenodd" d="M146.828 134.007h5.601v-2.802h-5.601v2.802zm-25.204 0h5.601v-2.802h-5.601v2.802zm19.601-8.407h-8.401v2.802h-2.8v11.21h2.8v2.803h8.401v-2.803h2.8v-11.21h-2.8V125.6z" clip-rule="evenodd"/><path fill="#8B9BB4" fill-rule="evenodd" d="M158.028 142.415h-2.8v2.803h-36.405v-2.803h-2.8V125.6h2.8v-2.803h36.405v2.803h2.8v16.815zm-47.606-2.803v-2.802h-2.8v-16.816h2.8v-2.802h36.405v2.802h-33.605v19.618h-2.8zm-8.401-5.605v-2.802h-2.8v-16.816h2.8v-2.802h36.405v2.802h-33.605v19.618h-2.8zm50.406-14.013v-5.605h-8.401v-5.605H96.42v28.026h8.401v5.605h8.401v5.605h47.606v-28.026h-8.401z" clip-rule="evenodd"/><path fill="#ECF0F1" fill-rule="evenodd" d="M132.825 142.415v-2.802h-2.8v-11.211h2.8V125.6h8.402v2.802h2.8v11.211h-2.8v2.802h-8.402zm-11.201-8.408h5.601v-2.802h-5.601v2.802zm25.203 0h5.601v-2.802h-5.601v2.802zm8.401-11.21h-36.404v2.803h-2.801v16.815h2.801v2.803h36.404v-2.803h2.801V125.6h-2.801v-2.803z" clip-rule="evenodd"/><path fill="#C0CBDC" fill-rule="evenodd" d="M110.424 139.613h2.801v-19.619h33.604v-2.802h-36.405v2.802h-2.8v16.816h2.8v2.803z" clip-rule="evenodd"/><path fill="#B86F50" fill-rule="evenodd" d="M99.223 136.81v2.803h2.8v-2.803h2.8v-2.803h-2.8v-5.605h2.8V125.6h-2.8v-5.606h2.8v-2.802h-2.8v-2.803h-2.8v2.803h-2.8v2.802h2.8v5.606h-2.8v2.802h2.8v5.605h-2.8v2.803h2.8z" clip-rule="evenodd"/><path fill="#B86F50" fill-rule="evenodd" d="M104.822 134.007h2.8v-5.605h-2.8v5.605zm-11.202 0h2.8v-2.802h-2.8v2.802zm11.202-11.21h2.8v-2.802h-2.8v2.802zM93.62 125.6h2.8v-5.605h-2.8v5.605z" clip-rule="evenodd"/><path fill="#3A4466" fill-rule="evenodd" d="M90.82 100.376h5.6v-2.803h-5.6v2.803z" clip-rule="evenodd"/><path fill="#E4A672" fill-rule="evenodd" d="M79.62 148.02v-2.802h2.8v-2.803h2.8v-39.236h2.8v-2.803h-11.2v2.803h-2.8v2.803h-2.8v36.433h-2.801v2.803h-2.8v2.802H79.62zm5.6-61.657v5.605h2.8v2.803h5.602v-8.408H85.22z" clip-rule="evenodd"/><path fill="#EAD4AA" fill-rule="evenodd" d="M102.022 114.389v2.803h2.801v2.802h2.8v2.803h-2.8v-2.803h-2.801v5.606h2.801v2.802h2.8v5.605h-2.8v2.803h-2.801v2.803h-2.8v-2.803h-2.8v-2.803h-2.8v-2.802h2.8v2.802h2.8v-5.605h-2.8V125.6h-2.8v-5.606h2.8v-2.802h2.8v-2.803h2.8zm22.403 28.026h-2.8v-36.433h-2.801v-2.803h-2.8v-2.803h-14.002v11.211h-2.8v-5.605h-2.8v-5.606H88.02v2.803h-2.8v39.236h-2.8v2.803h-2.8v2.802h47.606v-2.802h-2.801v-2.803z" clip-rule="evenodd"/><path fill="#EAD4AA" fill-rule="evenodd" d="M102.021 134.007h2.801v-5.605h-2.801v5.605zm-5.599-8.407h2.8v-5.605h-2.8v5.605zm11.2-30.829v-2.803h2.8v-5.605H93.62v8.408h14.002z" clip-rule="evenodd"/><path fill="#5A6988" fill-rule="evenodd" d="M96.422 105.981h2.8v-8.407h-2.8v8.407zm5.599-5.605h2.801v-2.803h-2.801v2.803zM90.82 97.573h5.6v-2.802h-5.6v2.802z" clip-rule="evenodd"/><path fill="#8B9BB4" fill-rule="evenodd" d="M99.22 111.587h2.801v-11.211h-2.8v11.211zm-2.798-14.014h8.401v-2.802h-8.4v2.802z" clip-rule="evenodd"/><path fill="#C0CBDC" fill-rule="evenodd" d="M99.22 100.376h2.801v-2.803h-2.8v2.803z" clip-rule="evenodd"/><path fill="#BE4A2F" fill-rule="evenodd" d="M177.631 148.017v-5.605h-2.801v-5.605h-11.201v5.605h2.8v5.605h11.202zm-16.803-11.21h11.202v-5.605h-11.202v5.605zm5.599-5.605h11.202v-5.605h-11.202v5.605zm-5.599-5.605h11.202v-5.605h-11.202v5.605z" clip-rule="evenodd"/><path fill="#BE4A2F" fill-rule="evenodd" d="M163.629 119.992h11.201v-5.605h-11.201v5.605z" clip-rule="evenodd"/><path fill="#FEE761" fill-rule="evenodd" d="M188.833 148.018h2.8v-5.605h-2.8v5.605zm-2.803-5.606h2.801v-5.605h-2.801v5.605zm-2.8-5.605h2.8v-5.605h-2.8v5.605zm5.603-5.605h2.8v-5.605h-2.8v5.605zm-8.401-5.605h2.8v-5.605h-2.8v5.605zm2.798-5.605h2.8v-5.605h-2.8v5.605z" clip-rule="evenodd"/><path fill="#F77622" fill-rule="evenodd" d="M163.629 148.018h2.8v-5.605h-2.8v5.605zm16.802-11.211h-5.6v5.605h2.8v5.605h5.601v-5.605h-2.801v-5.605zm-19.603 5.605h2.801v-5.605h-2.801v5.605zm11.202-5.605h5.601v-5.605h-5.601v5.605zm-14.002 0h2.8v-5.605h-2.8v5.605zm19.603-5.605h5.601v-5.605h-5.601v5.605zm-14.002 0h2.8v-5.605h-2.8v5.605zm8.401-5.605h5.601v-5.605h-5.601v5.605zm-14.002 0h2.8v-5.605h-2.8v5.605z" clip-rule="evenodd"/><path fill="#F77622" fill-rule="evenodd" d="M174.831 119.992h5.6v-5.605h-5.6v5.605zm-14.003 0h2.801v-5.605h-2.801v5.605z" clip-rule="evenodd"/><path fill="#FEAE34" fill-rule="evenodd" d="M183.23 148.018h2.8v-5.605h-2.8v5.605zm8.401 0h2.801v-5.605h-2.801v5.605zm-2.798-5.606h2.8v-5.605h-2.8v5.605zm-8.401 0h2.8v-5.605h-2.8v5.605zm5.598-5.605h2.801v-5.605h-2.801v5.605zm-8.399 0h2.8v-5.605h-2.8v5.605zm5.599-5.605h2.8v-5.605h-2.8v5.605zm8.401 0h2.801v-5.605h-2.801v5.605zm-5.601-5.605h2.801v-5.605h-2.801v5.605zm-8.399 0h2.8v-5.605h-2.8v5.605zm2.801-5.605h2.8v-5.605h-2.8v5.605zm8.401 0h2.8v-5.605h-2.8v5.605z" clip-rule="evenodd"/><path fill="#ECF0F1" fill-rule="evenodd" d="M186.03 148.018h2.801v-5.605h-2.801v5.605zm-2.8-5.606h2.8v-5.605h-2.8v5.605zm-2.798-5.605h2.8v-5.605h-2.8v5.605zm5.598-5.605h2.801v-5.605h-2.801v5.605zm-2.8-5.605h2.8v-5.605h-2.8v5.605zm2.8-5.605h2.801v-5.605h-2.801v5.605z" clip-rule="evenodd"/><path stroke="#FEE861" d="M77.363 24.639V9.641" opacity=".5"/><path stroke="#FDAE35" d="M84.352 24.639V4.821M177.3 58.169V38.351" opacity=".2"/><path stroke="#BF4830" d="M71.448 17.14V0" opacity=".2"/><path stroke="#BF4830" d="M70.911 24.103v-4.821" opacity=".5"/><path stroke="#BF4830" d="M159.29 20.672V9.423" opacity=".2"/><path stroke="#BF4830" d="M159.29 26.176v-4.821m5.646 37.35v-4.821" opacity=".3"/><path stroke="#FDAE35" d="M109.061 36.151V21.154" opacity=".5"/><path stroke="#FEE861" d="M119.276 32.938V17.941" opacity=".3"/><path stroke="#FDAE35" d="M126.267 32.938V13.12" opacity=".5"/><path stroke="#FEE861" d="M131.106 35.081v-5.357" opacity=".1"/><path stroke="#FEE861" d="M131.106 24.904v-9.642M173 56.562V50.67" opacity=".5"/><path stroke="#FEE861" d="M149.078 26.712v-9.641m20.16 39.491v-9.641" opacity=".3"/><path stroke="#FEE861" d="M153.915 23.498V10.643" opacity=".5"/><path stroke="#BF4830" d="M52.751 74.905V63.657m4.302 12.855v-4.821" opacity=".5"/><path stroke="#FEE861" d="M48.453 77.047v-9.641" opacity=".5"/><path stroke="#BF4830" d="M114.44 22.226V11.513m0 22.496v-6.427" opacity=".5"/><path fill="#FDAE35" fill-rule="evenodd" d="M85.996 34.213v-1.659h-1.664v-1.659h-3.327v-1.659h-8.32v1.66h-3.327v1.658h-1.664v1.66H66.03v14.93h1.664v1.66h1.664v1.658h3.328v1.66h8.319v-1.66h3.327v-1.659h1.664v-1.659h1.664v-14.93h-1.664z" clip-rule="evenodd"/><path fill="#BF4830" fill-rule="evenodd" d="M83.917 39.19v-1.66h-1.664v-1.658h-1.664v-1.66h-1.664v1.66h-1.664v-1.66h-1.663v1.66h-1.664v1.659H72.27v3.318h1.664v1.659h6.655v3.318h-4.991v-1.66H72.27v1.66h1.664v1.659h1.664v1.659h1.663v-1.66h1.664v1.66h1.664v-1.66h1.664v-1.658h1.664v-3.318h-1.664v-1.66h-6.655v-3.317h4.991v1.659h3.328z" clip-rule="evenodd"/><path fill="#FEE861" fill-rule="evenodd" d="M72.689 30.895h8.319v-1.66h-8.32v1.66z" clip-rule="evenodd"/><path fill="#FEE861" fill-rule="evenodd" d="M81.004 32.554h3.328v-1.66h-3.328v1.66zm3.331 1.659h1.663v-1.659h-1.663v1.66zm1.663 14.931h1.663V34.213h-1.663v14.93zm-1.663 1.659h1.663v-1.66h-1.663v1.66zm-3.331 1.659h3.328v-1.659h-3.328v1.659zm-8.315 1.659h8.319v-1.659h-8.32v1.659zm-3.33-1.659h3.327v-1.659h-3.328v1.659zm-1.662-1.659h1.664v-1.66h-1.664v1.66zm-1.667-1.659h1.664V34.213H66.03v14.93zm1.667-14.931h1.664v-1.659h-1.664v1.66zm1.662-1.659h3.327v-1.66h-3.328v1.66z" clip-rule="evenodd"/><path fill="#BF4830" fill-rule="evenodd" d="M81.004 30.895h3.328v-1.66h-3.328v1.66zm-11.645 3.318h1.663v-1.659H69.36v1.66zm0 16.59h1.663v-1.66H69.36v1.66zm3.33 1.659h1.664v-1.659h-1.664v1.659zm11.646-19.908h3.327v-1.66h-3.328v1.66zm1.663 1.659h3.327v-1.659h-3.327v1.66zm0 16.59h3.327v-1.66h-3.327v1.66zm-1.663 1.659h3.327v-1.659h-3.328v1.659zm-3.331 1.659h3.328v-1.659h-3.328v1.659zm-8.315-21.567h1.664v-1.66h-1.664v1.66z" clip-rule="evenodd"/><path fill="#BF4830" fill-rule="evenodd" d="M67.697 49.144h1.664V34.213h-1.664v14.93zm19.966 0h3.327V34.213h-3.327v14.93z" clip-rule="evenodd"/><path fill="#FDAE35" fill-rule="evenodd" d="M164.309 79.046v1.44h1.444v1.439h2.888v1.44h7.219v-1.44h2.887v-1.44h1.444v-1.44h1.444V66.09h-1.444v-1.44h-1.444v-1.44h-2.887v-1.44h-7.219v1.44h-2.888v1.44h-1.444v1.44h-1.443v12.956h1.443z" clip-rule="evenodd"/><path fill="#BF4830" fill-rule="evenodd" d="M166.113 74.727v1.44h1.443v1.44H169v1.44h1.444v-1.44h1.444v1.44h1.444v-1.44h1.443v-1.44h1.444v-2.88h-1.444v-1.439H169v-2.88h4.332v1.44h2.887v-1.44h-1.444V67.53h-1.443v-1.44h-1.444v1.44h-1.444v-1.44H169v1.44h-1.444v1.44h-1.443v2.879h1.443v1.44h5.776v2.879H169v-1.44h-2.887z" clip-rule="evenodd"/><path fill="#FEE861" fill-rule="evenodd" d="M175.859 81.925h-7.219v1.44h7.219v-1.44zm-7.219-1.439h-2.888v1.44h2.888v-1.44zm-2.888-1.44h-1.444v1.44h1.444v-1.44zm-1.445-12.956h-1.444v12.956h1.444V66.09zm1.445-1.44h-1.444v1.44h1.444v-1.44zm2.888-1.44h-2.888v1.44h2.888v-1.44zm7.219-1.44h-7.219v1.44h7.219v-1.44zm2.89 1.44h-2.888v1.44h2.888v-1.44zm1.443 1.44h-1.444v1.44h1.444v-1.44zm1.443 1.44h-1.444v12.956h1.444V66.09zm-1.443 12.956h-1.444v1.44h1.444v-1.44zm-1.443 1.44h-2.888v1.44h2.888v-1.44z" clip-rule="evenodd"/><path fill="#BF4830" fill-rule="evenodd" d="M168.64 81.925h-2.888v1.44h2.888v-1.44zm10.109-2.879h-1.444v1.44h1.444v-1.44zm0-14.396h-1.444v1.44h1.444v-1.44zm-2.89-1.44h-1.444v1.44h1.444v-1.44z" clip-rule="evenodd"/><path fill="#BF4830" fill-rule="evenodd" d="M165.752 80.486h-2.888v1.44h2.888v-1.44zm-1.445-1.44h-2.888v1.44h2.888v-1.44zm0-14.396h-2.888v1.44h2.888v-1.44zm1.445-1.44h-2.888v1.44h2.888v-1.44zm2.888-1.44h-2.888v1.44h2.888v-1.44zm7.219 18.716h-1.444v1.44h1.444v-1.44zm4.333-14.396h-1.444v12.956h1.444V66.09zm-17.328 0h-2.888v12.956h2.888V66.09z" clip-rule="evenodd"/><path fill="#FDAE35" fill-rule="evenodd" d="M159.441 32.533v-1.097h-1.1v-1.097h-2.201v-1.097h-5.5v1.097h-2.2v1.097h-1.1v1.097h-1.1v9.871h1.1v1.097h1.1v1.097h2.2v1.097h5.5v-1.097h2.201v-1.097h1.1v-1.097h1.1v-9.871h-1.1z" clip-rule="evenodd"/><path fill="#BF4830" fill-rule="evenodd" d="M158.067 35.823v-1.097h-1.1V33.63h-1.1v-1.097h-1.1v1.097h-1.1v-1.097h-1.1v1.097h-1.1v1.096h-1.1v2.194h1.1v1.097h4.4v2.194h-3.3v-1.097h-2.2v1.097h1.1v1.097h1.1v1.096h1.1v-1.096h1.1v1.096h1.1v-1.096h1.1V40.21h1.1v-2.194h-1.1V36.92h-4.4v-2.194h3.3v1.097h2.2z" clip-rule="evenodd"/><path fill="#FEE861" fill-rule="evenodd" d="M150.641 30.339h5.501v-1.097h-5.501v1.097zm5.5 1.097h2.2v-1.097h-2.2v1.097zm2.201 1.097h1.1v-1.097h-1.1v1.097zm1.102 9.871h1.1v-9.871h-1.1v9.871zm-1.102 1.097h1.1v-1.097h-1.1v1.097zm-2.201 1.097h2.2v-1.097h-2.2v1.097zm-5.5 1.097h5.501v-1.097h-5.501v1.097zm-2.2-1.097h2.2v-1.097h-2.2v1.097zm-1.099-1.097h1.1v-1.097h-1.1v1.097zm-1.102-1.097h1.1v-9.871h-1.1v9.871zm1.102-9.871h1.1v-1.097h-1.1v1.097zm1.099-1.097h2.2v-1.097h-2.2v1.097z" clip-rule="evenodd"/><path fill="#BF4830" fill-rule="evenodd" d="M156.141 30.339h2.2v-1.097h-2.2v1.097zm-7.7 2.194h1.1v-1.097h-1.1v1.097zm0 10.968h1.1v-1.097h-1.1v1.097zm2.2 1.097h1.1v-1.097h-1.1v1.097zm7.701-13.162h2.2v-1.097h-2.2v1.097zm1.102 1.097h2.2v-1.097h-2.2v1.097zm0 10.968h2.2v-1.097h-2.2v1.097zm-1.102 1.097h2.2v-1.097h-2.2v1.097zm-2.201 1.097h2.2v-1.097h-2.2v1.097zm-5.5-14.259h1.1v-1.097h-1.1v1.097z" clip-rule="evenodd"/><path fill="#BF4830" fill-rule="evenodd" d="M147.342 42.404h1.1v-9.871h-1.1v9.871zm13.198 0h2.2v-9.871h-2.2v9.871z" clip-rule="evenodd"/><path fill="#FDAE35" fill-rule="evenodd" d="M57.85 82.868V81.77h-1.1v-1.097h-2.2v-1.097h-5.5v1.097h-2.2v1.097h-1.1v1.097h-1.1v9.871h1.1v1.097h1.1v1.097h2.2v1.097h5.5v-1.097h2.2v-1.097h1.1V92.74h1.1v-9.871h-1.1z" clip-rule="evenodd"/><path fill="#BF4830" fill-rule="evenodd" d="M56.476 86.158v-1.097h-1.1v-1.097h-1.1v-1.096h-1.1v1.096h-1.1v-1.096h-1.1v1.096h-1.1v1.097h-1.1v2.194h1.1v1.097h4.4v2.194h-3.3v-1.097h-2.2v1.097h1.1v1.096h1.1v1.097h1.1v-1.097h1.1v1.097h1.1v-1.097h1.1v-1.096h1.1v-2.194h-1.1v-1.097h-4.4v-2.194h3.3v1.097h2.2z" clip-rule="evenodd"/><path fill="#FEE861" fill-rule="evenodd" d="M49.049 80.674h5.5v-1.097h-5.5v1.097zm5.501 1.096h2.2v-1.096h-2.2v1.097z" clip-rule="evenodd"/><path fill="#FEE861" fill-rule="evenodd" d="M56.749 82.868h1.1V81.77h-1.1v1.097zm1.102 9.872h1.1v-9.872h-1.1v9.871zm-1.102 1.096h1.1v-1.097h-1.1v1.097zm-2.199 1.097h2.2v-1.097h-2.2v1.097zm-5.501 1.097h5.5v-1.097h-5.5v1.097zm-2.199-1.097h2.2v-1.097h-2.2v1.097zm-1.1-1.097h1.1v-1.097h-1.1v1.097zm-1.1-1.096h1.1v-9.872h-1.1v9.871zm1.1-9.872h1.1V81.77h-1.1v1.097zm1.1-1.098h2.2v-1.096h-2.2v1.097z" clip-rule="evenodd"/><path fill="#BF4830" fill-rule="evenodd" d="M54.55 80.674h2.2v-1.097h-2.2v1.097zm-7.7 2.194h1.1V81.77h-1.1v1.097zm0 10.968h1.1v-1.097h-1.1v1.097zm2.199 1.097h1.1v-1.097h-1.1v1.097z" clip-rule="evenodd"/><path fill="#BF4830" fill-rule="evenodd" d="M56.749 81.77h2.2v-1.096h-2.2v1.097z" clip-rule="evenodd"/><path fill="#BF4830" fill-rule="evenodd" d="M57.851 82.868h2.2V81.77h-2.2v1.097zm0 10.968h2.2v-1.097h-2.2v1.097zm-1.102 1.097h2.2v-1.097h-2.2v1.097zM54.55 96.03h2.2v-1.097h-2.2v1.097zm-5.501-14.26h1.1v-1.096h-1.1v1.097zM45.75 92.74h1.1v-9.872h-1.1v9.871z" clip-rule="evenodd"/><path fill="#BF4830" fill-rule="evenodd" d="M58.95 92.74h2.2v-9.872h-2.2v9.871z" clip-rule="evenodd"/><path fill="#FDAE35" fill-rule="evenodd" d="M111.232 63.135v2.098h2.103v2.098h4.208v2.098h10.519V67.33h4.208v-2.098h2.104v-2.098h2.104v-18.88h-2.104v-2.097h-2.104V40.06h-4.208v-2.098h-10.519v2.098h-4.208v2.098h-2.103v2.098h-2.104v18.88h2.104z" clip-rule="evenodd"/><path fill="#BF4830" fill-rule="evenodd" d="M113.86 56.842v2.098h2.103v2.098h2.104v2.097h2.104v-2.097h2.104v2.097h2.104v-2.097h2.104V58.94h2.103v-4.196h-2.103v-2.097h-8.416V48.45h6.312v2.098h4.207V48.45h-2.103v-2.098h-2.104v-2.098h-2.104v2.098h-2.104v-2.098h-2.104v2.098h-2.104v2.098h-2.103v4.196h2.103v2.097h8.416v4.196h-6.312v-2.098h-4.207z" clip-rule="evenodd"/><path fill="#FEE861" fill-rule="evenodd" d="M128.059 67.33H117.54v2.099h10.519V67.33zm-10.519-2.097h-4.207v2.097h4.207v-2.097zm-4.204-2.098h-2.104v2.098h2.104v-2.098zm-2.105-18.88h-2.104v18.88h2.104v-18.88zm2.105-2.097h-2.104v2.098h2.104v-2.098zm4.204-2.098h-4.207v2.098h4.207V40.06zm10.519-2.098H117.54v2.098h10.519v-2.098zm4.21 2.098h-4.208v2.098h4.208V40.06zm2.103 2.098h-2.104v2.098h2.104v-2.098zm2.106 2.097h-2.104v18.88h2.104v-18.88zm-2.106 18.88h-2.104v2.098h2.104v-2.098zm-2.103 2.098h-4.208v2.097h4.208v-2.097z" clip-rule="evenodd"/><path fill="#BF4830" fill-rule="evenodd" d="M117.54 67.33h-4.207v2.099h4.207V67.33zm14.729-4.195h-2.104v2.098h2.104v-2.098zm0-20.977h-2.104v2.098h2.104v-2.098zm-4.21-2.098h-2.104v2.098h2.104V40.06zm-14.723 25.173h-4.208v2.097h4.208v-2.097zm-2.105-2.098h-4.208v2.098h4.208v-2.098zm0-20.977h-4.208v2.098h4.208v-2.098zm2.105-2.098h-4.208v2.098h4.208V40.06zm4.204-2.098h-4.207v2.098h4.207v-2.098zm10.519 27.271h-2.104v2.097h2.104v-2.097z" clip-rule="evenodd"/><path fill="#BF4830" fill-rule="evenodd" d="M134.372 44.255h-2.104v18.88h2.104v-18.88zm-25.248 0h-4.208v18.88h4.208v-18.88z" clip-rule="evenodd"/></svg>