<svg xmlns="http://www.w3.org/2000/svg" width="30" height="29" fill="none"><path fill="#362E3D" d="M23.328 7.565h-4.414V5.674h4.413v1.89zm0 6.305h-4.414v-1.892h4.413v1.891zm1.892-1.893h-1.891V7.564h1.891v4.413zm-6.314 0h-1.89V7.564h1.89v4.413zM12.611 1.891H8.828V0h3.783v1.891zm0 5.674H8.828V5.674h3.783v1.89zm1.893-1.891h-1.892V1.89h1.892v3.783zm-5.682 0H6.931V1.89h1.891v3.783zM5.674 15.76H0V29h5.674V15.76zm16.396 1.892v1.891h-2.522v1.892h-7.566v-1.892h7.566v-3.782H7.569v11.348h1.892V29h10.087v-1.891h3.782v-1.892h1.892v-1.891h1.89v-1.891h1.892v-3.783H22.07z"/></svg>