<svg xmlns="http://www.w3.org/2000/svg" width="27" height="32" fill="none"><path fill="#7E7DA0" fill-rule="evenodd" d="M0 20.267h1.067V19.2H3.2V16h1.067v-2.133H3.2v-2.134h3.2V12.8h1.067v1.067h1.066V12.8H19.2v1.067h2.133v1.066H22.4v2.134h1.067v1.066h1.066v3.2H25.6V22.4h-1.067v1.067h-1.067V25.6H22.4v1.067h-1.067v1.066h-1.066v3.2H19.2V32h-2.133v-1.067H16V28.8H9.6v2.133H8.533V32H6.4v-1.067H5.333v-3.2H4.267v-1.066H3.2V25.6H1.067v-1.067H0v-4.266zm25.6 1.066v-1.066h1.066v1.066H25.6zm-14.933-7.466h6.4v1.066h-6.4v-1.066zm-4.267 3.2H5.333V19.2H6.4v-2.133z" clip-rule="evenodd"/><path fill="#7E7DA0" d="M12.801 6.4h1.067v3.2h-1.067zm4.266 0h1.067v3.2h-1.067zm-3.2-1.067h3.2V6.4h-3.2z"/><path fill="#7E7DA0" d="M13.867 9.6h3.2v1.067h-3.2zM9.602 1.066h1.067v2.133H9.602zm3.199 0h1.067v2.133h-1.067z"/><path fill="#7E7DA0" d="M10.668 0h2.133v1.067h-2.133zm0 3.2h2.133v1.067h-2.133z"/></svg>