<svg xmlns="http://www.w3.org/2000/svg" width="16" height="16" fill="none" viewBox="0 0 16 16">
    <path fill="#03E1E4" d="M12.868 4.175h-2.435V3.13h2.435v1.044zM12.868 7.653h-2.435V6.61h2.435v1.043zM13.912 6.61h-1.043V4.173h1.043V6.61z"/>
    <path fill="#03E1E4" d="M10.434 6.61H9.39V4.173h1.044V6.61zM6.956 1.044H4.869V0h2.087v1.044zM6.956 4.175H4.869V3.13h2.087v1.044z"/>
    <path fill="#03E1E4" d="M7.996 3.132H6.953V1.045h1.043v2.087zM4.871 3.132H3.828V1.045h1.043v2.087zM3.13 8.696H0V16h3.13V8.696zM12.171 9.74v1.043h-1.39v1.043H6.605v-1.043h4.174V8.696H4.172v6.26h1.043V16h5.565v-1.043h2.087v-1.044h1.043V12.87h1.044v-1.044h1.043V9.74h-3.826z"/>
</svg>
