<svg xmlns="http://www.w3.org/2000/svg" width="22" height="22" fill="none"><path fill="#03E1E4" d="M20.565 8.13V6.696H19.13V1.435h-1.434v16.739h1.434v-5.26h1.435v-1.436H19.13V8.13h1.435zM17.696 0h-2.87v1.435h2.87V0zm0 18.174h-2.87v1.435h2.87v-1.435zM13.391 2.87h-2.87v1.434h2.87V2.87zm0 12.434h-2.87v1.435h2.87v-1.435z"/><path fill="#03E1E4" d="M10.522 5.74V4.303H2.87V5.74H1.435v1.435H0v5.26h1.435v1.436H2.87v6.695h1.434v-5.26h2.87v5.26h1.435v-5.26h1.913V13.87H6.696V5.74h3.826zm4.304-4.305h-1.435V2.87h1.435V1.435zm0 15.305h-1.435v1.434h1.435v-1.435z"/><path fill="#03E1E4" d="M7.174 20.565h-2.87V22h2.87v-1.435zM22 8.13h-1.435v3.348H22V8.13z"/></svg>