<svg xmlns="http://www.w3.org/2000/svg" width="40" height="40" fill="none"><path fill="#7E7DA1" d="M4 2h32v32H4z" filter="url(#a)"/><path fill="#fff" d="M11.304 11.913v-1.304h1.305V9.304h1.304V8h8.26v1.304h1.305v1.305h1.305v1.304h1.304v9.565h1.304v1.305h1.305v1.304H30v2.609h-1.304V28h-2.609v-1.304h-1.304V25.39h-1.305v-1.304h-9.565v-1.304h-1.304v-1.305h-1.305v-1.304H10v-8.261h1.304zm1.305 6.957h1.304v1.304h1.304v1.304h5.653v-1.304h1.304V18.87h1.304v-5.653h-1.304v-1.304H20.87v-1.304h-5.653v1.304h-1.304v1.304h-1.304v5.653z"/><defs><filter id="a" width="40" height="40" x="0" y="0" color-interpolation-filters="sRGB" filterUnits="userSpaceOnUse"><feFlood flood-opacity="0" result="BackgroundImageFix"/><feColorMatrix in="SourceAlpha" values="0 0 0 0 0 0 0 0 0 0 0 0 0 0 0 0 0 0 127 0"/><feOffset dy="2"/><feGaussianBlur stdDeviation="2"/><feColorMatrix values="0 0 0 0 0 0 0 0 0 0 0 0 0 0 0 0 0 0 0.25 0"/><feBlend in2="BackgroundImageFix" result="effect1_dropShadow"/><feBlend in="SourceGraphic" in2="effect1_dropShadow" result="shape"/></filter></defs></svg>