<svg xmlns="http://www.w3.org/2000/svg" width="40" height="42" fill="none" viewBox="0 0 40 42">
    <path fill="#F77622" fill-rule="evenodd" d="M7.274 42h1.818v-1.827H7.274V42zM16.363 38.348v1.825h-3.637V42h5.455v-1.827H20v-1.825h-3.636zM10.908 40.173h1.818v-1.825h-1.818v1.825zM23.634 29.217h1.82v-1.826h-1.82v1.826zM25.454 27.391h1.82v-1.826h-1.82v1.826z" clip-rule="evenodd"/>
    <path fill="#F77622" fill-rule="evenodd" d="M27.27 25.565h1.818v-1.826h-1.817v1.826zM29.093 23.74h1.817v-1.827h-1.817v1.826z" clip-rule="evenodd"/>
    <path fill="#F77622" fill-rule="evenodd" d="M18.183 3.652h14.545V1.826H7.274v1.826h9.091v18.26h-1.818v1.827h1.818v1.826h1.818v1.826h1.818v3.653h3.636v-1.827H21.82v-1.826h1.818v-1.826h1.819v-1.826h1.818v-1.826h-9.091V3.653zM32.727 18.26h1.817v-1.826h-1.817v1.827zM34.543 16.434h1.818v-1.826h-1.818v1.826zM36.363 14.609h1.818V7.304h-1.818v7.305zM36.363 5.478h1.818V3.652h-1.818v1.826z" clip-rule="evenodd"/>
    <path fill="#BE4A2F" fill-rule="evenodd" d="M9.09 42h3.637v-1.827H9.09V42zM12.726 40.173h3.637v-1.825h-3.637v1.825zM18.182 38.348H20V27.39h-1.818v10.957z" clip-rule="evenodd"/>
    <path fill="#BE4A2F" fill-rule="evenodd" d="M16.366 27.391h1.818v-1.826h-1.818v1.826zM14.544 25.565h1.819v-1.826h-1.819v1.826z" clip-rule="evenodd"/>
    <path fill="#BE4A2F" fill-rule="evenodd" d="M14.556 3.654H10.92v18.26h1.817v1.827h1.819V3.654zM0 14.609h1.818V3.652H0V14.61z" clip-rule="evenodd"/>
    <path fill="#FEE761" fill-rule="evenodd" d="M27.27 42h1.818v-1.827h-1.817V42zM23.634 40.173h3.638v-1.825h-3.638v1.825zM21.818 38.348h1.818v-7.304h-1.818v7.304zM38.18 14.609H40v-1.826H38.18v1.826zM38.18 7.304H40V3.652H38.18v3.652zM25.454 21.913h3.637V3.653h-3.637v18.26zM27.27 1.826h3.636V0h-3.635v1.826z" clip-rule="evenodd"/>
    <path fill="#D77643" fill-rule="evenodd" d="M5.456 42h1.819v-1.827H5.456V42zM9.09 40.173h1.819v-1.825H9.09v1.825zM16.365 25.565h-1.818v-1.826h-1.819v-1.826H10.91V3.653H7.274v1.825h1.818v1.826H7.274v10.957h1.818v1.826H7.274v1.826h1.818v1.826h1.818v1.826h1.818v1.826h1.819v1.826h1.818v9.13h1.818V27.392h-1.818v-1.826z" clip-rule="evenodd"/>
    <path fill="#D77643" fill-rule="evenodd" d="M5.456 20.087h1.819v-1.826H5.456v1.826zM3.636 18.26h1.818v-1.826H3.636v1.827zM1.818 16.434h1.819v-1.826H1.818v1.826z" clip-rule="evenodd"/>
    <path fill="#FEAE34" fill-rule="evenodd" d="M30.906 40.173v-1.825h-3.635v1.825h1.817V42h5.454v-1.827h-3.636z" clip-rule="evenodd"/>
    <path fill="#FEAE34" fill-rule="evenodd" d="M23.636 40.174v-1.826H21.82v-7.304H20v9.13h-1.818V42h9.092v-1.826h-3.638zM21.818 29.217h1.818v-1.826h-1.818v1.826zM23.634 27.391h1.82v-1.826h-1.82v1.826zM25.454 25.565h1.82v-1.826h-1.82v1.826z" clip-rule="evenodd"/>
    <path fill="#FEAE34" fill-rule="evenodd" d="M27.27 23.74h1.818v-1.827h-1.817v1.826zM7.274 20.087h1.818v-1.826H7.274v1.826zM34.543 18.26h1.818v-1.826h-1.818v1.827zM5.456 18.26h1.819v-1.826H5.456v1.827zM36.363 16.434h1.818v-1.826h-1.818v1.826zM3.636 16.434h1.818v-1.826H3.636v1.826zM38.18 12.783H40V7.304H38.18v5.479z" clip-rule="evenodd"/>
    <path fill="#FEAE34" fill-rule="evenodd" d="M32.729 5.478V3.652h-3.636v18.26h3.636v-1.825h1.818v-1.826h-1.818V7.304h5.455V5.478h-5.455zM3.637 5.478V3.652H1.818V14.61h1.819V7.304H9.09V5.478H3.637zM18.182 21.913h7.273V3.653h-7.273v18.26zM14.544 21.913h1.819V3.653h-1.819v18.26zM30.91 1.826h3.637V0H30.91v1.826zM5.456 1.826h21.819V0H5.456v1.826z" clip-rule="evenodd"/>
</svg>
