<svg xmlns="http://www.w3.org/2000/svg" width="34" height="37" fill="none" viewBox="0 0 34 37">
    <path fill="#9B9B9B" fill-rule="evenodd" d="M14.713 31.45h-1.84v1.85H9.196v1.85H5.517V37h7.357v-1.85h1.84V33.3h1.838v-7.4h-1.839v5.55zM9.195 25.9h3.679V1.85h-1.839V0h-3.68v1.85h1.84V3.7h-1.84v1.85h1.84v11.1h-1.84v1.85h1.84v7.4z" clip-rule="evenodd"/>
    <path fill="#EFEFEF" fill-rule="evenodd" d="M23.907 33.3h-1.839v-1.85h-1.84v3.7h1.84V37h3.679v-1.85h-1.84V33.3z" clip-rule="evenodd"/>
    <path fill="#EFEFEF" fill-rule="evenodd" d="M18.392 31.45h1.84v-3.7h-1.84v3.7zM31.266 12.95h1.84V7.4h-1.84v5.55zM22.07 24.05h1.838V3.7H22.07v20.35zM1.839 12.95h1.84V7.4h-1.84v5.55zM22.07 1.85h3.678V0h-3.679v1.85z" clip-rule="evenodd"/>
    <path fill="#BABABA" fill-rule="evenodd" d="M7.356 24.05h1.84V18.5h-1.84v5.55zM5.517 18.5h1.839v-1.85h-1.84v1.85zM7.356 16.65h1.84V5.55h-1.84v11.1zM29.427 16.65h1.84V5.55h-1.84v11.1zM5.517 5.55h1.839V3.7h-1.84v1.85zM0 18.5h1.839V3.7H0v14.8zM16.55 1.85V0h-5.516v1.85h1.839V25.9h3.678v1.85h3.678V25.9h5.518v-1.85h-9.196V3.7h11.035V1.85H16.55zM7.356 3.7h1.84V1.85h-1.84V3.7zM5.517 1.85h1.839V0h-1.84v1.85z" clip-rule="evenodd"/>
    <path fill="#D0D0D0" fill-rule="evenodd" d="M25.75 37h3.678v-1.85h-3.679V37zM23.909 35.15h1.84V33.3h-1.84v1.85zM20.23 31.45h-1.84v-3.7h-1.839v5.55h-1.839v1.85h-1.84V37h9.197v-1.85h-1.84v-3.7zM3.679 12.95h-1.84v5.55h3.678v-1.85H3.68v-3.7zM23.909 3.7v20.35h3.678V18.5h5.518v-5.55h-1.84v3.7h-3.678V5.55h3.678V7.4h1.84V3.7h-9.196zM16.55 24.05h5.519V3.7H16.55v20.35zM1.839 3.7v3.7h1.84V5.55h1.838V3.7H1.84zM25.75 1.85h3.678V0h-3.679v1.85zM16.55 1.85h5.519V0H16.55v1.85z" clip-rule="evenodd"/>
</svg>
