<svg xmlns="http://www.w3.org/2000/svg" width="23" height="26" fill="none" viewBox="0 0 23 26">
    <path fill="#9B9B9B" fill-rule="evenodd" d="M10.223 22.1H8.945v1.3H6.389v1.3H3.834V26h5.11v-1.3h1.279v-1.3H11.5v-5.2h-1.277v3.9zM6.387 18.2h2.556V1.3H7.665V0H5.11v1.3h1.278v1.3H5.11v1.3h1.278v7.8H5.11V13h1.278v5.2z" clip-rule="evenodd"/>
    <path fill="#EFEFEF" fill-rule="evenodd" d="M16.61 23.4h-1.278v-1.3h-1.278v2.6h1.278V26h2.556v-1.3H16.61v-1.3z" clip-rule="evenodd"/>
    <path fill="#EFEFEF" fill-rule="evenodd" d="M12.777 22.1h1.278v-2.6h-1.278v2.6zM21.722 9.1H23V5.2h-1.278v3.9zM15.332 16.9h1.277V2.6h-1.277v14.3zM1.28 9.1h1.277V5.2H1.28v3.9zM15.332 1.3h2.555V0h-2.555v1.3z" clip-rule="evenodd"/>
    <path fill="#BABABA" fill-rule="evenodd" d="M5.11 16.9h1.277V13H5.11v3.9zM3.834 13H5.11v-1.3H3.834V13zM5.11 11.7h1.277V3.9H5.11v7.8zM20.445 11.7h1.278V3.9h-1.278v7.8zM3.834 3.9H5.11V2.6H3.834v1.3zM0 13h1.277V2.6H0V13zM11.499 1.3V0H7.666v1.3h1.277v16.9H11.5v1.3h2.555v-1.3h3.834v-1.3h-6.39V2.6h7.667V1.3H11.5zM5.11 2.6h1.277V1.3H5.11v1.3zM3.834 1.3H5.11V0H3.834v1.3z" clip-rule="evenodd"/>
    <path fill="#D0D0D0" fill-rule="evenodd" d="M17.89 26h2.556v-1.3H17.89V26zM16.609 24.7h1.278v-1.3h-1.278v1.3zM14.054 22.1h-1.277v-2.6h-1.278v3.9H10.22v1.3H8.943V26h6.39v-1.3h-1.279v-2.6zM2.557 9.1H1.28V13h2.556v-1.3H2.557V9.1zM16.609 2.6v14.3h2.555V13h3.834V9.1H21.72v2.6h-2.556V3.9h2.556v1.3h1.278V2.6h-6.39zM11.498 16.9h3.833V2.6h-3.833v14.3zM1.28 2.6v2.6h1.277V3.9h1.278V2.6H1.279zM17.89 1.3h2.556V0H17.89v1.3zM11.498 1.3h3.833V0h-3.833v1.3z" clip-rule="evenodd"/>
</svg>
