<svg xmlns="http://www.w3.org/2000/svg" width="26" height="27" fill="none" viewBox="0 0 26 27">
    <path fill="#F77622" fill-rule="evenodd" d="M4.667 27h1.169v-1.175H4.667V27zM10.523 24.652v1.174H8.185V27h3.507v-1.174h1.168v-1.174h-2.337zM7.012 25.826H8.18v-1.174H7.012v1.174zM15.197 18.782h1.169v-1.174h-1.17v1.174zM16.372 17.61h1.17v-1.175h-1.17v1.174zM17.534 16.435h1.169v-1.173h-1.169v1.173zM18.694 15.261h1.169v-1.174h-1.169v1.174z" clip-rule="evenodd"/>
    <path fill="#F77622" fill-rule="evenodd" d="M11.68 2.348h9.35V1.174H4.668v1.174h5.844v11.739H9.342v1.174h1.17v1.174h1.168v1.174h1.169v2.348h2.337v-1.174h-1.168v-1.174h1.168v-1.174h1.17V15.26h1.168v-1.174H11.68V2.348zM21.037 11.74h1.169v-1.175h-1.169v1.174zM22.209 10.565h1.169V9.392h-1.17v1.173zM23.384 9.39h1.169V4.696h-1.17v4.696zM23.384 3.522h1.169V2.348h-1.17v1.174z" clip-rule="evenodd"/>
    <path fill="#BE4A2F" fill-rule="evenodd" d="M5.838 27h2.338v-1.175H5.838V27zM8.185 25.826h2.338v-1.174H8.185v1.174zM11.68 24.652h1.17v-7.044h-1.17v7.044z" clip-rule="evenodd"/>
    <path fill="#BE4A2F" fill-rule="evenodd" d="M10.52 17.61h1.17v-1.175h-1.17v1.174zM9.358 16.435h1.17v-1.173h-1.17v1.173z" clip-rule="evenodd"/>
    <path fill="#BE4A2F" fill-rule="evenodd" d="M9.36 2.348H7.024v11.74h1.169v1.174H9.36V2.348zM0 9.392h1.169V2.348H0v7.044z" clip-rule="evenodd"/>
    <path fill="#FEE761" fill-rule="evenodd" d="M17.534 27h1.169v-1.175h-1.169V27z" clip-rule="evenodd"/>
    <path fill="#FEE761" fill-rule="evenodd" d="M15.197 25.826h2.338v-1.174h-2.338v1.174zM14.025 24.652h1.17v-4.695h-1.17v4.695zM24.548 9.392h1.168V8.218h-1.168v1.174zM24.548 4.696h1.168V2.348h-1.168v2.348zM16.372 14.087h2.338V2.348h-2.338v11.74zM17.534 1.174h2.337V0h-2.337v1.174z" clip-rule="evenodd"/>
    <path fill="#D77643" fill-rule="evenodd" d="M3.507 27h1.169v-1.175h-1.17V27zM5.838 25.826h1.17v-1.174h-1.17v1.174zM10.511 16.435H9.342v-1.173H8.173v-1.175H7.005V2.348H4.667v1.174h1.169v1.174H4.667v7.044h1.169v1.174H4.667v1.173h1.169v1.175h1.169v1.173h1.168v1.174h1.17v1.174h1.168v5.87h1.169v-7.044h-1.169v-1.174z" clip-rule="evenodd"/>
    <path fill="#D77643" fill-rule="evenodd" d="M3.507 12.913h1.169v-1.174h-1.17v1.174z" clip-rule="evenodd"/>
    <path fill="#D77643" fill-rule="evenodd" d="M2.347 11.74h1.168v-1.175H2.347v1.174zM1.173 10.565h1.17V9.392h-1.17v1.173z" clip-rule="evenodd"/>
    <path fill="#FEAE34" fill-rule="evenodd" d="M19.871 25.826v-1.174h-2.337v1.174h1.169V27h3.506v-1.174h-2.338zM15.187 25.826v-1.174h-1.169v-4.695H12.85v5.869h-1.168V27h5.844v-1.174h-2.338zM14.025 18.782h1.17v-1.174h-1.17v1.174zM15.197 17.61h1.169v-1.175h-1.17v1.174zM16.372 16.435h1.17v-1.173h-1.17v1.173zM17.534 15.261h1.169v-1.174h-1.169v1.174zM4.667 12.913h1.169v-1.174H4.667v1.174zM22.209 11.74h1.169v-1.175h-1.17v1.174z" clip-rule="evenodd"/>
    <path fill="#FEAE34" fill-rule="evenodd" d="M3.507 11.74h1.169v-1.175h-1.17v1.174zM23.384 10.565h1.169V9.392h-1.17v1.173zM2.347 10.565h1.168V9.392H2.347v1.173zM24.548 8.217h1.168V4.695h-1.168v3.522zM21.032 3.522V2.348h-2.338v11.74h2.338v-1.174h1.169V11.74h-1.169V4.696h3.507V3.522h-3.507zM2.342 3.522V2.348H1.173v7.044h1.17V4.696h3.506V3.522H2.342zM11.68 14.087h4.676V2.348h-4.675v11.74zM9.358 14.087h1.17V2.348h-1.17v11.74zM19.866 1.174h2.337V0h-2.337v1.174zM3.507 1.174h14.026V0H3.507v1.174z" clip-rule="evenodd"/>
</svg>
