<svg xmlns="http://www.w3.org/2000/svg" width="238" height="56" fill="none" viewBox="0 0 238 56">
    <path fill="#D77643" fill-rule="evenodd" d="M231.386 9.883h3.306V6.588h-3.306v3.295z" clip-rule="evenodd"/>
    <path fill="#FEE761" fill-rule="evenodd" d="M171.888 42.824h6.611v-3.295h-6.611v3.295zM178.499 36.236h6.611V32.94h-6.611v3.295zM188.415 29.647h3.305v-3.294h-3.305v3.294zM191.72 23.058h6.613v-3.294h-6.613v3.294zM198.335 16.47h9.916v-3.294h-9.916v3.294zM171.888 32.94h3.306V9.884h-3.306V32.94zM175.193 9.883h3.305V6.588h-3.305v3.295zM238 3.293h-59.501v3.295h23.14v3.295h13.221V6.588H238V3.293z" clip-rule="evenodd"/>
    <path fill="#D77643" fill-rule="evenodd" d="M165.277 39.529h26.444v-3.294h-26.444v3.294z" clip-rule="evenodd"/>
    <path fill="#D77643" fill-rule="evenodd" d="M175.193 29.647v3.294h16.527v3.295h3.306V32.94h6.611v-3.294h-26.444z" clip-rule="evenodd"/>
    <path fill="#D77643" fill-rule="evenodd" d="M175.193 23.058v3.295h26.444v3.294h3.305v-3.294h6.61v-3.295h-36.359zM175.193 16.47v3.294h36.36v3.294h3.306v-3.294h6.611V16.47h-46.277zM178.499 9.883v3.293h42.972v3.294h3.305v-3.294h6.611V9.883H178.5z" clip-rule="evenodd"/>
    <path fill="#FEAE34" fill-rule="evenodd" d="M178.499 42.824h3.306v-3.295H178.5v3.295zM165.277 42.824h6.611v-3.295h-6.611v3.295zM185.109 36.236h6.611V32.94h-6.611v3.295zM165.277 36.236h13.222V32.94h-13.222v3.295zM191.72 29.647h9.917v-3.294h-9.917v3.294zM175.193 29.647h13.222v-3.294h-13.222v3.294zM198.335 23.058h13.22v-3.294h-13.22v3.294zM175.193 23.058h16.527v-3.294h-16.527v3.294zM208.247 16.47h13.222v-3.294h-13.222v3.294zM198.332 16.47v-3.294h-19.834V9.883h-3.305v6.587h23.14zM214.859 9.883h16.527V6.588h-16.527v3.295zM178.499 9.883h23.14V6.588h-23.14v3.295z" clip-rule="evenodd"/>
    <path fill="#FEE761" fill-rule="evenodd" d="M59.498 42.824h6.61v-3.295h-6.61v3.295zM52.889 36.236h6.61V32.94h-6.61v3.295zM46.277 29.647h3.306v-3.294h-3.306v3.294zM39.666 23.058h6.61v-3.294h-6.61v3.294zM29.75 16.47h9.917v-3.294H29.75v3.294zM62.804 32.94h3.307V9.884h-3.307V32.94zM59.498 9.883h3.306V6.588h-3.306v3.295z" clip-rule="evenodd"/>
    <path fill="#FEE761" fill-rule="evenodd" d="M0 3.293v3.295h23.14v3.295H36.36V6.588H59.5V3.293H0z" clip-rule="evenodd"/>
    <path fill="#D77643" fill-rule="evenodd" d="M46.277 39.529h26.444v-3.294H46.277v3.294z" clip-rule="evenodd"/>
    <path fill="#D77643" fill-rule="evenodd" d="M62.805 32.94v-3.293H36.361v3.294h6.611v3.295h3.305V32.94h16.528z" clip-rule="evenodd"/>
    <path fill="#D77643" fill-rule="evenodd" d="M62.805 26.353v-3.295H26.443v3.295h6.611v3.294h3.307v-3.294h26.444zM62.806 19.764V16.47H16.527v3.294h6.613v3.294h3.305v-3.294h36.361zM59.5 13.176V9.883H6.61v3.293h6.611v3.294h3.305v-3.294H59.5zM3.307 9.883H6.61V6.588H3.307v3.295z" clip-rule="evenodd"/>
    <path fill="#FEAE34" fill-rule="evenodd" d="M66.113 42.824h6.611v-3.295h-6.61v3.295zM56.193 42.824H59.5v-3.295h-3.306v3.295zM59.498 36.236H72.72V32.94H59.498v3.295zM46.277 36.236h6.611V32.94h-6.61v3.295zM49.582 29.647h13.222v-3.294H49.582v3.294zM36.361 29.647h9.917v-3.294h-9.917v3.294zM46.277 23.058h16.529v-3.294H46.276v3.294zM26.443 23.058h13.222v-3.294H26.443v3.294zM39.666 13.176v3.294h23.14V9.883h-3.307v3.293H39.666zM16.527 16.47H29.75v-3.294H16.527v3.294zM36.361 9.883h23.14V6.588H36.36v3.295zM6.611 9.883H23.14V6.588H6.61v3.295z" clip-rule="evenodd"/>
    <path fill="#BE4A2F" fill-rule="evenodd" d="M122.304 36.236h9.917v-6.589h-9.917v6.589zM109.084 36.236h3.306v-6.589h-3.306v6.589z" clip-rule="evenodd"/>
    <path fill="#FEE761" fill-rule="evenodd" d="M142.138 49.412h9.917v-3.295h-9.917v3.295zM85.945 49.412h9.916v-3.295h-9.916v3.295zM152.054 46.117h3.306v-3.293h-3.306v3.293zM138.834 46.117h3.305v-3.293h-3.305v3.293zM95.861 46.117h3.306v-3.293h-3.306v3.293zM82.636 46.117h3.307v-3.293h-3.307v3.293zM132.222 6.588h-9.917v13.176h6.611v3.294h-6.61v3.295h-19.834v3.294h33.057v-3.294h-3.307V6.588zM142.138 23.058h3.306v-3.294h-3.306v3.294z" clip-rule="evenodd"/>
    <path fill="#FEE761" fill-rule="evenodd" d="M109.084 23.058h6.611v-3.294h-6.611v3.294zM148.75 19.764h3.306V16.47h-3.306v3.294zM138.834 16.47h3.305v-3.294h-3.305v3.294zM145.443 13.176h3.305V9.883h-3.305v3.293zM95.859 9.883h-3.305v3.293h-3.306v3.294h3.306v3.294h3.305V16.47h3.306v-3.294H95.86V9.883z" clip-rule="evenodd"/>
    <path fill="#D77643" fill-rule="evenodd" d="M152.056 49.412h-9.917v-3.295h-3.305v6.588h3.305V56h9.917v-3.295h3.306v-6.588h-3.306v3.295zM95.859 49.412h-9.916v-3.295h-3.307v6.588h3.307V56h9.916v-3.295h3.306v-6.588h-3.306v3.295zM138.833 39.529V32.94h-3.305v-3.294h-3.306v6.589h3.306v3.293h3.305zM112.388 36.236h9.916v-6.589h-9.916v6.589zM102.472 29.647v3.294h-3.304v6.588h3.304v-3.293h6.611v-6.589h-6.61zM142.138 26.353h3.306v-3.295h-3.306v3.295zM148.75 23.058h3.306v-3.294h-3.306v3.294zM92.556 23.058h3.305v-3.294h-3.305v3.294zM138.834 19.764h3.305V16.47h-3.305v3.294zM95.861 19.764h3.306V16.47h-3.306v3.294zM89.248 19.764h3.306V16.47h-3.306v3.294zM145.443 16.47h3.305v-3.294h-3.305v3.294z" clip-rule="evenodd"/>
    <path fill="#FEAE34" fill-rule="evenodd" d="M109.08 23.058h6.612v-3.294h-6.611v3.294zM95.86 19.764v3.294h-3.305v-3.294h-3.306v-6.588h3.306V9.883h3.305v3.293h3.306v6.588h-3.306zm26.444 3.294h6.61v-3.294h-6.61V6.588h-16.527V3.293h-3.306V0H85.943v3.293h-3.306v39.53h3.306v3.294h9.916v-3.293h3.306V32.94h3.305v-6.588h19.833v-3.295zM152.055 23.058h-3.306V16.47h-3.305V9.883h3.305v6.587h3.306v6.588zm-9.917-3.294h3.306v6.589h-3.306v-6.589h-3.305v-6.588h3.305v6.588zM152.055 0h-16.527v3.293h-3.306v23.06h3.306v6.588h3.305v9.883h3.305v3.293h9.917v-3.293h3.306V3.294h-3.306V0z" clip-rule="evenodd"/>
</svg>
