<svg width="16" height="16" viewBox="0 0 16 16" fill="none" xmlns="http://www.w3.org/2000/svg">
    <path fill-rule="evenodd" clip-rule="evenodd" d="M1.23 2.462v1.23H0v8.616h1.23v1.23h2.462v1.231h2.462V16h3.692v-1.23h2.462v-1.231h2.461v-1.231H16V3.692h-1.23v-1.23h-2.462V1.23H9.846V0H6.154v1.23H3.692v1.232H1.231zm11.078 2.461v-1.23h2.461v1.23h-2.461zm-2.462 1.23v-1.23h2.462v1.23H9.846zm-3.692 0h3.692v1.232h-1.23v7.384H7.384V7.385H6.154V6.154zm-2.462-1.23H1.231v-1.23h2.461v1.23zm0 0v1.23h2.462v-1.23H3.692z" fill="#03E1E4"/>
</svg>
