<svg width="24" height="24" viewBox="0 0 24 24" fill="none" xmlns="http://www.w3.org/2000/svg">
    <path d="M21 1.5H3V3H1.5v1.5H0V21h1.5V6h21v15H24V4.5h-1.5V3H21V1.5z" fill="#FFDC00"/>
    <path fill-rule="evenodd" clip-rule="evenodd" d="M12 7.5H6V9H4.5v1.5H3v6h1.5V18H6v1.5h6V18h1.5v-1.5H15v-6h-1.5V9H12V7.5zm-4.5 3V9h3v1.5H12V12h1.5v3H12v1.5h-1.5V18h-3v-1.5H6V15H4.5v-3H6v-1.5h1.5z" fill="#FFDC00"/>
    <path d="M10.5 10.5h-3V12h3v-1.5zM12 12h-1.5v3H12v-3zM10.5 16.5V15h-3v1.5h3zM6 15h1.5v-3H6v3zM15 18h-1.5v1.5H15V18zM13.5 7.5V9H15V7.5h-1.5zM4.5 7.5H3V9h1.5V7.5zM4.5 19.5V18H3v1.5h1.5zM22.5 22.5V21h-21v1.5h21zM16.5 18H21v1.5h-4.5V18zM16.5 15H21v1.5h-4.5V15zM19.5 13.5V12H18v1.5h1.5zM21 10.5h-1.5V12H21v-1.5zM19.5 9H18v1.5h1.5V9zM16.5 12H18v-1.5h-1.5V12z" fill="#FFDC00"/>
</svg>
