<svg width="24" height="24" viewBox="0 0 24 24" fill="none" xmlns="http://www.w3.org/2000/svg">
    <path d="M0 0v3h1.5v1.5H3v6h1.5V9h3V7.5H9v-3h1.5V3H12V0H0z" fill="#03E1E4"/>
    <path d="M9 12V9H7.5v1.5h-3V12H3v3h1.5v-1.5h3V12H9z" fill="#03E1E4"/>
    <path d="M4.5 16.5H3v3h1.5V18h3v-1.5H9v-3H7.5V15h-3v1.5z" fill="#03E1E4"/>
    <path d="M4.5 21H3v1.5h1.5V24h3v-1.5H9V18H7.5v1.5h-3V21z" fill="#03E1E4"/>
    <path fill-rule="evenodd" clip-rule="evenodd" d="M12 15v6h1.5v1.5H15V24h6v-1.5h1.5V21H24v-6h-1.5v-1.5H21V12h-6v1.5h-1.5V15H12zm3 4.5v-3h1.5V15h3v1.5H21v3h-1.5V21h-3v-1.5H15z" fill="#03E1E4"/>
</svg>
