<svg width="24" height="24" viewBox="0 0 24 24" fill="none" xmlns="http://www.w3.org/2000/svg">
    <path fill-rule="evenodd" clip-rule="evenodd" d="M1.5 24v-1.5h21V24H24V0h-1.5v2.25h-21V0H0v24h1.5zm21-14.25V7.5h-21v2.25h21zM1.5 15h21v2.25h-21V15zM3.75 3h-1.5v1.5h1.5V3zm1.5 0h1.5v1.5h-1.5V3zm4.5 0h-1.5v1.5h1.5V3zm1.5 0h1.5v1.5h-1.5V3zm4.5 0h-1.5v1.5h1.5V3zm1.5 0h1.5v1.5h-1.5V3zm4.5 0h-1.5v1.5h1.5V3zm-3 2.25h1.5v1.5h-1.5v-1.5zm-1.5 0h-1.5v1.5h1.5v-1.5zm-4.5 0h1.5v1.5h-1.5v-1.5zm-1.5 0h-1.5v1.5h1.5v-1.5zm-4.5 0h1.5v1.5h-1.5v-1.5zm-1.5 0h-1.5v1.5h1.5v-1.5zm-3 5.25h1.5V12h-1.5v-1.5zm3 2.25h-1.5v1.5h1.5v-1.5zm0-2.25h1.5V12h-1.5v-1.5zm3 2.25h-1.5v1.5h1.5v-1.5zm0-2.25h1.5V12h-1.5v-1.5zm4.5 0h-1.5V12h1.5v-1.5zm-3 2.25h1.5v1.5h-1.5v-1.5zm4.5 0h-1.5v1.5h1.5v-1.5zm0-2.25h1.5V12h-1.5v-1.5zm3 3.75v-1.5h-1.5v1.5h1.5zm0-3.75h1.5V12h-1.5v-1.5zm3 2.25h-1.5v1.5h1.5v-1.5zm0-2.25h1.5V12h-1.5v-1.5zm1.5 7.5h-1.5v1.5h1.5V18zm-4.5 0h1.5v1.5h-1.5V18zm-1.5 0h-1.5v1.5h1.5V18zm-4.5 0h1.5v1.5h-1.5V18zm-1.5 0h-1.5v1.5h1.5V18zm-4.5 0h1.5v1.5h-1.5V18zm-1.5 0h-1.5v1.5h1.5V18zm0 2.25h1.5v1.5h-1.5v-1.5zm4.5 1.5v-1.5h-1.5v1.5h1.5zm3-1.5v1.5h-1.5v-1.5h1.5zm3 0h-1.5v1.5h1.5v-1.5zm3 0v1.5h-1.5v-1.5h1.5zm3 0h-1.5v1.5h1.5v-1.5z" fill="#03E1E4"/>
</svg>
