<svg width="24" height="25" viewBox="0 0 24 25" fill="none" xmlns="http://www.w3.org/2000/svg">
    <g filter="url(#a)" fill="#2F3045">
        <path d="M0 7.5V15h1.5v1.5H3V18h1.5v1.5h9V21H15v1.5h1.5V24H24v-7.5h-1.5V18H21v-1.5h-1.5V15H18v-1.5h-1.5v-9H15V3h-1.5V1.5H15V0H7.5v3H9v1.5h1.5V6H12v4.5h-1.5V12H12v1.5h-1.5V15H6v-1.5H4.5V12H3v-1.5H1.5V9H3V7.5H0z"/>
        <path d="M19.5 4.5H18v9h1.5v-9zM19.5 15H21v-1.5h-1.5V15zM22.5 16.5V15H21v1.5h1.5zM16.5 1.5H15V3h1.5V1.5zM18 4.5V3h-1.5v1.5H18zM6 12v1.5h4.5V12H6zM6 10.5H4.5V12H6v-1.5zM4.5 9H3v1.5h1.5V9z"/>
    </g>
    <defs>
        <filter id="a" x="0" y="0" width="24" height="25" filterUnits="userSpaceOnUse" color-interpolation-filters="sRGB">
            <feFlood flood-opacity="0" result="BackgroundImageFix"/>
            <feColorMatrix in="SourceAlpha" values="0 0 0 0 0 0 0 0 0 0 0 0 0 0 0 0 0 0 127 0" result="hardAlpha"/>
            <feOffset dy="1"/>
            <feComposite in2="hardAlpha" operator="out"/>
            <feColorMatrix values="0 0 0 0 0 0 0 0 0 0 0 0 0 0 0 0 0 0 0.25 0"/>
            <feBlend in2="BackgroundImageFix" result="effect1_dropShadow_11575_13486"/>
            <feBlend in="SourceGraphic" in2="effect1_dropShadow_11575_13486" result="shape"/>
        </filter>
    </defs>
</svg>
