<svg width="16" height="10" viewBox="0 0 16 10" fill="none" xmlns="http://www.w3.org/2000/svg">
<path fill-rule="evenodd" clip-rule="evenodd" d="M3 1V2H4V5H5V6H6V7H10V6H11V5H12V2H13V1H11V0H5V1H3ZM9 5V3H11V5H9Z" fill="#6A668A"/>
<path d="M14 2H13V3H14V2Z" fill="#6A668A"/>
<path d="M15 3H14V4H15V3Z" fill="#6A668A"/>
<path d="M16 4H15V6H16V4Z" fill="#6A668A"/>
<path d="M15 7V6H14V7H15Z" fill="#6A668A"/>
<path d="M14 8V7H13V8H14Z" fill="#6A668A"/>
<path d="M11 10V9H5V10H11Z" fill="#6A668A"/>
<path d="M2 8H3V7H2V8Z" fill="#6A668A"/>
<path d="M1 7H2V6H1V7Z" fill="#6A668A"/>
<path d="M1 4H0V6H1V4Z" fill="#6A668A"/>
<path d="M1 3V4H2V3H1Z" fill="#6A668A"/>
<path d="M2 2V3H3V2H2Z" fill="#6A668A"/>
<path d="M3 9H5V8H3V9Z" fill="#6A668A"/>
<path d="M13 9V8H11V9H13Z" fill="#6A668A"/>
</svg>
