<svg width="14" height="16" viewBox="0 0 14 16" fill="none" xmlns="http://www.w3.org/2000/svg">
<path d="M2.47793 8.69589H1.43446V10.7829H2.47793V8.69589Z" fill="#6A668A"/>
<path d="M11.5217 8.69589H10.4783V10.7829H11.5217V8.69589Z" fill="#6A668A"/>
<path d="M3.52176 10.7826L2.47793 10.7829L2.47829 11.8261H3.52176V10.7826Z" fill="#6A668A"/>
<path d="M10.4783 10.7829L9.43445 10.7826V11.8261H10.4779L10.4783 10.7829Z" fill="#6A668A"/>
<path d="M8.39119 11.8265V12.87H7.34769V13.9134H9.43466L9.43445 11.8261L8.39119 11.8265Z" fill="#6A668A"/>
<path d="M3.52176 13.9132H2.47829V14.9567H3.52176V13.9132Z" fill="#6A668A"/>
<path d="M10.4779 13.9132L9.43466 13.9134L9.43445 14.9567H10.4779V13.9132Z" fill="#6A668A"/>
<path d="M4.5647 12.87V11.8265L3.52176 11.8261V13.9132L5.60817 13.9134V12.87H4.5647Z" fill="#6A668A"/>
<path d="M2.47829 14.9567L1.43446 14.9562V15.9996H2.47793L2.47829 14.9567Z" fill="#6A668A"/>
<path d="M11.5217 14.9562L10.4779 14.9567L10.4783 15.9996H11.5217V14.9562Z" fill="#6A668A"/>
<path d="M10.4776 2.08697V1.04347H9.43409V0H3.52106V1.04347H2.47756V2.08697H1.43409V3.13044H0.390625V8.69566L1.43446 8.69589L1.43409 6.26088H2.47756V5.21741H3.52106V4.17391H4.56453V5.21741H6.6515V6.26088H11.5211L11.5217 8.69589L12.5645 8.69566V4.17391H13.608V2.08697H10.4776Z" fill="#6A668A"/>
</svg>
