<svg width="32" height="32" viewBox="0 0 32 32" fill="none" xmlns="http://www.w3.org/2000/svg">
    <path d="M20 8v2h2V6h-2V4h-2V2h-2V0h-4v2h2v2h2v2h2v2h2z" fill="#03E1E4"/>
    <path d="M2 10v2h2v2h2v2h2v2h2v2h2v-2h2v-2h2v-2h2v-2h2v-2h-2V8h-2V6h-2V4h-2V2h-2v2H8v2H6v2H4v2H2z" fill="#03E1E4"/>
    <path d="M6 22h4v-2H8v-2H6v-2H4v-2H2v-2H0v4h2v2h2v2h2v2zM20 18v-4h-2v2h-2v2h-2v2h4v2h2v2h2v2h2v2h2v2h2v-2h2v-2h-2v-2h-2v-2h-2v-2h-2v-2h-2z" fill="#03E1E4"/>
    <path d="M28 32h4v-4h-2v2h-2v2zM0 30v2h18v-2h-2v-2H2v2H0z" fill="#03E1E4"/>
</svg>
