<svg xmlns="http://www.w3.org/2000/svg" width="41" height="41" fill="none" viewBox="0 0 41 41">
    <path fill="#AEAEAE" d="M1.64 13.12H0v14.76h1.64v3.28h1.64v1.64h1.64v1.64h1.64v1.64H8.2v1.64h1.64v1.64h3.28V41h14.76v-1.64h3.28v-1.64h1.64v-1.64h1.64v-1.64h1.64V32.8h1.64v-1.64h1.64v-3.28H41V13.12h-1.64V9.84h-1.64V8.2h-1.64V6.56h-1.64V4.92H32.8V3.28h-1.64V1.64h-3.28V0H13.12v1.64H9.84v1.64H8.2v1.64H6.56v1.64H4.92V8.2H3.28v1.64H1.64v3.28z"/>
    <path fill="#FAFAFA" d="M3.28 13.12H1.64v14.76h1.64v3.28h1.64v1.64h1.64v1.64H8.2v1.64h1.64v1.64h3.28v1.64h14.76v-1.64h3.28v-1.64h1.64v-1.64h1.64V32.8h1.64v-1.64h1.64v-3.28h1.64V13.12h-1.64V9.84h-1.64V8.2h-1.64V6.56H32.8V4.92h-1.64V3.28h-3.28V1.64H13.12v1.64H9.84v1.64H8.2v1.64H6.56V8.2H4.92v1.64H3.28v3.28z"/>
    <path fill="#000" d="M29.52 34.44H11.48V32.8h1.64v-1.64h-1.64v-3.28H9.84v1.64H8.2V24.6h1.64v-3.28h1.64v-9.84h1.64V9.84h1.64V8.2h1.64V6.56h8.2V8.2h1.64v1.64h1.64v1.64h1.64v9.84h1.64v3.28h1.64v4.92h-1.64v-1.64h-1.64v3.28h-1.64v1.64h1.64v1.64z"/>
    <path fill="#fff" d="M21.32 18.04h3.28v-3.28h-1.64v-1.64h1.64v-1.64h-3.28v6.56zM19.68 18.04H16.4v-6.56h3.28v1.64h-1.64v1.64h1.64v3.28zM22.96 32.8h-4.92v-1.64h-3.28v-1.64h-1.64v-8.2h14.76v8.2h-1.64v1.64h-3.28v1.64z"/>
    <path fill="#EB1923" d="M14.76 18.04h-3.28v3.28h1.64v1.64h1.64v4.92h3.28V24.6h8.2v-1.64h1.64v-1.64h1.64v-3.28h-3.28v1.64H24.6v1.64h-8.2v-1.64h-1.64v-1.64z"/>
    <path fill="#FAAB07" d="M16.4 34.44V32.8h-4.92v1.64h4.92zM24.6 34.44V32.8h4.92v1.64H24.6zM26.24 18.04V16.4H14.76v1.64h1.64v1.64h8.2v-1.64h1.64z"/>
    <path fill="#fff" d="M1.641 13.119H3.2809999999999997V27.878999999999998H1.641z"/>
    <path fill="#fff" d="M3.279 9.84H4.919V13.12H3.279zM4.92 8.199H6.56V9.839H4.92zM6.561 6.561H8.201V8.201H6.561zM8.199 4.92H9.839V6.56H8.199zM9.84 3.279H13.12V4.919H9.84z"/>
    <path fill="#fff" d="M13.119 1.641H27.878999999999998V3.2809999999999997H13.119zM27.881 3.279H31.161V4.919H27.881zM31.16 4.92H32.8V6.56H31.16zM32.801 6.561H34.441V8.201H32.801z"/>
    <path fill="#D9D9D9" d="M37.721 13.119H39.361V27.878999999999998H37.721zM36.08 27.881H37.72V31.161H36.08zM34.44 31.16H36.08V32.8H34.44zM32.801 32.801H34.441V34.441H32.801zM31.16 34.44H32.8V36.08H31.16zM27.881 36.08H31.161V37.72H27.881zM13.119 37.721H27.878999999999998V39.361H13.119zM9.84 36.08H13.12V37.72H9.84zM8.199 34.44H9.839V36.08H8.199z"/>
    <path fill="#D9D9D9" d="M6.561 32.801H8.201V34.441H6.561zM4.92 31.16H6.56V32.8H4.92z"/>
</svg>
