<svg width="24" height="24" viewBox="0 0 24 24" fill="none" xmlns="http://www.w3.org/2000/svg">
    <path d="M24 5.249c-.883.382-1.832.64-2.828.755a4.829 4.829 0 0 0 2.164-2.653c-.95.55-2.005.948-3.127 1.164A4.977 4.977 0 0 0 16.616 3c-2.72 0-4.924 2.148-4.924 4.797 0 .375.044.742.127 1.092C7.728 8.69 4.1 6.78 1.671 3.877a4.69 4.69 0 0 0-.666 2.412c0 1.664.869 3.132 2.19 3.992a5.013 5.013 0 0 1-2.23-.6v.06c0 2.325 1.696 4.264 3.95 4.704a5.048 5.048 0 0 1-2.224.082c.626 1.906 2.445 3.293 4.6 3.332a10.043 10.043 0 0 1-6.116 2.054c-.397 0-.79-.023-1.175-.068A14.208 14.208 0 0 0 7.548 22c9.057 0 14.008-7.309 14.008-13.648 0-.207-.005-.414-.014-.62A9.88 9.88 0 0 0 24 5.249z" fill="#fff"/>
</svg>
