<svg xmlns="http://www.w3.org/2000/svg" width="20" height="14" fill="none" viewBox="0 0 20 14">
    <path fill="#03E1E4" fill-rule="evenodd" d="M4.21 0h11.58v1.066h1.052v1.066h1.053v1.066h1.052V7.46H20v4.264h-1.053v1.066h-1.052v1.066H15.79V12.79h-1.053v-1.066h-1.053V10.66h-1.052V9.593H7.368v1.066H6.316v1.066H5.263v1.066H4.211v1.066H2.105V12.79H1.053v-1.066H0V7.461h1.053V3.198h1.052V2.132h1.053V1.066H4.21V0zm.527 5.33v1.065h2.105V5.33h1.053V3.198H6.842V2.132H4.737v1.066H3.684V5.33h1.053zm0 0V3.198h2.105V5.33H4.737zm6.316-1.066h2.105V5.33h-2.105V4.264zm5.263 1.066H14.21v1.065h2.105V5.33z" clip-rule="evenodd"/>
</svg>
