<svg xmlns="http://www.w3.org/2000/svg" width="20" height="20" fill="none" viewBox="0 0 20 20">
    <path fill="#03E1E4" d="M16.086 5.217h-3.043V3.913h3.043v1.304zM16.086 9.565h-3.043V8.261h3.043v1.304zM17.391 8.26h-1.304V5.217h1.304V8.26zM13.039 8.26h-1.304V5.217h1.304V8.26zM8.696 1.304H6.088V0h2.608v1.304zM8.696 5.217H6.088V3.913h2.608v1.304zM10.002 3.913H8.697V1.304h1.305v2.61zM6.084 3.913H4.779V1.304h1.305v2.61zM3.913 10.87H0V20h3.913v-9.13zM15.218 12.174v1.304h-1.74v1.304H8.263v-1.304h5.217v-2.609h-8.26v7.826h1.304V20h6.956v-1.305h2.608v-1.304h1.305v-1.304h1.304v-1.305H20v-2.608h-4.782z"/>
</svg>
