<svg width="33" height="33" viewBox="0 0 33 33" fill="none" xmlns="http://www.w3.org/2000/svg">
<g id="ic/32/pwa/install">
<path id="Union" fill-rule="evenodd" clip-rule="evenodd" d="M7.5 2.76807C5.29086 2.76807 3.5 4.55893 3.5 6.76807V27.2106C3.5 29.4198 5.29086 31.2106 7.5 31.2106H19.3236C21.5327 31.2106 23.3236 29.4198 23.3236 27.2106V20.8678H21.5995V22.3154C21.5995 23.42 20.7041 24.3154 19.5995 24.3154H7.2235C6.11893 24.3154 5.2235 23.42 5.2235 22.3154V6.49179C5.2235 5.38722 6.11893 4.49179 7.2235 4.49179H19.5995C20.7041 4.49179 21.5995 5.38723 21.5995 6.49179V7.93937H23.3236V6.76807C23.3236 4.55893 21.5327 2.76807 19.3236 2.76807H7.5ZM11.3949 26.9011C10.8426 26.9011 10.3949 27.3488 10.3949 27.9011V28.4868C10.3949 29.039 10.8426 29.4868 11.3949 29.4868H15.4282C15.9805 29.4868 16.4282 29.039 16.4282 28.4868V27.9011C16.4282 27.3488 15.9805 26.9011 15.4282 26.9011H11.3949ZM12.1189 15.6965H14.7046V18.2822H12.1189V15.6965ZM7.80944 20.006H10.3951V22.5917H7.80944V20.006ZM12.1189 20.006H14.7046V22.5917H12.1189V20.006ZM19.0145 20.006H16.4288V22.5917H19.0145V20.006ZM29.5549 7.27636L21.367 15.4643L24.185 18.2823H16.428V10.5253L19.2457 13.3429L27.4336 5.15504L29.5549 7.27636Z" fill="white"/>
</g>
</svg>
