<svg width="33" height="33" viewBox="0 0 33 33" fill="none" xmlns="http://www.w3.org/2000/svg">
<g id="ic/32/pwa/more-android">
<g id="Union">
<path d="M13.5 4.0986C13.5 3.06767 14.3954 2.23193 15.5 2.23193H17.5C18.6046 2.23193 19.5 3.06767 19.5 4.0986V5.96527C19.5 6.9962 18.6046 7.83193 17.5 7.83193H15.5C14.3954 7.83193 13.5 6.9962 13.5 5.96527V4.0986Z" fill="white"/>
<path d="M13.5 15.2986C13.5 14.2677 14.3954 13.4319 15.5 13.4319H17.5C18.6046 13.4319 19.5 14.2677 19.5 15.2986V17.1653C19.5 18.1962 18.6046 19.0319 17.5 19.0319H15.5C14.3954 19.0319 13.5 18.1962 13.5 17.1653V15.2986Z" fill="white"/>
<path d="M15.5 24.6319C14.3954 24.6319 13.5 25.4677 13.5 26.4986V28.3653C13.5 29.3962 14.3954 30.2319 15.5 30.2319H17.5C18.6046 30.2319 19.5 29.3962 19.5 28.3653V26.4986C19.5 25.4677 18.6046 24.6319 17.5 24.6319H15.5Z" fill="white"/>
</g>
</g>
</svg>
