<svg width="33" height="32" viewBox="0 0 33 32" fill="none" xmlns="http://www.w3.org/2000/svg">
<path d="M28.6972 3.84105C27.9207 3.06194 26.9953 2.56032 25.9211 2.33619C24.8575 2.11206 23.6609 2 22.3313 2H10.6368C9.32849 2 8.13723 2.11206 7.06296 2.33619C5.99934 2.56032 5.0793 3.06194 4.30285 3.84105C3.53704 4.62016 3.04245 5.54336 2.81909 6.61063C2.60636 7.66724 2.5 8.85192 2.5 10.1647V21.7873C2.5 23.1214 2.60636 24.3274 2.81909 25.4054C3.03181 26.4727 3.5264 27.3905 4.30285 28.1589C5.0793 28.9381 6.00465 29.4397 7.07892 29.6638C8.15318 29.8879 9.35508 30 10.6846 30H22.3313C23.6609 30 24.8575 29.8879 25.9211 29.6638C26.9953 29.4397 27.9207 28.9381 28.6972 28.1589C29.4736 27.3798 29.9682 26.4566 30.1809 25.3894C30.3936 24.3221 30.5 23.1214 30.5 21.7873V10.2127C30.5 8.86792 30.3936 7.6619 30.1809 6.59463C29.9682 5.52735 29.4736 4.60949 28.6972 3.84105ZM27.7877 9.79646V22.2035C27.7877 22.9827 27.7133 23.7298 27.5644 24.4448C27.4261 25.1599 27.1443 25.7362 26.7188 26.1738C26.2827 26.6114 25.703 26.8996 24.9798 27.0383C24.2671 27.1877 23.5226 27.2624 22.7462 27.2624H10.2698C9.48272 27.2624 8.73286 27.1877 8.02023 27.0383C7.3076 26.8996 6.72792 26.6114 6.2812 26.1738C5.84511 25.7362 5.55793 25.1599 5.41966 24.4448C5.29202 23.7298 5.22821 22.9827 5.22821 22.2035V9.82847C5.22821 9.03869 5.29202 8.28626 5.41966 7.57118C5.55793 6.84544 5.84511 6.26377 6.2812 5.82619C6.72792 5.3886 7.3076 5.0951 8.02023 4.94568C8.74349 4.79626 9.50399 4.72156 10.3017 4.72156H22.7462C23.5226 4.72156 24.2671 4.79626 24.9798 4.94568C25.703 5.0951 26.2827 5.3886 26.7188 5.82619C27.1443 6.26377 27.4261 6.8401 27.5644 7.55517C27.7133 8.25958 27.7877 9.00667 27.7877 9.79646ZM9.51994 15.976C9.51994 16.3602 9.64758 16.6804 9.90285 16.9365C10.1581 17.182 10.4825 17.3047 10.8761 17.3047H15.1519V21.6112C15.1519 22.0061 15.2742 22.3316 15.5188 22.5878C15.7741 22.8332 16.0932 22.956 16.4761 22.956C16.8802 22.956 17.21 22.8332 17.4652 22.5878C17.7205 22.3423 17.8481 22.0168 17.8481 21.6112V17.3047H22.1399C22.5334 17.3047 22.8578 17.182 23.1131 16.9365C23.3684 16.6804 23.496 16.3602 23.496 15.976C23.496 15.5704 23.3684 15.2396 23.1131 14.9834C22.8578 14.7273 22.5334 14.5992 22.1399 14.5992H17.8481V10.3087C17.8481 9.90318 17.7205 9.57766 17.4652 9.33219C17.21 9.07604 16.8802 8.94797 16.4761 8.94797C16.0932 8.94797 15.7741 9.07604 15.5188 9.33219C15.2742 9.57766 15.1519 9.90318 15.1519 10.3087V14.5992H10.8761C10.4825 14.5992 10.1581 14.7273 9.90285 14.9834C9.64758 15.2396 9.51994 15.5704 9.51994 15.976Z" fill="white"/>
<path d="M28.6972 3.84105C27.9207 3.06194 26.9953 2.56032 25.9211 2.33619C24.8575 2.11206 23.6609 2 22.3313 2H10.6368C9.32849 2 8.13723 2.11206 7.06296 2.33619C5.99934 2.56032 5.0793 3.06194 4.30285 3.84105C3.53704 4.62016 3.04245 5.54336 2.81909 6.61063C2.60636 7.66724 2.5 8.85192 2.5 10.1647V21.7873C2.5 23.1214 2.60636 24.3274 2.81909 25.4054C3.03181 26.4727 3.5264 27.3905 4.30285 28.1589C5.0793 28.9381 6.00465 29.4397 7.07892 29.6638C8.15318 29.8879 9.35508 30 10.6846 30H22.3313C23.6609 30 24.8575 29.8879 25.9211 29.6638C26.9953 29.4397 27.9207 28.9381 28.6972 28.1589C29.4736 27.3798 29.9682 26.4566 30.1809 25.3894C30.3936 24.3221 30.5 23.1214 30.5 21.7873V10.2127C30.5 8.86792 30.3936 7.6619 30.1809 6.59463C29.9682 5.52735 29.4736 4.60949 28.6972 3.84105ZM27.7877 9.79646V22.2035C27.7877 22.9827 27.7133 23.7298 27.5644 24.4448C27.4261 25.1599 27.1443 25.7362 26.7188 26.1738C26.2827 26.6114 25.703 26.8996 24.9798 27.0383C24.2671 27.1877 23.5226 27.2624 22.7462 27.2624H10.2698C9.48272 27.2624 8.73286 27.1877 8.02023 27.0383C7.3076 26.8996 6.72792 26.6114 6.2812 26.1738C5.84511 25.7362 5.55793 25.1599 5.41966 24.4448C5.29202 23.7298 5.22821 22.9827 5.22821 22.2035V9.82847C5.22821 9.03869 5.29202 8.28626 5.41966 7.57118C5.55793 6.84544 5.84511 6.26377 6.2812 5.82619C6.72792 5.3886 7.3076 5.0951 8.02023 4.94568C8.74349 4.79626 9.50399 4.72156 10.3017 4.72156H22.7462C23.5226 4.72156 24.2671 4.79626 24.9798 4.94568C25.703 5.0951 26.2827 5.3886 26.7188 5.82619C27.1443 6.26377 27.4261 6.8401 27.5644 7.55517C27.7133 8.25958 27.7877 9.00667 27.7877 9.79646ZM9.51994 15.976C9.51994 16.3602 9.64758 16.6804 9.90285 16.9365C10.1581 17.182 10.4825 17.3047 10.8761 17.3047H15.1519V21.6112C15.1519 22.0061 15.2742 22.3316 15.5188 22.5878C15.7741 22.8332 16.0932 22.956 16.4761 22.956C16.8802 22.956 17.21 22.8332 17.4652 22.5878C17.7205 22.3423 17.8481 22.0168 17.8481 21.6112V17.3047H22.1399C22.5334 17.3047 22.8578 17.182 23.1131 16.9365C23.3684 16.6804 23.496 16.3602 23.496 15.976C23.496 15.5704 23.3684 15.2396 23.1131 14.9834C22.8578 14.7273 22.5334 14.5992 22.1399 14.5992H17.8481V10.3087C17.8481 9.90318 17.7205 9.57766 17.4652 9.33219C17.21 9.07604 16.8802 8.94797 16.4761 8.94797C16.0932 8.94797 15.7741 9.07604 15.5188 9.33219C15.2742 9.57766 15.1519 9.90318 15.1519 10.3087V14.5992H10.8761C10.4825 14.5992 10.1581 14.7273 9.90285 14.9834C9.64758 15.2396 9.51994 15.5704 9.51994 15.976Z" fill="white"/>
</svg>
