<svg width="32" height="32" viewBox="0 0 32 32" fill="none" xmlns="http://www.w3.org/2000/svg">
<g id="ic/32/pwa/share">
<g id="Vector">
<path d="M8.94572 30H23.0543C24.3695 30 25.3559 29.6702 26.0136 29.0107C26.6712 28.3598 27 27.3879 27 26.0948V13.8977C27 12.6047 26.6712 11.6284 26.0136 10.9689C25.3559 10.3093 24.3695 9.97954 23.0543 9.97954H19.6926V12.1925H22.9764C23.5561 12.1925 24.0061 12.3487 24.3263 12.6611C24.6464 12.9648 24.8065 13.4291 24.8065 14.0539V25.9386C24.8065 26.5461 24.6464 27.006 24.3263 27.3185C24.0061 27.6309 23.5561 27.7871 22.9764 27.7871H9.03658C8.44818 27.7871 7.99823 27.6309 7.68673 27.3185C7.37522 27.006 7.21947 26.5461 7.21947 25.9386V14.0539C7.21947 13.4291 7.37522 12.9648 7.68673 12.6611C7.99823 12.3487 8.44818 12.1925 9.03658 12.1925H12.3333V9.97954H8.94572C7.64779 9.97954 6.66568 10.3093 5.99941 10.9689C5.33314 11.6197 5 12.596 5 13.8977V26.0948C5 27.3879 5.33314 28.3598 5.99941 29.0107C6.66568 29.6702 7.64779 30 8.94572 30ZM16.0065 20.2631C16.292 20.2631 16.5386 20.159 16.7463 19.9507C16.9626 19.7424 17.0708 19.4995 17.0708 19.2218V6.69921L16.9799 4.8768L17.7717 5.76197L19.5628 7.66248C19.7445 7.87944 19.9825 7.98791 20.2767 7.98791C20.5449 7.98791 20.7699 7.90113 20.9516 7.72757C21.142 7.54533 21.2372 7.32404 21.2372 7.06369C21.2372 6.80335 21.1333 6.57338 20.9257 6.37378L16.7852 2.36448C16.6555 2.23431 16.5257 2.14319 16.3959 2.09112C16.2747 2.03037 16.1449 2 16.0065 2C15.868 2 15.7339 2.03037 15.6041 2.09112C15.4743 2.14319 15.3445 2.23431 15.2147 2.36448L11.0743 6.37378C10.8753 6.57338 10.7758 6.80335 10.7758 7.06369C10.7758 7.32404 10.8623 7.54533 11.0354 7.72757C11.2171 7.90113 11.4464 7.98791 11.7233 7.98791C12.0175 7.98791 12.2598 7.87944 12.4501 7.66248L14.2283 5.76197L15.0201 4.86378L14.9422 6.69921V19.2218C14.9422 19.4995 15.046 19.7424 15.2537 19.9507C15.4614 20.159 15.7123 20.2631 16.0065 20.2631Z" fill="white"/>
<path d="M8.94572 30H23.0543C24.3695 30 25.3559 29.6702 26.0136 29.0107C26.6712 28.3598 27 27.3879 27 26.0948V13.8977C27 12.6047 26.6712 11.6284 26.0136 10.9689C25.3559 10.3093 24.3695 9.97954 23.0543 9.97954H19.6926V12.1925H22.9764C23.5561 12.1925 24.0061 12.3487 24.3263 12.6611C24.6464 12.9648 24.8065 13.4291 24.8065 14.0539V25.9386C24.8065 26.5461 24.6464 27.006 24.3263 27.3185C24.0061 27.6309 23.5561 27.7871 22.9764 27.7871H9.03658C8.44818 27.7871 7.99823 27.6309 7.68673 27.3185C7.37522 27.006 7.21947 26.5461 7.21947 25.9386V14.0539C7.21947 13.4291 7.37522 12.9648 7.68673 12.6611C7.99823 12.3487 8.44818 12.1925 9.03658 12.1925H12.3333V9.97954H8.94572C7.64779 9.97954 6.66568 10.3093 5.99941 10.9689C5.33314 11.6197 5 12.596 5 13.8977V26.0948C5 27.3879 5.33314 28.3598 5.99941 29.0107C6.66568 29.6702 7.64779 30 8.94572 30ZM16.0065 20.2631C16.292 20.2631 16.5386 20.159 16.7463 19.9507C16.9626 19.7424 17.0708 19.4995 17.0708 19.2218V6.69921L16.9799 4.8768L17.7717 5.76197L19.5628 7.66248C19.7445 7.87944 19.9825 7.98791 20.2767 7.98791C20.5449 7.98791 20.7699 7.90113 20.9516 7.72757C21.142 7.54533 21.2372 7.32404 21.2372 7.06369C21.2372 6.80335 21.1333 6.57338 20.9257 6.37378L16.7852 2.36448C16.6555 2.23431 16.5257 2.14319 16.3959 2.09112C16.2747 2.03037 16.1449 2 16.0065 2C15.868 2 15.7339 2.03037 15.6041 2.09112C15.4743 2.14319 15.3445 2.23431 15.2147 2.36448L11.0743 6.37378C10.8753 6.57338 10.7758 6.80335 10.7758 7.06369C10.7758 7.32404 10.8623 7.54533 11.0354 7.72757C11.2171 7.90113 11.4464 7.98791 11.7233 7.98791C12.0175 7.98791 12.2598 7.87944 12.4501 7.66248L14.2283 5.76197L15.0201 4.86378L14.9422 6.69921V19.2218C14.9422 19.4995 15.046 19.7424 15.2537 19.9507C15.4614 20.159 15.7123 20.2631 16.0065 20.2631Z" fill="white"/>
</g>
</g>
</svg>
