<svg width="24" height="18" viewBox="0 0 24 18" fill="none" xmlns="http://www.w3.org/2000/svg">
<path d="M21 4.5H19.5V6H21V4.5Z" fill="#8984B1"/>
<path d="M22.5 6H21V7.5H22.5V6Z" fill="#8984B1"/>
<path d="M24 7.5H22.5V10.5H24V7.5Z" fill="#8984B1"/>
<path d="M22.5 12V10.5H21V12H22.5Z" fill="#8984B1"/>
<path d="M21 13.5V12H19.5V13.5H21Z" fill="#8984B1"/>
<path d="M16.5 16.5V15H9H7.5V16.5H9H16.5Z" fill="#8984B1"/>
<path d="M3 13.5H4.5V12H3V13.5Z" fill="#8984B1"/>
<path d="M1.5 12H3V10.5H1.5V12Z" fill="#8984B1"/>
<path d="M1.5 7.5H0V10.5H1.5V7.5Z" fill="#8984B1"/>
<path d="M1.5 6V7.5H3V6H1.5Z" fill="#8984B1"/>
<path d="M3 4.5V6H4.5V4.5H3Z" fill="#8984B1"/>
<path d="M19.5 15V13.5H16.5V15H19.5Z" fill="#8984B1"/>
<path fill-rule="evenodd" clip-rule="evenodd" d="M13.5 10.5H12V12H15V10.5H16.5V9H18V6H16.5V9H13.5V10.5Z" fill="#8984B1"/>
<path d="M3 16.5H4.5V18H3V16.5Z" fill="#8984B1"/>
<path d="M4.5 15H6V16.5H4.5V15Z" fill="#8984B1"/>
<path d="M7.5 12H9V13.5H7.5V12Z" fill="#8984B1"/>
<path d="M9 10.5H10.5V12H9V10.5Z" fill="#8984B1"/>
<path d="M10.5 9H12V10.5H10.5V9Z" fill="#8984B1"/>
<path d="M12 7.5H13.5V9H12V7.5Z" fill="#8984B1"/>
<path d="M13.5 6H15V7.5H13.5V6Z" fill="#8984B1"/>
<path d="M15 4.5H16.5V6H15V4.5Z" fill="#8984B1"/>
<path d="M18 1.5H19.5V3H18V1.5Z" fill="#8984B1"/>
<path d="M19.5 0H21V1.5H19.5V0Z" fill="#8984B1"/>
<path fill-rule="evenodd" clip-rule="evenodd" d="M4.5 3V4.5H6V9H7.5V10.5H9V12H10.5V10.5H12V9H13.5V6H16.5V4.5V3V1.5H7.5V3H4.5Z" fill="#8984B1"/>
<path d="M16.5 4.5H18V3H16.5V4.5Z" fill="#8984B1"/>
<path fill-rule="evenodd" clip-rule="evenodd" d="M6 15H4.5V13.5H6V15Z" fill="#8984B1"/>
<path d="M6 15H7.5V13.5H6V15Z" fill="#8984B1"/>
</svg>
