<svg width="16" height="16" viewBox="0 0 16 16" fill="none" xmlns="http://www.w3.org/2000/svg">
    <path fill-rule="evenodd" clip-rule="evenodd" d="M3.368 2h9.264v.849h.842v.849h.842v.848h.842v3.396H16v3.395h-.842v.849h-.842v.848h-1.684v-.848h-.842v-.85h-.843v-.848h-.842V9.64h-4.21v.85h-.842v.848H4.21v.849h-.843v.848H1.684v-.848H.842v-.85H0V7.943h.842V4.546h.842v-.848h.842v-.85h.842V2zm.421 4.244v.849h1.685v-.849h.842V4.546h-.842v-.848H3.789v.848h-.842v1.698h.842zm0 0V4.546h1.685v1.698H3.789zm5.053-.849h1.684v.849H8.842v-.849zm4.21.849h-1.684v.849h1.685v-.849z" fill="#03E1E4"/>
</svg>
