<svg width="32" height="33" viewBox="0 0 32 33" fill="none" xmlns="http://www.w3.org/2000/svg">
    <path d="M25.739 8.348h-4.87V6.26h4.87v2.087zM25.739 15.306h-4.87v-2.087h4.87v2.087zM27.828 13.218H25.74v-4.87h2.087v4.87z" fill="#2F3045"/>
    <path d="M20.872 13.218h-2.088v-4.87h2.088v4.87zM13.914 2.087H9.739V0h4.175v2.087zM13.914 8.348H9.739V6.26h4.175v2.087z" fill="#2F3045"/>
    <path d="M15.996 6.262H13.91V2.087h2.087v4.175zM9.746 6.262H7.659V2.087h2.087v4.175zM6.261 17.393H0v14.61h6.261v-14.61zM24.347 19.48v2.087h-2.783v2.087h-8.348v-2.087h8.348v-4.174H8.346v12.522h2.087v2.087h11.131v-2.087h4.175v-2.087h2.087v-2.087h2.087v-2.087H32V19.48h-7.653z" fill="#2F3045"/>
</svg>
