<svg width="16" height="16" viewBox="0 0 16 16" fill="none" xmlns="http://www.w3.org/2000/svg">
    <path d="M14.933 2.133V1.067h-1.066V0H9.6v1.067H8.533v1.066H7.467V3.2H6.4v2.133h2.133V4.267H9.6V3.2h3.2v3.2h-1.067v1.067h-1.066V9.6H12.8V8.533h1.067V7.467h1.066V6.4H16V2.133h-1.067zM7.467 10.667v1.067H6.4V12.8H3.2V9.6h1.067V8.534h1.066V6.4H3.2v1.067H2.133v1.067H1.067V9.6H0v4.267h1.067v1.067h1.066V16H6.4v-1.066h1.067v-1.067h1.066V12.8H9.6v-2.133H7.467z" fill="#03E1E4"/>
    <path d="M6.4 9.6H5.333v1.066H6.4V9.6zM5.333 10.667H4.267v1.067h1.066v-1.067zM8.533 7.467H7.467v1.066h1.066V7.467zM7.467 8.533H6.4V9.6h1.067V8.533zM10.667 5.333H9.6V6.4h1.067V5.333zM9.6 6.4H8.533v1.067H9.6V6.4zM11.733 4.267h-1.066v1.066h1.066V4.267z" fill="#03E1E4"/>
</svg>
