<svg width="24" height="16" viewBox="0 0 24 16" fill="none" xmlns="http://www.w3.org/2000/svg">
<path fill-rule="evenodd" clip-rule="evenodd" d="M4.5 2V3.5H6V8H7.5V9.5H9V11H15V9.5H16.5V8H18V3.5H19.5V2H16.5V0.5H7.5V2H4.5ZM13.5 8V5H16.5V8H13.5Z" fill="#8984B1"/>
<path d="M21 3.5H19.5V5H21V3.5Z" fill="#8984B1"/>
<path d="M22.5 5H21V6.5H22.5V5Z" fill="#8984B1"/>
<path d="M24 6.5H22.5V9.5H24V6.5Z" fill="#8984B1"/>
<path d="M22.5 11V9.5H21V11H22.5Z" fill="#8984B1"/>
<path d="M21 12.5V11H19.5V12.5H21Z" fill="#8984B1"/>
<path d="M16.5 15.5V14H7.5V15.5H16.5Z" fill="#8984B1"/>
<path d="M3 12.5H4.5V11H3V12.5Z" fill="#8984B1"/>
<path d="M1.5 11H3V9.5H1.5V11Z" fill="#8984B1"/>
<path d="M1.5 6.5H0V9.5H1.5V6.5Z" fill="#8984B1"/>
<path d="M1.5 5V6.5H3V5H1.5Z" fill="#8984B1"/>
<path d="M3 3.5V5H4.5V3.5H3Z" fill="#8984B1"/>
<path d="M4.5 14H7.5V12.5H4.5V14Z" fill="#8984B1"/>
<path d="M19.5 14V12.5H16.5V14H19.5Z" fill="#8984B1"/>
</svg>
