<svg width="16" height="17" viewBox="0 0 16 17" fill="none" xmlns="http://www.w3.org/2000/svg">
<g filter="url(#filter0_d_13645_7570)">
<path d="M16 16V15H5V14H4V15H2V14H1V12H0V16H16Z" fill="white"/>
<path d="M3 13V14H4V13H3Z" fill="white"/>
<path d="M2 12V13H3V12H2Z" fill="white"/>
<path d="M2 11H1V12H2V11Z" fill="white"/>
<path d="M3 10H2V11H3V10Z" fill="white"/>
<path d="M4 10V9H3V10H4Z" fill="white"/>
<path d="M5 8H4V9H5V8Z" fill="white"/>
<path d="M6 8V7H5V8H6Z" fill="white"/>
<path d="M7 6H6V7H7V6Z" fill="white"/>
<path d="M8 6V5H7V6H8Z" fill="white"/>
<path d="M9 4H8V5H9V4Z" fill="white"/>
<path d="M10 4V3H9V4H10Z" fill="white"/>
<path d="M11 2H10V3H11V2Z" fill="white"/>
<path d="M12 4V3H11V4H12Z" fill="white"/>
<path d="M12 5H13V4H12V5Z" fill="white"/>
<path d="M13 6H14V5H13V6Z" fill="white"/>
<path d="M12 6V7H13V6H12Z" fill="white"/>
<path d="M15 5V4H16V2H15V4H14V5H15Z" fill="white"/>
<path d="M14 1V2H15V1H14Z" fill="white"/>
<path d="M14 0H12V1H11V2H12V1H14V0Z" fill="white"/>
<path d="M6 14V13H5V14H6Z" fill="white"/>
<path d="M7 12H6V13H7V12Z" fill="white"/>
<path d="M8 12V11H7V12H8Z" fill="white"/>
<path d="M9 10H8V11H9V10Z" fill="white"/>
<path d="M10 8V9H11V8H10Z" fill="white"/>
<path d="M9 9V10H10V9H9Z" fill="white"/>
<path d="M12 7H11V8H12V7Z" fill="white"/>
</g>
<defs>
<filter id="filter0_d_13645_7570" x="0" y="0" width="16" height="17" filterUnits="userSpaceOnUse" color-interpolation-filters="sRGB">
<feFlood flood-opacity="0" result="BackgroundImageFix"/>
<feColorMatrix in="SourceAlpha" type="matrix" values="0 0 0 0 0 0 0 0 0 0 0 0 0 0 0 0 0 0 127 0" result="hardAlpha"/>
<feOffset dy="1"/>
<feComposite in2="hardAlpha" operator="out"/>
<feColorMatrix type="matrix" values="0 0 0 0 0 0 0 0 0 0 0 0 0 0 0 0 0 0 0.25 0"/>
<feBlend mode="normal" in2="BackgroundImageFix" result="effect1_dropShadow_13645_7570"/>
<feBlend mode="normal" in="SourceGraphic" in2="effect1_dropShadow_13645_7570" result="shape"/>
</filter>
</defs>
</svg>
