<svg width="16" height="16" viewBox="0 0 16 16" fill="none" xmlns="http://www.w3.org/2000/svg">
    <path d="M3.154 8.533H4.23v2.134h1.077v1.066h1.077V12.8h1.077v1.067h1.076V12.8h1.077v-1.067h1.077v-1.066h1.077V8.533h1.077V4.267H11.77V3.2H9.615V2.133h-3.23V3.2H4.23v1.067H3.154v4.266z" fill="#03E1E4"/>
    <path d="M1 2.133v6.4h1.077V3.2H4.23V2.133H1zM6.385 1.067H4.23v1.066h2.154V1.067zM9.615 0h-3.23v1.067h3.23V0zM9.615 2.133h2.154V1.067H9.615v1.066zM15 8.533v-6.4h-3.23V3.2h2.153v5.333H15z" fill="#03E1E4"/>
    <path d="M12.846 8.533v2.134h1.077V8.533h-1.077zM11.77 10.667v1.066h1.076v-1.066H11.77zM10.692 11.733V12.8h1.077v-1.067h-1.077zM9.615 12.8v1.067h1.077V12.8H9.615zM8.538 14.933h1.077v-1.066H8.538v1.066zM7.462 16h1.076v-1.067H7.462V16zM7.462 13.867H6.385v1.066h1.077v-1.066zM6.385 12.8H5.308v1.067h1.077V12.8zM5.308 12.8v-1.067H4.23V12.8h1.077zM3.154 10.667v1.066H4.23v-1.066H3.154zM3.154 8.533H2.077v2.134h1.077V8.533z" fill="#03E1E4"/>
</svg>
