<svg width="16" height="16" viewBox="0 0 16 16" fill="none" xmlns="http://www.w3.org/2000/svg">
    <path d="M14.957 6.957V5.913h-1.044V3.826h1.043V2.087h-1.043V1.043h-1.74v1.044h-2.086V1.043H9.044V0H6.957v1.043H5.913v1.044H3.826V1.043H2.087v1.044H1.043v1.74h1.044v2.086H1.043v1.043H0v2.087h1.043v1.044h1.044v2.087H1.043v1.739h1.044v1.043h1.74v-1.043h2.086v1.043h1.043V16h2.087v-1.043h1.044v-1.044h2.087v1.043h1.739v-1.043h1.043v-1.74h-1.043v-2.086h1.043V9.044H16V6.957h-1.043zm-4.174 2.782H9.739v1.044H6.261V9.739H5.217V6.261h1.044V5.217h3.478v1.044h1.044v3.478z" fill="#03E1E4"/>
</svg>
