<svg width="46" height="50" viewBox="0 0 46 50" fill="none" xmlns="http://www.w3.org/2000/svg">
<path d="M2 16H0V34H2V38H4V42H6V44H8V46H12V48H16V50H30V48H34V46H38V44H40V42H42V38H44V34H46V16H44V12H42V8H40V6H38V4H34V2H30V0H16V2H12V4H8V6H6V8H4V12H2V16Z" fill="#3F9500"/>
<path d="M2 16H0V30H2V34H4V38H6V40H8V42H12V44H16V46H30V44H34V42H38V40H40V38H42V34H44V30H46V16H44V12H42V8H40V6H38V4H34V2H30V0H16V2H12V4H8V6H6V8H4V12H2V16Z" fill="#56CC00"/>
<path d="M8 22H6V24H8V26H10V28H12V30H14V32H16V34H18V36H22V34H24V32H26V30H28V28H30V26H32V24H34V22H36V20H38V18H40V16H38V14H36V12H34V14H32V16H30V18H28V20H26V22H24V24H22V26H18V24H16V22H14V20H12V18H10V20H8V22Z" fill="white"/>
</svg>
