<svg xmlns="http://www.w3.org/2000/svg" width="24" height="24" viewBox="0 0 24 24" fill="none">
    <path d="M3.68492 0.75H0.75V2.21743H3.68492V0.75Z" fill="#03e1e4"/>
    <path d="M11.9963 21.7826H9.55051V23.25H11.9963V21.7826Z" fill="#03e1e4"/>
    <path d="M20.3134 21.7826H17.8676V23.25H20.3134V21.7826Z" fill="#03e1e4"/>
    <path d="M21.7857 19.3382H20.3182V21.7839H21.7857V19.3382Z" fill="#03e1e4"/>
    <path d="M8.08864 17.8705V21.7837H9.55608V19.338H12.0018V21.7837H13.4693V19.338H16.4042V21.7837H17.8716V19.338H20.3174V17.8705H8.08864Z" fill="#03e1e4"/>
    <path d="M5.15143 4.6624V2.21662H3.68399V6.12983H5.15143V10.5322H6.61887V9.0647H10.5321V6.12983H11.9995V9.0647H16.4019V6.12983H17.8693V9.0647H21.7826V10.5322H23.25V4.6624H5.15143Z" fill="#03e1e4"/>
    <path d="M17.867 10.5322V14.9346H16.3995V10.5322H11.9972V14.9346H10.5297V10.5322H6.61652V17.8694H8.084V16.402H20.3127V14.9346H21.7802V10.5322H17.867Z" fill="#03e1e4"/>
</svg>