<svg width="40" height="40" viewBox="0 0 40 40" fill="none" xmlns="http://www.w3.org/2000/svg">
<path d="M10.8333 6.7V4.8H14.5V2.9H16.3333V1H23.6667V2.9H25.5V4.8H29.1667V6.7H31V37.1H29.1667V39H10.8333V37.1H9V6.7H10.8333Z" fill="#11190A"/>
<path d="M16.333 4.80002V2.90002H23.6663V4.80002H25.4997V6.70002H29.1663V37.1H10.833V6.70002H14.4997V4.80002H16.333Z" fill="#8DE842"/>
<path d="M16.333 2.90002H18.1663V4.80002H21.833V2.90002H23.6663V4.80002H25.4997V6.70002H29.1663V37.1H21.833V35.2H25.4997V8.60002H23.6663V6.70002H16.333V8.60002H14.4997V35.2H18.1663V37.1H10.833V6.70002H14.4997V4.80002H16.333V2.90002Z" fill="#73CC29"/>
<path d="M25.4998 4.80005H21.8332V6.70005H25.4998V8.60005H27.3332V35.2H25.4998V37.1H29.1665V6.70005H25.4998V4.80005Z" fill="#58912A"/>
<path d="M14.4997 4.80005H18.1663V6.70005H14.4997V8.60005H12.6663V35.2H14.4997V37.1H10.833V6.70005H14.4997V4.80005Z" fill="#58912A"/>
<path d="M29.1663 37.1V35.2H27.333V37.1H29.1663Z" fill="#2E451B"/>
<path d="M12.6663 37.1V35.2H10.833V37.1H12.6663Z" fill="#2E451B"/>
<path d="M12.6663 8.60005V6.70005H10.833V8.60005H12.6663Z" fill="#2E451B"/>
<path d="M16.333 6.70005V4.80005H14.4997V6.70005H16.333Z" fill="#2E451B"/>
<path d="M25.4997 4.80005V6.70005H23.6663V4.80005H25.4997Z" fill="#2E451B"/>
<path d="M29.1663 6.70005V8.60005H27.333V6.70005H29.1663Z" fill="#2E451B"/>
<path d="M16.3333 18.1V14.3H25.5V18.1H23.6667V20H21.8333V21.9H25.5V23.8H23.6667V25.7H21.8333V27.6H20V29.5H18.1667V23.8H14.5V18.1H16.3333Z" fill="#11190A"/>
</svg>
