<svg width="24" height="24" viewBox="0 0 24 24" fill="none" xmlns="http://www.w3.org/2000/svg">
    <g id="ic/32/crafting_active">
        <g id="Vector 103">
            <path d="M1.5 8.0625V14.625H2.8125V15.9375H4.125V17.25H5.4375V18.5625H13.3125V19.875H14.625V21.1875H15.9375V22.5H22.5V15.9375H21.1875V17.25H19.875V15.9375H18.5625V14.625H17.25V13.3125H15.9375V5.4375H14.625V4.125H13.3125V2.8125H14.625V1.5H8.0625V4.125H9.375V5.4375H10.6875V6.75H12V10.6875H10.6875V12H12V13.3125H10.6875V14.625H6.75V13.3125H5.4375V12H4.125V10.6875H2.8125V9.375H4.125V8.0625H1.5Z" fill="#2F3045"/>
            <path d="M18.5625 5.4375H17.25V13.3125H18.5625V5.4375Z" fill="#2F3045"/>
            <path d="M18.5625 14.625H19.875V13.3125H18.5625V14.625Z" fill="#2F3045"/>
            <path d="M21.1875 15.9375V14.625H19.875V15.9375H21.1875Z" fill="#2F3045"/>
            <path d="M15.9375 2.8125H14.625V4.125H15.9375V2.8125Z" fill="#2F3045"/>
            <path d="M17.25 5.4375V4.125H15.9375V5.4375H17.25Z" fill="#2F3045"/>
            <path d="M6.75 12V13.3125H10.6875V12H6.75Z" fill="#2F3045"/>
            <path d="M6.75 10.6875H5.4375V12H6.75V10.6875Z" fill="#2F3045"/>
            <path d="M5.4375 9.375H4.125V10.6875H5.4375V9.375Z" fill="#2F3045"/>
        </g>
    </g>
</svg>
