<svg width="24" height="24" viewBox="0 0 24 24" fill="none" xmlns="http://www.w3.org/2000/svg">
<g id="ic/32/avatar_hats">
<g id="avatar_hats">
<path fill-rule="evenodd" clip-rule="evenodd" d="M6.85714 2.8125H5.57143V8.0625H3V9.375H5.57143V13.3125H6.85714V9.375H17.1429V13.3125H18.4286V9.375H21V8.0625H18.4286V2.8125H17.1429V1.5H6.85714V2.8125ZM8.14286 4.125V2.8125H9.42857V4.125H8.14286V6.75H6.85714V4.125H8.14286Z" fill="#03E1E4"/>
<path d="M10.7143 15.9375H9.42857V17.25H10.7143V15.9375Z" fill="#03E1E4"/>
<path d="M8.14286 14.625V15.9375H9.42857V14.625H8.14286Z" fill="#03E1E4"/>
<path d="M8.14286 13.3125H6.85714V14.625H8.14286V13.3125Z" fill="#03E1E4"/>
<path d="M13.2857 17.25H14.5714V15.9375H13.2857V17.25Z" fill="#03E1E4"/>
<path d="M15.8571 15.9375V14.625H14.5714V15.9375H15.8571Z" fill="#03E1E4"/>
<path d="M17.1429 13.3125H15.8571V14.625H17.1429V13.3125Z" fill="#03E1E4"/>
<path d="M17.1429 18.5625V17.25H14.5714V18.5625H17.1429Z" fill="#03E1E4"/>
<path d="M6.85714 21.1875V18.5625H5.57143V22.5H18.4286V18.5625H17.1429V21.1875H6.85714Z" fill="#03E1E4"/>
<path d="M9.42857 17.25H6.85714V18.5625H9.42857V17.25Z" fill="#03E1E4"/>
</g>
</g>
</svg>
