<svg xmlns="http://www.w3.org/2000/svg" width="24" height="21" fill="none" viewBox="0 0 24 21">
    <g fill="#2F3045" filter="url(#filter0_d)">
        <path d="M14 16v-4h2V8H8v4h2v4h4zM10 20h4v-2h-4v2zM8 16v2h2v-2H8zM16 18v-2h-2v2h2z"/>
        <path d="M2 4H0v6h2v2h2v2h2v2h2v-4H6V8H2V6h4V4h2V2h2v2H8v2h8V4h-2V2h2v2h2v2h4v2h-4v4h-2v4h2v-2h2v-2h2v-2h2V4h-2V2h-2V0H4v2H2v2z"/>
    </g>
    <defs>
        <filter id="filter0_d" width="24" height="21" x="0" y="0" color-interpolation-filters="sRGB" filterUnits="userSpaceOnUse">
            <feFlood flood-opacity="0" result="BackgroundImageFix"/>
            <feColorMatrix in="SourceAlpha" values="0 0 0 0 0 0 0 0 0 0 0 0 0 0 0 0 0 0 127 0"/>
            <feOffset dy="1"/>
            <feColorMatrix values="0 0 0 0 0 0 0 0 0 0 0 0 0 0 0 0 0 0 0.25 0"/>
            <feBlend in2="BackgroundImageFix" result="effect1_dropShadow"/>
            <feBlend in="SourceGraphic" in2="effect1_dropShadow" result="shape"/>
        </filter>
    </defs>
</svg>
