<svg width="32" height="32" viewBox="0 0 32 32" fill="none" xmlns="http://www.w3.org/2000/svg">
    <path d="M0 0v4h2v2h2v8h2v-2h4v-2h2V6h2V4h2V0H0z" fill="#03E1E4"/>
    <path d="M12 16v-4h-2v2H6v2H4v4h2v-2h4v-2h2z" fill="#03E1E4"/>
    <path d="M6 22H4v4h2v-2h4v-2h2v-4h-2v2H6v2z" fill="#03E1E4"/>
    <path d="M6 28H4v2h2v2h4v-2h2v-6h-2v2H6v2z" fill="#03E1E4"/>
    <path fill-rule="evenodd" clip-rule="evenodd" d="M16 20v8h2v2h2v2h8v-2h2v-2h2v-8h-2v-2h-2v-2h-8v2h-2v2h-2zm4 6v-4h2v-2h4v2h2v4h-2v2h-4v-2h-2z" fill="#03E1E4"/>
</svg>
