<svg xmlns="http://www.w3.org/2000/svg" width="32" height="32" fill="none" viewBox="0 0 32 32">
    <path fill="#FFDC00" d="M29.913 10.435V6.26h-2.087V4.174H25.74V2.087h-4.174V0h-11.13v2.087H6.26v2.087H4.174V6.26H2.087v4.174H0v11.13h2.087v4.174h2.087v2.087H6.26v2.087h4.174V32h11.13v-2.087h4.174v-2.087h2.087V25.74h2.087v-4.174H32v-11.13h-2.087zm-22.26-.696h2.086V7.652h2.783V9.74h2.087v2.783h-2.087v2.087H9.739v-2.087H7.652V9.739zm16.695 12.522H22.26v2.087h-2.783V22.26h-2.087v-2.783h2.087v-2.087h2.783v2.087h2.087v2.783zm0-12.522H22.26v2.087h-2.087v2.087h-2.087V16H16v2.087h-2.087v2.087h-2.087v2.087H9.74v2.087H7.652V22.26H9.74v-2.087h2.087v-2.087h2.087V16H16v-2.087h2.087v-2.087h2.087V9.74h2.087V7.652h2.087V9.74z"/>
    <path fill="#FFDC00" d="M22.26 19.479h-2.783v2.782h2.782V19.48zM12.52 9.738H9.739v2.783h2.783V9.738z"/>
</svg>
