<svg xmlns="http://www.w3.org/2000/svg" width="32" height="32" fill="none" viewBox="0 0 32 32">
    <path fill="#2F3045" fill-rule="evenodd" d="M2 32v-2h28v2h2V0h-2v3H2V0H0v32h2zm28-19v-3H2v3h28zM2 20h28v3H2v-3zM5 4H3v2h2V4zm2 0h2v2H7V4zm6 0h-2v2h2V4zm2 0h2v2h-2V4zm6 0h-2v2h2V4zm2 0h2v2h-2V4zm6 0h-2v2h2V4zm-4 3h2v2h-2V7zm-2 0h-2v2h2V7zm-6 0h2v2h-2V7zm-2 0h-2v2h2V7zM9 7h2v2H9V7zM7 7H5v2h2V7zm-4 7h2v2H3v-2zm4 3H5v2h2v-2zm0-3h2v2H7v-2zm4 3H9v2h2v-2zm0-3h2v2h-2v-2zm6 0h-2v2h2v-2zm-4 3h2v2h-2v-2zm6 0h-2v2h2v-2zm0-3h2v2h-2v-2zm4 5v-2h-2v2h2zm0-5h2v2h-2v-2zm4 3h-2v2h2v-2zm0-3h2v2h-2v-2zm2 10h-2v2h2v-2zm-6 0h2v2h-2v-2zm-2 0h-2v2h2v-2zm-6 0h2v2h-2v-2zm-2 0h-2v2h2v-2zm-6 0h2v2H7v-2zm-2 0H3v2h2v-2zm0 3h2v2H5v-2zm6 2v-2H9v2h2zm4-2v2h-2v-2h2zm4 0h-2v2h2v-2zm4 0v2h-2v-2h2zm4 0h-2v2h2v-2z" clip-rule="evenodd"/>
</svg>
