<svg width="24" height="24" viewBox="0 0 24 24" fill="none" xmlns="http://www.w3.org/2000/svg">
<g id="ic/32/season_store">
<path id="Vector 148" fill-rule="evenodd" clip-rule="evenodd" d="M5.4375 1.5V2.8125H4.125V5.4375H5.4375V6.75H2.8125V8.0625H1.5V13.3125H2.8125V21.1875H4.125V22.5H19.875V21.1875H21.1875V13.3125H22.5V8.0625H21.1875V6.75H18.5625V5.4375H19.875V2.8125H18.5625V1.5H13.3125V2.8125H10.6875V1.5H5.4375ZM18.5625 6.75H14.625V8.0625H15.9375V9.375H17.25V10.6875H18.5625V9.375H19.875V8.0625H18.5625V6.75ZM21.1875 13.3125V12H13.3125V6.75H10.6875V12H2.8125V13.3125H10.6875V21.1875H13.3125V13.3125H21.1875ZM5.4375 6.75H9.375V8.0625H8.0625V9.375H6.75V10.6875H5.4375V9.375H4.125V8.0625H5.4375V6.75ZM6.75 4.125V2.8125H9.375V4.125H6.75ZM9.375 4.125H10.6875V5.4375H9.375V4.125ZM14.625 4.125V5.4375H13.3125V4.125H14.625ZM14.625 4.125V2.8125H17.25V4.125H14.625Z" fill="#03E1E4"/>
</g>
</svg>
