<svg xmlns="http://www.w3.org/2000/svg" width="32" height="32" fill="none" viewBox="0 0 32 32">
    <path fill="#03E1E4" d="M14 20v-2h-4v2h4zM14 22h2v-2h-2v2zM18 24v-2h-2v2h2zM18 26h2v-2h-2v2zM22 28v-2h-2v2h2zM24 26v-2h-2v2h2zM26 22h-2v2h2v-2zM30 22v8h2V10h-2v10h-4v2h4zM2 30v2h28v-2h-6v-2h-2v2H2zM2 8v2h28V8h-6V6h-2v2H10V6H8v2H2zM12 6V4h-2v2h2zM14 2h-2v2h2V2zM18 2V0h-4v2h4zM20 4V2h-2v2h2zM22 6V4h-2v2h2zM8 22h2v-2H8v2zM4 20v-2H2v-8H0v20h2v-2h2v-2H2v-6h2zM4 22h2v-2H4v2zM6 24h2v-2H6v2zM4 24v2h2v-2H4zM20 12v2h4v-2h-4zM18 14v4h2v-4h-2zM20 20h4v-2h-4v2zM26 18v-4h-2v4h2z"/>
</svg>
