<svg width="16" height="16" viewBox="0 0 16 16" fill="none" xmlns="http://www.w3.org/2000/svg">
    <path d="M4.073 2.3v-.767h1.48V.767h.74V0H9.25v.767h.74v.766h1.48V2.3h.74v12.267h-.74v.766H4.073v-.766h-.74V2.3h.74z" fill="#11190A"/>
    <path d="M6.292 1.533V.767h2.96v.766h.739V2.3h1.48v12.267H4.072V2.3h1.48v-.767h.74z" fill="#8DE842"/>
    <path d="M6.292.767h.74v.766h1.48V.767h.74v.766h.739V2.3h1.48v12.267H8.51V13.8h1.48V3.067h-.74V2.3H6.292v.767h-.74V13.8h1.48v.767h-2.96V2.3h1.48v-.767h.74V.767z" fill="#73CC29"/>
    <path d="M9.991 1.533h-1.48V2.3h1.48v.767h.74V13.8h-.74v.767h1.48V2.3H9.99v-.767zM5.552 1.533h1.48V2.3h-1.48v.767h-.74V13.8h.74v.767h-1.48V2.3h1.48v-.767z" fill="#58912A"/>
    <path d="M11.47 14.567V13.8h-.74v.767h.74zM4.813 14.567V13.8h-.74v.767h.74zM4.813 3.067V2.3h-.74v.767h.74zM6.292 2.3v-.767h-.74V2.3h.74zM9.991 1.533V2.3h-.74v-.767h.74zM11.47 2.3v.767h-.74V2.3h.74z" fill="#2E451B"/>
    <path d="M6.292 6.9V5.367h3.7V6.9h-.74v.767h-.74v.766h1.48V9.2h-.74v.767h-.74v.766h-.74v.767h-.74V9.2h-1.48V6.9h.74z" fill="#11190A"/>
</svg>
