<svg width="40" height="40" viewBox="0 0 40 40" fill="none" xmlns="http://www.w3.org/2000/svg">
<g id="ic/32/fire">
<path id="Vector 183" fill-rule="evenodd" clip-rule="evenodd" d="M26.9643 36.4062V38.75H13.0357V36.4062H8.39286V34.0625H6.07143V29.375H3.75V20H6.07143V15.3125H8.39286V12.9688H10.7143V10.625H13.0357V1.25H17.6786V3.59375H20V5.9375H22.3214V8.28125H24.6429V12.9688H26.9643V17.6562H29.2857V15.3125H31.6071V17.6562H33.9286V22.3438H36.25V31.7188H33.9286V34.0625H31.6071V36.4062H26.9643ZM24.6429 34.0625V36.4062H15.3571V34.0625H13.0357V31.7188H10.7143V24.6875H13.0357V22.3438H15.3571V20H17.6786V12.9688H20V17.6562H22.3214V27.0312H20V29.375H22.3214V27.0312H24.6429V22.3438H26.9643V24.6875H29.2857V31.7188H26.9643V34.0625H24.6429Z" fill="#514E72"/>
</g>
</svg>
