<svg width="24" height="24" viewBox="0 0 24 24" fill="none" xmlns="http://www.w3.org/2000/svg">
<g id="ic/32/eventpass">
<g id="event_pass_icon">
<path d="M16.2188 4.3125H17.625V1.5H16.2188V4.3125Z" fill="#2F3045"/>
<path d="M6.375 4.3125H7.78125V1.5H6.375V4.3125Z" fill="#2F3045"/>
<path d="M19.0312 9.1875V12H17.625V13.4062H16.2188V14.8125H14.8125V16.2188H13.4062V17.625H12V19.0312H10.5938V20.4375H9.1875V19.0312H7.78125V17.625H6.375V16.2188H4.96875V13.4062H7.78125V14.8125H9.1875V16.2188H10.5938V14.8125H12V13.4062H13.4062V12H14.8125V10.5938H16.2188V9.1875H19.0312Z" fill="#2F3045"/>
<path d="M2.90625 22.5H21.0938V21.0938H2.90625V22.5Z" fill="#2F3045"/>
<path d="M2.90625 2.90625V4.3125H1.5V21.0938H2.90625V7.78125H21.0938V21.0938H22.5V4.3125H21.0938V2.90625H19.0312V5.71875H14.8125V2.90625H9.1875V5.71875H4.96875V2.90625H2.90625Z" fill="#2F3045"/>
</g>
</g>
</svg>
