<svg width="25" height="24" viewBox="0 0 25 24" fill="none" xmlns="http://www.w3.org/2000/svg">
<g id="ic/32/fire">
<path id="Vector 183" fill-rule="evenodd" clip-rule="evenodd" d="M16.6786 21.8438V23.25H8.32143V21.8438H5.53571V20.4375H4.14286V17.625H2.75V12H4.14286V9.1875H5.53571V7.78125H6.92857V6.375H8.32143V0.75H11.1071V2.15625H12.5V3.5625H13.8929V4.96875H15.2857V7.78125H16.6786V10.5938H18.0714V9.1875H19.4643V10.5938H20.8571V13.4062H22.25V19.0312H20.8571V20.4375H19.4643V21.8438H16.6786ZM15.2857 20.4375V21.8438H9.71429V20.4375H8.32143V19.0312H6.92857V14.8125H8.32143V13.4062H9.71429V12H11.1071V7.78125H12.5V10.5938H13.8929V16.2188H12.5V17.625H13.8929V16.2188H15.2857V13.4062H16.6786V14.8125H18.0714V19.0312H16.6786V20.4375H15.2857Z" fill="#2F3045"/>
</g>
</svg>
