<svg width="21" height="20" viewBox="0 0 21 20" fill="none" xmlns="http://www.w3.org/2000/svg">
<g id="ic/32/gamepad">
<path id="gamepad_icon" fill-rule="evenodd" clip-rule="evenodd" d="M4.71053 3.125H16.2895V4.18269H17.3421V5.24038H18.3947V6.29808H19.4474V10.5288H20.5V14.7596H19.4474V15.8173H18.3947V16.875H16.2895V15.8173H15.2368V14.7596H14.1842V13.7019H13.1316V12.6442H7.86842V13.7019H6.81579V14.7596H5.76316V15.8173H4.71053V16.875H2.60526V15.8173H1.55263V14.7596H0.5V12.6442V10.5288H1.55263V6.29808H2.60526V5.24038H3.65789V4.18269H4.71053V3.125ZM5.23684 8.41346V9.47115H7.34211V8.41346H8.39474V6.29808H7.34211V5.24038H5.23684V6.29808H4.18421V8.41346H5.23684ZM5.23684 8.41346V6.29808H7.34211V8.41346H5.23684ZM11.5526 7.35577H13.6579V8.41346H11.5526V7.35577ZM16.8158 8.41346H14.7105V9.47115H16.8158V8.41346Z" fill="white"/>
</g>
</svg>
