<svg width="40" height="40" viewBox="0 0 40 40" fill="none" xmlns="http://www.w3.org/2000/svg">
<g id="ic/48/level_up">
<path id="Vector 179" d="M0 26.6667V18.3333H1.66667V16.6667H3.33333V15H5V13.3333H6.66667V11.6667H8.33333V10H10V8.33333H11.6667V6.66667H13.3333V5H15V3.33333H16.6667V1.66667H18.3333V0H21.6667V1.66667H23.3333V3.33333H25V5H26.6667V6.66667H28.3333V8.33333H30V10H31.6667V11.6667H33.3333V13.3333H35V15H36.6667V16.6667H38.3333V18.3333H40V26.6667H38.3333V28.3333H33.3333V38.3333H31.6667V40H8.33333V38.3333H6.66667V28.3333H1.66667V26.6667H0Z" fill="#105200"/>
<path id="Vector 180" d="M0 25V18.3333H1.66667V16.6667H3.33333V15H5V13.3333H6.66667V11.6667H8.33333V10H10V8.33333H11.6667V6.66667H13.3333V5H15V3.33333H16.6667V1.66667H18.3333V0H21.6667V1.66667H23.3333V3.33333H25V5H26.6667V6.66667H28.3333V8.33333H30V10H31.6667V11.6667H33.3333V13.3333H35V15H36.6667V16.6667H38.3333V18.3333H40V25H38.3333V26.6667H33.3333V36.6667H31.6667V38.3333H8.33333V36.6667H6.66667V26.6667H1.66667V25H0Z" fill="#21A300"/>
<path id="Vector 181" d="M36.668 18.3332H38.3346V24.9998H33.3346V26.6665H31.668V36.6665H8.33463V26.6665H6.66797V24.9998H1.66797V18.3332H3.33464V16.6665H5.0013V14.9998H6.66797V13.3332H8.33463V11.6665H10.0013V9.99984H11.668V8.33317H13.3346V6.6665H15.0013V4.99984H16.668V3.33317H18.3346V1.6665H21.668V3.33317H23.3346V4.99984H25.0013V6.6665H26.668V8.33317H28.3346V9.99984H30.0013V11.6665H31.668V13.3332H33.3346V14.9998H35.0013V16.6665H36.668V18.3332Z" fill="#29CC00"/>
<g id="LV" filter="url(#filter0_d_1504_3842)">
<path d="M11.668 28.3332V16.6665H14.9997V26.6665H19.9968V28.3332H11.668Z" fill="white"/>
<path d="M23.3379 28.3332V26.6665H21.672V24.9998H20.0062V16.6665H23.3379V24.9998H26.6696V16.6665H30.0013V24.9998H28.3354V26.6665H26.6696V28.3332H23.3379Z" fill="white"/>
</g>
<g id="Vector 182">
<path d="M1.66797 21.6665V18.3332H3.33464V16.6665H5.0013V14.9998H6.66797V13.3332H8.33464V11.6665H10.0013V9.99984H11.668V8.33317H13.3346V6.6665H15.0013V4.99984H16.668V3.33317H18.3346V1.6665H20.0013V3.33317H18.3346V4.99984H16.668V6.6665H15.0013V8.33317H13.3346V9.99984H11.668V11.6665H10.0013V13.3332H8.33464V14.9998H6.66797V16.6665H5.0013V18.3332H3.33464V21.6665H1.66797Z" fill="#6CFF47"/>
<path d="M3.33464 24.9998V23.3332H1.66797V24.9998H3.33464Z" fill="#6CFF47"/>
<path d="M6.66797 26.6665V24.9998H8.33464V26.6665H6.66797Z" fill="#6CFF47"/>
<path d="M8.33464 36.6665V28.3332H10.0013V36.6665H8.33464Z" fill="#6CFF47"/>
</g>
</g>
<defs>
<filter id="filter0_d_1504_3842" x="11.668" y="16.6665" width="18.332" height="12.6665" filterUnits="userSpaceOnUse" color-interpolation-filters="sRGB">
<feFlood flood-opacity="0" result="BackgroundImageFix"/>
<feColorMatrix in="SourceAlpha" type="matrix" values="0 0 0 0 0 0 0 0 0 0 0 0 0 0 0 0 0 0 127 0" result="hardAlpha"/>
<feOffset dy="1"/>
<feComposite in2="hardAlpha" operator="out"/>
<feColorMatrix type="matrix" values="0 0 0 0 0 0 0 0 0 0 0 0 0 0 0 0 0 0 0.25 0"/>
<feBlend mode="normal" in2="BackgroundImageFix" result="effect1_dropShadow_1504_3842"/>
<feBlend mode="normal" in="SourceGraphic" in2="effect1_dropShadow_1504_3842" result="shape"/>
</filter>
</defs>
</svg>
