<svg width="20" height="20" viewBox="0 0 20 20" fill="none" xmlns="http://www.w3.org/2000/svg">
<path d="M13.5156 3.59375H14.6875V1.25H13.5156V3.59375Z" fill="white"/>
<path d="M5.3125 3.59375H6.48438V1.25H5.3125V3.59375Z" fill="white"/>
<path d="M15.8594 7.65625V10H14.6875V11.1719H13.5156V12.3438H12.3438V13.5156H11.1719V14.6875H10V15.8594H8.82812V17.0312H7.65625V15.8594H6.48438V14.6875H5.3125V13.5156H4.14062V11.1719H6.48438V12.3438H7.65625V13.5156H8.82812V12.3438H10V11.1719H11.1719V10H12.3438V8.82812H13.5156V7.65625H15.8594Z" fill="white"/>
<path d="M2.42188 18.75H17.5781V17.5781H2.42188V18.75Z" fill="white"/>
<path d="M2.42188 2.42188V3.59375H1.25V17.5781H2.42188V6.48438H17.5781V17.5781H18.75V3.59375H17.5781V2.42188H15.8594V4.76562H12.3438V2.42188H7.65625V4.76562H4.14062V2.42188H2.42188Z" fill="white"/>
</svg>
