<svg width="21" height="20" viewBox="0 0 21 20" fill="none" xmlns="http://www.w3.org/2000/svg">
<path d="M3.57077 0.625H1.125V1.84786H3.57077V0.625Z" fill="white"/>
<path d="M10.4969 18.1521H8.45876V19.375H10.4969V18.1521Z" fill="white"/>
<path d="M17.4278 18.1521H15.3897V19.375H17.4278V18.1521Z" fill="white"/>
<path d="M18.6547 16.1152H17.4319V18.1533H18.6547V16.1152Z" fill="white"/>
<path d="M7.24053 14.8921V18.1531H8.4634V16.115H10.5015V18.1531H11.7244V16.115H14.1702V18.1531H15.393V16.115H17.4311V14.8921H7.24053Z" fill="white"/>
<path d="M4.79286 3.88533V1.84719H3.56999V5.10819H4.79286V8.77681H6.01572V7.55391H9.27675V5.10819H10.4996V7.55391H14.1682V5.10819H15.3911V7.55391H18.6521V8.77681H19.875V3.88533H4.79286Z" fill="white"/>
<path d="M15.3892 8.77687V12.4455H14.1663V8.77687H10.4977V12.4455H9.27479V8.77687H6.01376V14.8912H7.23667V13.6683H17.4273V12.4455H18.6502V8.77687H15.3892Z" fill="white"/>
</svg>
