<svg width="21" height="20" viewBox="0 0 21 20" fill="none" xmlns="http://www.w3.org/2000/svg">
<g id="ic/32/TaskWall">
<g id="Vector 94">
<path fill-rule="evenodd" clip-rule="evenodd" d="M7.61538 4.75V2.41667H8.76923V1.25H12.2308V2.41667H13.3846V4.75H7.61538ZM9.92308 2.41667V3.58333H11.0769V2.41667H9.92308Z" fill="white"/>
<path fill-rule="evenodd" clip-rule="evenodd" d="M13.3846 4.75V5.91667H7.61538V4.75H6.46154V3.58333H4.15385V4.75H3V17.5833H4.15385V18.75H16.8462V17.5833H18V4.75H16.8462V3.58333H14.5385V4.75H13.3846ZM6.46154 7.66667H5.30769V8.83333H6.46154V10H7.61538V8.83333H8.76923V7.66667H9.92308V6.5H8.76923V7.66667H7.61538V8.83333H6.46154V7.66667ZM6.46154 11.1667H5.30769V12.3333H6.46154V13.5H7.61538V12.3333H8.76923V11.1667H9.92308V10H8.76923V11.1667H7.61538V12.3333H6.46154V11.1667ZM11.0769 11.1667H15.6923V12.3333H11.0769V11.1667ZM11.0769 7.66667H15.6923V8.83333H11.0769V7.66667ZM8.76923 13.5H9.92308V14.6667H8.76923V13.5ZM7.61538 15.8333V14.6667H8.76923V15.8333H7.61538ZM6.46154 15.8333H7.61538V17H6.46154V15.8333ZM6.46154 15.8333H5.30769V14.6667H6.46154V15.8333ZM15.6923 14.6667H11.0769V15.8333H15.6923V14.6667Z" fill="white"/>
</g>
</g>
</svg>
