<svg width="21" height="20" viewBox="0 0 21 20" fill="none" xmlns="http://www.w3.org/2000/svg">
<g id="ic/32/crafting">
<g id="Vector 103">
<path d="M1.75 6.71875V12.1875H2.84375V13.2812H3.9375V14.375H5.03125V15.4688H11.5938V16.5625H12.6875V17.6562H13.7812V18.75H19.25V13.2812H18.1562V14.375H17.0625V13.2812H15.9688V12.1875H14.875V11.0938H13.7812V4.53125H12.6875V3.4375H11.5938V2.34375H12.6875V1.25H7.21875V3.4375H8.3125V4.53125H9.40625V5.625H10.5V8.90625H9.40625V10H10.5V11.0938H9.40625V12.1875H6.125V11.0938H5.03125V10H3.9375V8.90625H2.84375V7.8125H3.9375V6.71875H1.75Z" fill="white"/>
<path d="M15.9688 4.53125H14.875V11.0938H15.9688V4.53125Z" fill="white"/>
<path d="M15.9688 12.1875H17.0625V11.0938H15.9688V12.1875Z" fill="white"/>
<path d="M18.1562 13.2812V12.1875H17.0625V13.2812H18.1562Z" fill="white"/>
<path d="M13.7812 2.34375H12.6875V3.4375H13.7812V2.34375Z" fill="white"/>
<path d="M14.875 4.53125V3.4375H13.7812V4.53125H14.875Z" fill="white"/>
<path d="M6.125 10V11.0938H9.40625V10H6.125Z" fill="white"/>
<path d="M6.125 8.90625H5.03125V10H6.125V8.90625Z" fill="white"/>
<path d="M5.03125 7.8125H3.9375V8.90625H5.03125V7.8125Z" fill="white"/>
</g>
</g>
</svg>
