<svg xmlns="http://www.w3.org/2000/svg" width="24" height="25" fill="none" viewBox="0 0 24 25">
    <path fill="#7E7DA1" d="M22.435 7.305v-2.61h-1.566V3.132h-1.565V1.565h-2.608V0H7.304v1.565H4.695v1.566H3.13v1.565H1.565v2.609H0v9.391h1.565v2.609H3.13v1.565h1.565v1.565h2.61v1.566h9.39v-1.566h2.61V20.87h1.564v-1.565h1.566v-2.609H24V7.305h-1.565z"/>
    <path fill="#362E3D" d="M14.6 5.76v1.628h-1.56v1.628h-2.08V7.388H9.4V5.76H5.76v2.17h1.56v1.628h1.56v1.628h1.56v1.628H8.88v1.628H7.32v1.628H5.76v2.17H9.4v-1.627h1.56v-1.628h2.08v1.628h1.56v1.627h3.64v-2.17h-1.56v-1.628h-1.56v-1.628h-1.56v-1.628h1.56V9.558h1.56V7.931h1.56V5.76H14.6z"/>
</svg>
