<svg xmlns="http://www.w3.org/2000/svg" width="27" height="28" fill="none" viewBox="0 0 27 28">
    <path fill="#2BD600" d="M25.239 8.217V5.283h-1.761V3.522h-1.761V1.76h-2.935V0H8.217v1.76H5.282v1.762h-1.76v1.76H1.76v2.935H0v10.566h1.76v2.934h1.761v1.761h1.761v1.761h2.935V27h10.565V25.24h2.935v-1.761h1.76v-1.761h1.762v-2.934H27V8.217h-1.761z"/>
    <path fill="#209E00" d="M8.217 1.76H5.283v1.762H3.522v1.76H1.76v2.935H0V13.5H3.522V8.217h1.76V5.283h2.935V3.522H13.5V0H8.217v1.76zM15.261 0V3.522h1.76V0h-1.76zM0 15.261v1.76H3.522v-1.76H0z"/>
    <path fill="#135E01" d="M8.218 1.761H5.283v1.76h2.935v-1.76zM5.283 3.522H3.522v1.76h1.76v-1.76zM3.522 5.282H1.76v2.935h1.76V5.282zM3.522 18.782H1.76v2.935h1.76v-2.935zM5.283 21.718H3.522v1.76h1.76v-1.76zM8.218 23.478H5.283v1.761h2.935v-1.76zM18.782 0H8.217v1.76h10.565V0zM18.782 25.24H8.217V27h10.565v-1.76zM1.76 8.218H0v10.565h1.76V8.218zM21.718 1.761h-2.935v1.76h2.935v-1.76zM23.478 3.522h-1.76v1.76h1.76v-1.76zM25.24 5.282h-1.762v2.935h1.761V5.282zM25.24 18.782h-1.762v2.935h1.761v-2.935zM23.478 21.718h-1.76v1.76h1.76v-1.76zM21.718 23.478h-2.935v1.761h2.935v-1.76zM27 8.218h-1.76v10.565H27V8.218z"/>
    <path fill="#fff" d="M18.196 7.043v1.761h-1.76v1.761h-1.762v1.761h-1.76v1.76h-1.762v1.762h-1.76v-1.761H7.63v-1.761H5.283v4.109h1.76v1.76h1.762v1.761h2.934v-1.76H13.5v-1.761h1.761v-1.761h1.761v-1.761h1.76v-1.76h1.762v-4.11h-2.348z"/>
</svg>
