<svg xmlns="http://www.w3.org/2000/svg" width="22" height="27" fill="none" viewBox="0 0 22 27">
    <path fill="#03E1E4" d="M14.766 13.735v4.783h5.739v-4.783h-5.74zm3.347 3.348H16.2V15.17h1.913v1.913z"/>
    <path fill="#03E1E4" d="M14.826 13.788v-1.435H22V7.571h-5.758v3.364h-1.416v1.418h-1.435v1.418H9.174v-1.418H7.713v-1.418h-1.44V7.571H2.87V6.136h6.304V4.7h-7.74v1.435H0v19.13h1.435v1.435h19.13v-1.435H22v-5.26h-7.174V18.57h-1.435v-4.783h1.435z"/>
    <path fill="#03E1E4" d="M13.21 4.701h7.772v1.36h-7.771zM10.561 10.94v1.435h1.435V10.94h1.435V9.506h-1.435V0h-1.435v9.506H9.127v1.434h1.434z"/>
    <path fill="#03E1E4" d="M13.43 9.506h1.435V8.07H13.43v1.435zM7.691 9.506h1.435V8.07H7.69v1.435z"/>
</svg>
