<svg width="16" height="16" viewBox="0 0 16 16" fill="none" xmlns="http://www.w3.org/2000/svg">
<path d="M0 4H1V3H2V2H3V1H13V2H14V3H15V4H16V8H15V9H14V10H13V11H12V12H11V13H10V14H9V15H7V14H6V13H5V12H4V11H3V10H2V9H1V8H0V4Z" fill="#1D3674"/>
<path d="M3 3V2H13V3H14V4H15V8H14V9H13V10H12V11H11V12H10V13H9V14H7V13H6V12H5V11H4V10H3V9H2V8H1V4H2V3H3Z" fill="#4B83CA"/>
<path d="M8 4V14H7V13H6V12H5V11H4V10H3V9H2V8H1V4H2V3H3V2H13V3H14V4H15V7H14V8H13V9H12V10H11V11H10V10H11V8H13V7H14V4H13V5H12V4H13V3H4V4H8Z" fill="#62AADF"/>
<path d="M2 8V6H1V8H2Z" fill="#89D7DD"/>
<path d="M2 9H3V8H2V9Z" fill="#89D7DD"/>
<path d="M4 10V9H3V10H4Z" fill="#89D7DD"/>
<path d="M4 11H5V10H4V11Z" fill="#89D7DD"/>
<path d="M6 12V11H5V12H6Z" fill="#89D7DD"/>
<path d="M6 13H7V12H6V13Z" fill="#89D7DD"/>
<path d="M8 12V13H7V14H9V12H8Z" fill="#89D7DD"/>
<path d="M10 12V10H9V12H10Z" fill="#89D7DD"/>
<path d="M6 8H10V10H11V8H13V7H6V8Z" fill="#89D7DD"/>
<path d="M14 7V6H13V7H14Z" fill="#89D7DD"/>
<path d="M12 5V6H13V5H12Z" fill="#89D7DD"/>
<path d="M12 4H6V5H12V4Z" fill="#89D7DD"/>
<path d="M13 3H12V4H13V3Z" fill="#89D7DD"/>
<path d="M4 3V6H3V3H4Z" fill="#89D7DD"/>
<path d="M4 2V3H3V4H7V5H3V4H2V6H3V7H7V8H6V10H7V12H8V13H7V12H6V10H5V8H3V7H2V6H1V4H2V3H3V2H4Z" fill="#D7F3EE"/>
<path d="M8 5V4H9V5H8Z" fill="#D7F3EE"/>
<path d="M8 8V7H9V8H8Z" fill="#D7F3EE"/>
</svg>
