<svg xmlns="http://www.w3.org/2000/svg" width="23" height="24" fill="none" viewBox="0 0 23 24">
    <path fill="#fff" d="M21.5 9H23V6h-1.5V1.5H20V0h-4.5v1.5H14V3H9V1.5H7.5V0H3v1.5H1.5V6H0v3h9v1.5H1.5v11H3V23h17v-1.5h1.5v-11H14V9h7.5zM14 4.5h1.5V3h3v3H14V4.5zM9 6H4.5V3h3v1.5H9V6zm3.5 1v14.5h-2V6h2v1z" filter="url(#a)"/>
    <defs>
        <filter id="a" width="23" height="24" x="0" y="0" color-interpolation-filters="sRGB" filterUnits="userSpaceOnUse">
            <feFlood flood-opacity="0" result="BackgroundImageFix"/>
            <feColorMatrix in="SourceAlpha" values="0 0 0 0 0 0 0 0 0 0 0 0 0 0 0 0 0 0 127 0"/>
            <feOffset dy="1"/>
            <feColorMatrix values="0 0 0 0 0 0 0 0 0 0 0 0 0 0 0 0 0 0 0.25 0"/>
            <feBlend in2="BackgroundImageFix" result="effect1_dropShadow"/>
            <feBlend in="SourceGraphic" in2="effect1_dropShadow" result="shape"/>
        </filter>
    </defs>
</svg>
