<svg xmlns="http://www.w3.org/2000/svg" width="20" height="20" fill="none" viewBox="0 0 20 20">
    <path fill="#8984B1" d="M13.913 12.174h-1.74v1.739h1.74v-1.74zM7.826 6.087h-1.74v1.74h1.74v-1.74z"/>
    <path fill="#8984B1" d="M6.087 4.783v1.304h1.74V4.783h-1.74z"/>
    <path fill="#8984B1" d="M6.087 6.087H4.783v1.74h1.304v-1.74z"/>
    <path fill="#8984B1" d="M7.826 9.13V7.826h-1.74V9.13h1.74zM9.13 6.087H7.826v1.74H9.13v-1.74zM11.304 10V8.696H10V10h1.304zM12.609 8.696V7.39h-1.305v1.305h1.305zM13.913 7.391V6.087h-1.304v1.304h1.304zM13.913 6.087h1.304V4.783h-1.304v1.304zM10 11.304V10H8.696v1.304H10zM8.696 12.609v-1.305H7.39v1.305h1.305zM7.391 13.913v-1.304H6.087v1.304h1.304zM6.087 15.217v-1.304H4.783v1.304h1.304zM10.87 13.913h1.304v-1.74H10.87v1.74z"/>
    <path fill="#8984B1" d="M12.174 10.87v1.304h1.739V10.87h-1.74zM13.913 15.217v-1.304h-1.74v1.304h1.74zM13.913 13.913h1.304v-1.74h-1.304v1.74z"/>
    <path fill="#8984B1" fill-rule="evenodd" d="M18.696 6.522V3.913H17.39V2.609h-1.304V1.304h-2.609V0H6.522v1.304H3.913V2.61H2.609v1.304H1.304v2.609H0v6.956h1.304v2.609H2.61v1.304h1.304v1.305h2.609V20h6.956v-1.304h2.609V17.39h1.304v-1.304h1.305v-2.609H20V6.522h-1.304zM4.783 6.087h1.304V4.783h1.74v1.304H9.13v1.74H7.826V9.13h-1.74V7.826H4.784V6.087zm10.434 7.826h-1.304v1.304h-1.74v-1.304H10.87v-1.74h1.304V10.87h1.739v1.304h1.304v1.739zm0-7.826h-1.304v1.304h-1.304v1.305h-1.305V10H10v1.304H8.696v1.305H7.39v1.304H6.087v1.304H4.783v-1.304h1.304v-1.304h1.304v-1.305h1.305V10H10V8.696h1.304V7.39h1.305V6.087h1.304V4.783h1.304v1.304z" clip-rule="evenodd"/>
    <path fill="#03E1E4" d="M9 15h2V7.5H9V15zM11 6H9V4h2v2z"/>
</svg>
