<svg width="24" height="24" viewBox="0 0 24 24" fill="none" xmlns="http://www.w3.org/2000/svg">
    <path fill-rule="evenodd" clip-rule="evenodd" d="m6.878 21.514 3.12.89v-1.163l.255-.274h1.783v2.327h-1.91L7.769 22.2l-.891-.685z" fill="#CDBDB2"/>
    <path fill-rule="evenodd" clip-rule="evenodd" d="m17.066 21.514-3.056.89v-1.163l-.255-.274h-1.783v2.327h1.91l2.356-1.095.828-.685z" fill="#CDBDB2"/>
    <path fill-rule="evenodd" clip-rule="evenodd" d="m10.253 18.982-.255 2.259.318-.274h3.312l.382.274-.255-2.259-.51-.342-2.546.068-.446.274z" fill="#393939"/>
    <path fill-rule="evenodd" clip-rule="evenodd" d="m8.533 3.717 1.529 3.833.7 11.158h2.483L14.01 7.55l1.4-3.833H8.534z" fill="#F89C35"/>
    <path fill-rule="evenodd" clip-rule="evenodd" d="M1.847 12.137.064 17.68l4.458-.274h2.866v-2.395l-.128-4.929-.637.548-4.776 1.506z" fill="#F89D35"/>
    <path fill-rule="evenodd" clip-rule="evenodd" d="m5.223 12.753 5.221.137-.573 2.875-2.483-.685-2.165-2.327z" fill="#D87C30"/>
    <path fill-rule="evenodd" clip-rule="evenodd" d="m5.223 12.821 2.165 2.19v2.191l-2.165-4.38z" fill="#EA8D3A"/>
    <path fill-rule="evenodd" clip-rule="evenodd" d="m7.388 15.08 2.547.685.828 2.943-.573.342-2.802-1.78v-2.19z" fill="#F89D35"/>
    <path fill-rule="evenodd" clip-rule="evenodd" d="m7.387 17.27-.51 4.245 3.376-2.533-2.866-1.712z" fill="#EB8F35"/>
    <path fill-rule="evenodd" clip-rule="evenodd" d="m10.443 12.89.319 5.818-.955-2.977.636-2.841z" fill="#EA8E3A"/>
    <path fill-rule="evenodd" clip-rule="evenodd" d="m4.459 17.339 2.93-.069-.51 4.245-2.42-4.176z" fill="#D87C30"/>
    <path fill-rule="evenodd" clip-rule="evenodd" d="m1.465 23.363 5.413-1.849-2.42-4.175-4.394.342 1.401 5.682z" fill="#EB8F35"/>
    <path fill-rule="evenodd" clip-rule="evenodd" d="m10.062 7.55-2.738 2.465-2.101 2.738 5.221.206-.382-5.408z" fill="#E8821E"/>
    <path fill-rule="evenodd" clip-rule="evenodd" d="m6.878 21.515 3.375-2.533-.255 2.19v1.233l-2.292-.48-.828-.41zM17.066 21.515l-3.31-2.533.254 2.19v1.233l2.292-.48.764-.41z" fill="#DFCEC3"/>
    <path fill-rule="evenodd" clip-rule="evenodd" d="m9.044 14.122.7 1.575-2.483-.685 1.783-.89z" fill="#393939"/>
    <path fill-rule="evenodd" clip-rule="evenodd" d="m1.402.5 8.66 7.05-1.464-3.833L1.402.5z" fill="#E88F35"/>
    <path fill-rule="evenodd" clip-rule="evenodd" d="M1.402.5.256 4.265l.637 4.107-.446.274.637.616-.51.48.7.684-.445.41 1.019 1.37 4.776-1.575c2.335-2.008 3.48-3.035 3.439-3.08-.043-.046-2.93-2.396-8.66-7.051z" fill="#8E5A30"/>
    <path fill-rule="evenodd" clip-rule="evenodd" d="m22.098 12.137 1.783 5.544-4.458-.274h-2.865v-2.395l.127-4.929.637.548 4.776 1.506z" fill="#F89D35"/>
    <path fill-rule="evenodd" clip-rule="evenodd" d="m18.723 12.753-5.222.137.573 2.875 2.484-.685 2.165-2.327z" fill="#D87C30"/>
    <path fill-rule="evenodd" clip-rule="evenodd" d="m18.723 12.821-2.165 2.19v2.191l2.165-4.38z" fill="#EA8D3A"/>
    <path fill-rule="evenodd" clip-rule="evenodd" d="m16.558 15.08-2.548.685-.827 2.943.573.342 2.802-1.78v-2.19z" fill="#F89D35"/>
    <path fill-rule="evenodd" clip-rule="evenodd" d="m16.558 17.27.51 4.245-3.312-2.465 2.802-1.78z" fill="#EB8F35"/>
    <path fill-rule="evenodd" clip-rule="evenodd" d="m13.502 12.89-.319 5.818.956-2.977-.637-2.841z" fill="#EA8E3A"/>
    <path fill-rule="evenodd" clip-rule="evenodd" d="m19.486 17.339-2.929-.069.51 4.245 2.42-4.176z" fill="#D87C30"/>
    <path fill-rule="evenodd" clip-rule="evenodd" d="m22.48 23.363-5.413-1.849 2.42-4.175 4.394.342-1.401 5.682z" fill="#EB8F35"/>
    <path fill-rule="evenodd" clip-rule="evenodd" d="m13.883 7.55 2.738 2.465 2.102 2.738-5.222.206.382-5.408z" fill="#E8821E"/>
    <path fill-rule="evenodd" clip-rule="evenodd" d="m14.902 14.122-.7 1.575 2.483-.685-1.783-.89z" fill="#393939"/>
    <path fill-rule="evenodd" clip-rule="evenodd" d="m22.543.5-8.66 7.05 1.464-3.833L22.543.5z" fill="#E88F35"/>
    <path fill-rule="evenodd" clip-rule="evenodd" d="m22.543.5 1.146 3.765-.636 4.107.445.274-.636.616.51.48-.701.684.445.41-1.018 1.37-4.776-1.575c-2.335-2.008-3.482-3.035-3.44-3.08.043-.046 2.93-2.396 8.661-7.051z" fill="#8E5A30"/>
</svg>
