<svg xmlns="http://www.w3.org/2000/svg" width="100" height="80" fill="none" viewBox="0 0 100 80">
    <path fill="#595467" d="M15.518 37.93h-5.172v22.415h5.172V37.93zM5.173 60.344h5.173v5.173H5.173v-5.173zM10.345 65.517h5.172v5.172h-5.172v-5.172z"/>
    <path fill="#595467" d="M5.173 65.517v5.172h5.173v5.172H0V65.517h5.172zM20.69 32.758h-5.173v5.173h5.173v-5.172zM74.14 32.758V50h20.69V32.758H74.14zm12.07 12.07h-6.897V37.93h6.896v6.896z"/>
    <path fill="#595467" fill-rule="evenodd" d="M74.138 27.586v5.172h-5.172V50h5.172v5.172H100v18.966h-5.172v5.172H25.862v-5.172H20.69v-8.62h-5.173v-5.173h22.414v-5.173h5.173V37.931H37.93v-5.172H20.69V5.172h5.172V0h68.966v5.172H31.035v5.173H100v17.241H74.138zM20.69 55.172V37.931H37.93v17.241H20.69z" clip-rule="evenodd"/>
</svg>
