<svg xmlns="http://www.w3.org/2000/svg" width="17" height="18" fill="none" viewBox="0 0 17 18">
    <path fill="#C4C4C4" d="M16.19 17.165h-.809v-.78h.81zM1.619 1.56h-.81V.78h.81zM16.19 1.56h-.809V.78h.81zM1.619 16.384v.78h-.81v-.78zM15.382 17.945H1.62v-.78h13.762zM15.382.78H1.62V0h13.762z"/>
    <path fill="#C4C4C4" d="M.81 1.56v14.825H0V1.56zM17 1.56v14.825h-.81V1.56z"/>
    <path fill="#2BD600" d="M9.287 13.425H7.712V3.778h1.575zM13.222 10.457h-1.574v-.743h1.574z"/>
    <path fill="#2BD600" d="M12.436 11.199H10.86v-.743h1.575z"/>
    <path fill="#2BD600" d="M11.648 11.94h-1.574v-.742h1.574zM10.861 12.683H9.287v-.743h1.574z"/>
    <path fill="#2BD600" d="M10.075 13.425H8.5v-.743h1.575zM9.287 14.167H7.712v-.742h1.575zM8.5 13.425H6.926v-.743H8.5z"/>
    <path fill="#2BD600" d="M7.713 12.683H6.14v-.743h1.574zM6.926 11.94H5.35v-.742h1.575z"/>
    <path fill="#2BD600" d="M6.139 11.199H4.565v-.743h1.574z"/>
    <path fill="#2BD600" d="M5.352 10.457H3.778v-.743h1.574z"/>
</svg>
