<svg width="32" height="32" viewBox="0 0 32 32" fill="none" xmlns="http://www.w3.org/2000/svg">
<circle cx="16" cy="16" r="15.5" fill="#82E63C" stroke="#C4FF9A"/>
<path fill-rule="evenodd" clip-rule="evenodd" d="M7.05263 12.2932V13.3458H6V19.6616H7.05263V20.7142H24.9474V19.6616H26V13.3458H24.9474V12.2932H23.8947V13.3458H22.8421V14.3984H21.7895V15.4511H20.7368V14.3984H19.6842V13.3458H18.6316V12.2932H17.5789V11.2405H16.5263V10.1879H15.4737V11.2405H14.4211V12.2932H13.3684V13.3458H12.3158V14.3984H11.2632V15.4511H10.2105V14.3984H9.15789V13.3458H8.10526V12.2932H7.05263ZM15.4737 15.4511V14.3984H16.5263V15.4511H17.5789V16.5037H16.5263V17.5563H15.4737V16.5037H14.4211V15.4511H15.4737Z" fill="black" fill-opacity="0.25"/>
<path d="M11.2632 12.2932V13.3458H12.3158V12.2932H11.2632Z" fill="black" fill-opacity="0.25"/>
<path d="M11.2632 11.2405H10.2105V12.2932H11.2632V11.2405Z" fill="black" fill-opacity="0.25"/>
<path d="M9.15789 12.2932V13.3458H10.2105V12.2932H9.15789Z" fill="black" fill-opacity="0.25"/>
<path d="M20.7368 13.3458V12.2932H19.6842V13.3458H20.7368Z" fill="black" fill-opacity="0.25"/>
<path d="M21.7895 12.2932V11.2405H20.7368V12.2932H21.7895Z" fill="black" fill-opacity="0.25"/>
<path d="M22.8421 13.3458V12.2932H21.7895V13.3458H22.8421Z" fill="black" fill-opacity="0.25"/>
<path d="M24.9474 22.8195H26V20.7142H24.9474V22.8195Z" fill="black" fill-opacity="0.25"/>
<path d="M7.05263 23.8721H24.9474V22.8195H7.05263V23.8721Z" fill="black" fill-opacity="0.25"/>
<path d="M6 20.7142V22.8195H7.05263V20.7142H6Z" fill="black" fill-opacity="0.25"/>
<path fill-rule="evenodd" clip-rule="evenodd" d="M7.05263 11.24V12.2927H6V18.6085H7.05263V19.6611H24.9474V18.6085H26V12.2927H24.9474V11.24H23.8947V12.2927H22.8421V13.3453H21.7895V14.3979H20.7368V13.3453H19.6842V12.2927H18.6316V11.24H17.5789V10.1874H16.5263V9.13477H15.4737V10.1874H14.4211V11.24H13.3684V12.2927H12.3158V13.3453H11.2632V14.3979H10.2105V13.3453H9.15789V12.2927H8.10526V11.24H7.05263ZM15.4737 14.3979V13.3453H16.5263V14.3979H17.5789V15.4506H16.5263V16.5032H15.4737V15.4506H14.4211V14.3979H15.4737Z" fill="#2F3045"/>
<path d="M11.2632 11.24V12.2927H12.3158V11.24H11.2632Z" fill="#2F3045"/>
<path d="M11.2632 10.1874H10.2105V11.24H11.2632V10.1874Z" fill="#2F3045"/>
<path d="M9.15789 11.24V12.2927H10.2105V11.24H9.15789Z" fill="#2F3045"/>
<path d="M20.7368 12.2927V11.24H19.6842V12.2927H20.7368Z" fill="#2F3045"/>
<path d="M21.7895 11.24V10.1874H20.7368V11.24H21.7895Z" fill="#2F3045"/>
<path d="M22.8421 12.2927V11.24H21.7895V12.2927H22.8421Z" fill="#2F3045"/>
<path d="M24.9474 21.7663H26V19.6611H24.9474V21.7663Z" fill="#2F3045"/>
<path d="M7.05263 22.819H24.9474V21.7663H7.05263V22.819Z" fill="#2F3045"/>
<path d="M6 19.6611V21.7663H7.05263V19.6611H6Z" fill="#2F3045"/>
</svg>
