<svg xmlns="http://www.w3.org/2000/svg" width="17" height="18" fill="none" viewBox="0 0 17 18">
    <path fill="#C4C4C4" d="M.81.78h.81v.78H.81zM15.382 16.384h.809v.78h-.81zM.81 16.384h.81v.78H.81zM15.382 1.56V.78h.809v.78zM1.619 0H15.38v.78H1.62zM1.619 17.165H15.38v.78H1.62zM16.19 16.384V1.56H17v14.824zM0 16.384V1.56h.81v14.824z"/>
    <path fill="#D53F3F" d="M7.713 4.52h1.575v9.647H7.713zM3.778 7.488h1.574v.743H3.778zM4.565 6.746h1.574v.742H4.565zM5.352 6.004h1.575v.742H5.352zM6.139 5.262h1.574v.742H6.14z"/>
    <path fill="#D53F3F" d="M6.926 4.52H8.5v.742H6.926zM7.713 3.778h1.575v.742H7.713zM8.5 4.52h1.575v.742H8.5zM9.287 5.262h1.574v.742H9.287zM10.075 6.004h1.574v.742h-1.574zM10.861 6.746h1.575v.742H10.86zM11.648 7.488h1.574v.743h-1.574z"/>
</svg>
