<svg width="40" height="40" viewBox="0 0 40 40" fill="none" xmlns="http://www.w3.org/2000/svg">
<circle cx="20" cy="20" r="19" fill="white"/>
<path d="M33.4227 25.9421C33.0479 30.3927 27.8008 34.1406 19.9302 33.9532C12.528 33.7658 7.32779 30.6738 6.953 26.2232C6.90615 25.661 6.953 25.0988 6.99985 24.4897C7.23409 22.7563 7.84313 21.1166 8.73326 19.6175L9.29545 19.8517C10.7478 19.2895 12.2469 18.8679 13.7929 18.5868C15.8075 18.3057 17.8688 18.2588 19.8833 18.3994C21.8978 18.2588 23.9592 18.3057 25.9737 18.5868C27.5197 18.8679 29.0189 19.2895 30.4712 19.8517L31.0334 19.6175L31.4082 19.4301C32.2983 20.9292 32.9073 22.5689 33.2353 24.3023C33.329 24.8177 33.3758 25.3799 33.329 25.8952" fill="#F4A427"/>
<path d="M33.4227 25.942C33.0479 30.3458 27.8476 33.9532 19.9302 33.9063C12.528 33.7189 7.32779 30.6269 6.953 26.1762C6.90615 25.614 6.953 25.0519 6.99985 24.4428C7.79628 24.2554 8.59271 24.2554 9.38915 24.396C10.8883 24.6302 11.7316 25.5672 12.8091 26.0357C13.4182 26.3168 14.0272 25.8483 14.5894 25.3329C16.0885 23.8806 18.1031 23.0373 20.1644 22.9905C22.2726 22.9436 24.006 23.7869 25.8331 25.4735C26.2079 25.8483 26.7233 26.0825 27.2386 26.0357C27.7071 25.8951 28.1756 25.6609 28.5504 25.3329C29.9558 24.396 31.6424 24.0212 33.2821 24.2554C33.4227 24.8645 33.4695 25.3798 33.4227 25.942Z" fill="white"/>
<path d="M11.6378 14.9793C11.1225 15.4947 10.4666 15.8695 9.76389 16.01L9.48279 16.0568C9.2017 16.1505 8.92061 16.1974 8.59266 16.1974C8.54581 16.1974 8.45212 16.1974 8.40527 16.1974C8.26472 16.1505 8.07732 16.1037 7.93678 16.0568C7.42144 15.8226 6.95295 15.5415 6.53131 15.1667C5.68803 14.464 4.8916 13.6676 4.28256 12.7306C1.70587 8.98266 2.5023 3.92297 6.06282 1.11203C6.29706 0.971484 6.57816 0.971484 6.76555 1.20573C6.85925 1.34628 6.9061 1.48682 6.85925 1.62737C6.53131 3.12654 6.25022 5.46898 7.65568 7.48349C8.87376 9.17005 11.4036 10.8098 12.9496 10.8098C13.2776 12.6837 12.7622 13.9486 11.6378 14.9793Z" fill="#F79422"/>
<path d="M11.6378 14.9793C11.1225 15.4947 10.4666 15.8695 9.76389 16.01L9.48279 16.0568C9.2017 16.1505 8.92061 16.1974 8.59266 16.1974C8.54581 16.1974 8.45212 16.1974 8.40527 16.1974C8.26472 16.1505 8.07732 16.1037 7.93678 16.0568C7.42144 15.8226 6.95295 15.5415 6.53131 15.1667C5.68803 14.464 4.8916 13.6676 4.28256 12.7306C1.70587 8.98266 2.5023 3.92297 6.06282 1.11203C6.29706 0.971484 6.57816 0.971484 6.76555 1.20573C6.85925 1.34628 6.9061 1.48682 6.85925 1.62737C6.53131 3.12654 6.25022 5.46898 7.65568 7.48349C8.87376 9.17005 11.4036 10.8098 12.9496 10.8098C13.2776 12.6837 12.7622 13.9486 11.6378 14.9793Z" stroke="#221F1F" stroke-width="0.5" stroke-linejoin="round"/>
<path d="M18.3842 8.51416L17.7752 14.5108H17.7283C16.7914 14.6514 15.5264 14.8388 13.793 15.1199C12.2002 15.3541 10.0451 16.4785 8.7802 17.2281L8.63965 16.2442C8.92074 16.1974 9.24868 16.1505 9.52978 16.1037L9.81087 16.0568C10.5136 15.9163 11.1695 15.5415 11.6848 15.0262C12.7624 13.9486 13.3245 12.7306 12.9498 10.8098L13.1371 10.8566C13.6993 10.2476 14.3552 9.77908 15.1048 9.40429C16.0886 8.8421 17.213 8.56101 18.3842 8.51416Z" fill="#5A595C"/>
<path d="M18.3842 8.51416L17.7752 14.5108H17.7283C16.7914 14.6514 15.5264 14.8388 13.793 15.1199C12.2002 15.3541 10.0451 16.4785 8.7802 17.2281L8.63965 16.2442C8.92074 16.1974 9.24868 16.1505 9.52978 16.1037L9.81087 16.0568C10.5136 15.9163 11.1695 15.5415 11.6848 15.0262C12.7624 13.9486 13.3245 12.7306 12.9498 10.8098L13.1371 10.8566C13.6993 10.2476 14.3552 9.77908 15.1048 9.40429C16.0886 8.8421 17.213 8.56101 18.3842 8.51416Z" stroke="#221F1F" stroke-width="0.5" stroke-linejoin="round"/>
<path d="M32.0639 19.2895L31.6891 19.4769L31.3143 19.6643L30.7521 19.8986C29.2998 19.3364 27.8006 18.9147 26.2546 18.6336C24.2401 18.2589 22.2256 18.0715 20.1643 18.0715C18.1029 18.0715 16.0884 18.212 14.0739 18.6336C12.5279 18.9147 11.0287 19.3364 9.57639 19.8986C9.389 19.8049 9.2016 19.7112 9.01421 19.6643L8.21777 19.2895C8.26462 18.6336 8.21777 18.2589 8.21777 17.603C8.35832 17.5093 8.59256 17.3687 8.82681 17.2282L8.87366 17.1813C10.0917 16.4317 12.2468 15.3542 13.8396 15.0731C15.5731 14.792 16.7911 14.6046 17.775 14.4641C18.384 14.4172 19.0399 14.4172 19.6958 14.4172C20.6796 14.4172 21.5697 14.4172 22.4599 14.4641C23.3968 14.6046 24.6618 14.792 26.442 15.0731C28.0817 15.3074 30.2368 16.4317 31.5017 17.1813H31.5486C31.7828 17.3219 31.9702 17.4156 32.1107 17.5561C32.0639 18.2589 32.017 18.6336 32.0639 19.2895Z" fill="#929497"/>
<path d="M32.0639 19.2895L31.6891 19.4769L31.3143 19.6643L30.7521 19.8986C29.2998 19.3364 27.8006 18.9147 26.2546 18.6336C24.2401 18.3057 22.2256 18.1183 20.1643 18.1183C18.1029 18.1183 16.0884 18.2589 14.0739 18.6336C12.5279 18.9147 11.0287 19.3364 9.57639 19.8986C9.389 19.8049 9.2016 19.7112 9.01421 19.6643L8.21777 19.2895C8.26462 18.6336 8.21777 18.2589 8.21777 17.603C8.35832 17.5093 8.59256 17.3687 8.82681 17.2282L8.87366 17.1813C10.0917 16.4317 12.2468 15.3542 13.8396 15.0731C15.5731 14.792 16.7911 14.6046 17.775 14.4641C18.384 14.4172 19.0399 14.4172 19.6958 14.4172C20.6796 14.4172 21.5697 14.4172 22.4599 14.4641C23.3968 14.6046 24.6618 14.792 26.442 15.0731C28.0817 15.3074 30.2368 16.4317 31.5017 17.1813H31.5486C31.7828 17.3219 31.9702 17.4156 32.1107 17.5561C32.0639 18.2589 32.017 18.6336 32.0639 19.2895Z" stroke="#221F1F" stroke-width="0.5" stroke-linecap="round" stroke-linejoin="round"/>
<path d="M22.4129 14.5109C21.5696 14.464 20.6327 14.4172 19.6488 14.464C18.9929 14.464 18.3371 14.5109 17.728 14.5109H17.7749L18.3839 8.51423L18.5245 7.29615C18.9929 7.01506 19.5551 6.87451 20.0705 6.87451H20.1642C20.7264 6.87451 21.2417 7.01506 21.7102 7.29615L21.8507 8.51423V8.56107L22.4129 14.5109Z" fill="#929497"/>
<path d="M22.4129 14.5109C21.5696 14.464 20.6327 14.4172 19.6488 14.464C18.9929 14.464 18.3371 14.5109 17.728 14.5109H17.7749L18.3839 8.51423L18.5245 7.29615C18.9929 7.01506 19.5551 6.87451 20.0705 6.87451H20.1642C20.7264 6.87451 21.2417 7.01506 21.7102 7.29615L21.8507 8.51423V8.56107L22.4129 14.5109Z" stroke="#221F1F" stroke-width="0.5" stroke-linecap="round" stroke-linejoin="round"/>
<path d="M33.4222 25.9888C33.0474 30.4394 27.3787 33.9999 19.9297 33.9999C12.5276 33.8125 7.32733 30.7205 6.99939 26.2699C6.95254 25.7077 6.99939 25.1455 7.04624 24.5364C7.28048 22.803 7.88952 21.1633 8.77965 19.6642L9.34183 19.8984C10.7942 19.3362 12.2933 18.9146 13.8393 18.6335C15.8538 18.2587 17.8683 18.1181 19.9297 18.0713C21.9911 18.0713 24.0056 18.2587 26.0201 18.6335C27.5661 18.9146 29.0652 19.3362 30.5176 19.8984L31.1266 19.6642L31.5014 19.4768C32.3915 20.9759 33.0006 22.6156 33.3285 24.349C33.469 24.9112 33.469 25.4734 33.4222 25.9888Z" stroke="#221F1F" stroke-width="0.5" stroke-linecap="round" stroke-linejoin="round"/>
<path d="M35.7182 12.7306C35.0623 13.6207 34.3127 14.464 33.4226 15.1668C33.001 15.5416 32.5325 15.8226 32.0171 16.0569L31.7829 16.1506L31.6423 16.1974C31.3144 16.2911 31.127 16.1974 30.518 16.1037L30.2369 16.0569C29.5341 15.9163 28.8783 15.5416 28.3629 15.0262C27.2854 13.9487 26.7232 12.7306 27.098 10.8098C28.5972 10.8567 31.1739 9.21695 32.3919 7.48353C33.7505 5.46903 33.4695 3.12658 33.1415 1.62742C33.0947 1.34632 33.2352 1.11208 33.5163 1.01838C33.6568 0.97153 33.8442 1.01838 33.9379 1.11208C37.4985 3.92301 38.2949 9.02955 35.7182 12.7306Z" fill="#F79422"/>
<path d="M35.7182 12.7306C35.0623 13.6207 34.3127 14.464 33.4226 15.1668C33.001 15.5416 32.5325 15.8226 32.0171 16.0569L31.7829 16.1506L31.6423 16.1974C31.3144 16.2911 31.127 16.1974 30.518 16.1037L30.2369 16.0569C29.5341 15.9163 28.8783 15.5416 28.3629 15.0262C27.2854 13.9487 26.7232 12.7306 27.098 10.8098C28.5972 10.8567 31.1739 9.21695 32.3919 7.48353C33.7505 5.46903 33.4695 3.12658 33.1415 1.62742C33.0947 1.34632 33.2352 1.11208 33.5163 1.01838C33.6568 0.97153 33.8442 1.01838 33.9379 1.11208C37.4985 3.92301 38.2949 9.02955 35.7182 12.7306Z" stroke="#221F1F" stroke-width="0.5" stroke-linejoin="round"/>
<path d="M31.6425 16.1974L31.4551 17.2281C30.1902 16.4785 28.0351 15.3541 26.3954 15.1199C24.6151 14.8388 23.3971 14.6514 22.4132 14.5108L21.8042 8.51416C22.8817 8.56101 23.9593 8.88895 24.9431 9.40429C25.6927 9.77908 26.3485 10.2944 26.9107 10.8566L27.0981 10.8098C26.7233 12.6837 27.2855 13.9486 28.3631 15.0262C28.8784 15.5415 29.5343 15.9163 30.237 16.0568C30.2839 16.0568 30.4713 16.1505 30.5181 16.1505C30.8929 16.2911 31.2677 16.2911 31.6425 16.1974Z" fill="#5A595C"/>
<path d="M31.6425 16.1974L31.4551 17.2281C30.1902 16.4785 28.0351 15.3541 26.3954 15.1199C24.6151 14.8388 23.3971 14.6514 22.4132 14.5108L21.8042 8.51416C22.8817 8.56101 23.9593 8.88895 24.9431 9.40429C25.6927 9.77908 26.3485 10.2944 26.9107 10.8566L27.0981 10.8098C26.7233 12.6837 27.2855 13.9486 28.3631 15.0262C28.8784 15.5415 29.5343 15.9163 30.237 16.0568L30.5181 16.1037C31.1271 16.1974 31.3145 16.2911 31.6425 16.1974Z" stroke="#221F1F" stroke-width="0.5" stroke-linejoin="round"/>
<path d="M21.8041 8.51416H21.6167" stroke="#221F1F" stroke-linejoin="round"/>
<path d="M18.3843 27.7691C18.7122 27.8628 19.087 27.816 19.415 27.6286C19.9303 27.4412 20.2582 26.9258 20.2114 26.3636C20.1645 26.9258 20.4925 27.4412 21.0078 27.6286C21.3358 27.7691 21.6637 27.816 21.9916 27.7691" stroke="#171717" stroke-width="0.5" stroke-linecap="round" stroke-linejoin="round"/>
<path d="M22.0384 24.7708C22.0384 25.333 21.1952 26.0826 20.1645 26.0826C19.1338 26.0826 18.2905 25.333 18.2905 24.7708C18.2905 24.2086 19.1338 24.0212 20.1645 24.0212C21.1952 24.0212 22.0384 24.2555 22.0384 24.7708Z" fill="#171717"/>
<path d="M20.9142 24.5834C20.9142 24.724 20.5394 24.9114 20.1177 24.9114C19.6961 24.9114 19.3213 24.724 19.3213 24.6303C19.3213 24.5366 19.6961 24.5366 20.1177 24.5366C20.5394 24.5366 20.9142 24.4429 20.9142 24.5834Z" fill="white"/>
<path d="M17.213 26.3636C17.1662 27.0195 17.5878 27.5817 18.2437 27.7223H18.3842" stroke="#171717" stroke-width="0.5" stroke-linecap="round" stroke-linejoin="round"/>
<path d="M20.2109 25.7079C20.2109 25.9421 20.2109 26.1295 20.2109 26.3638" stroke="#171717" stroke-width="0.5" stroke-linecap="round" stroke-linejoin="round"/>
<path d="M22.0381 27.7691H22.1786C22.8345 27.6286 23.303 27.0664 23.2093 26.4105" stroke="#171717" stroke-width="0.5" stroke-linecap="round" stroke-linejoin="round"/>
<path d="M16.7446 21.7257C16.7446 22.7563 16.1355 23.5528 15.386 23.5528C14.6364 23.5528 14.0273 22.7095 14.0273 21.7257C14.0273 20.8355 14.4958 20.086 15.1049 19.8986L16.604 21.0229C16.6977 21.2572 16.7446 21.4914 16.7446 21.7257Z" fill="#221F1F"/>
<path d="M16.2295 21.4913C16.2295 21.8661 15.9952 22.1472 15.761 22.1472C15.5267 22.1472 15.2925 21.8661 15.2925 21.4913C15.2925 21.1165 15.5267 20.8354 15.761 20.8354C15.9952 20.8354 16.2295 21.1165 16.2295 21.4913Z" fill="white"/>
<path d="M15.105 23.1311C14.5896 23.5527 14.1211 24.0212 13.6995 24.5366C13.5121 24.7708 13.3247 25.0519 13.1842 25.3798C13.0436 25.6609 12.9499 25.9889 12.9031 26.3168C12.8562 26.4574 12.8562 26.6448 12.8562 26.7853V27.0196V27.2538C12.8562 27.5817 12.8562 27.9097 12.8562 28.2845C12.9031 28.6124 12.9499 28.9872 12.9968 29.3152C13.0436 29.5026 13.0436 29.6431 13.0905 29.8305C13.1373 29.971 13.1842 30.1584 13.2779 30.299C13.1842 30.1584 13.1373 29.971 13.0436 29.8305C12.9968 29.69 12.9031 29.5026 12.8562 29.362C12.7625 29.0341 12.6688 28.7061 12.5751 28.3313C12.5283 28.0034 12.4814 27.6286 12.4346 27.3007V27.0664V26.7853C12.4346 26.5979 12.4346 26.4105 12.4346 26.27C12.4814 25.8952 12.5283 25.5204 12.6688 25.1925C12.8094 24.8645 12.9499 24.5366 13.1373 24.2086C13.5589 23.5996 13.9806 23.0374 14.4959 22.5689C14.6833 22.4284 14.9176 22.4284 15.105 22.5689C15.2455 22.6626 15.2924 22.9437 15.105 23.1311Z" fill="#221F1F"/>
<path d="M14.7765 22.9905C14.7297 22.9905 14.7297 22.9905 14.6828 22.9905H14.636H14.5423L14.308 22.9436C14.1675 22.8968 14.0269 22.8968 13.8864 22.8968C13.6053 22.8968 13.2774 22.8968 12.9963 22.9905C12.8557 23.0373 12.7152 23.0842 12.5746 23.131C12.153 23.3184 11.7782 23.6464 11.5439 24.0212C11.6845 23.6932 11.825 23.4121 12.0593 23.1779C12.153 23.0373 12.2935 22.9436 12.4341 22.85C12.5746 22.7563 12.7152 22.6626 12.8557 22.5689C13.1368 22.3815 13.4648 22.2878 13.8395 22.1941C14.0269 22.1472 14.1675 22.1472 14.3549 22.1472C14.4486 22.1472 14.5423 22.1472 14.636 22.1472H14.8234C15.0576 22.1472 15.245 22.3346 15.2919 22.5689C15.3387 22.8031 15.0576 22.9905 14.7765 22.9905Z" fill="#221F1F"/>
<path d="M26.3486 21.7257C26.3486 22.7563 25.7396 23.5528 25.0368 23.5528C24.3341 23.5528 23.6782 22.7095 23.6782 21.7257C23.6782 21.4914 23.7251 21.2572 23.7719 21.0229L25.2711 19.8986C25.8801 20.086 26.3486 20.8355 26.3486 21.7257Z" fill="#221F1F"/>
<path d="M24.147 21.4913C24.147 21.8661 24.3812 22.1472 24.6155 22.1472C24.8497 22.1472 25.084 21.8661 25.084 21.4913C25.084 21.1165 24.8497 20.8354 24.6155 20.8354C24.3812 20.8354 24.147 21.1165 24.147 21.4913Z" fill="white"/>
<path d="M25.88 22.4752C26.3953 22.9906 26.817 23.5059 27.1918 24.1149C27.3791 24.396 27.5665 24.724 27.7071 25.0519C27.8476 25.3799 27.9413 25.7546 27.9882 26.0826C28.035 26.4574 28.035 26.7853 27.9882 27.1601C27.9413 27.4881 27.8945 27.8628 27.8476 28.1908C27.8008 28.5187 27.7071 28.8467 27.6134 29.1746C27.5665 29.3152 27.5197 29.5026 27.426 29.6431C27.3791 29.7837 27.2854 29.971 27.1918 30.1116C27.2386 29.971 27.3323 29.7837 27.3791 29.6431C27.426 29.5026 27.4728 29.3152 27.5197 29.1746C27.5665 28.8467 27.6602 28.5187 27.6602 28.1908C27.7071 27.8628 27.7071 27.5349 27.7071 27.1601C27.7071 26.8322 27.6602 26.5042 27.6134 26.1763C27.5197 25.8483 27.426 25.5672 27.2854 25.2862C27.1449 25.0051 26.9575 24.724 26.7233 24.4897C26.3016 23.9744 25.8331 23.5059 25.3178 23.0843C25.1304 22.8969 25.1304 22.6626 25.3178 22.4752C25.4583 22.3347 25.6926 22.2878 25.88 22.4284V22.4752Z" fill="#221F1F"/>
<path d="M25.5988 22.1473H25.833C25.9267 22.1473 26.0204 22.1473 26.1141 22.1473C26.3015 22.1473 26.4889 22.1473 26.6763 22.1941C27.0511 22.241 27.3791 22.3347 27.707 22.4752C28.0349 22.6158 28.316 22.85 28.5971 23.0843C28.8314 23.3185 29.0188 23.6465 29.1593 23.9275C28.9719 23.6465 28.7377 23.4122 28.4566 23.2248C28.1755 23.0374 27.8944 22.8969 27.5664 22.85C27.2385 22.8032 26.9106 22.8032 26.5826 22.8032C26.4421 22.8032 26.2547 22.85 26.1141 22.85L25.8799 22.8969H25.7862H25.7393H25.6925H25.6456C25.4114 22.9437 25.1771 22.7563 25.1771 22.5221C25.1303 22.2878 25.3177 22.0536 25.5519 22.0536C25.5988 22.0536 25.5988 22.0536 25.6456 22.0536" fill="#221F1F"/>
</svg>
