<svg xmlns="http://www.w3.org/2000/svg" width="23" height="29" fill="none" viewBox="0 0 23 29">
    <path fill="#03E1E4" d="M15.5 15.528v4.97h6v-4.97h-6zm3.5 3.479h-2v-1.988h2v1.988z"/>
    <path fill="#03E1E4" d="M15.5 15.394v-1.491H23v-4.97h-9v6.46H9.59v-6.46H3V7.44h6.59v-1.49H1.5v1.49H0v19.881h1.5v1.491h20v-1.49H23v-5.468h-7.5v-1.491H14v-4.97h1.5z"/>
    <path fill="#03E1E4" d="M12.54 1.491V0h-1.5v1.491h-1.5v1.491h1.5V13.91h1.5V2.982h1.5v-1.49h-1.5zM9.54 2.982h-1.5v1.491h1.5v-1.49zM15.54 2.982h-1.5v1.491h1.5v-1.49zM14.06 5.95h7.457v1.474H14.06z"/>
</svg>
