<svg width="38" height="38" viewBox="0 0 38 38" fill="none" xmlns="http://www.w3.org/2000/svg">
<mask id="mask0_1518_9056" style="mask-type:alpha" maskUnits="userSpaceOnUse" x="0" y="0" width="38" height="38">
<path d="M19 38C29.4934 38 38 29.4934 38 19C38 8.50659 29.4934 0 19 0C8.50659 0 0 8.50659 0 19C0 29.4934 8.50659 38 19 38Z" fill="#D9D9D9"/>
</mask>
<g mask="url(#mask0_1518_9056)">
<path d="M19 38C29.4934 38 38 29.4934 38 19C38 8.50659 29.4934 0 19 0C8.50659 0 0 8.50659 0 19C0 29.4934 8.50659 38 19 38Z" fill="#62964E"/>
<path d="M8.58164 12.6367C8.28937 12.4734 8.04009 12.353 7.7994 12.2069C7.44697 11.992 7.25785 11.6825 7.31803 11.2527C7.34381 11.0808 7.3696 10.9089 7.41258 10.7456C7.61029 9.96333 7.79081 9.1639 8.04009 8.39026C8.14324 8.05502 8.37533 7.75416 8.55585 7.4447C8.96846 6.73123 9.55298 6.18969 10.2493 5.76848C10.5071 5.61376 10.7994 5.5278 11.0831 5.43324C11.2894 5.36447 11.4011 5.25272 11.5043 5.05502C11.616 4.83152 11.7793 4.59083 11.9857 4.47049C12.7163 4.03209 13.4814 3.67106 14.3495 3.61089C14.8653 3.56791 15.3725 3.55072 15.7679 3.98911C15.8281 4.05788 16.0086 4.04929 16.1289 4.0235C17.1604 3.82579 18.192 3.5851 19.2321 3.40459C20.8051 3.13811 22.3782 2.92321 23.9771 3.02636C24.6991 3.06934 25.3954 3.24126 26.0745 3.46476C27.0028 3.77421 27.7765 4.30716 28.4384 5.03782C29.1003 5.76848 29.4785 6.5937 29.5559 7.59083C29.6762 9.1725 29.8653 10.7542 30.0029 12.3358C30.0372 12.6797 30.1662 12.8602 30.5014 12.9547C31.5587 13.2556 32.5129 13.7885 33.4327 14.3645C33.8796 14.6481 34.3266 14.9146 34.7736 15.1897C35.1862 15.439 35.4957 16.2212 35.341 16.6768C35.2378 16.9777 34.8338 17.1152 34.4556 16.9519C33.9656 16.7456 33.4928 16.5135 33.0029 16.3244C32.3925 16.0923 31.765 15.9032 31.1547 15.6625C30.639 15.4648 30.106 15.4562 29.5731 15.4476C29.4527 15.4476 29.341 15.4648 29.2206 15.4734C29.212 15.4991 29.2034 15.5163 29.1862 15.5421C29.255 15.6023 29.3238 15.6625 29.4011 15.714C29.7708 15.9633 30.149 16.204 30.51 16.4705C30.6218 16.5479 30.7077 16.694 30.7593 16.8229C30.8195 16.9691 30.7851 17.098 30.6304 17.2012C30.553 17.2527 30.4842 17.3645 30.4842 17.4504C30.4842 18.0178 30.4928 18.5851 30.5186 19.1524C30.553 19.9777 30.2693 20.6739 29.702 21.2585C29.4011 21.5679 29.4097 21.5679 29.702 21.8774C30.0716 22.2642 30.4155 22.6768 30.5702 23.2098C30.596 23.2957 30.6733 23.3645 30.7249 23.4418C30.8796 23.6567 31.0602 23.863 31.1805 24.0951C31.5072 24.714 31.4298 25.1267 30.9398 25.6338C30.6991 25.8917 30.4756 26.1668 30.2435 26.4332C30.1318 26.5708 30.1404 26.6997 30.2435 26.8545C30.5272 27.2928 30.4928 27.7055 30.1748 28.1267C30.02 28.333 29.8309 28.5221 29.702 28.7456C29.6246 28.8745 29.5731 29.0636 29.616 29.2012C29.8051 29.8115 29.616 30.3272 29.2894 30.8172C29.1518 31.0321 28.9713 31.2298 28.7994 31.4189C28.6361 31.5908 28.6619 31.7456 28.7822 31.9261C28.9885 32.2527 29.3238 32.3817 29.6332 32.545C30.639 33.078 31.49 33.7656 32.1433 34.7026C32.2464 34.8573 32.4011 34.9863 32.5043 35.141C32.745 35.4934 32.9771 35.8545 33.2092 36.2241C33.3123 36.3874 33.3983 36.5765 33.51 36.7398C33.914 37.333 34.1891 37.9777 34.4126 38.6568C34.5501 39.0694 34.4126 39.4304 34.0602 39.6797C33.4155 40.1353 32.7192 40.5135 31.9455 40.6768C31.404 40.7972 30.8539 40.9261 30.2951 40.9777C29.788 41.0292 29.2808 40.9777 28.7736 40.9605C28.5759 40.9605 28.3782 40.9433 28.1805 40.9261C27.5272 40.8745 26.8739 40.8229 26.2206 40.7542C25.6619 40.694 25.1977 40.3931 24.7421 40.1009C24.2435 39.7828 23.7708 39.4304 23.2722 39.1295C23.0057 38.9748 22.8424 38.7685 22.7392 38.4934C22.6361 38.2098 22.5157 38.1926 22.361 38.4419C22.0859 38.8717 21.6905 39.1037 21.2263 39.2929C20.4097 39.6367 19.5759 39.757 18.6991 39.7398C17.6246 39.7227 16.5587 39.7398 15.4842 39.7914C14.7106 39.8258 13.9369 39.9719 13.1633 40.0063C12.5702 40.0407 11.9771 39.9891 11.3839 39.9719C11.298 39.9719 11.212 39.9462 11.1261 39.9547C10.0086 39.9891 8.89969 39.8172 7.81659 39.5851C6.98278 39.4046 6.14897 39.1811 5.36674 38.8631C4.56731 38.5364 3.77648 38.1238 3.06301 37.6424C2.42691 37.2212 1.97992 36.5851 1.67046 35.8716C1.31802 35.0636 1.07734 34.2298 1.00857 33.353C0.974185 32.9318 1.05155 32.4934 1.09453 32.0636C1.1547 31.4447 1.22347 30.8344 1.29224 30.2155C1.3696 29.5536 1.45556 28.8831 1.54152 28.2212C1.64467 27.439 1.72204 26.6396 1.87676 25.8659C2.0229 25.1353 2.2378 24.4132 2.42691 23.6911C2.71917 22.5221 3.26931 21.4648 3.81086 20.3989C4.32662 19.3845 4.85957 18.3702 5.40972 17.3731C5.89969 16.4791 6.39826 15.5851 6.9484 14.7341C7.28364 14.2183 7.72204 13.7714 8.10886 13.2814C8.27218 13.0751 8.42691 12.8516 8.59023 12.6281L8.58164 12.6367ZM22.0602 16.0321C22.0602 16.0321 22.1203 16.0063 22.1461 15.9977C22.1289 15.8946 22.1461 15.7742 22.1031 15.6797C21.9828 15.4218 21.8195 15.1811 21.7163 14.9232C21.6132 14.6481 21.4326 14.6138 21.1662 14.6395C19.4298 14.8201 17.7106 15.1467 15.9656 15.2155C15.1404 15.2413 14.3238 15.1983 13.5415 14.9146C13 14.7169 12.4756 14.459 11.9255 14.2785C11.3581 14.098 10.9455 13.7112 10.5243 13.333C10.447 13.2642 10.3696 13.1782 10.2836 13.1438C9.87104 12.9977 9.44983 12.8602 9.02863 12.7484C8.93407 12.7226 8.76215 12.7656 8.70198 12.843C8.35814 13.2126 8.0143 13.5908 7.70485 13.9948C6.97419 14.949 6.35528 15.9805 5.79654 17.0464C5.34095 17.9146 4.89396 18.7914 4.43837 19.6596C4.1633 20.1926 3.84525 20.7169 3.61315 21.2671C3.27791 22.0493 2.91688 22.8229 2.67619 23.6481C2.46989 24.3702 2.2292 25.0751 2.11745 25.8229C2.0057 26.5708 1.90255 27.3186 1.7994 28.0751C1.72204 28.6252 1.65327 29.184 1.5845 29.7427C1.53292 30.1811 1.49854 30.6195 1.44696 31.0579C1.39539 31.4791 1.33522 31.8917 1.29224 32.3129C1.25785 32.6224 1.18049 32.9404 1.22347 33.2327C1.30943 33.8258 1.42118 34.4275 1.5845 35.0035C1.81659 35.8287 2.21201 36.5679 2.83951 37.1696C3.60456 37.9089 4.5845 38.2871 5.53006 38.6825C6.33808 39.0264 7.18049 39.2843 8.06588 39.3874C8.80513 39.4734 9.53579 39.5937 10.2665 39.6711C10.6533 39.7141 11.0401 39.7227 11.4269 39.7313C12.1146 39.7484 12.8109 39.7828 13.4985 39.757C14.3152 39.7227 15.1318 39.6023 15.9484 39.5679C17.1604 39.5249 18.3639 39.5249 19.5759 39.5078C19.6533 39.5078 19.7306 39.5078 19.808 39.482C20.4613 39.2671 21.149 39.1123 21.7507 38.8115C22.0773 38.6482 22.2665 38.2098 22.5157 37.9003C22.5329 37.8745 22.5157 37.8315 22.5157 37.7972C22.5157 37.4619 22.5329 37.1181 22.5157 36.7828C22.5071 36.6281 22.4642 36.4476 22.3868 36.3186C22.0773 35.8201 21.7593 35.3387 21.3209 34.9261C21.0544 34.6768 20.8309 34.3416 20.8567 33.9461C20.8825 33.4218 21.4241 32.949 21.9484 32.9232C22.3352 32.906 22.6533 33.0522 22.8854 33.31C23.1089 33.1639 23.3152 33.0436 23.5129 32.906C23.7879 32.6997 24.0802 32.5106 24.3209 32.2613C24.9742 31.608 25.6963 31.0579 26.5645 30.7141C27.0544 30.5163 27.5444 30.5078 27.9656 30.9118C28.1031 31.0407 28.2493 31.1696 28.404 31.2728C28.4728 31.3158 28.6189 31.3244 28.6619 31.2728C29.0057 30.929 29.341 30.5679 29.4441 30.0694C29.4957 29.8029 29.4527 29.5192 29.4527 29.1668C29.3066 29.2699 29.2292 29.3301 29.1433 29.3903C28.6103 29.7685 28.0344 29.9748 27.3725 29.8974C26.9685 29.8545 26.5645 29.8373 26.1518 29.8545C25.2321 29.8802 24.3037 29.9662 23.3839 29.9748C22.4814 29.9834 21.5702 29.949 20.659 29.9146C20.3925 29.906 20.1347 29.8459 19.8682 29.7943C19.5759 29.7427 19.2836 29.6653 18.9828 29.6224C18.2091 29.5192 17.4355 29.4676 16.7134 29.1238C16.0945 28.8315 15.4756 28.5393 14.8739 28.2298C14.2636 27.9204 13.6877 27.5421 13.0687 27.2757C12.3295 26.9576 11.659 26.545 11.0487 26.0378C10.894 25.9089 10.7564 25.737 10.6877 25.5479C10.5415 25.1782 10.6103 24.8172 10.851 24.4992C11.0401 24.2413 11.3238 24.2585 11.5816 24.3014C12.0114 24.3874 12.4412 24.4992 12.8624 24.6195C13.5759 24.8172 14.2808 25.0751 15.0028 25.2384C16.0687 25.4877 17.1432 25.6854 18.2263 25.8917C18.8538 26.012 19.4814 26.1152 20.1175 26.184C20.8997 26.2785 21.6819 26.3387 22.4642 26.4075C22.8682 26.4418 23.2722 26.4676 23.6762 26.4934C24.3553 26.5364 25.0344 26.5966 25.7135 26.6138C26.2292 26.6224 26.7536 26.6052 27.2693 26.5536C27.8453 26.4934 28.4384 26.4676 28.9284 26.1066C29.7536 25.5049 30.2349 24.6711 30.4155 23.6739C30.5358 22.9949 29.9685 22.204 29.3753 21.8344C29.1003 22.4103 28.5931 22.5651 28 22.5479C27.871 22.5479 27.6905 22.608 27.6819 22.4017C27.6819 22.3587 27.8796 22.29 27.9914 22.2728C28.1547 22.247 28.318 22.2728 28.4814 22.247C28.7908 22.204 28.9971 22.0235 29.0401 21.7742C28.7994 21.7742 28.5587 21.7914 28.318 21.7742C28.1805 21.757 28.0516 21.6711 27.9226 21.6195C28.0602 21.5851 28.1977 21.5077 28.3352 21.5163C28.7135 21.5335 29.0831 21.5163 29.3925 21.2757C29.788 20.9662 30.0716 20.5622 30.2435 20.0894C30.2951 19.9519 30.2865 19.7971 30.3123 19.6424C30.2693 19.6166 30.2263 19.5994 30.1834 19.5736C30.1232 19.6682 30.0716 19.7714 29.9943 19.8487C29.788 20.055 29.5816 20.2699 29.341 20.4332C28.7392 20.8459 28.0344 20.8373 27.3467 20.8545C26.8997 20.863 26.4527 20.8287 25.9971 20.8115C25.3438 20.7943 24.6905 20.7857 24.0544 20.5794C23.6418 20.4504 23.5043 20.2699 23.5988 19.8573C23.702 19.4103 23.9857 19.0751 24.2865 18.7484C24.4928 18.5249 24.6819 18.2928 24.871 18.0608C25.3008 17.5364 25.8424 17.1152 26.4785 16.9347C27.2865 16.7112 28.1203 16.7714 28.9455 16.9347C29.3066 17.0034 29.6074 17.1668 29.7965 17.5106C29.8825 17.6739 30.0029 17.8287 30.1232 17.9834C30.1576 18.035 30.2178 18.0608 30.2607 18.1037C30.2865 18.0951 30.3123 18.0865 30.3381 18.0779C30.3209 17.7771 30.3123 17.4676 30.2693 17.1668C30.2521 17.0378 30.1576 16.8745 30.0544 16.8229C29.7794 16.6854 29.4871 16.565 29.1948 16.5049C28.765 16.4275 28.318 16.4017 27.8796 16.3673C26.9427 16.3072 26.0229 16.3501 25.2235 16.9347C24.9656 17.1238 24.7421 17.3559 24.4928 17.5536C24.4412 17.5966 24.3467 17.588 24.2693 17.6052C24.2693 17.5364 24.2435 17.4418 24.2779 17.4075C24.871 16.7542 25.5587 16.2814 26.4527 16.1524C27.3725 16.0235 28.2837 16.1438 29.1948 16.2212C29.659 16.2642 30.0802 16.4275 30.4241 16.7628C30.4584 16.7971 30.5186 16.8057 30.5616 16.8315C30.5702 16.8143 30.5874 16.7885 30.596 16.7714C30.1834 16.3502 29.7192 15.9203 29.1518 15.8086C27.957 15.5765 26.7536 15.5335 25.5931 16.0407C25.5329 16.0665 25.4384 16.0407 25.361 16.0407C25.404 15.9633 25.4212 15.8516 25.4814 15.8258C25.6877 15.7226 25.9026 15.6023 26.1261 15.5679C26.9685 15.439 27.8195 15.3272 28.6791 15.4734C28.7392 15.482 28.808 15.4562 28.8768 15.4476C28.8596 15.3788 28.8768 15.2928 28.8252 15.2413C28.361 14.6739 27.8367 14.2012 27.0286 14.2355C25.8252 14.2785 24.6304 14.3043 23.4269 14.3645C22.9283 14.3903 22.4298 14.5106 21.871 14.588C21.9742 14.7685 22.043 14.8802 22.1031 15.0006C22.3094 15.3788 22.5501 15.7484 22.4212 16.2212C22.404 16.29 22.4556 16.3845 22.5071 16.4447C22.6447 16.6166 22.8166 16.7714 22.9541 16.9433C23.3667 17.4762 23.3581 18.0951 23.3324 18.7226C23.3324 18.757 23.255 18.7914 23.212 18.8344C23.1776 18.7914 23.1175 18.7484 23.1089 18.7055C23.0831 18.4734 23.0917 18.2327 23.0487 18.0092C22.9885 17.7341 22.9627 17.4075 22.7908 17.2097C22.3438 16.694 21.8367 16.2126 21.3209 15.757C21.1662 15.6195 20.8997 15.5679 20.6762 15.5507C20.2378 15.5163 19.7908 15.5335 19.3524 15.5335C19.3008 15.5335 19.2493 15.5679 19.1203 15.6109C19.2922 15.6883 19.3868 15.7398 19.4814 15.7742C19.894 15.9118 20.2894 16.0837 20.6074 16.3845C21.2521 16.9948 21.9054 17.5966 22.5415 18.2241C22.9198 18.5937 23.1862 19.0407 23.1776 19.5994C23.1776 19.6768 23.1089 19.7542 23.0745 19.8315C23.0315 19.7628 22.9455 19.694 22.9369 19.6166C22.8854 19.1095 22.6533 18.6969 22.2836 18.353C21.8281 17.9318 21.3381 17.5364 20.9255 17.0808C20.4355 16.5479 19.8682 16.161 19.1805 15.9118C18.4928 15.6625 17.8051 15.4906 17.0659 15.5335C16.318 15.5765 15.5616 15.5593 14.8137 15.5937C14.4613 15.6109 14.1003 15.6453 13.7736 15.757C13.4384 15.8688 13.1031 16.0321 12.8281 16.2556C12.4584 16.5565 12.149 16.9175 11.8309 17.2699C11.7278 17.3903 11.659 17.5708 11.6332 17.7255C11.5902 17.9576 11.7278 18.0608 11.9427 17.9576C12.0802 17.8888 12.2091 17.7685 12.2951 17.6395C12.6218 17.141 13.043 16.7542 13.6103 16.5565C14.745 16.1438 15.9226 16.0235 17.1261 16.0149C17.8653 16.0149 18.5014 16.2642 19.1203 16.6424C19.6361 16.9605 20.1862 17.2441 20.7364 17.5106C21.2177 17.7513 21.6304 18.0608 21.871 18.5335C22.1117 19.0063 22.2836 19.5221 22.49 20.012C22.5243 20.098 22.5845 20.184 22.6619 20.2355C22.9283 20.4075 23.0917 20.6481 22.9971 20.9232C22.9283 21.1123 22.765 21.2928 22.5931 21.396C22.0945 21.7226 21.5616 21.9977 21.2006 22.4877C21.1404 22.5651 21.0802 22.6338 21.0114 22.7026C20.6246 23.1324 20.1948 23.5278 19.6447 23.7427C19.0344 23.9834 18.4155 24.2069 17.7965 24.4132C17.573 24.4906 17.3324 24.5249 17.0917 24.5507C17.0315 24.5507 16.9541 24.482 16.8854 24.4476C16.9455 24.4046 17.0057 24.3444 17.0745 24.3186C17.298 24.2499 17.5301 24.2155 17.745 24.1467C18.0286 24.0522 18.3037 23.906 18.5874 23.8201C19.2579 23.631 19.9026 23.3903 20.4183 22.9003C20.702 22.6252 20.9685 22.3244 21.2951 21.9891C21.1318 21.9719 21.063 21.9633 20.9857 21.9547C20.5215 21.9289 20.0573 21.9289 19.5931 21.886C18.5444 21.7914 17.4957 21.6883 16.4556 21.5679C15.9054 21.4991 15.3725 21.3186 14.9255 20.9748C14.4699 20.6224 14.0487 20.2183 13.6275 19.8315C13.5931 19.7971 13.6017 19.7198 13.5845 19.6596C13.6447 19.651 13.7134 19.608 13.765 19.6338C13.851 19.6682 13.9283 19.7284 13.9971 19.7885C14.2894 20.055 14.5816 20.3301 14.8739 20.5966C15.3725 21.0436 15.9742 21.2671 16.6361 21.3272C17.7879 21.4304 18.9398 21.5249 20.0917 21.6281C20.2894 21.6453 20.4871 21.6281 20.6848 21.6711C21.192 21.7656 21.6647 21.6539 22.1031 21.396C22.3008 21.2757 22.49 21.1381 22.6533 20.9748C22.7134 20.9146 22.7306 20.7513 22.6963 20.6567C22.6705 20.5794 22.5329 20.4848 22.4642 20.502C22.1977 20.5536 21.9312 20.6224 21.6819 20.7255C20.9771 21.0264 20.2464 21.1639 19.4814 21.035C18.8367 20.9232 18.192 20.8029 17.5559 20.6653C17.2206 20.588 16.894 20.4762 16.5673 20.3645C16.0172 20.1668 15.4412 20.0378 15.0028 19.5994C14.702 19.2986 14.3581 19.0579 13.9455 18.9204C13.5501 18.7828 13.1633 18.6109 12.7679 18.4562C12.4584 18.3358 12.1834 18.1553 11.8137 18.2413C11.5644 18.3014 11.3753 18.1381 11.3581 17.8974C11.3324 17.5966 11.3925 17.3129 11.616 17.0808C11.8309 16.8659 12.0544 16.6596 12.2435 16.4275C12.9828 15.5421 13.9713 15.2842 15.0716 15.3014C15.4756 15.3014 15.8796 15.3014 16.2836 15.3014C16.447 15.3014 16.6103 15.2671 16.7736 15.2671C17.6934 15.2671 18.6218 15.2842 19.5415 15.2842C19.7994 15.2842 20.0573 15.2499 20.3152 15.2499C20.8739 15.2499 21.3983 15.3444 21.8023 15.7914C21.8796 15.8774 21.9742 15.9547 22.0516 16.0321H22.0602ZM28.3868 14.4075C28.6275 14.6825 28.851 14.949 29.1003 15.1983C29.1518 15.2499 29.2894 15.2327 29.3839 15.2413C29.8739 15.2585 30.3811 15.1983 30.8453 15.31C31.5501 15.4734 32.2292 15.7484 32.9083 16.0063C33.467 16.2212 34 16.4791 34.5501 16.7112C34.9198 16.8659 35.1175 16.737 35.1261 16.333C35.1347 15.9204 34.937 15.6195 34.6275 15.3874C34.4642 15.2671 34.2923 15.1467 34.1203 15.035C33.6218 14.7169 33.106 14.4418 32.5215 14.3215C31.9799 14.2097 31.4384 14.1152 30.8968 14.0034C28.7478 13.5393 26.573 13.3501 24.3811 13.4275C23.702 13.4533 23.0143 13.4791 22.3352 13.5479C21.6475 13.6166 20.9685 13.7542 20.2808 13.8487C19.6533 13.9347 19.0258 13.9863 18.3983 14.055C17.6246 14.141 16.851 14.2097 16.0859 14.3301C15.0802 14.4848 14.1175 14.3301 13.1719 14.0292C12.6647 13.8745 12.2091 13.5736 11.7364 13.3244C11.659 13.2814 11.6418 13.1438 11.5902 13.0493C11.6934 13.0321 11.7965 12.9891 11.8911 13.0063C12.2006 13.0579 12.5014 13.1954 12.8023 13.1954C13.447 13.1954 14.1003 13.1782 14.7364 13.0665C16.1977 12.8086 17.6504 12.4734 19.1117 12.2069C20.0917 12.035 21.0802 11.8888 22.0687 11.8201C23.1776 11.7427 24.2951 11.7857 25.4126 11.7513C26.8395 11.7083 28.1805 12.1381 29.5473 12.4132C29.7192 12.4476 29.8137 12.4734 29.788 12.2413C29.6246 10.6424 29.4613 9.04356 29.3066 7.4447C29.2378 6.75702 29.0315 6.13811 28.6103 5.57937C27.4412 4.04069 25.8166 3.41318 23.9599 3.26705C22.5415 3.1553 21.1404 3.26705 19.7564 3.53353C18.5444 3.76562 17.3238 3.97192 16.1203 4.26418C14.6418 4.61662 13.1719 5.02923 11.7106 5.44184C11.255 5.57078 10.808 5.75129 10.3954 5.97479C9.69912 6.35301 9.15757 6.92035 8.73637 7.59943C8.61602 7.78854 8.4527 7.96906 8.39253 8.17536C8.10886 9.18109 7.85957 10.1954 7.60169 11.2097C7.53293 11.4848 7.62748 11.7169 7.84238 11.8802C8.04869 12.0436 8.26359 12.2241 8.51287 12.3186C9.0888 12.5335 9.68192 12.6883 10.2665 12.8774C10.4126 12.9289 10.5501 13.0235 10.6791 13.1181C10.9283 13.3158 11.1346 13.5908 11.4097 13.7198C12.1318 14.0722 12.871 14.3989 13.6189 14.6653C14.4785 14.9748 15.3897 15.0608 16.3008 14.9748C17.7965 14.8201 19.2836 14.6481 20.7794 14.4848C21.1146 14.4504 21.4498 14.4246 21.7851 14.3645C22.8682 14.1496 23.9599 14.0894 25.0602 14.0464C26.1948 14.0034 27.3209 13.9347 28.447 14.1152C29.2206 14.2441 30.0114 14.2785 30.7851 14.4161C31.8424 14.6052 32.8653 14.9232 33.7765 15.5249C33.8453 15.5765 33.8882 15.6711 33.9398 15.7484C33.8453 15.7484 33.7421 15.7828 33.6733 15.7484C33.4842 15.6625 33.3209 15.5335 33.1318 15.4476C31.8682 14.8544 30.5186 14.5622 29.1347 14.4075C28.8854 14.3817 28.6361 14.4075 28.4126 14.4075H28.3868ZM27.8882 34.4103C27.8882 34.4103 27.9312 34.4533 27.9484 34.4791C28.0344 34.4189 28.1203 34.3673 28.2063 34.2986C28.5071 34.0579 28.808 33.8086 29.1175 33.5765C29.1604 33.5421 29.255 33.5765 29.3238 33.5765C29.3066 33.6453 29.3066 33.7312 29.255 33.7742C29.1261 33.886 28.9713 33.9719 28.8424 34.0923C28.2922 34.6166 27.6561 35.0292 26.9685 35.3301C26.3839 35.588 26.0487 36.0436 25.765 36.5593C25.7049 36.6711 25.6963 36.8688 25.7478 36.9977C25.9284 37.4447 26.2636 37.7886 26.6934 37.9863C27.1834 38.2098 27.5788 38.2785 27.8796 37.608C28.1805 36.9376 28.6103 36.31 29.3066 35.949C29.3667 35.9146 29.4441 35.9318 29.5129 35.9232C29.4957 36.0006 29.4785 36.078 29.4527 36.1467C29.4355 36.1811 29.3925 36.2069 29.3582 36.2241C28.7994 36.5335 28.5243 37.0837 28.1891 37.5823C28.0773 37.7542 28 37.9519 27.9312 38.141C27.8281 38.4247 27.9914 38.8287 28.2235 38.8545C28.5845 38.8974 28.9455 38.9146 29.3066 38.9146C29.4097 38.9146 29.5301 38.8545 29.5988 38.7857C29.8739 38.502 30.1318 38.2012 30.3983 37.9089C30.6647 37.6166 30.9398 37.3244 31.2149 37.0407C31.2579 36.9977 31.3524 37.0063 31.4126 36.9977C31.404 37.0751 31.3954 37.1439 31.3782 37.2212C31.3782 37.2384 31.3524 37.247 31.3438 37.2556C30.9226 37.694 30.51 38.1238 30.0888 38.5622C29.8309 38.8287 29.8997 39.3616 30.2178 39.4648C30.5702 39.5679 30.9312 39.5593 31.2063 39.2757C31.447 39.0264 31.6533 38.7513 31.8854 38.4934C32.0831 38.2613 32.2808 38.0378 32.4871 37.8143C32.5301 37.7714 32.6332 37.7886 32.7106 37.78C32.702 37.8487 32.7106 37.9347 32.6676 37.9863C32.2464 38.4762 31.8252 38.9748 31.3868 39.4476C31.0945 39.757 30.7077 39.8086 30.2865 39.7484C29.9771 39.6969 29.8309 39.5078 29.7278 39.2413C29.7106 39.1983 29.6074 39.1639 29.5473 39.1553C29.1433 39.1381 28.7392 39.1381 28.3438 39.1295C27.9828 39.1209 27.7593 38.9318 27.6733 38.588C27.6304 38.3989 27.5358 38.3645 27.3639 38.3731C26.9943 38.3903 26.6418 38.3215 26.341 38.0722C25.8854 37.7026 25.4298 37.333 25 36.9376C24.7937 36.757 24.5874 36.5421 24.4756 36.3014C24.3553 36.035 24.3295 35.7255 24.2865 35.4247C24.2349 35.0121 24.1576 34.8917 23.7622 34.8143C23.2206 34.7026 22.851 34.4533 22.808 33.8344C22.7994 33.6625 22.6103 33.4648 22.4556 33.353C22.0859 33.0865 21.6991 33.1725 21.2951 33.5593C21.0544 33.7828 21.0458 34.0407 21.2865 34.4533C21.3467 34.5565 21.4069 34.6682 21.4928 34.7542C21.8882 35.1324 22.2235 35.5536 22.5157 36.0178C22.6705 36.2671 22.7822 36.5163 22.7822 36.8086C22.7822 37.2126 22.765 37.6252 22.8252 38.0206C22.8854 38.4075 22.9885 38.7857 23.4011 39.0006C23.7708 39.1983 24.1318 39.4304 24.467 39.6883C25.2836 40.3244 26.1776 40.6596 27.2177 40.6596C27.7851 40.6596 28.3524 40.7456 28.9198 40.7714C29.4183 40.7886 29.9255 40.8315 30.4155 40.7714C31.0344 40.7026 31.6533 40.5565 32.2636 40.4017C32.9341 40.2384 33.5186 39.8688 34.0602 39.4562C34.1891 39.353 34.2837 39.1123 34.2751 38.9404C34.2579 38.6911 34.1719 38.4333 34.0602 38.2012C33.8023 37.6596 33.4842 37.1439 33.2349 36.6023C32.9427 35.9748 32.5215 35.4504 32.1089 34.9089C31.4126 33.9719 30.5702 33.2327 29.5473 32.6911C29.2206 32.5192 28.894 32.3645 28.6533 32.0464C28.4126 31.7284 28.0945 31.4705 27.8195 31.1782C27.4498 30.7914 27.0114 30.843 26.573 31.0235C25.851 31.3158 25.2407 31.78 24.6733 32.3043C24.4842 32.4848 24.2779 32.6567 24.063 32.8459C24.2435 32.9834 24.3811 33.0694 24.4928 33.1725C24.8796 33.5335 24.8882 33.8086 24.51 34.1525C24.4241 34.2384 24.2006 34.3244 24.1834 34.3072C24.0458 34.1267 24.2521 34.0751 24.3381 33.9719C24.4412 33.8516 24.596 33.757 24.4756 33.5507C24.2092 33.0865 23.6418 33.0006 23.2636 33.3788C22.9713 33.6711 23.0229 34.2126 23.3753 34.3845C23.8223 34.608 24.3037 34.6854 24.7507 34.4447C25.2235 34.1868 25.6877 33.8774 26.0831 33.5163C26.745 32.9232 27.6475 33.1381 28.1719 33.4906C28.3094 33.5765 28.3266 33.6539 28.2063 33.8C28.0688 33.9719 27.9914 34.1954 27.8882 34.4017V34.4103ZM29.9857 26.9576C29.7192 27.1725 29.4441 27.353 29.212 27.5765C28.9112 27.8688 28.5587 28.0321 28.1547 28.0579C27.3725 28.1009 26.5816 28.161 25.7994 28.161C24.7249 28.161 23.659 28.1267 22.5931 28.0493C21.8453 27.9977 21.0974 27.8688 20.3667 27.7055C19.6447 27.5507 18.9226 27.439 18.1834 27.4562C17.2206 27.482 16.3008 27.2671 15.3983 26.9576C14.7793 26.7427 14.1604 26.5278 13.5329 26.3387C13.0859 26.2098 12.6647 26.0378 12.3295 25.7112C12.2349 25.6166 12.1834 25.4705 12.106 25.3502C12.2349 25.3845 12.3983 25.3845 12.4928 25.4619C12.8968 25.78 13.3438 25.9777 13.8424 26.0808C14.1003 26.1324 14.3495 26.2441 14.6074 26.3215C15.2349 26.5192 15.8453 26.7599 16.4814 26.9146C16.9799 27.035 17.5043 27.0865 18.02 27.1381C18.6905 27.2069 19.3782 27.1639 20.0229 27.31C21.4069 27.6367 22.7908 27.7914 24.2092 27.7742C24.8367 27.7742 25.4728 27.8258 26.1003 27.8172C26.6934 27.8172 27.2865 27.7398 27.8882 27.7312C28.3954 27.7312 28.8166 27.5765 29.1518 27.1897C29.2206 27.1123 29.298 27.0436 29.3839 26.9834C30.0372 26.5192 30.4498 25.8401 30.9828 25.2642C31.0172 25.2298 31.0344 25.1782 31.0602 25.1267C31.2837 24.6969 31.1203 24.0522 30.6905 23.7341C30.6046 24.5593 30.1834 25.2126 29.702 25.8401C29.3925 26.2441 28.9885 26.5192 28.4986 26.6653C27.4928 26.949 26.4613 26.9662 25.4384 26.9318C23.8911 26.8716 22.3524 26.7341 20.8137 26.5966C19.9799 26.5192 19.1547 26.3903 18.3295 26.2355C17.4613 26.0808 16.6017 25.8831 15.7421 25.694C15.02 25.5307 14.298 25.3502 13.5845 25.1696C12.9312 25.0063 12.2865 24.8086 11.6332 24.6539C11.1776 24.5421 10.9455 24.714 10.9455 25.1868C10.9455 25.3931 11.0487 25.651 11.2034 25.7971C11.4613 26.055 11.7708 26.2871 12.0888 26.4676C12.8624 26.906 13.6533 27.31 14.4441 27.7226C14.9942 28.0063 15.5616 28.2642 16.1203 28.5393C16.894 28.9261 17.6848 29.2355 18.553 29.2957C18.9226 29.3215 19.3008 29.3559 19.6533 29.459C20.2206 29.631 20.7879 29.6567 21.3725 29.6482C21.596 29.6482 21.8195 29.6482 22.043 29.6739C23.0487 29.7771 24.0458 29.7341 25.043 29.6739C25.6963 29.631 26.3581 29.6138 27.0114 29.6482C27.8195 29.6911 28.5845 29.6138 29.1862 29.0292C29.5559 28.6682 29.8739 28.2556 30.149 27.8258C30.3639 27.4992 30.2865 27.2327 30.0114 26.949L29.9857 26.9576ZM12.6303 13.4619C12.6303 13.4619 12.6218 13.5135 12.6132 13.5307C12.6905 13.565 12.7593 13.6166 12.8452 13.6338C13.5415 13.7885 14.2378 14.0034 14.9427 14.0808C16.3868 14.2355 17.7965 13.8401 19.2235 13.7198C20.1347 13.6424 21.0372 13.4619 21.9398 13.3416C22.4126 13.2814 22.894 13.2986 23.3581 13.2384C24.6046 13.0665 25.8596 13.1267 27.106 13.1868C28.6189 13.2556 30.106 13.5135 31.5759 13.9089C31.8252 13.9777 32.0917 14.0034 32.341 14.0464C32.3238 13.9519 32.2808 13.9003 32.2378 13.8831C31.8768 13.7284 31.5243 13.5736 31.1633 13.4361C30.6476 13.2298 30.1318 13.0321 29.616 12.843C29.298 12.7226 28.9713 12.6195 28.6361 12.5249C28.4728 12.4734 28.2922 12.4562 28.1289 12.4132C27.2092 12.1467 26.2722 12.0178 25.3094 12.0693C24.7937 12.0951 24.2693 12.0865 23.7536 12.0693C22.2063 12.0178 20.6848 12.1897 19.1633 12.4734C17.9341 12.6969 16.6963 12.9289 15.4842 13.2212C14.702 13.4103 13.9197 13.5049 13.1203 13.4877C12.9484 13.4877 12.7851 13.4705 12.6132 13.4619H12.6303ZM20.1604 17.6567C20.1604 17.6567 20.1862 17.5966 20.2034 17.5622C20.1604 17.5364 20.1089 17.5192 20.0659 17.4934C19.6447 17.2527 19.2321 17.0206 18.8195 16.7714C18.3811 16.5135 17.9341 16.3158 17.4183 16.2814C16.4126 16.2126 15.4326 16.333 14.4613 16.5565C13.7392 16.7284 13.0344 16.9863 12.596 17.6739C12.4154 17.9662 12.4498 18.1209 12.8023 18.1725C12.8796 18.1811 12.9656 18.1467 13.0516 18.1209C13.1805 18.0779 13.3094 18.0092 13.447 17.992C14.1776 17.8974 14.8997 17.7685 15.6304 17.7427C16.8252 17.6997 18.0114 17.7341 19.2063 17.7255C19.5243 17.7255 19.851 17.6739 20.169 17.6481L20.1604 17.6567ZM19.0086 20.6739C19.0086 20.6739 19.0602 20.7169 19.0945 20.7255C19.851 20.8287 20.6074 20.8974 21.3381 20.5708C21.5358 20.4848 21.7421 20.4075 21.9484 20.3559C22.2063 20.2957 22.2665 20.2441 22.1719 20.0034C22.0086 19.5736 21.8796 19.1267 21.6475 18.7398C21.467 18.439 21.149 18.2069 20.8911 17.949C20.298 17.949 19.7134 17.9662 19.0859 17.9748C19.7564 18.9461 19.4728 19.8057 19.0086 20.6739ZM30.192 18.8688C30.192 18.8688 30.2521 18.8344 30.2865 18.8086C30.2435 18.7055 30.2263 18.5937 30.1662 18.5077C29.9685 18.2241 29.7278 17.9748 29.5473 17.6825C29.3667 17.3817 29.1003 17.2613 28.7908 17.2012C28.1031 17.0808 27.4155 17.0636 26.7278 17.1668C26.3324 17.2183 26.0229 17.4332 25.6963 17.7427C25.8166 17.7685 25.8768 17.7857 25.9455 17.7857C26.3496 17.8029 26.7536 17.8201 27.1576 17.8373C27.8453 17.8716 28.5071 17.9318 29.1003 18.3444C29.4269 18.5679 29.8223 18.6883 30.192 18.8602V18.8688ZM27.9226 20.5708C28.5501 20.5536 29.0573 20.4075 29.4613 20.012C29.6504 19.8315 29.8137 19.6338 29.9943 19.4447C30.1576 19.2642 30.149 19.1524 29.9255 19.0407C29.4269 18.7914 28.9198 18.5421 28.4126 18.3014C28.2665 18.2327 28.1031 18.2155 27.9398 18.1725C27.9226 18.1897 27.914 18.2069 27.8968 18.2241C28.4298 18.9805 28.5329 19.7542 27.914 20.5708H27.9226ZM24.6046 35.9834L24.6991 36.0178C25.1633 35.5966 25.6361 35.184 26.0831 34.7456C26.4269 34.4103 26.7622 34.0579 27.0888 33.7055C27.149 33.6453 27.1404 33.5249 27.1576 33.4304C27.063 33.4132 26.9599 33.3788 26.8653 33.3788C26.8137 33.3788 26.7536 33.4218 26.702 33.4562C26.4097 33.6711 26.1261 33.8946 25.8252 34.0923C25.3782 34.3931 24.9226 34.6682 24.4498 34.9691C24.4928 35.2699 24.5444 35.631 24.596 35.992L24.6046 35.9834ZM11.7364 5.14098C11.8395 5.12378 11.9083 5.11519 11.9771 5.0894C12.7335 4.89169 13.4985 4.69398 14.255 4.49628C14.616 4.40172 14.9685 4.30716 15.3295 4.20401C15.3897 4.18682 15.4412 4.11805 15.5014 4.06648C15.4498 4.0149 15.4069 3.93754 15.3467 3.91175C15.2349 3.86877 15.1146 3.83439 14.9942 3.83439C13.9455 3.8 12.9742 4.05788 12.0974 4.62522C11.9255 4.73696 11.7793 4.8745 11.7364 5.14098ZM25.3782 36.9376C25.4814 36.3788 25.765 36.0178 26.0573 35.6653C26.2034 35.4934 26.3925 35.3215 26.5902 35.2355C27.1834 34.9949 27.467 34.4877 27.8023 34.0063C27.8281 33.9633 27.8624 33.9032 27.8539 33.8602C27.8195 33.7484 27.7937 33.6109 27.7163 33.5421C27.596 33.439 27.4928 33.5335 27.3983 33.6453C27.1662 33.9461 26.9341 34.247 26.6676 34.5135C26.0917 35.0722 25.49 35.6052 24.9054 36.1553C24.8539 36.2069 24.7937 36.3358 24.8195 36.353C24.9828 36.5421 25.1633 36.7141 25.3782 36.929V36.9376ZM13.3094 18.2671C13.3094 18.2671 13.3094 18.3358 13.3094 18.3788C13.8768 18.6195 14.4527 18.8688 14.9942 19.1009C15.192 18.7742 15.4069 18.4132 15.6647 17.9834C14.8567 18.0779 14.0831 18.1725 13.3094 18.2671ZM18.1146 19.7198C18.5014 19.7198 18.7765 19.4705 18.7765 19.1181C18.7765 18.8688 18.5272 18.6539 18.2435 18.6625C17.9169 18.6711 17.5644 18.9805 17.573 19.2642C17.573 19.5307 17.8051 19.7198 18.1146 19.7198ZM24.8968 18.6539C24.8968 18.6539 24.8453 18.6281 24.8281 18.6109C24.6304 18.8344 24.3983 19.0321 24.2349 19.2814C24.0716 19.5135 23.9685 19.7885 23.8567 20.055C23.8309 20.1152 23.8997 20.2613 23.9513 20.2785C24.1662 20.3645 24.3983 20.4161 24.6819 20.4934C24.51 19.8057 24.6647 19.2212 24.9054 18.6453L24.8968 18.6539ZM27.7679 19.3673C27.7679 19.0579 27.5874 18.9118 27.2435 18.9204C27.0458 18.9204 26.8911 19.1267 26.8911 19.3845C26.8911 19.6682 27.0544 19.8229 27.3381 19.8229C27.6304 19.8229 27.7679 19.6682 27.7679 19.3673ZM16.3266 18.8602C16.3266 18.8602 16.404 18.8602 16.447 18.8602C16.5243 18.7484 16.6705 18.6367 16.6705 18.5249C16.6705 18.4304 16.4814 18.2499 16.404 18.2671C16.2922 18.2928 16.1461 18.439 16.1203 18.5507C16.1031 18.6281 16.2579 18.7484 16.3352 18.8516L16.3266 18.8602ZM16.9112 19.4705C16.7564 19.3244 16.6791 19.204 16.5845 19.1868C16.4212 19.161 16.2665 19.2642 16.2751 19.4447C16.2751 19.5393 16.4126 19.6854 16.49 19.694C16.6017 19.694 16.7134 19.5822 16.9026 19.4705H16.9112ZM26.0315 18.843C26.0315 18.843 26.0315 18.7656 26.0315 18.7312C25.9284 18.6625 25.808 18.5335 25.722 18.5507C25.6275 18.5765 25.5071 18.7226 25.4986 18.8258C25.4986 18.9032 25.6533 19.0751 25.7135 19.0665C25.8252 19.0493 25.9284 18.9204 26.0315 18.843ZM25.7908 19.5049C25.6705 19.6596 25.5501 19.7628 25.5673 19.8315C25.5931 19.9261 25.7135 19.9949 25.7994 20.0722C25.8682 19.9949 25.9885 19.9175 26.0057 19.8315C26.0143 19.7542 25.9026 19.6682 25.7994 19.5049H25.7908Z" fill="black"/>
<path d="M22.0615 16.0314C21.9755 15.954 21.8895 15.8767 21.8122 15.7907C21.4168 15.3437 20.8838 15.2578 20.3251 15.2492C20.0672 15.2492 19.8093 15.2835 19.5514 15.2835C18.6317 15.2835 17.7033 15.2664 16.7835 15.2664C16.6202 15.2664 16.4569 15.3007 16.2936 15.3007C15.8895 15.3007 15.4855 15.3007 15.0815 15.3007C13.9812 15.2835 13.0013 15.5414 12.2534 16.4268C12.0643 16.6589 11.8408 16.8652 11.6259 17.0801C11.4024 17.3122 11.3423 17.5959 11.368 17.8967C11.3852 18.1288 11.5829 18.3007 11.8236 18.2406C12.1933 18.146 12.4769 18.3265 12.7778 18.4555C13.1732 18.6102 13.5514 18.7907 13.9554 18.9197C14.368 19.0572 14.7119 19.2979 15.0127 19.5987C15.4511 20.0371 16.0271 20.1661 16.5772 20.3638C16.9039 20.4755 17.2305 20.5959 17.5658 20.6646C18.2019 20.8022 18.8466 20.9311 19.4913 21.0343C20.2563 21.1632 20.987 21.0343 21.6918 20.7248C21.9411 20.6217 22.2076 20.5529 22.4741 20.5013C22.5428 20.4841 22.6804 20.5873 22.7062 20.656C22.7405 20.7506 22.7234 20.9139 22.6632 20.9741C22.4999 21.1374 22.3107 21.2836 22.113 21.3953C21.6746 21.6532 21.2105 21.7649 20.6947 21.6704C20.497 21.636 20.2993 21.6446 20.1016 21.6274C18.9497 21.5328 17.7979 21.4383 16.646 21.3265C15.9841 21.2664 15.3824 21.0429 14.8838 20.5959C14.5915 20.3294 14.2993 20.0543 14.007 19.7878C13.9382 19.7277 13.8609 19.6675 13.7749 19.6331C13.7233 19.6159 13.6546 19.6503 13.5944 19.6589C13.603 19.7191 13.5944 19.805 13.6374 19.8308C14.0672 20.2176 14.4798 20.6217 14.9354 20.9741C15.3738 21.3179 15.9067 21.4985 16.4655 21.5672C17.5142 21.6876 18.5629 21.7907 19.603 21.8853C20.0672 21.9283 20.5314 21.9283 20.9956 21.954C21.0729 21.954 21.1417 21.9712 21.305 21.9884C20.9784 22.3237 20.7205 22.6245 20.4282 22.8996C19.9125 23.3896 19.2678 23.6303 18.5973 23.8194C18.305 23.9053 18.0385 24.0515 17.7549 24.146C17.54 24.2234 17.3079 24.2578 17.0844 24.3179C17.0156 24.3351 16.9554 24.4039 16.8953 24.4469C16.964 24.4813 17.0328 24.5586 17.1016 24.55C17.3337 24.5156 17.5829 24.4899 17.8064 24.4125C18.4254 24.1976 19.0443 23.9741 19.6546 23.742C20.2047 23.5271 20.6345 23.1317 21.0213 22.7019C21.0815 22.6331 21.1503 22.5644 21.2105 22.487C21.5801 21.997 22.113 21.7219 22.603 21.3953C22.7749 21.2836 22.9383 21.103 23.007 20.9225C23.1102 20.6474 22.9468 20.4068 22.6718 20.2348C22.5944 20.1833 22.5342 20.0973 22.4999 20.0113C22.2936 19.5214 22.1216 19.0056 21.8809 18.5328C21.6403 18.0601 21.2277 17.7506 20.7463 17.5099C20.1961 17.2348 19.6546 16.9598 19.1302 16.6417C18.5113 16.2635 17.8752 16.0056 17.136 16.0142C15.9411 16.0228 14.7549 16.1517 13.6202 16.5558C13.0529 16.7621 12.6317 17.1403 12.305 17.6389C12.2191 17.7678 12.0901 17.8881 11.9526 17.9569C11.7377 18.0601 11.6001 17.9569 11.6431 17.7248C11.6689 17.5615 11.7377 17.3896 11.8408 17.2692C12.1503 16.9168 12.4683 16.5472 12.838 16.2549C13.113 16.0314 13.4483 15.8681 13.7835 15.7563C14.1102 15.6446 14.4712 15.6102 14.8236 15.593C15.5715 15.5586 16.3279 15.5758 17.0758 15.5328C17.815 15.4899 18.5027 15.6618 19.1904 15.9111C19.8781 16.1603 20.4368 16.5386 20.9354 17.0801C21.3566 17.5357 21.838 17.9311 22.2936 18.3523C22.6632 18.6962 22.8867 19.1088 22.9469 19.6159C22.9469 19.6933 23.0328 19.7621 23.0844 19.8308C23.1188 19.7535 23.1875 19.6761 23.1875 19.5987C23.1875 19.04 22.9211 18.6016 22.5514 18.2234C21.9239 17.5959 21.262 16.9942 20.6173 16.3838C20.2993 16.0744 19.9039 15.9111 19.4913 15.7735C19.3881 15.7391 19.2936 15.6876 19.1302 15.6102C19.2592 15.5672 19.3107 15.5328 19.3623 15.5328C19.8007 15.5328 20.2477 15.5156 20.6861 15.55C20.9096 15.5672 21.1761 15.6188 21.3308 15.7563C21.8466 16.2119 22.3451 16.6933 22.8007 17.2091C22.9726 17.4068 22.9984 17.7334 23.0586 18.0085C23.1016 18.232 23.093 18.4727 23.1188 18.7048C23.1188 18.7477 23.1875 18.7907 23.2219 18.8337C23.2649 18.7993 23.3337 18.7649 23.3423 18.7219C23.3766 18.0944 23.3766 17.4755 22.964 16.9426C22.8265 16.7621 22.6632 16.6159 22.5171 16.444C22.4655 16.3838 22.4139 16.2807 22.4311 16.2205C22.56 15.7477 22.3107 15.3867 22.113 14.9999C22.0529 14.8795 21.9841 14.7678 21.8809 14.5873C22.4397 14.5013 22.9383 14.3896 23.4368 14.3638C24.6317 14.295 25.8351 14.2778 27.0385 14.2348C27.8466 14.2005 28.3709 14.6732 28.8351 15.2406C28.8781 15.2921 28.8695 15.3781 28.8867 15.4469C28.8179 15.4555 28.7491 15.4813 28.689 15.4727C27.8294 15.3265 26.987 15.4383 26.136 15.5672C25.9125 15.6016 25.6976 15.7219 25.4913 15.8251C25.4311 15.8595 25.4053 15.9712 25.3709 16.04C25.4483 16.04 25.5342 16.0744 25.603 16.04C26.7635 15.5414 27.9755 15.5758 29.1618 15.8079C29.7377 15.9197 30.1933 16.3495 30.6059 16.7707C30.5973 16.7878 30.5801 16.8136 30.5715 16.8308C30.5199 16.805 30.4683 16.7964 30.434 16.7621C30.0901 16.4268 29.6689 16.2635 29.2047 16.2205C28.2936 16.1431 27.3824 16.0228 26.4626 16.1517C25.5686 16.2807 24.8809 16.7535 24.2878 17.4068C24.2534 17.4411 24.2792 17.5357 24.2792 17.6045C24.3566 17.5873 24.4511 17.5959 24.5027 17.5529C24.752 17.3552 24.9755 17.1231 25.2334 16.934C26.0328 16.3495 26.9526 16.3065 27.8895 16.3666C28.3279 16.3924 28.7749 16.4182 29.2047 16.5042C29.5056 16.5558 29.7979 16.6847 30.0643 16.8222C30.1675 16.8738 30.262 17.0457 30.2792 17.1661C30.3308 17.4669 30.3308 17.7764 30.348 18.0772C30.3222 18.0858 30.2964 18.0944 30.2706 18.103C30.2277 18.0601 30.1675 18.0343 30.1331 17.9827C30.0214 17.828 29.901 17.6818 29.8065 17.5099C29.6259 17.1661 29.3165 17.0113 28.9554 16.934C28.1302 16.7707 27.2878 16.7105 26.4884 16.934C25.8523 17.1145 25.3107 17.5357 24.8809 18.0601C24.6918 18.2921 24.5027 18.5242 24.2964 18.7477C23.9956 19.0744 23.7119 19.4182 23.6087 19.8566C23.5142 20.2778 23.6517 20.4497 24.0643 20.5787C24.7004 20.785 25.3537 20.785 26.007 20.8108C26.454 20.828 26.9096 20.8623 27.3566 20.8538C28.0443 20.8366 28.7491 20.8538 29.3509 20.4325C29.5916 20.2692 29.7893 20.0457 30.0042 19.848C30.0815 19.7707 30.1331 19.6675 30.1933 19.573C30.2363 19.5987 30.2792 19.6159 30.3222 19.6417C30.305 19.7878 30.305 19.9512 30.2534 20.0887C30.0815 20.5615 29.7979 20.9655 29.4024 21.275C29.0844 21.5242 28.7234 21.5328 28.3451 21.5156C28.2076 21.5156 28.0701 21.5844 27.9325 21.6188C28.0615 21.6704 28.1904 21.7563 28.3279 21.7735C28.5686 21.7993 28.8093 21.7735 29.05 21.7735C29.007 22.0228 28.8093 22.2033 28.4913 22.2463C28.3279 22.2721 28.1646 22.2463 28.0013 22.2721C27.8895 22.2893 27.6918 22.3666 27.6918 22.401C27.7004 22.6073 27.8895 22.5472 28.0099 22.5472C28.5944 22.5644 29.1102 22.4096 29.3852 21.8337C29.9784 22.2033 30.5543 23.0028 30.4254 23.6732C30.2448 24.6704 29.7635 25.5042 28.9383 26.1059C28.4569 26.4583 27.8552 26.4927 27.2792 26.5529C26.7635 26.6045 26.2391 26.6303 25.7234 26.6131C25.0443 26.5959 24.3652 26.5357 23.6861 26.4927C23.2821 26.4669 22.8781 26.4411 22.4741 26.4068C21.6918 26.338 20.9096 26.2778 20.1274 26.1833C19.4913 26.1059 18.8638 26.0028 18.2362 25.891C17.1617 25.6847 16.0787 25.487 15.0127 25.2377C14.2907 25.0744 13.5858 24.8165 12.8723 24.6188C12.4511 24.4985 12.0213 24.3867 11.5915 24.3007C11.3337 24.2492 11.05 24.232 10.8609 24.4985C10.6202 24.8165 10.5514 25.1775 10.6976 25.5472C10.7663 25.7277 10.9125 25.9082 11.0586 26.0371C11.6689 26.5443 12.3394 26.9655 13.0786 27.275C13.7062 27.5414 14.2821 27.9197 14.8838 28.2291C15.4941 28.5386 16.1044 28.8308 16.7234 29.1231C17.4368 29.4669 18.2191 29.5185 18.9927 29.6217C19.2936 29.6646 19.5858 29.742 19.8781 29.7936C20.1446 29.8366 20.4024 29.9053 20.6689 29.9139C21.5715 29.9483 22.4827 29.9827 23.3938 29.9741C24.3136 29.9655 25.242 29.8795 26.1618 29.8538C26.5658 29.8366 26.9784 29.8538 27.3824 29.8967C28.0529 29.9741 28.6202 29.7678 29.1532 29.3896C29.2305 29.3294 29.3165 29.2692 29.4626 29.1661C29.4626 29.5185 29.5056 29.8022 29.454 30.0687C29.3509 30.5586 29.0156 30.9283 28.6718 31.2721C28.6288 31.3151 28.4741 31.3065 28.4139 31.2721C28.2592 31.1689 28.113 31.04 27.9755 30.9111C27.5543 30.5071 27.0729 30.5156 26.5744 30.7134C25.7148 31.0572 24.9927 31.6073 24.3308 32.2606C24.0901 32.5013 23.7979 32.699 23.5228 32.9053C23.3337 33.0429 23.1188 33.1632 22.8953 33.3093C22.6632 33.0515 22.3451 32.9053 21.9583 32.9225C21.434 32.9483 20.8924 33.4211 20.8666 33.9454C20.8494 34.3409 21.0643 34.6761 21.3308 34.9254C21.7692 35.3294 22.0958 35.8108 22.3967 36.3179C22.4741 36.4469 22.5171 36.6274 22.5256 36.7821C22.5428 37.1174 22.5256 37.4526 22.5256 37.7965C22.5256 37.8308 22.5342 37.8738 22.5256 37.8996C22.2764 38.2177 22.0873 38.6475 21.7606 38.8108C21.1503 39.1202 20.4712 39.275 19.8179 39.4813C19.7491 39.5071 19.6632 39.5071 19.5858 39.5071C18.3738 39.5242 17.1617 39.5242 15.9583 39.5672C15.1417 39.6016 14.3251 39.722 13.5084 39.7563C12.8208 39.7821 12.1245 39.7563 11.4368 39.7306C11.05 39.722 10.6632 39.7134 10.2764 39.6704C9.5371 39.5844 8.80644 39.4727 8.07578 39.3867C7.1904 39.2836 6.34799 39.0171 5.53997 38.6818C4.59441 38.2778 3.62306 37.8996 2.84942 37.1689C2.22191 36.5672 1.8265 35.8194 1.5944 35.0028C1.43108 34.4268 1.31074 33.8251 1.23337 33.232C1.19039 32.9311 1.26776 32.6131 1.30214 32.3122C1.34512 31.891 1.41389 31.4698 1.45687 31.0572C1.50844 30.6188 1.54283 30.1804 1.5944 29.742C1.66317 29.1833 1.73194 28.6331 1.8093 28.0744C1.91246 27.3265 2.01561 26.5701 2.12736 25.8222C2.2391 25.0744 2.4712 24.3695 2.6861 23.6475C2.92678 22.8222 3.27922 22.0486 3.62306 21.2664C3.86375 20.7162 4.1732 20.1919 4.44827 19.6589C4.90386 18.7907 5.35085 17.9139 5.80644 17.0457C6.36518 15.9798 6.98409 14.9569 7.71475 13.9942C8.02421 13.5901 8.36805 13.2119 8.71189 12.8423C8.78065 12.7649 8.94398 12.7219 9.03853 12.7477C9.45974 12.8595 9.88094 12.997 10.2935 13.1431C10.3881 13.1775 10.4569 13.2635 10.5342 13.3323C10.9554 13.7105 11.368 14.0973 11.9354 14.2778C12.4855 14.4497 13.0099 14.7162 13.5514 14.9139C14.3337 15.1976 15.1503 15.2406 15.9755 15.2148C17.7291 15.1546 19.4483 14.8194 21.1761 14.6388C21.4426 14.6131 21.6145 14.6388 21.7262 14.9225C21.8294 15.189 21.9927 15.4211 22.113 15.679C22.156 15.7735 22.1474 15.8853 22.156 15.997C22.1302 16.0056 22.0958 16.0228 22.0701 16.0314H22.0615ZM25.4913 22.083C25.689 22.083 25.8007 22.083 25.9039 22.083C26.2047 22.0658 26.5056 22.0572 26.8065 22.0228C26.8752 22.0228 26.9268 21.9025 26.987 21.8423C26.9096 21.8165 26.8236 21.7735 26.7463 21.7735C26.3251 21.7735 25.9039 21.8165 25.4913 21.7563C25.0787 21.6876 24.6918 21.507 24.2878 21.3867C24.2191 21.3695 24.1331 21.3867 24.0557 21.3867C24.0901 21.4641 24.1159 21.55 24.1589 21.6188C24.1847 21.6532 24.2448 21.6618 24.2964 21.6876C24.5629 21.8423 24.8552 21.9712 25.0958 22.1517C25.689 22.5987 26.1446 23.1661 26.5572 23.7764C26.6001 23.8366 26.6861 23.8623 26.7463 23.9053C26.7549 23.8194 26.8064 23.7162 26.7721 23.656C26.6431 23.4411 26.497 23.2348 26.3423 23.0457C26.0844 22.7363 25.8093 22.444 25.4827 22.0744L25.4913 22.083ZM12.0987 23.6475C12.0987 23.6475 12.0987 23.6217 12.0987 23.6131C11.7463 23.6732 11.3852 23.7248 11.0328 23.8108C10.5772 23.9225 10.2248 24.189 9.9669 24.5758C9.91532 24.6446 9.93252 24.7563 9.91532 24.8509C10.0099 24.8079 10.1388 24.7993 10.1818 24.7305C10.4483 24.2836 10.8695 24.0773 11.3509 24.0085C11.7205 23.9483 12.1073 23.9397 12.4769 23.8881C12.5371 23.8881 12.5973 23.8194 12.6574 23.785C12.6059 23.742 12.5543 23.6646 12.4941 23.656C12.3652 23.6389 12.2362 23.656 12.1073 23.656L12.0987 23.6475ZM12.0299 22.5386C11.8064 22.5558 11.6517 22.5386 11.497 22.5815C11.2649 22.6417 11.0414 22.7191 10.8179 22.805C10.7749 22.8222 10.7749 22.934 10.7577 22.9942C10.8179 23.0028 10.8867 23.0371 10.9382 23.0199C11.2907 22.9512 11.6345 22.8738 11.987 22.7879C12.0643 22.7707 12.1245 22.6933 12.1847 22.6417C12.1159 22.5901 12.0385 22.5472 12.0213 22.53L12.0299 22.5386Z" fill="#4E7E3B"/>
<path d="M28.3868 14.4071C28.6103 14.4071 28.8682 14.3813 29.1089 14.4071C30.4928 14.5532 31.8338 14.8455 33.106 15.4472C33.2951 15.5331 33.4584 15.6621 33.6475 15.748C33.7249 15.7824 33.8281 15.748 33.914 15.748C33.8625 15.6707 33.8281 15.5675 33.7507 15.5245C32.8395 14.9142 31.8166 14.6048 30.7593 14.4157C29.9857 14.2781 29.1948 14.2437 28.4212 14.1148C27.2951 13.9343 26.1604 14.0031 25.0344 14.046C23.9341 14.089 22.8424 14.1492 21.7593 14.3641C21.4326 14.4329 21.0888 14.45 20.7536 14.4844C19.2579 14.6478 17.7708 14.8197 16.275 14.9744C15.3639 15.069 14.4527 14.9744 13.5931 14.6649C12.8367 14.3985 12.106 14.0718 11.3839 13.7194C11.1089 13.5819 10.9026 13.3154 10.6533 13.1177C10.5329 13.0231 10.3868 12.92 10.2407 12.877C9.65613 12.6793 9.06301 12.5245 8.48708 12.3182C8.24639 12.2323 8.0229 12.0518 7.81659 11.8798C7.61029 11.7165 7.50714 11.4844 7.5759 11.2094C7.83378 10.195 8.08307 9.1807 8.36673 8.17497C8.42691 7.96867 8.59023 7.78815 8.71058 7.59904C9.13178 6.91996 9.67333 6.35262 10.3696 5.9744C10.7822 5.7509 11.2378 5.57039 11.6848 5.44145C13.1461 5.02884 14.616 4.61623 16.0945 4.2638C17.298 3.98013 18.5186 3.76523 19.7306 3.53314C21.1232 3.27526 22.5243 3.16351 23.9341 3.26666C25.7994 3.41279 27.4155 4.0403 28.5845 5.57898C29.0057 6.13772 29.2206 6.75663 29.2808 7.44431C29.4355 9.04317 29.5988 10.642 29.7622 12.2409C29.7879 12.4644 29.702 12.4472 29.5215 12.4128C28.1547 12.1377 26.8051 11.7079 25.3868 11.7509C24.2693 11.7853 23.1518 11.7423 22.043 11.8197C21.0544 11.8884 20.0659 12.0346 19.0859 12.2065C17.6246 12.4644 16.1719 12.8082 14.7106 13.0661C14.0745 13.1778 13.4212 13.1864 12.7765 13.195C12.4756 13.195 12.1748 13.0661 11.8653 13.0059C11.7707 12.9887 11.6676 13.0317 11.5644 13.0489C11.6074 13.1435 11.6332 13.281 11.7106 13.324C12.1834 13.5733 12.6475 13.8741 13.1461 14.0288C14.0917 14.3211 15.063 14.4844 16.0601 14.3297C16.8252 14.2094 17.5988 14.1406 18.3725 14.0546C19 13.9859 19.6275 13.9257 20.255 13.8483C20.9427 13.7624 21.6218 13.6248 22.3094 13.5475C22.9885 13.4787 23.6676 13.4529 24.3553 13.4271C26.5473 13.3498 28.722 13.5389 30.871 14.0031C31.4126 14.1234 31.9541 14.2094 32.4957 14.3211C33.0802 14.4415 33.6046 14.7165 34.0945 15.0346C34.2665 15.1463 34.4384 15.2667 34.6017 15.387C34.9198 15.6191 35.1089 15.92 35.1003 16.3326C35.0917 16.7366 34.894 16.8655 34.5243 16.7108C33.9742 16.4787 33.4412 16.2122 32.8825 16.0059C32.2034 15.748 31.5243 15.4816 30.8195 15.3096C30.3553 15.1979 29.8481 15.2581 29.3582 15.2409C29.2636 15.2409 29.1261 15.2581 29.0745 15.1979C28.8252 14.9486 28.6017 14.6735 28.361 14.4071H28.3868Z" fill="#C72627"/>
<path d="M27.888 34.409C27.9912 34.2112 28.0685 33.9878 28.2061 33.8072C28.3264 33.6611 28.3006 33.5923 28.1717 33.4978C27.6473 33.1453 26.7447 32.9304 26.0829 33.5236C25.6788 33.8846 25.2233 34.1941 24.7505 34.4519C24.3121 34.6926 23.8221 34.6153 23.3751 34.3918C23.0227 34.2198 22.9711 33.6783 23.2634 33.386C23.633 33.0078 24.2089 33.0938 24.4754 33.558C24.5872 33.7557 24.441 33.8588 24.3379 33.9792C24.2519 34.0823 24.0456 34.1339 24.1831 34.3144C24.2003 34.3316 24.4238 34.2456 24.5098 34.1597C24.8794 33.8158 24.8794 33.5408 24.4926 33.1797C24.3808 33.0766 24.2519 32.9906 24.0628 32.8531C24.2777 32.664 24.4754 32.4921 24.6731 32.3115C25.2404 31.7872 25.8508 31.323 26.5728 31.0307C27.0112 30.8502 27.441 30.7986 27.8192 31.1855C28.0943 31.4777 28.4124 31.7356 28.6531 32.0537C28.8937 32.3717 29.2204 32.5264 29.547 32.6984C30.57 33.2399 31.4124 33.9792 32.1086 34.9161C32.5127 35.4663 32.9425 35.9906 33.2347 36.6095C33.484 37.1511 33.7935 37.6668 34.0599 38.2084C34.1717 38.4405 34.2662 38.6984 34.2748 38.9476C34.2834 39.1196 34.1889 39.3602 34.0599 39.4634C33.5184 39.876 32.9339 40.2456 32.2634 40.409C31.6531 40.5551 31.0341 40.7012 30.4152 40.7786C29.9253 40.8388 29.4181 40.7958 28.9195 40.7786C28.3522 40.7528 27.7849 40.6754 27.2175 40.6668C26.1774 40.6668 25.2834 40.323 24.4668 39.6955C24.1316 39.4376 23.7705 39.2055 23.4009 39.0078C22.9883 38.7929 22.8851 38.4147 22.825 38.0279C22.7648 37.6325 22.782 37.2198 22.782 36.8158C22.782 36.515 22.6702 36.2743 22.5155 36.025C22.2233 35.5608 21.888 35.1396 21.4926 34.7614C21.4066 34.684 21.3465 34.5723 21.2863 34.4605C21.0542 34.0479 21.0542 33.79 21.2949 33.5665C21.6989 33.1883 22.0943 33.0938 22.4553 33.3602C22.6101 33.472 22.7906 33.6697 22.8078 33.8416C22.8508 34.4691 23.229 34.7098 23.7619 34.8216C24.1574 34.9075 24.2347 35.0279 24.2863 35.4319C24.3207 35.7327 24.3551 36.0422 24.4754 36.3087C24.5872 36.5494 24.7935 36.7557 24.9998 36.9448C25.4382 37.3402 25.8937 37.7098 26.3407 38.0794C26.633 38.3201 26.994 38.3975 27.3637 38.3803C27.5356 38.3803 27.6301 38.4061 27.6731 38.5952C27.7591 38.939 27.9826 39.1282 28.3436 39.1368C28.7476 39.1453 29.1516 39.1453 29.547 39.1625C29.6072 39.1625 29.7104 39.1969 29.7276 39.2485C29.8307 39.515 29.9768 39.7041 30.2863 39.7557C30.7075 39.8244 31.0943 39.7643 31.3866 39.4548C31.8336 38.982 32.2462 38.4921 32.6674 37.9935C32.7104 37.9505 32.6932 37.8559 32.7104 37.7872C32.633 37.7872 32.5298 37.7786 32.4869 37.8216C32.2806 38.0365 32.0829 38.2686 31.8851 38.5006C31.6617 38.7585 31.4468 39.0336 31.2061 39.2829C30.931 39.5666 30.57 39.5837 30.2175 39.472C29.8995 39.3774 29.8307 38.8359 30.0886 38.5694C30.5098 38.1396 30.9224 37.7012 31.3436 37.2628C31.3522 37.2542 31.378 37.237 31.378 37.2284C31.3952 37.1511 31.4038 37.0823 31.4124 37.0049C31.3436 37.0221 31.249 37.0049 31.2147 37.0479C30.9396 37.3316 30.6645 37.6239 30.398 37.9161C30.1316 38.2084 29.8737 38.5092 29.5986 38.7929C29.5298 38.8617 29.4009 38.9219 29.3064 38.9219C28.9453 38.9219 28.5843 38.9047 28.2233 38.8617C27.9912 38.8359 27.8278 38.4319 27.931 38.1482C27.9998 37.9505 28.0771 37.7528 28.1889 37.5895C28.5327 37.0995 28.8078 36.5408 29.3579 36.2313C29.3923 36.2141 29.4439 36.1883 29.4525 36.1539C29.4869 36.0852 29.4955 36.0078 29.5127 35.9304C29.4439 35.939 29.3665 35.9304 29.3064 35.9562C28.6101 36.3173 28.1803 36.9448 27.8794 37.6153C27.5786 38.2857 27.1831 38.217 26.6932 37.9935C26.2634 37.7958 25.9281 37.4519 25.7476 37.0049C25.696 36.876 25.7046 36.6869 25.7648 36.5666C26.0485 36.0508 26.3837 35.5952 26.9682 35.3373C27.6559 35.0365 28.292 34.6239 28.8422 34.0995C28.9625 33.9792 29.1258 33.9018 29.2548 33.7814C29.2978 33.7385 29.2978 33.6525 29.3235 33.5837C29.2548 33.5837 29.1602 33.558 29.1172 33.5837C28.8078 33.8158 28.5069 34.0651 28.2061 34.3058C28.1287 34.3746 28.0341 34.4261 27.9482 34.4863C27.931 34.4605 27.9052 34.4433 27.888 34.4176V34.409Z" fill="#4E7E3B"/>
<path d="M29.9858 26.9571C30.2609 27.2494 30.3297 27.5158 30.1234 27.8339C29.8397 28.2637 29.5216 28.6849 29.1606 29.0373C28.5589 29.6218 27.7939 29.6992 26.9858 29.6562C26.3325 29.6218 25.6706 29.639 25.0174 29.682C24.0116 29.7422 23.0145 29.7852 22.0173 29.682C21.7939 29.6562 21.5704 29.6562 21.3469 29.6562C20.7623 29.6648 20.195 29.6476 19.6277 29.4671C19.2752 29.3554 18.897 29.3296 18.5274 29.3038C17.6506 29.2436 16.8598 28.9342 16.0947 28.5473C15.536 28.2723 14.9686 28.0144 14.4185 27.7307C13.6277 27.3267 12.8368 26.9141 12.0632 26.4757C11.7451 26.2952 11.4357 26.0631 11.1778 25.8052C11.0317 25.6591 10.9199 25.4012 10.9199 25.1949C10.9199 24.7221 11.152 24.5588 11.6076 24.662C12.2609 24.8167 12.9056 25.0144 13.5589 25.1777C14.281 25.3582 14.9944 25.5388 15.7165 25.7021C16.5761 25.8998 17.4357 26.0889 18.3039 26.2436C19.1291 26.3898 19.9543 26.5273 20.7881 26.6047C22.3268 26.7422 23.8655 26.8797 25.4128 26.9399C26.4357 26.9829 27.4758 26.9657 28.4729 26.6734C28.9629 26.5359 29.3583 26.2522 29.6764 25.8482C30.1578 25.2207 30.5876 24.5674 30.6649 23.7422C31.0947 24.0516 31.258 24.7049 31.0345 25.1347C31.0088 25.1777 30.9916 25.2293 30.9572 25.2723C30.4242 25.8482 30.0116 26.5359 29.3583 26.9915C29.2724 27.0516 29.195 27.1204 29.1262 27.1978C28.7996 27.5932 28.3698 27.7393 27.8626 27.7393C27.2695 27.7393 26.6764 27.8167 26.0747 27.8253C25.4472 27.8253 24.811 27.7737 24.1835 27.7823C22.7652 27.7909 21.3812 27.6448 19.9973 27.3181C19.3526 27.1634 18.6649 27.215 17.9944 27.1462C17.4787 27.0946 16.9629 27.0516 16.4557 26.9227C15.8196 26.768 15.2007 26.5273 14.5818 26.3296C14.3239 26.2436 14.0747 26.1405 13.8168 26.0889C13.3182 25.9857 12.8712 25.788 12.4672 25.47C12.3726 25.3926 12.2093 25.3926 12.0804 25.3582C12.1491 25.4786 12.2007 25.6247 12.3039 25.7193C12.6391 26.0459 13.0603 26.2092 13.5073 26.3468C14.1348 26.5359 14.7537 26.7508 15.3726 26.9657C16.2752 27.2751 17.195 27.49 18.1577 27.4643C18.897 27.4471 19.6191 27.5588 20.3411 27.7135C21.0718 27.8769 21.8196 27.9972 22.5675 28.0574C23.6334 28.1347 24.7079 28.1605 25.7738 28.1691C26.556 28.1691 27.3469 28.109 28.1291 28.066C28.5417 28.0402 28.8855 27.8769 29.1864 27.5846C29.4185 27.3611 29.6936 27.172 29.96 26.9657L29.9858 26.9571Z" fill="#9A3F22"/>
<path d="M12.6309 13.4613C12.8028 13.4613 12.9661 13.4785 13.138 13.4871C13.9375 13.5043 14.7197 13.4098 15.5019 13.2207C16.7226 12.9284 17.9518 12.6963 19.181 12.4728C20.6939 12.1891 22.224 12.0172 23.7713 12.0688C24.287 12.086 24.8114 12.0946 25.3271 12.0688C26.2899 12.0172 27.2269 12.1462 28.1466 12.4126C28.3099 12.4642 28.4905 12.4728 28.6538 12.5244C28.9804 12.6275 29.3071 12.7307 29.6337 12.8424C30.1495 13.0315 30.6653 13.2379 31.181 13.4356C31.542 13.5817 31.9031 13.7364 32.2555 13.8826C32.3071 13.8997 32.3415 13.9513 32.3587 14.0459C32.1008 14.0029 31.8429 13.9771 31.5936 13.9083C30.1323 13.5043 28.6366 13.255 27.1237 13.1863C25.8773 13.1261 24.6223 13.0659 23.3759 13.2379C22.9031 13.298 22.4303 13.2808 21.9575 13.341C21.0463 13.4528 20.1524 13.6419 19.2412 13.7192C17.8142 13.831 16.4045 14.235 14.9604 14.0803C14.2555 14.0029 13.5592 13.788 12.863 13.6333C12.7856 13.6161 12.7082 13.5645 12.6309 13.5301C12.6309 13.5043 12.6395 13.4785 12.6481 13.4613H12.6309Z" fill="#C72627"/>
<path d="M20.17 17.6556C19.8519 17.6814 19.5253 17.7244 19.2072 17.733C18.0124 17.7416 16.8175 17.7158 15.6313 17.7502C14.9006 17.7759 14.17 17.9049 13.4479 17.9994C13.3104 18.0166 13.19 18.0854 13.0525 18.1284C12.9751 18.1542 12.8806 18.1886 12.8032 18.18C12.4594 18.1284 12.4164 17.9737 12.5969 17.6814C13.0353 16.9937 13.7316 16.7358 14.4622 16.5639C15.4336 16.3404 16.4135 16.2201 17.4193 16.2888C17.935 16.3232 18.3906 16.5209 18.8204 16.7788C19.233 17.0281 19.6542 17.2602 20.0668 17.5009C20.1098 17.5267 20.1614 17.5439 20.2044 17.5696C20.1872 17.604 20.1786 17.6298 20.1614 17.6642L20.17 17.6556Z" fill="#4E7E3B"/>
<path d="M19.0176 20.6732C19.4818 19.805 19.7568 18.9368 19.0949 17.974C19.7224 17.9654 20.3156 17.9568 20.9001 17.9482C21.158 18.2061 21.476 18.4382 21.6565 18.7391C21.8886 19.1259 22.0176 19.5729 22.1809 20.0027C22.2669 20.2434 22.2153 20.2864 21.9574 20.3551C21.7511 20.4067 21.5448 20.4841 21.3471 20.57C20.6164 20.8967 19.86 20.8279 19.1035 20.7247C19.0692 20.7247 19.0434 20.6904 19.0176 20.6732Z" fill="white"/>
<path d="M30.2008 18.8689C29.8312 18.697 29.4357 18.5767 29.1091 18.3532C28.5074 17.9406 27.8455 17.8718 27.1664 17.846C26.7624 17.8288 26.3584 17.8116 25.9544 17.7944C25.8942 17.7944 25.8254 17.7687 25.7051 17.7515C26.0317 17.4506 26.3412 17.2357 26.7366 17.1755C27.4243 17.081 28.112 17.0896 28.7996 17.2099C29.1177 17.2701 29.3756 17.3904 29.5561 17.6913C29.7366 17.9836 29.9687 18.2414 30.175 18.5165C30.2352 18.6025 30.261 18.7142 30.2953 18.8174C30.261 18.8346 30.2352 18.8517 30.2008 18.8775V18.8689Z" fill="#4E7E3B"/>
<path d="M27.9313 20.5711C28.5502 19.7545 28.447 18.9895 27.9141 18.2244C27.9313 18.2072 27.9399 18.19 27.957 18.1729C28.1118 18.2158 28.2837 18.2416 28.4298 18.3018C28.937 18.5425 29.4356 18.7918 29.9427 19.041C30.1662 19.1528 30.1748 19.2645 30.0115 19.4451C29.8396 19.6342 29.6676 19.8319 29.4785 20.0124C29.0745 20.4078 28.5674 20.5453 27.9399 20.5711H27.9313Z" fill="white"/>
<path d="M24.6129 35.9833C24.5614 35.6223 24.5098 35.2612 24.4668 34.9604C24.9396 34.6595 25.3952 34.3844 25.8422 34.0836C26.143 33.8859 26.4267 33.6624 26.7189 33.4475C26.7705 33.4131 26.8221 33.3701 26.8823 33.3701C26.9768 33.3701 27.08 33.4045 27.1745 33.4217C27.1487 33.5163 27.1573 33.6366 27.1058 33.6968C26.7791 34.0492 26.4525 34.4102 26.1 34.7369C25.6444 35.1667 25.1803 35.5879 24.7161 36.0091L24.6215 35.9747L24.6129 35.9833Z" fill="#4E7E3B"/>
<path d="M11.7363 5.14017C11.7793 4.88229 11.9254 4.73616 12.0974 4.62441C12.9827 4.05708 13.9541 3.7906 14.9942 3.83358C15.1146 3.83358 15.2349 3.86797 15.3466 3.91095C15.4068 3.93673 15.4498 4.0141 15.5014 4.06567C15.4412 4.10865 15.3982 4.17742 15.3295 4.20321C14.977 4.30636 14.616 4.40092 14.255 4.49547C13.4985 4.69318 12.7335 4.89089 11.977 5.0886C11.9082 5.10579 11.8309 5.11438 11.7363 5.14017Z" fill="#C72627"/>
<path d="M13.3086 18.2671C14.0822 18.1725 14.8559 18.078 15.6639 17.9834C15.406 18.4132 15.1911 18.7742 14.9934 19.1009C14.4519 18.8688 13.8759 18.6281 13.3086 18.3788C13.3086 18.3444 13.3086 18.31 13.3086 18.2671Z" fill="white"/>
<path d="M18.106 19.7194C17.7965 19.7194 17.5645 19.5303 17.5645 19.2638C17.5645 18.9802 17.9083 18.6707 18.2349 18.6621C18.5186 18.6621 18.7679 18.8684 18.7679 19.1177C18.7679 19.4701 18.4928 19.7194 18.106 19.7194Z" fill="white"/>
<path d="M24.8902 18.6535C24.6496 19.2295 24.4948 19.814 24.6668 20.5017C24.3831 20.4243 24.151 20.3727 23.9361 20.2868C23.8845 20.261 23.8157 20.1148 23.8415 20.0633C23.9533 19.7968 24.0564 19.5217 24.2198 19.2896C24.3831 19.0489 24.6152 18.8426 24.8129 18.6191C24.8387 18.6363 24.8645 18.6449 24.8817 18.6621L24.8902 18.6535Z" fill="white"/>
<path d="M27.758 19.3679C27.758 19.6687 27.6204 19.8235 27.3282 19.8235C27.0359 19.8235 26.8726 19.6687 26.8812 19.3851C26.8812 19.1272 27.0359 18.9295 27.2336 18.9209C27.5775 18.9209 27.758 19.067 27.758 19.3679Z" fill="white"/>
<path d="M16.3178 18.8601C16.2404 18.7569 16.0857 18.6366 16.1029 18.5592C16.1287 18.4389 16.2662 18.3013 16.3866 18.2756C16.4639 18.2584 16.653 18.4389 16.653 18.5334C16.653 18.6452 16.5155 18.7569 16.4295 18.8687C16.3866 18.8687 16.3522 18.8687 16.3092 18.8687L16.3178 18.8601Z" fill="white"/>
<path d="M16.912 19.4702C16.7229 19.582 16.6112 19.6937 16.4994 19.6937C16.422 19.6937 16.2845 19.539 16.2845 19.4444C16.2673 19.2639 16.422 19.1608 16.594 19.1865C16.6885 19.2037 16.7659 19.3327 16.9206 19.4702H16.912Z" fill="white"/>
<path d="M26.0333 18.8427C25.9301 18.92 25.827 19.049 25.7152 19.0661C25.6551 19.0747 25.4917 18.9028 25.5003 18.8255C25.5089 18.7223 25.6293 18.5676 25.7238 18.5504C25.8098 18.5332 25.9301 18.6621 26.0333 18.7309C26.0333 18.7653 26.0333 18.8083 26.0333 18.8427Z" fill="white"/>
<path d="M25.7903 19.5039C25.902 19.6586 26.0138 19.7532 25.9966 19.8306C25.988 19.9165 25.8676 19.9939 25.7903 20.0712C25.7043 19.9939 25.584 19.9251 25.5582 19.8306C25.541 19.7704 25.6699 19.6672 25.7817 19.5039H25.7903Z" fill="white"/>
<path d="M25.4894 22.0829C25.8161 22.444 26.0912 22.7448 26.349 23.0543C26.5124 23.2434 26.6499 23.4497 26.7788 23.6646C26.8132 23.7248 26.7616 23.8279 26.753 23.9139C26.6843 23.8709 26.5983 23.8451 26.5639 23.7849C26.1513 23.1746 25.6871 22.6073 25.1026 22.1603C24.8533 21.9712 24.5697 21.8508 24.3032 21.6961C24.2602 21.6703 24.1914 21.6617 24.1657 21.6273C24.1227 21.5586 24.0969 21.4726 24.0625 21.3953C24.1399 21.3953 24.2258 21.3695 24.2946 21.3953C24.6986 21.5156 25.094 21.7047 25.498 21.7649C25.902 21.8336 26.3318 21.7735 26.753 21.7821C26.8304 21.7821 26.9164 21.8251 26.9937 21.8508C26.9336 21.911 26.882 22.0228 26.8132 22.0314C26.5124 22.0657 26.2115 22.0743 25.9106 22.0915C25.7989 22.0915 25.6871 22.0915 25.498 22.0915L25.4894 22.0829Z" fill="black"/>
<path d="M12.1041 23.6484C12.233 23.6484 12.362 23.6313 12.4909 23.6484C12.5511 23.657 12.6027 23.7344 12.6542 23.7774C12.5941 23.8118 12.5425 23.8805 12.4737 23.8805C12.0955 23.9235 11.7173 23.9407 11.3476 24.0009C10.8577 24.0782 10.4451 24.2846 10.1786 24.7229C10.1356 24.7917 10.0067 24.8089 9.91211 24.8433C9.9293 24.7487 9.91211 24.637 9.96369 24.5682C10.2216 24.1814 10.574 23.9063 11.0296 23.8032C11.382 23.7172 11.7431 23.6742 12.0955 23.6055C12.0955 23.6141 12.0955 23.6313 12.0955 23.6399L12.1041 23.6484Z" fill="black"/>
<path d="M12.0351 22.5391C12.0351 22.5391 12.1297 22.6078 12.1984 22.6508C12.1297 22.7024 12.0695 22.7798 12.0007 22.7969C11.6569 22.8829 11.3044 22.9603 10.952 23.029C10.8918 23.0376 10.8317 23.0118 10.7715 23.0032C10.7887 22.9345 10.7887 22.8227 10.8317 22.8141C11.0552 22.7282 11.2786 22.6422 11.5107 22.5906C11.6569 22.5563 11.8202 22.5649 12.0437 22.5477L12.0351 22.5391Z" fill="black"/>
</g>
</svg>
