<svg width="40" height="40" viewBox="0 0 40 40" fill="none" xmlns="http://www.w3.org/2000/svg">
<circle cx="20" cy="20" r="19" fill="#F00500"/>
<g clip-path="url(#clip0_966_1033)">
<path d="M30.3041 19.5549C30.2863 19.6486 30.008 19.9296 29.7297 20.1346C28.9125 20.7259 27.4498 21.2763 25.9634 21.5398C25.1166 21.692 24.2698 21.7155 24.0152 21.5925C23.8494 21.5105 23.8257 21.4461 23.8849 21.2353C24.0093 20.7962 24.4119 20.3161 25.0397 19.8652C25.3594 19.6369 26.6563 18.8581 27.2603 18.5303C28.2552 17.9916 29.0605 17.6695 29.6053 17.5934C29.7771 17.57 29.9843 17.5642 30.0495 17.5934C30.1561 17.6344 30.2745 17.9447 30.3219 18.3195C30.3456 18.5185 30.3337 19.3968 30.3041 19.5549Z" fill="black"/>
<path d="M16.3522 21.493C16.3167 21.5632 16.1391 21.6393 15.9377 21.6686C15.7364 21.6979 15.1205 21.6803 14.7711 21.6393C13.5157 21.4754 12.1833 21.0948 11.2121 20.6264C10.6673 20.3629 10.2765 20.0994 9.98634 19.8125L9.82053 19.6427L9.80277 19.4202C9.77316 19.0338 9.77908 18.4248 9.82645 18.2082C9.85606 18.0267 9.9212 17.851 10.01 17.693C10.0574 17.6344 10.0574 17.6344 10.2706 17.6344C10.5311 17.6344 10.7502 17.6754 11.1056 17.7866C11.8339 18.0091 12.9176 18.5478 14.2382 19.3324C15.3278 19.9765 15.7364 20.2926 16.0502 20.7259C16.2634 20.9953 16.4055 21.3758 16.3522 21.493Z" fill="black"/>
<path d="M24.7376 29.6434C24.7376 29.6609 24.6665 29.942 24.5777 30.2757C24.4889 30.6095 24.4178 30.8788 24.4178 30.8905C24.3527 30.8964 24.2935 30.9022 24.2283 30.8964H24.0388L23.7783 31.5053C23.6361 31.8391 23.5059 32.1494 23.4881 32.1962L23.4526 32.2782L23.3282 32.0791L23.2038 31.8801V30.2582L23.1565 30.2699C23.0558 30.2933 22.3393 30.387 22.0254 30.4163C20.7285 30.5451 19.4258 30.5158 18.1348 30.3343C17.9275 30.305 17.7499 30.2816 17.744 30.2875C17.7381 30.2933 17.744 30.668 17.7558 31.1306L17.7736 31.962L17.6729 32.1143C17.6196 32.1962 17.5663 32.2665 17.5663 32.2723C17.5486 32.2899 17.4893 32.1962 17.3531 31.9269C17.2051 31.6458 17.0985 31.3472 17.0215 31.0369L16.9801 30.8671L16.7965 30.8788L16.6129 30.8964L16.5655 30.6797C16.5419 30.5626 16.5122 30.3811 16.5004 30.2816L16.4826 30.0942L16.3287 29.9596C16.2398 29.8834 16.151 29.8073 16.1333 29.7956C16.1036 29.7722 16.0918 29.7312 16.0918 29.6961V29.6258L16.832 29.6317L17.5722 29.6375L17.5959 29.7136L17.6196 29.7898L17.8743 29.8015C18.0164 29.8073 18.4664 29.819 18.8691 29.8307L19.6093 29.8483L19.7988 29.5556L19.9942 29.2628H20.243L20.237 28.6539L20.2311 28.0449L19.9054 27.9044C18.8573 27.4477 18.2414 26.9266 18.0105 26.2942C17.9631 26.1654 17.9631 26.1186 17.9512 25.5331C17.9453 24.9534 17.9453 24.9007 17.9868 24.7719C18.0697 24.4791 18.3006 24.2508 18.5967 24.1747C18.6974 24.1454 18.9639 24.1454 20.3614 24.1454L22.0076 24.1512L22.1912 24.2391C22.4103 24.3445 22.511 24.4206 22.6354 24.5845C22.7775 24.7719 22.8189 24.9183 22.8189 25.2754C22.8189 25.7848 22.7834 26.224 22.7301 26.3996C22.6531 26.6397 22.5347 26.868 22.3866 27.073C22.0906 27.4477 21.5517 27.8224 21.0602 27.9922L20.918 28.0449L20.924 28.6597L20.9299 29.2745L21.0602 29.2862L21.1904 29.2979L21.3681 29.5614L21.5398 29.8249H22.3333C22.7716 29.8249 23.1565 29.8307 23.192 29.8366C23.2512 29.8483 23.2631 29.8425 23.3223 29.7429L23.3933 29.6375H24.0743C24.5836 29.6141 24.7376 29.6258 24.7376 29.6434Z" fill="black"/>
<path d="M21.6107 31.3237C21.4982 31.3881 21.4212 31.4174 21.4035 31.4057C21.3857 31.3999 21.3028 31.3296 21.2139 31.2652L21.0541 31.1364L20.8883 31.312C20.527 31.6985 20.5152 31.716 20.4086 31.7219C20.2428 31.7395 20.2073 31.7102 20.0059 31.4116C19.8993 31.2593 19.8164 31.1305 19.8164 31.1305C19.8164 31.1305 19.7394 31.1188 19.6506 31.113L19.4848 31.0954L19.4078 31.2535L19.3308 31.4116L19.1946 31.3706C19.088 31.3354 18.9814 31.2945 18.8808 31.2476L18.7031 31.1598V30.826L20.2783 30.8319L21.8535 30.8378L21.8594 30.9958C21.8653 31.1832 21.8713 31.1774 21.6107 31.3237Z" fill="black"/>
<path d="M36.4152 24.1805C36.4093 24.1571 36.4093 24.1161 36.4033 24.0517C34.9821 23.8994 30.9257 23.8057 27.1595 26.8797C27.1595 26.8797 25.9455 21.3759 20.2606 21.3759C14.5757 21.3759 12.4675 26.8797 12.4675 26.8797C9.28163 23.4896 5.01795 23.7355 3.47829 23.958C3.47829 23.9931 3.47237 24.0341 3.47237 24.0692C3.42499 24.9182 3.44868 25.3222 3.5908 25.8551C4.03494 27.5238 5.40287 29.3623 7.54655 31.1657C11.0582 34.1167 15.8193 36.248 19.4256 36.4939C23.1859 36.7457 28.7346 34.5734 32.4298 31.3999C33.0102 30.8905 33.555 30.3518 34.0642 29.778C34.4314 29.3564 34.9762 28.6304 34.9347 28.6304C34.9229 28.6304 34.9347 28.6187 34.9584 28.607C34.9762 28.5953 34.994 28.5777 34.9821 28.566C34.9762 28.5601 34.988 28.5426 35.0058 28.5367C35.0236 28.5309 35.0354 28.5192 35.0295 28.5074C35.0236 28.4957 35.0295 28.484 35.0532 28.4782C35.0709 28.4723 35.0769 28.4547 35.0709 28.443C35.065 28.4313 35.0709 28.4196 35.0828 28.4196C35.0946 28.4196 35.1065 28.402 35.1065 28.3903C35.1065 28.3786 35.1183 28.3611 35.1302 28.3611C35.142 28.3611 35.1538 28.3494 35.1538 28.3376C35.1716 28.2908 35.2012 28.244 35.2308 28.203C35.3197 28.0683 35.675 27.4418 35.7223 27.3364C36.0599 26.5811 36.2731 25.9078 36.3737 25.2344C36.4093 24.9124 36.4389 24.321 36.4152 24.1805ZM21.6108 31.3238C21.4982 31.3882 21.4213 31.4175 21.4035 31.4057C21.3857 31.3999 21.3028 31.3296 21.214 31.2652L21.0541 31.1364L20.8883 31.3121C20.5271 31.6985 20.5152 31.7161 20.4086 31.7219C20.2428 31.7395 20.2073 31.7102 20.006 31.4116C19.8994 31.2594 19.8165 31.1306 19.8165 31.1306C19.8165 31.1306 19.7395 31.1188 19.6506 31.113L19.4848 31.0954L19.4079 31.2535L19.3309 31.4116L19.1947 31.3706C19.0881 31.3355 18.9815 31.2945 18.8808 31.2477L18.7032 31.1598V30.8261L20.2784 30.8319L21.8535 30.8378L21.8595 30.9959C21.8654 31.1832 21.8713 31.1774 21.6108 31.3238ZM24.5716 30.2698C24.4828 30.6036 24.4117 30.8729 24.4117 30.8846C24.3466 30.8905 24.2874 30.8963 24.2223 30.8905H24.0328L23.7781 31.5053C23.636 31.839 23.5057 32.1494 23.488 32.1962L23.4524 32.2782L23.3281 32.0791L23.2037 31.88V30.2581L23.1563 30.2698C23.0557 30.2933 22.3391 30.3869 22.0253 30.4162C20.7284 30.545 19.4256 30.5158 18.1347 30.3343C17.9274 30.305 17.7498 30.2816 17.7438 30.2874C17.7379 30.2933 17.7438 30.668 17.7557 31.1306L17.7734 31.962L17.6728 32.1142C17.6195 32.1962 17.5662 32.2665 17.5662 32.2723C17.5484 32.2899 17.4892 32.1962 17.353 31.9269C17.205 31.6458 17.0984 31.3472 17.0214 31.0369L16.9799 30.8671L16.7964 30.8788L16.6128 30.8963L16.5654 30.6797C16.5417 30.5626 16.5121 30.3811 16.5003 30.2816L16.4825 30.0942L16.3285 29.9595C16.2397 29.8834 16.1509 29.8073 16.1331 29.7956C16.1035 29.7722 16.0917 29.7312 16.0917 29.696V29.6258L16.8319 29.6316L17.5721 29.6375L17.5958 29.7136L17.6195 29.7897L17.8741 29.8014C18.0162 29.8073 18.4663 29.819 18.869 29.8307L19.6092 29.8483L19.7987 29.5555L19.9941 29.2628H20.2428L20.2369 28.6538L20.231 28.0449L19.9053 27.9044C18.8571 27.4477 18.2413 26.9265 18.0103 26.2942C17.9629 26.1654 17.9629 26.1185 17.9511 25.533C17.9452 24.9534 17.9452 24.9007 17.9866 24.7718C18.0695 24.4791 18.3005 24.2507 18.5966 24.1746C18.6972 24.1453 18.9637 24.1453 20.3613 24.1453L22.0075 24.1512L22.1911 24.239C22.4102 24.3444 22.5109 24.4205 22.6352 24.5845C22.7773 24.7718 22.8188 24.9182 22.8188 25.2754C22.8188 25.7848 22.7833 26.2239 22.73 26.3996C22.653 26.6396 22.5345 26.868 22.3865 27.0729C22.0904 27.4477 21.5515 27.8224 21.06 27.9922L20.9179 28.0449L20.9238 28.6597L20.9298 29.2745L21.06 29.2862L21.1903 29.2979L21.368 29.5614L21.5397 29.8249H22.3332C22.7714 29.8249 23.1563 29.8307 23.1919 29.8366C23.2511 29.8483 23.2629 29.8424 23.3221 29.7429L23.3932 29.6375H24.0742C24.6012 29.6375 24.7552 29.6433 24.7552 29.6609C24.7374 29.6551 24.6605 29.942 24.5716 30.2698Z" fill="white"/>
<path d="M36.3681 23.5832C36.3563 23.3197 36.3326 22.9509 36.3149 22.7694C36.0602 20.1111 35.3733 17.9389 34.0705 15.6378C34.0172 15.5499 33.9698 15.4621 33.9402 15.3919C33.9284 15.3743 33.9225 15.3567 33.9165 15.345C34.1001 14.8005 34.8522 12.5228 35.4503 9.91728C36.2616 6.38076 36.7768 2.24702 35.2016 1.00573C35.2016 1.00573 32.4776 0.806652 28.8297 4.34317C27.8408 5.32098 26.9348 6.38077 26.1294 7.51081L25.8748 7.42884C24.4062 6.95457 22.8843 6.66181 21.3505 6.56227C20.8886 6.52714 19.1654 6.52714 18.6028 6.56227C16.9033 6.67352 15.6005 6.92529 14.1201 7.43469C14.0608 7.45811 14.0075 7.47568 13.9542 7.49324C13.1193 6.36905 12.1896 5.31513 11.1651 4.34902C7.36924 0.794942 4.54456 0.999872 4.54456 0.999872C2.87462 2.28215 3.44311 6.60326 4.30769 10.2569C4.87618 12.6751 5.57495 14.8005 5.8355 15.5675C5.81774 15.6085 5.79405 15.6553 5.77037 15.6963C4.39059 18.46 3.64445 21.1241 3.4668 23.958C5.01238 23.7355 9.27013 23.4837 12.462 26.8797C12.462 26.8797 14.5701 21.3758 20.255 21.3758C25.9399 21.3758 27.1539 26.8797 27.1539 26.8797C30.9201 23.8057 34.9765 23.9053 36.3978 24.0516C36.3918 23.9345 36.38 23.7589 36.3681 23.5832ZM6.95472 13.3601C6.95472 13.3601 4.73998 7.88554 5.30847 4.75889C5.40321 4.23192 5.58087 3.76936 5.85919 3.41805C5.85919 3.41805 8.37002 3.66397 12.4205 8.11389C12.4205 8.11389 11.6507 8.48277 10.6203 9.26736C10.6203 9.26736 10.6144 9.27321 10.6084 9.27321C9.48924 10.1222 8.05617 11.4689 6.95472 13.3601ZM16.3526 21.4929C16.317 21.5632 16.1394 21.6393 15.938 21.6686C15.7367 21.6979 15.1208 21.6803 14.7715 21.6393C13.516 21.4754 12.1836 21.0948 11.2125 20.6264C10.6677 20.3629 10.2768 20.0994 9.98666 19.8125L9.82086 19.6427L9.80309 19.4202C9.77348 19.0338 9.77941 18.4248 9.82678 18.2082C9.85639 18.0267 9.92153 17.851 10.0104 17.6929C10.0577 17.6344 10.0577 17.6344 10.2709 17.6344C10.5315 17.6344 10.7506 17.6754 11.1059 17.7866C11.8343 18.0091 12.9179 18.5478 14.2385 19.3324C15.3281 19.9764 15.7367 20.2926 16.0506 20.7259C16.2637 20.9952 16.4059 21.3758 16.3526 21.4929ZM30.3043 19.5549C30.2865 19.6486 30.0082 19.9296 29.7298 20.1345C28.9126 20.7259 27.45 21.2763 25.9636 21.5398C25.1168 21.692 24.27 21.7154 24.0153 21.5925C23.8495 21.5105 23.8258 21.4461 23.8851 21.2353C24.0094 20.7962 24.4121 20.316 25.0398 19.8652C25.3596 19.6369 26.6565 18.8581 27.2605 18.5302C28.2553 17.9916 29.0607 17.6695 29.6055 17.5934C29.7772 17.57 29.9845 17.5641 30.0496 17.5934C30.1562 17.6344 30.2746 17.9447 30.322 18.3194C30.3457 18.5185 30.3339 19.3968 30.3043 19.5549ZM29.3212 9.26736L29.3094 9.2615C28.3145 8.47691 27.5684 8.10804 27.5684 8.10804C31.4827 3.65811 33.9047 3.4122 33.9047 3.4122C34.1712 3.76936 34.3429 4.22607 34.4377 4.75303C34.9884 7.87969 32.8506 13.3601 32.8506 13.3601C31.9564 11.7851 30.7543 10.3916 29.3212 9.26736Z" fill="#FFA409"/>
<path d="M34.4435 4.75306C33.9816 4.69451 31.7965 4.6828 29.3212 9.26739L29.3094 9.26154C28.3145 8.47695 27.5684 8.10807 27.5684 8.10807C31.4826 3.65815 33.9047 3.41223 33.9047 3.41223C34.1771 3.7694 34.3488 4.2261 34.4435 4.75306Z" fill="#FF9300"/>
<path d="M32.8566 13.3602C31.9565 11.7793 30.7603 10.3916 29.3213 9.26742C31.7966 4.68282 33.9758 4.69453 34.4436 4.75309C34.9943 7.8856 32.8566 13.3602 32.8566 13.3602Z" fill="#FF8300"/>
<path d="M34.5322 4.77062C34.5026 4.76476 34.473 4.75891 34.4434 4.75305L34.5322 4.77062Z" fill="#FF8300"/>
<path d="M12.4202 8.10807C12.4202 8.10807 11.6504 8.47695 10.62 9.26154C10.62 9.26154 10.6141 9.26739 10.6082 9.26739C8.04402 4.67695 5.78783 4.69451 5.30225 4.75306C5.39699 4.2261 5.57465 3.76354 5.85297 3.41223C5.8589 3.41223 8.36972 3.65815 12.4202 8.10807Z" fill="#FF9300"/>
<path d="M10.6141 9.26742C9.48893 10.1223 8.05586 11.4631 6.95441 13.3602C6.95441 13.3602 4.73967 7.8856 5.30816 4.75309C5.78782 4.69453 8.04994 4.68282 10.6141 9.26742Z" fill="#FF8300"/>
<path d="M5.30813 4.75305C5.27852 4.75891 5.24299 4.76476 5.21338 4.77062L5.30813 4.75305Z" fill="#FF8300"/>
<path d="M26.8636 16.399C26.8636 16.399 24.9687 16.5161 25.2055 15.0523C25.4424 13.5885 26.9229 13.4129 27.3374 13.4714C27.7519 13.53 29.41 14.1155 29.1139 15.3451C28.8178 16.5746 28.4033 16.3404 28.1664 16.399C27.9296 16.4575 26.8636 16.399 26.8636 16.399Z" fill="white"/>
<path d="M12.8881 16.399C12.8881 16.399 10.9931 16.5161 11.23 15.0523C11.4668 13.5885 12.9473 13.4129 13.3618 13.4714C13.7763 13.53 15.4344 14.1155 15.1383 15.3451C14.8422 16.5746 14.4277 16.3404 14.1908 16.399C13.954 16.4575 12.8881 16.399 12.8881 16.399Z" fill="white"/>
</g>
<defs>
<clipPath id="clip0_966_1033">
<rect width="38" height="38" fill="white" transform="translate(1 1)"/>
</clipPath>
</defs>
</svg>
