<svg width="26" height="14" viewBox="0 0 26 14" fill="none" xmlns="http://www.w3.org/2000/svg">
<g clip-path="url(#clip0)">
<path d="M0 14H2V11.999H0V14ZM2 11.994H4V9.993H2V11.994ZM4 10.006H6V8.005H4V10.006ZM6 8H8V5.999H6V8ZM8 5.994H10V3.993H8V5.994ZM10 3.99H12V1.989H10V3.99ZM12 2H14V-0.0010004H12V2ZM14 3.99H16V1.989H14V3.99ZM16 5.994H18V3.993H16V5.994ZM18 8H20V5.999H18V8ZM20 10.006H22V8.005H20V10.006ZM22 11.994H24V9.993H22V11.994ZM24 14H26V11.999H24V14Z" fill="#C4C4C4"/>
</g>
<defs>
<clipPath id="clip0">
<rect width="26" height="14" fill="white" transform="matrix(1 0 0 -1 0 14)"/>
</clipPath>
</defs>
</svg>
