<svg xmlns="http://www.w3.org/2000/svg" width="20" height="20" fill="none" viewBox="0 0 20 20">
    <path fill="#7E7DA1" d="M0 18.694V9.564h4.347v9.13H0zM18.696 8.26V6.956h-3.913V1.304H13.48V0H9.566v5.652H8.262V8.26H6.958v1.304H5.654v9.13h1.304v1.304h10.434v-1.304h1.304v-1.305h-2.609v-1.304h2.609v1.304H20V8.26h-1.304zm0 6.086h-2.609v-1.304h2.609v1.304zm0-3.043h-2.609V10h2.609v1.304z"/>
    <path fill="#7E7DA1" d="M18.696 14.346h-2.609v-1.304h2.609v1.304zM18.696 11.303h-2.609V10h2.609v1.304zM16.087 17.39h2.609v-1.305h-2.609v1.304z"/>
</svg>
