<svg xmlns="http://www.w3.org/2000/svg" width="20" height="20" fill="none" viewBox="0 0 20 20">
    <path fill="#03E1E4" d="M18.667 2.667V1.333h-1.334V0H12v1.333h-1.333v1.334H9.333V4H8v2.667h2.667V5.333H12V4h4v4h-1.333v1.333h-1.334V12H16v-1.333h1.333V9.333h1.334V8H20V2.667h-1.333zM9.333 13.333v1.334H8V16H4v-4h1.333v-1.333h1.334V8H4v1.333H2.667v1.334H1.333V12H0v5.333h1.333v1.334h1.334V20H8v-1.333h1.333v-1.334h1.334V16H12v-2.667H9.333z"/>
    <path fill="#03E1E4" d="M8 12H6.665v1.333h1.333V12zM6.667 13.333H5.334v1.334h1.333v-1.334zM10.667 9.333H9.334v1.334h1.333V9.333zM9.333 10.667H8V12h1.333v-1.333zM13.333 6.667H12V8h1.333V6.667zM12 8h-1.334v1.333h1.333V8zM14.667 5.333h-1.333v1.334h1.333V5.333z"/>
</svg>
