<svg xmlns="http://www.w3.org/2000/svg" width="20" height="20" fill="none" viewBox="0 0 20 20">
    <path fill="#D53F3F" d="M20 1.304V10.434h-4.348v-9.13H20zM1.304 11.738v1.304h3.913v5.652H6.52v1.304H10.434v-5.652h1.304v-2.608h1.304v-1.304h1.304v-9.13h-1.304V0H2.608v1.304H1.304v1.304h2.608v1.305H1.304V2.608H0v9.13h1.304zm0-6.086h2.608v1.304H1.304V5.652zm0 3.043h2.608v1.304H1.304V8.695z"/>
    <path fill="#D53F3F" d="M1.304 5.652h2.608v1.304H1.304V5.652zM1.304 8.695h2.608v1.304H1.304V8.695zM3.912 2.608H1.304v1.305h2.608V2.608z"/>
</svg>
