<svg xmlns="http://www.w3.org/2000/svg" width="32" height="32" fill="none" viewBox="0 0 32 32">
    <path fill="#03E1E4" d="M29.912 25.74v-2.088H2.086v2.087h9.043v4.174H6.956V32h18.086v-2.087H20.87V25.74h9.043zm-11.13 4.173h-5.566V25.74h5.566v4.174z"/>
    <path fill="#03E1E4" d="M29.913 2.087V0H2.087v2.087H0v21.565h2.087v-2.087h27.826v2.087H32V2.087h-2.087zm-15.304 9.74h-4.87v2.086h4.87V16H7.652V9.74h4.87V7.651h-4.87V5.565h6.957v6.261zM24.348 16H22.26v-4.174h-5.565v-6.26h2.087v4.173h3.478V5.565h2.087V16z"/>
</svg>
