<svg xmlns="http://www.w3.org/2000/svg" width="32" height="32" fill="none" viewBox="0 0 32 32">
    <path fill="#03E1E4" d="M6 2H4v6h2v6h2v-2h6V8h2v4h1v-1h2V9h2V7h2V6H6V2zM4 0H0v2h4V0zM30 2h-2v2h2V2zM28 6V4h-2v2h2zM26 8V6h-2v2h2z"/>
    <path fill="#03E1E4" d="M24 10V8h-2v2h2zM22 12v-2h-2v2h2zM20 14v-2h-2v2h2zM18 16v-2h-2v2h2zM16 18v-2h-2v2h2zM14 20v-2h-2v2h2zM12 22v-2h-2v2h2zM10 24v-2H8v2h2zM8 26v-2H6v2h2zM6 28v-2H4v2h2z"/>
    <path fill="#03E1E4" d="M8 14v7h1v-2h2v-2h2v-2h1v-1H8zM30 20v-6h-6v6h-2v-6h-1v1h-2v2h-2v2h-1v1h-1v1h-2v1h15v-2h2zM32 6h-3v1h-2v2h-2v2h-1v1h6v2h2V6zM11 24v1h-1v5h2v-4h4v4h2v-4h4v4h2v-4h4v-2H11zM24 30v2h4v-2h-4zM28 30h2v-4h-2v4zM12 30v2h4v-2h-4z"/>
</svg>
