<svg xmlns="http://www.w3.org/2000/svg" width="32" height="32" fill="none" viewBox="0 0 32 32">
    <path fill="#03E1E4" d="M29.867 4.267V2.133h-2.134V0H19.2v2.133h-2.133v2.134h-2.134V6.4H12.8v4.267h4.267V8.533H19.2V6.4h6.4v6.4h-2.133v2.133h-2.134V19.2H25.6v-2.133h2.133v-2.134h2.134V12.8H32V4.267h-2.133zM14.933 21.334v2.134H12.8V25.6H6.4v-6.4h2.133v-2.134h2.134v-4.266H6.4v2.133H4.267v2.133H2.133v2.134H0v8.533h2.133v2.133h2.134v2.134H12.8v-2.133h2.133v-2.134h2.134v-2.133H19.2v-4.267h-4.267z"/>
    <path fill="#03E1E4" d="M12.8 19.2h-2.133v2.133H12.8v-2.134zM10.667 21.334H8.533v2.133h2.134v-2.133zM17.067 14.934h-2.134v2.133h2.134v-2.133zM14.933 17.066H12.8V19.2h2.133v-2.134zM21.333 10.666H19.2v2.133h2.133v-2.133zM19.2 12.8h-2.133v2.134H19.2v-2.133zM23.467 8.535h-2.134v2.133h2.134V8.535z"/>
</svg>
