<svg xmlns="http://www.w3.org/2000/svg" width="16" height="14" fill="none" viewBox="0 0 16 14">
    <path fill="#03E1E4" d="M1.044 7.653V6.61H0V2.087h1.044V1.044h1.043V0h3.827v1.044H4.87v1.043H3.827v1.044H2.783v4.522h1.044v1.044H4.87v1.044H3.827v1.043H0V9.741h1.044V8.697h1.043V7.653H1.044zM13.913 0v1.044h1.043v1.043H16V6.61h-1.044v1.043h-1.043v1.044h1.043v1.044H16v1.043h-3.827V9.741H11.13V8.697h1.043V7.653h1.044V3.131h-1.044V2.087H11.13V1.044h-1.044V0h3.827z"/>
    <path fill="#03E1E4" d="M4.862 8.7V7.655H3.82V3.133h1.043V2.09h1.044V1.046h4.175V2.09h1.043v1.043h1.044v4.523h-1.044v1.043h-1.043v1.044h1.043v1.044h1.044v2.954h-8.35v-2.954h1.044V9.743h1.044V8.699H4.862z"/>
</svg>
