<svg xmlns="http://www.w3.org/2000/svg" width="32" height="31" fill="none" viewBox="0 0 32 31">
    <path fill="#03E1E4" d="M24.932 8.087h-4.717V6.065h4.717v2.022zM24.932 14.826h-4.717v-2.022h4.717v2.022zM26.957 12.804h-2.021V8.086h2.021v4.718zM20.21 12.804H18.19V8.086h2.021v4.718zM13.48 2.022H9.439V0h4.043v2.022zM13.48 8.087H9.439V6.065h4.043v2.022zM15.503 6.065H13.48V2.022h2.022v4.043zM9.431 6.065H7.409V2.022h2.022v4.043zM6.065 16.848H0V31h6.065V16.848zM23.59 18.87v2.021h-2.696v2.022h-8.086v-2.022h8.086v-4.043H8.09v12.13h2.021V31h10.782v-2.022h4.043v-2.022h2.022v-2.021h2.021v-2.022h2.022V18.87h-7.413z"/>
</svg>
