<svg width="32" height="32" viewBox="0 0 32 32" fill="none" xmlns="http://www.w3.org/2000/svg">
<path d="M6 4H10V6H12V4H20V6H22V4H26V2H20V0H12V2H6V4Z" fill="#03E1E4"/>
<path d="M12 8H20V6H12V8Z" fill="#03E1E4"/>
<path d="M6 30V4H4V30H6Z" fill="#03E1E4"/>
<path d="M24 10V12H8V10H24Z" fill="#03E1E4"/>
<path d="M24 14V16H8V14H24Z" fill="#03E1E4"/>
<path d="M18 18V22H20V24H22V26H20V28H18V32H22V30H24V28H26V30H28V32H32V28H30V26H28V24H30V22H32V18H28V20H26V22H24V20H22V18H18Z" fill="#03E1E4"/>
<path d="M16 18V20H8V18H16Z" fill="#03E1E4"/>
<path d="M16 22V24H8V22H16Z" fill="#03E1E4"/>
<path d="M16 32V30H6V32H16Z" fill="#03E1E4"/>
<path d="M28 16V4H26V16H28Z" fill="#03E1E4"/>
</svg>
