<svg xmlns="http://www.w3.org/2000/svg" width="24" height="28" viewBox="0 0 24 28" fill="none">
    <path fill-rule="evenodd" clip-rule="evenodd" d="M7.38462 5.6V1.86667H9.23077V0H14.7692V1.86667H16.6154V5.6H7.38462ZM11.0769 1.86667V3.73333H12.9231V1.86667H11.0769Z" fill="white"/>
    <path fill-rule="evenodd" clip-rule="evenodd" d="M16.6154 5.6V7.46667H7.38462V5.6H5.53846V3.73333H1.84615V5.6H0V26.1333H1.84615V28H22.1538V26.1333H24V5.6H22.1538V3.73333H18.4615V5.6H16.6154ZM5.53846 10.2667H3.69231V12.1333H5.53846V14H7.38462V12.1333H9.23077V10.2667H11.0769V8.4H9.23077V10.2667H7.38462V12.1333H5.53846V10.2667ZM5.53846 15.8667H3.69231V17.7333H5.53846V19.6H7.38462V17.7333H9.23077V15.8667H11.0769V14H9.23077V15.8667H7.38462V17.7333H5.53846V15.8667ZM12.9231 15.8667H20.3077V17.7333H12.9231V15.8667ZM12.9231 10.2667H20.3077V12.1333H12.9231V10.2667ZM9.23077 19.6H11.0769V21.4667H9.23077V19.6ZM7.38462 23.3333V21.4667H9.23077V23.3333H7.38462ZM5.53846 23.3333H7.38462V25.2H5.53846V23.3333ZM5.53846 23.3333H3.69231V21.4667H5.53846V23.3333ZM20.3077 21.4667H12.9231V23.3333H20.3077V21.4667Z" fill="white"/>
</svg>