<svg xmlns="http://www.w3.org/2000/svg" width="32" height="32" fill="none" viewBox="0 0 32 32">
    <path fill="#03E1E4" d="M20.212 17.244v5.52h6.663v-5.52h-6.663zm3.887 3.864h-2.221V18.9h2.22v2.208z"/>
    <path fill="#03E1E4" d="M20.214 17.095V15.44h8.33V9.92h-9.996v7.176h-4.896V9.92h-7.32V8.263h7.32V6.607H4.665v1.656H3v22.08h1.666V32h22.212v-1.656h1.666v-6.072h-8.33v-1.656h-1.666v-5.52h1.666z"/>
    <path fill="#03E1E4" d="M16.93 1.656V0h-1.665v1.656h-1.666v1.656h1.665v12.136h1.666V3.312h1.666V1.656H16.93zM13.597 3.313h-1.666v1.655h1.666V3.313zM20.262 3.313h-1.665v1.655h1.665V3.313zM18.617 6.607H26.899V8.244H18.617z"/>
</svg>
