<svg width="25" height="25" viewBox="0 0 25 25" fill="none" xmlns="http://www.w3.org/2000/svg">
    <g filter="url(#ktp6418f1a)" fill="#2F3045">
        <path d="M2 18.75h21v3.75H2v-3.75z"/>
        <path d="M5 16.5h15v3H5v-3z"/>
        <path d="M7.25 14.25h10.5v3H7.25v-3zM6.5 6.6v-.85h3.429V4.9h.857V3.2h.857V1.5h1.714v1.7h.857v1.7h.857v.85H18.5v.85h-.857v.85h-.857v.85h-.857V10h.857v2.55h.857v1.7h-1.714v-.85h-.858v-.85h-1.714v-.85h-1.714v.85H9.929v.85H9.07v.85H7.357v-1.7h.857V10h.857V8.3h-.857v-.85h-.857V6.6H6.5z"/>
    </g>
    <defs>
        <filter id="ktp6418f1a" x="2" y="1.5" width="21" height="23" filterUnits="userSpaceOnUse" color-interpolation-filters="sRGB">
            <feFlood flood-opacity="0" result="BackgroundImageFix"/>
            <feColorMatrix in="SourceAlpha" values="0 0 0 0 0 0 0 0 0 0 0 0 0 0 0 0 0 0 127 0" result="hardAlpha"/>
            <feOffset dy="2"/>
            <feColorMatrix values="0 0 0 0 0 0 0 0 0 0 0 0 0 0 0 0 0 0 0.25 0"/>
            <feBlend in2="BackgroundImageFix" result="effect1_dropShadow_1130_31005"/>
            <feBlend in="SourceGraphic" in2="effect1_dropShadow_1130_31005" result="shape"/>
        </filter>
    </defs>
</svg>
