<svg width="32" height="32" viewBox="0 0 32 32" fill="none" xmlns="http://www.w3.org/2000/svg">
<rect width="32" height="32" rx="6" fill="#9EEB77"/>
<rect x="0.5" y="0.5" width="31" height="31" rx="5.5" fill="#82E63C" stroke="#C4FF9A"/>
<path fill-rule="evenodd" clip-rule="evenodd" d="M7.05263 12.2924V13.345H6V19.6608H7.05263V20.7134H24.9474V19.6608H26V13.345H24.9474V12.2924H23.8947V13.345H22.8421V14.3976H21.7895V15.4503H20.7368V14.3976H19.6842V13.345H18.6316V12.2924H17.5789V11.2397H16.5263V10.1871H15.4737V11.2397H14.4211V12.2924H13.3684V13.345H12.3158V14.3976H11.2632V15.4503H10.2105V14.3976H9.15789V13.345H8.10526V12.2924H7.05263ZM15.4737 15.4503V14.3976H16.5263V15.4503H17.5789V16.5029H16.5263V17.5555H15.4737V16.5029H14.4211V15.4503H15.4737Z" fill="black" fill-opacity="0.25"/>
<path d="M11.2632 12.2924V13.345H12.3158V12.2924H11.2632Z" fill="black" fill-opacity="0.25"/>
<path d="M11.2632 11.2397H10.2105V12.2924H11.2632V11.2397Z" fill="black" fill-opacity="0.25"/>
<path d="M9.15789 12.2924V13.345H10.2105V12.2924H9.15789Z" fill="black" fill-opacity="0.25"/>
<path d="M20.7368 13.345V12.2924H19.6842V13.345H20.7368Z" fill="black" fill-opacity="0.25"/>
<path d="M21.7895 12.2924V11.2397H20.7368V12.2924H21.7895Z" fill="black" fill-opacity="0.25"/>
<path d="M22.8421 13.345V12.2924H21.7895V13.345H22.8421Z" fill="black" fill-opacity="0.25"/>
<path d="M24.9474 22.8187H26V20.7134H24.9474V22.8187Z" fill="black" fill-opacity="0.25"/>
<path d="M7.05263 23.8713H24.9474V22.8187H7.05263V23.8713Z" fill="black" fill-opacity="0.25"/>
<path d="M6 20.7134V22.8187H7.05263V20.7134H6Z" fill="black" fill-opacity="0.25"/>
<path fill-rule="evenodd" clip-rule="evenodd" d="M7.05263 11.2392V12.2919H6V18.6077H7.05263V19.6603H24.9474V18.6077H26V12.2919H24.9474V11.2392H23.8947V12.2919H22.8421V13.3445H21.7895V14.3971H20.7368V13.3445H19.6842V12.2919H18.6316V11.2392H17.5789V10.1866H16.5263V9.13397H15.4737V10.1866H14.4211V11.2392H13.3684V12.2919H12.3158V13.3445H11.2632V14.3971H10.2105V13.3445H9.15789V12.2919H8.10526V11.2392H7.05263ZM15.4737 14.3971V13.3445H16.5263V14.3971H17.5789V15.4498H16.5263V16.5024H15.4737V15.4498H14.4211V14.3971H15.4737Z" fill="#2F3045"/>
<path d="M11.2632 11.2392V12.2919H12.3158V11.2392H11.2632Z" fill="#2F3045"/>
<path d="M11.2632 10.1866H10.2105V11.2392H11.2632V10.1866Z" fill="#2F3045"/>
<path d="M9.15789 11.2392V12.2919H10.2105V11.2392H9.15789Z" fill="#2F3045"/>
<path d="M20.7368 12.2919V11.2392H19.6842V12.2919H20.7368Z" fill="#2F3045"/>
<path d="M21.7895 11.2392V10.1866H20.7368V11.2392H21.7895Z" fill="#2F3045"/>
<path d="M22.8421 12.2919V11.2392H21.7895V12.2919H22.8421Z" fill="#2F3045"/>
<path d="M24.9474 21.7656H26V19.6603H24.9474V21.7656Z" fill="#2F3045"/>
<path d="M7.05263 22.8182H24.9474V21.7656H7.05263V22.8182Z" fill="#2F3045"/>
<path d="M6 19.6603V21.7656H7.05263V19.6603H6Z" fill="#2F3045"/>
</svg>
