<svg width="24" height="24" viewBox="0 0 24 24" fill="none" xmlns="http://www.w3.org/2000/svg">
<rect width="24" height="24" rx="4" fill="white"/>
<mask id="mask0_1723_3538" style="mask-type:alpha" maskUnits="userSpaceOnUse" x="0" y="0" width="24" height="24">
<rect width="24" height="24" rx="4" fill="white"/>
</mask>
<g mask="url(#mask0_1723_3538)">
<path d="M20.569 16.9236C20.3297 19.7651 16.9799 22.1578 11.9551 22.0382C7.22935 21.9185 3.90938 19.9445 3.6701 17.1031C3.64019 16.7442 3.6701 16.3853 3.70001 15.9964C3.84956 14.8898 4.23839 13.843 4.80667 12.8859L5.16558 13.0354C6.09278 12.6765 7.04989 12.4073 8.0369 12.2278C9.32302 12.0484 10.639 12.0185 11.9252 12.1082C13.2113 12.0185 14.5273 12.0484 15.8134 12.2278C16.8004 12.4073 17.7575 12.6765 18.6847 13.0354L19.0436 12.8859L19.2829 12.7662C19.8512 13.7233 20.24 14.7702 20.4494 15.8768C20.5092 16.2058 20.5391 16.5647 20.5092 16.8937" fill="#F4A427"/>
<path d="M20.569 16.9236C20.3297 19.7351 17.0098 22.0381 11.9551 22.0082C7.22935 21.8886 3.90938 19.9145 3.6701 17.0731C3.64019 16.7142 3.6701 16.3553 3.70001 15.9665C4.20848 15.8468 4.71694 15.8468 5.2254 15.9366C6.18251 16.0861 6.72088 16.6843 7.4088 16.9834C7.79763 17.1628 8.18645 16.8638 8.54537 16.5347C9.50248 15.6075 10.7886 15.0692 12.1046 15.0393C13.4505 15.0094 14.5572 15.5477 15.7237 16.6245C15.9629 16.8638 16.292 17.0133 16.621 16.9834C16.9201 16.8937 17.2192 16.7441 17.4584 16.5347C18.3557 15.9366 19.4325 15.6973 20.4793 15.8468C20.569 16.2357 20.5989 16.5647 20.569 16.9236Z" fill="white"/>
<path d="M6.66114 9.92473C6.33213 10.2537 5.9134 10.493 5.46476 10.5827L5.2853 10.6127C5.10584 10.6725 4.92638 10.7024 4.71702 10.7024C4.68711 10.7024 4.62729 10.7024 4.59738 10.7024C4.50765 10.6725 4.38801 10.6426 4.29828 10.6127C3.96928 10.4631 3.67018 10.2836 3.40099 10.0444C2.86262 9.59573 2.35416 9.08726 1.96533 8.48907C0.320306 6.0963 0.828769 2.86607 3.1019 1.07149C3.25145 0.981761 3.4309 0.981761 3.55054 1.13131C3.61036 1.22104 3.64027 1.31077 3.61036 1.4005C3.40099 2.3576 3.22154 3.85308 4.11882 5.1392C4.89647 6.21594 6.51159 7.26278 7.49861 7.26278C7.70798 8.45916 7.37897 9.26672 6.66114 9.92473Z" fill="#F79422"/>
<path d="M6.66114 9.92473C6.33213 10.2537 5.9134 10.493 5.46476 10.5827L5.2853 10.6127C5.10584 10.6725 4.92638 10.7024 4.71702 10.7024C4.68711 10.7024 4.62729 10.7024 4.59738 10.7024C4.50765 10.6725 4.38801 10.6426 4.29828 10.6127C3.96928 10.4631 3.67018 10.2836 3.40099 10.0444C2.86262 9.59573 2.35416 9.08726 1.96533 8.48907C0.320306 6.0963 0.828769 2.86607 3.1019 1.07149C3.25145 0.981761 3.4309 0.981761 3.55054 1.13131C3.61036 1.22104 3.64027 1.31077 3.61036 1.4005C3.40099 2.3576 3.22154 3.85308 4.11882 5.1392C4.89647 6.21594 6.51159 7.26278 7.49861 7.26278C7.70798 8.45916 7.37897 9.26672 6.66114 9.92473Z" stroke="#221F1F" stroke-width="0.3" stroke-linejoin="round"/>
<path d="M10.9683 5.79724L10.5794 9.62567H10.5495C9.95134 9.7154 9.14378 9.83504 8.03713 10.0145C7.0202 10.164 5.64436 10.8819 4.8368 11.3604L4.74707 10.7323C4.92653 10.7024 5.13589 10.6725 5.31535 10.6426L5.49481 10.6127C5.94345 10.523 6.36219 10.2837 6.69119 9.95467C7.37911 9.26675 7.73803 8.4891 7.49875 7.26281L7.61839 7.29272C7.97731 6.9039 8.39604 6.6048 8.87459 6.36552C9.5027 6.00661 10.2205 5.82715 10.9683 5.79724Z" fill="#5A595C"/>
<path d="M10.9683 5.79724L10.5794 9.62567H10.5495C9.95134 9.7154 9.14378 9.83504 8.03713 10.0145C7.0202 10.164 5.64436 10.8819 4.8368 11.3604L4.74707 10.7323C4.92653 10.7024 5.13589 10.6725 5.31535 10.6426L5.49481 10.6127C5.94345 10.523 6.36219 10.2837 6.69119 9.95467C7.37911 9.26675 7.73803 8.4891 7.49875 7.26281L7.61839 7.29272C7.97731 6.9039 8.39604 6.6048 8.87459 6.36552C9.5027 6.00661 10.2205 5.82715 10.9683 5.79724Z" stroke="#221F1F" stroke-width="0.3" stroke-linejoin="round"/>
<path d="M19.7015 12.6766L19.4622 12.7963L19.223 12.9159L18.8641 13.0655C17.9369 12.7065 16.9797 12.4374 15.9927 12.2579C14.7066 12.0186 13.4205 11.899 12.1045 11.899C10.7885 11.899 9.50235 11.9887 8.21624 12.2579C7.22922 12.4374 6.27211 12.7065 5.34492 13.0655C5.22528 13.0056 5.10564 12.9458 4.986 12.9159L4.47754 12.6766C4.50745 12.2579 4.47754 12.0186 4.47754 11.5999C4.56727 11.5401 4.71682 11.4503 4.86636 11.3606L4.89627 11.3307C5.67392 10.8522 7.04976 10.1642 8.06669 9.98477C9.17335 9.80532 9.95099 9.68568 10.5791 9.59595C10.9679 9.56604 11.3867 9.56604 11.8054 9.56604C12.4335 9.56604 13.0018 9.56604 13.5701 9.59595C14.1682 9.68568 14.9758 9.80532 16.1124 9.98477C17.1592 10.1343 18.535 10.8522 19.3426 11.3307H19.3725C19.5221 11.4204 19.6417 11.4803 19.7314 11.57C19.7015 12.0186 19.6716 12.2579 19.7015 12.6766Z" fill="#929497"/>
<path d="M19.7015 12.6766L19.4622 12.7963L19.223 12.9159L18.8641 13.0655C17.9369 12.7065 16.9797 12.4374 15.9927 12.2579C14.7066 12.0485 13.4205 11.9289 12.1045 11.9289C10.7885 11.9289 9.50235 12.0186 8.21624 12.2579C7.22922 12.4374 6.27211 12.7065 5.34492 13.0655C5.22528 13.0056 5.10564 12.9458 4.986 12.9159L4.47754 12.6766C4.50745 12.2579 4.47754 12.0186 4.47754 11.5999C4.56727 11.5401 4.71682 11.4503 4.86636 11.3606L4.89627 11.3307C5.67392 10.8522 7.04976 10.1642 8.06669 9.98477C9.17335 9.80532 9.95099 9.68568 10.5791 9.59595C10.9679 9.56604 11.3867 9.56604 11.8054 9.56604C12.4335 9.56604 13.0018 9.56604 13.5701 9.59595C14.1682 9.68568 14.9758 9.80532 16.1124 9.98477C17.1592 10.1343 18.535 10.8522 19.3426 11.3307H19.3725C19.5221 11.4204 19.6417 11.4803 19.7314 11.57C19.7015 12.0186 19.6716 12.2579 19.7015 12.6766Z" stroke="#221F1F" stroke-width="0.3" stroke-linecap="round" stroke-linejoin="round"/>
<path d="M13.5403 9.62563C13.0019 9.59572 12.4037 9.56581 11.7756 9.59572C11.3569 9.59572 10.9381 9.62563 10.5493 9.62563H10.5792L10.9681 5.7972L11.0578 5.01955C11.3569 4.84009 11.7158 4.75037 12.0448 4.75037H12.1046C12.4635 4.75037 12.7925 4.84009 13.0916 5.01955L13.1814 5.7972V5.82711L13.5403 9.62563Z" fill="#929497"/>
<path d="M13.5403 9.62563C13.0019 9.59572 12.4037 9.56581 11.7756 9.59572C11.3569 9.59572 10.9381 9.62563 10.5493 9.62563H10.5792L10.9681 5.7972L11.0578 5.01955C11.3569 4.84009 11.7158 4.75037 12.0448 4.75037H12.1046C12.4635 4.75037 12.7925 4.84009 13.0916 5.01955L13.1814 5.7972V5.82711L13.5403 9.62563Z" stroke="#221F1F" stroke-width="0.3" stroke-linecap="round" stroke-linejoin="round"/>
<path d="M20.5689 16.9534C20.3296 19.7948 16.7106 22.0679 11.9549 22.0679C7.22922 21.9483 3.90926 19.9743 3.69989 17.1329C3.66998 16.7739 3.69989 16.415 3.7298 16.0262C3.87935 14.9196 4.26817 13.8727 4.83645 12.9156L5.19537 13.0652C6.12257 12.7062 7.07967 12.4371 8.06669 12.2576C9.3528 12.0183 10.6389 11.9286 11.9549 11.8987C13.271 11.8987 14.5571 12.0183 15.8432 12.2576C16.8302 12.4371 17.7873 12.7062 18.7145 13.0652L19.1033 12.9156L19.3426 12.796C19.9109 13.7531 20.2997 14.7999 20.5091 15.9066C20.5988 16.2655 20.5988 16.6244 20.5689 16.9534Z" stroke="#221F1F" stroke-width="0.3" stroke-linecap="round" stroke-linejoin="round"/>
<path d="M22.0345 8.48913C21.6158 9.05741 21.1372 9.59579 20.5689 10.0444C20.2997 10.2837 20.0006 10.4632 19.6716 10.6127L19.5221 10.6725L19.4324 10.7024C19.223 10.7623 19.1034 10.7024 18.7145 10.6426L18.5351 10.6127C18.0864 10.523 17.6677 10.2837 17.3387 9.9547C16.6508 9.26678 16.2919 8.48913 16.5311 7.26284C17.4882 7.29275 19.1333 6.24591 19.9109 5.13926C20.7783 3.85315 20.5988 2.35767 20.3895 1.40056C20.3596 1.2211 20.4493 1.07155 20.6287 1.01173C20.7185 0.981824 20.8381 1.01173 20.8979 1.07155C23.1711 2.86613 23.6795 6.12627 22.0345 8.48913Z" fill="#F79422"/>
<path d="M22.0345 8.48913C21.6158 9.05741 21.1372 9.59579 20.5689 10.0444C20.2997 10.2837 20.0006 10.4632 19.6716 10.6127L19.5221 10.6725L19.4324 10.7024C19.223 10.7623 19.1034 10.7024 18.7145 10.6426L18.5351 10.6127C18.0864 10.523 17.6677 10.2837 17.3387 9.9547C16.6508 9.26678 16.2919 8.48913 16.5311 7.26284C17.4882 7.29275 19.1333 6.24591 19.9109 5.13926C20.7783 3.85315 20.5988 2.35767 20.3895 1.40056C20.3596 1.2211 20.4493 1.07155 20.6287 1.01173C20.7185 0.981824 20.8381 1.01173 20.8979 1.07155C23.1711 2.86613 23.6795 6.12627 22.0345 8.48913Z" stroke="#221F1F" stroke-width="0.3" stroke-linejoin="round"/>
<path d="M19.4329 10.7024L19.3132 11.3604C18.5057 10.8819 17.1298 10.164 16.083 10.0145C14.9464 9.83504 14.1688 9.7154 13.5407 9.62567L13.1519 5.79724C13.8398 5.82715 14.5277 6.03652 15.1558 6.36552C15.6344 6.6048 16.0531 6.93381 16.412 7.29272L16.5316 7.26281C16.2924 8.4592 16.6513 9.26675 17.3392 9.95467C17.6682 10.2837 18.0869 10.523 18.5356 10.6127C18.5655 10.6127 18.6851 10.6725 18.715 10.6725C18.9543 10.7622 19.1936 10.7622 19.4329 10.7024Z" fill="#5A595C"/>
<path d="M19.4329 10.7024L19.3132 11.3604C18.5057 10.8819 17.1298 10.164 16.083 10.0145C14.9464 9.83504 14.1688 9.7154 13.5407 9.62567L13.1519 5.79724C13.8398 5.82715 14.5277 6.03652 15.1558 6.36552C15.6344 6.6048 16.0531 6.93381 16.412 7.29272L16.5316 7.26281C16.2924 8.4592 16.6513 9.26675 17.3392 9.95467C17.6682 10.2837 18.0869 10.523 18.5356 10.6127L18.715 10.6426C19.1039 10.7024 19.2235 10.7622 19.4329 10.7024Z" stroke="#221F1F" stroke-width="0.3" stroke-linejoin="round"/>
<path d="M13.1519 5.79724H13.0322" stroke="#221F1F" stroke-linejoin="round"/>
<path d="M10.9683 18.0902C11.1776 18.15 11.4169 18.1201 11.6263 18.0004C11.9553 17.8808 12.1646 17.5518 12.1347 17.1929C12.1048 17.5518 12.3142 17.8808 12.6432 18.0004C12.8526 18.0902 13.0619 18.1201 13.2713 18.0902" stroke="#171717" stroke-width="0.3" stroke-linecap="round" stroke-linejoin="round"/>
<path d="M13.301 16.1759C13.301 16.5349 12.7626 17.0134 12.1046 17.0134C11.4466 17.0134 10.9082 16.5349 10.9082 16.1759C10.9082 15.817 11.4466 15.6974 12.1046 15.6974C12.7626 15.6974 13.301 15.8469 13.301 16.1759Z" fill="#171717"/>
<path d="M12.5838 16.0563C12.5838 16.146 12.3445 16.2656 12.0754 16.2656C11.8062 16.2656 11.5669 16.146 11.5669 16.0862C11.5669 16.0264 11.8062 16.0264 12.0754 16.0264C12.3445 16.0264 12.5838 15.9665 12.5838 16.0563Z" fill="white"/>
<path d="M10.2205 17.1929C10.1906 17.6116 10.4598 17.9705 10.8785 18.0602H10.9683" stroke="#171717" stroke-width="0.3" stroke-linecap="round" stroke-linejoin="round"/>
<path d="M12.1348 16.7742C12.1348 16.9237 12.1348 17.0434 12.1348 17.1929" stroke="#171717" stroke-width="0.3" stroke-linecap="round" stroke-linejoin="round"/>
<path d="M13.3008 18.09H13.3905C13.8092 18.0003 14.1083 17.6414 14.0485 17.2227" stroke="#171717" stroke-width="0.3" stroke-linecap="round" stroke-linejoin="round"/>
<path d="M9.92177 14.2318C9.92177 14.8898 9.53294 15.3983 9.05439 15.3983C8.57584 15.3983 8.18701 14.8599 8.18701 14.2318C8.18701 13.6635 8.48611 13.1849 8.87493 13.0653L9.83204 13.7831C9.89186 13.9327 9.92177 14.0822 9.92177 14.2318Z" fill="#221F1F"/>
<path d="M9.59282 14.0822C9.59282 14.3215 9.44327 14.5009 9.29372 14.5009C9.14418 14.5009 8.99463 14.3215 8.99463 14.0822C8.99463 13.8429 9.14418 13.6635 9.29372 13.6635C9.44327 13.6635 9.59282 13.8429 9.59282 14.0822Z" fill="white"/>
<path d="M8.87428 15.1291C8.54527 15.3983 8.24618 15.6974 7.97699 16.0264C7.85735 16.1759 7.73772 16.3554 7.64799 16.5648C7.55826 16.7442 7.49844 16.9536 7.46853 17.1629C7.43862 17.2527 7.43862 17.3723 7.43862 17.462V17.6116V17.7611C7.43862 17.9705 7.43862 18.1799 7.43862 18.4191C7.46853 18.6285 7.49844 18.8678 7.52835 19.0772C7.55826 19.1968 7.55826 19.2865 7.58817 19.4062C7.61808 19.4959 7.64799 19.6155 7.70781 19.7053C7.64799 19.6155 7.61808 19.4959 7.55826 19.4062C7.52835 19.3164 7.46853 19.1968 7.43862 19.1071C7.3788 18.8977 7.31898 18.6883 7.25916 18.4491C7.22925 18.2397 7.19934 18.0004 7.16943 17.791V17.6415V17.462C7.16943 17.3424 7.16943 17.2228 7.16943 17.133C7.19934 16.8938 7.22925 16.6545 7.31898 16.4451C7.40871 16.2357 7.49844 16.0264 7.61808 15.817C7.88726 15.4282 8.15645 15.0693 8.48546 14.7702C8.60509 14.6804 8.75464 14.6804 8.87428 14.7702C8.96401 14.83 8.99392 15.0095 8.87428 15.1291Z" fill="#221F1F"/>
<path d="M8.66484 15.0394C8.63493 15.0394 8.63493 15.0394 8.60502 15.0394H8.57511H8.51529L8.36574 15.0094C8.27601 14.9795 8.18628 14.9795 8.09655 14.9795C7.9171 14.9795 7.70773 14.9795 7.52827 15.0394C7.43854 15.0693 7.34881 15.0992 7.25908 15.1291C6.9899 15.2487 6.75062 15.4581 6.60107 15.6974C6.6908 15.488 6.78053 15.3085 6.93008 15.159C6.9899 15.0693 7.07963 15.0094 7.16936 14.9496C7.25909 14.8898 7.34881 14.83 7.43854 14.7702C7.618 14.6505 7.82737 14.5907 8.06664 14.5309C8.18628 14.501 8.27601 14.501 8.39565 14.501C8.45547 14.501 8.51529 14.501 8.57511 14.501H8.69475C8.84429 14.501 8.96393 14.6206 8.99384 14.7702C9.02375 14.9197 8.84429 15.0394 8.66484 15.0394Z" fill="#221F1F"/>
<path d="M16.053 14.2318C16.053 14.8898 15.6642 15.3983 15.2155 15.3983C14.7669 15.3983 14.3481 14.8599 14.3481 14.2318C14.3481 14.0822 14.3781 13.9327 14.408 13.7831L15.3651 13.0653C15.7539 13.1849 16.053 13.6635 16.053 14.2318Z" fill="#221F1F"/>
<path d="M14.647 14.0822C14.647 14.3215 14.7965 14.5009 14.9461 14.5009C15.0956 14.5009 15.2452 14.3215 15.2452 14.0822C15.2452 13.8429 15.0956 13.6635 14.9461 13.6635C14.7965 13.6635 14.647 13.8429 14.647 14.0822Z" fill="white"/>
<path d="M15.7538 14.7103C16.0828 15.0393 16.352 15.3683 16.5913 15.7571C16.7109 15.9366 16.8306 16.146 16.9203 16.3553C17.01 16.5647 17.0698 16.804 17.0998 17.0133C17.1297 17.2526 17.1297 17.462 17.0998 17.7013C17.0698 17.9106 17.0399 18.1499 17.01 18.3593C16.9801 18.5686 16.9203 18.778 16.8605 18.9874C16.8306 19.0771 16.8007 19.1967 16.7408 19.2865C16.7109 19.3762 16.6511 19.4958 16.5913 19.5856C16.6212 19.4958 16.681 19.3762 16.7109 19.2865C16.7408 19.1967 16.7707 19.0771 16.8007 18.9874C16.8306 18.778 16.8904 18.5686 16.8904 18.3593C16.9203 18.1499 16.9203 17.9405 16.9203 17.7013C16.9203 17.4919 16.8904 17.2825 16.8605 17.0732C16.8007 16.8638 16.7408 16.6843 16.6511 16.5049C16.5614 16.3254 16.4417 16.146 16.2922 15.9964C16.023 15.6674 15.7239 15.3683 15.3949 15.0991C15.2753 14.9795 15.2753 14.8299 15.3949 14.7103C15.4846 14.6206 15.6342 14.5907 15.7538 14.6804V14.7103Z" fill="#221F1F"/>
<path d="M15.5746 14.501H15.7241C15.7839 14.501 15.8438 14.501 15.9036 14.501C16.0232 14.501 16.1429 14.501 16.2625 14.5309C16.5018 14.5608 16.7111 14.6206 16.9205 14.7103C17.1299 14.8001 17.3093 14.9496 17.4888 15.0992C17.6383 15.2487 17.758 15.4581 17.8477 15.6375C17.7281 15.4581 17.5785 15.3085 17.3991 15.1889C17.2196 15.0693 17.0402 14.9795 16.8308 14.9496C16.6214 14.9197 16.4121 14.9197 16.2027 14.9197C16.113 14.9197 15.9933 14.9496 15.9036 14.9496L15.754 14.9795H15.6942H15.6643H15.6344H15.6045C15.4549 15.0094 15.3054 14.8898 15.3054 14.7403C15.2755 14.5907 15.3951 14.4412 15.5447 14.4412C15.5746 14.4412 15.5746 14.4412 15.6045 14.4412" fill="#221F1F"/>
</g>
</svg>
