<svg width="24" height="24" viewBox="0 0 24 24" fill="none" xmlns="http://www.w3.org/2000/svg">
<mask id="mask0_1523_9397" style="mask-type:alpha" maskUnits="userSpaceOnUse" x="0" y="0" width="24" height="24">
<path d="M20 0H4C1.79086 0 0 1.79086 0 4V20C0 22.2091 1.79086 24 4 24H20C22.2091 24 24 22.2091 24 20V4C24 1.79086 22.2091 0 20 0Z" fill="#62964E"/>
</mask>
<g mask="url(#mask0_1523_9397)">
<path d="M20 0H4C1.79086 0 0 1.79086 0 4V20C0 22.2091 1.79086 24 4 24H20C22.2091 24 24 22.2091 24 20V4C24 1.79086 22.2091 0 20 0Z" fill="#62964E"/>
<path d="M5.07184 8.34113C4.87633 8.23187 4.70957 8.15136 4.54856 8.05361C4.31279 7.90985 4.18628 7.70283 4.22653 7.41531C4.24379 7.3003 4.26104 7.18529 4.28979 7.07604C4.42205 6.55275 4.54281 6.01796 4.70957 5.50042C4.77857 5.27616 4.93384 5.07489 5.05459 4.86788C5.33061 4.39059 5.72164 4.02832 6.18743 3.74655C6.35994 3.64304 6.55545 3.58554 6.74521 3.52228C6.88322 3.47628 6.95798 3.40152 7.02699 3.26926C7.10174 3.11975 7.211 2.95874 7.34901 2.87824C7.83779 2.58496 8.34958 2.34345 8.93037 2.30319C9.2754 2.27444 9.61467 2.26294 9.87919 2.55621C9.91944 2.60222 10.0402 2.59647 10.1207 2.57921C10.8108 2.44695 11.5008 2.28594 12.1966 2.16518C13.2489 1.98692 14.3013 1.84316 15.3708 1.91217C15.8539 1.94092 16.3197 2.05593 16.7739 2.20544C17.395 2.41245 17.9125 2.76898 18.3553 3.25776C18.7981 3.74655 19.0511 4.29859 19.1029 4.96564C19.1834 6.02371 19.3099 7.08179 19.4019 8.13986C19.4249 8.36988 19.5111 8.49064 19.7354 8.55389C20.4427 8.75516 21.081 9.11168 21.6963 9.49696C21.9953 9.68672 22.2943 9.86499 22.5934 10.049C22.8694 10.2158 23.0764 10.739 22.9729 11.0438C22.9039 11.2451 22.6336 11.3371 22.3806 11.2278C22.0528 11.0898 21.7365 10.9346 21.4088 10.8081C21.0005 10.6528 20.5807 10.5263 20.1724 10.3653C19.8274 10.233 19.4709 10.2273 19.1144 10.2215C19.0338 10.2215 18.9591 10.233 18.8786 10.2388C18.8728 10.256 18.8671 10.2675 18.8556 10.2848C18.9016 10.325 18.9476 10.3653 18.9993 10.3998C19.2466 10.5665 19.4996 10.7275 19.7411 10.9058C19.8159 10.9576 19.8734 11.0553 19.9079 11.1416C19.9482 11.2393 19.9252 11.3256 19.8217 11.3946C19.7699 11.4291 19.7239 11.5039 19.7239 11.5614C19.7239 11.9409 19.7296 12.3204 19.7469 12.6999C19.7699 13.252 19.5801 13.7178 19.2006 14.1088C18.9993 14.3158 19.0051 14.3158 19.2006 14.5228C19.4479 14.7816 19.6779 15.0576 19.7814 15.4141C19.7987 15.4716 19.8504 15.5176 19.8849 15.5694C19.9884 15.7132 20.1092 15.8512 20.1897 16.0064C20.4082 16.4205 20.3564 16.6965 20.0287 17.0358C19.8677 17.2083 19.7181 17.3923 19.5629 17.5705C19.4881 17.6625 19.4939 17.7488 19.5629 17.8523C19.7526 18.1456 19.7296 18.4216 19.5169 18.7034C19.4134 18.8414 19.2869 18.9679 19.2006 19.1174C19.1489 19.2037 19.1144 19.3302 19.1431 19.4222C19.2696 19.8305 19.1431 20.1755 18.9246 20.5032C18.8326 20.647 18.7118 20.7793 18.5968 20.9058C18.4876 21.0208 18.5048 21.1243 18.5853 21.2451C18.7233 21.4636 18.9476 21.5498 19.1546 21.6591C19.8274 22.0156 20.3967 22.4756 20.8337 23.1024C20.9027 23.2059 21.0062 23.2922 21.0752 23.3957C21.2363 23.6315 21.3915 23.873 21.5468 24.1203C21.6158 24.2295 21.6733 24.356 21.748 24.4653C22.0183 24.8621 22.2023 25.2933 22.3518 25.7476C22.4438 26.0236 22.3518 26.2652 22.1161 26.4319C21.6848 26.7367 21.219 26.9897 20.7015 27.099C20.3392 27.1795 19.9712 27.2657 19.5974 27.3002C19.2581 27.3347 18.9188 27.3002 18.5796 27.2887C18.4473 27.2887 18.315 27.2772 18.1828 27.2657C17.7458 27.2312 17.3087 27.1967 16.8717 27.1507C16.4979 27.1105 16.1874 26.9092 15.8826 26.7137C15.5491 26.5009 15.2328 26.2652 14.8993 26.0639C14.721 25.9604 14.6118 25.8224 14.5428 25.6384C14.4738 25.4486 14.3933 25.4371 14.2898 25.6039C14.1057 25.8914 13.8412 26.0466 13.5307 26.1732C12.9844 26.4032 12.4266 26.4837 11.8401 26.4722C11.1213 26.4607 10.4082 26.4722 9.68943 26.5067C9.17189 26.5297 8.65435 26.6274 8.13681 26.6504C7.74004 26.6734 7.34326 26.6389 6.94648 26.6274C6.88898 26.6274 6.83147 26.6102 6.77397 26.6159C6.02641 26.6389 5.28461 26.5239 4.56006 26.3687C4.00227 26.2479 3.44448 26.0984 2.92119 25.8856C2.3864 25.6671 1.85736 25.3911 1.38008 25.0691C0.95455 24.7873 0.655529 24.3618 0.448514 23.8845C0.212747 23.344 0.0517353 22.7862 0.005732 22.1996C-0.0172696 21.9179 0.0344841 21.6246 0.0632361 21.3371C0.103489 20.923 0.149492 20.5148 0.195496 20.1007C0.247249 19.6579 0.304753 19.2094 0.362258 18.7666C0.431263 18.2433 0.483016 17.7085 0.586524 17.191C0.684281 16.7022 0.828041 16.2192 0.95455 15.7362C1.15006 14.9541 1.51809 14.2468 1.88037 13.5337C2.22539 12.8552 2.58192 12.1767 2.94994 11.5096C3.27772 10.9116 3.61124 10.3135 3.97927 9.74423C4.20353 9.3992 4.4968 9.10018 4.75557 8.77241C4.86483 8.6344 4.96834 8.48489 5.0776 8.33538L5.07184 8.34113ZM14.0885 10.6125C14.0885 10.6125 14.1287 10.5953 14.146 10.5895C14.1345 10.5205 14.146 10.44 14.1172 10.3768C14.0367 10.2043 13.9275 10.0432 13.8585 9.87074C13.7895 9.68672 13.6687 9.66372 13.4904 9.68097C12.3289 9.80173 11.1788 10.0202 10.0114 10.0663C9.45941 10.0835 8.91312 10.0548 8.38983 9.86499C8.02756 9.73273 7.67678 9.56021 7.30876 9.43946C6.92923 9.3187 6.65321 9.05993 6.37144 8.80691C6.31968 8.76091 6.26793 8.7034 6.21043 8.6804C5.93441 8.58264 5.65264 8.49064 5.37087 8.41588C5.30761 8.39863 5.1926 8.42738 5.15235 8.47914C4.92233 8.7264 4.69232 8.97942 4.4853 9.24969C3.99652 9.88799 3.58249 10.578 3.20871 11.2911C2.90394 11.8719 2.60492 12.4584 2.30015 13.0392C2.11613 13.3957 1.90337 13.7465 1.74811 14.1145C1.52384 14.6378 1.28232 15.1554 1.12131 15.7074C0.983302 16.1904 0.82229 16.662 0.747535 17.1623C0.67278 17.6625 0.603775 18.1628 0.53477 18.6689C0.483016 19.0369 0.437013 19.4107 0.39101 19.7844C0.356507 20.0777 0.333505 20.371 0.299003 20.6643C0.264501 20.946 0.224248 21.2221 0.195496 21.5038C0.172494 21.7108 0.12074 21.9236 0.149492 22.1191C0.206996 22.5159 0.281752 22.9184 0.39101 23.3037C0.546271 23.8557 0.81079 24.3503 1.23057 24.7528C1.74236 25.2473 2.3979 25.5004 3.03045 25.7649C3.57099 25.9949 4.13453 26.1674 4.72682 26.2364C5.22136 26.2939 5.71014 26.3744 6.19893 26.4262C6.45769 26.4549 6.71646 26.4607 6.97523 26.4664C7.43526 26.4779 7.90105 26.5009 8.36108 26.4837C8.90737 26.4607 9.45366 26.3802 9.99995 26.3572C10.8108 26.3284 11.6158 26.3284 12.4266 26.3169C12.4784 26.3169 12.5301 26.3169 12.5819 26.2997C13.0189 26.1559 13.4789 26.0524 13.8815 25.8511C14.1 25.7419 14.2265 25.4486 14.3933 25.2416C14.4048 25.2243 14.3933 25.1956 14.3933 25.1726C14.3933 24.9483 14.4048 24.7183 14.3933 24.494C14.3875 24.3905 14.3588 24.2698 14.307 24.1835C14.1 23.85 13.8872 23.528 13.594 23.2519C13.4157 23.0852 13.2662 22.8609 13.2834 22.5964C13.3007 22.2456 13.663 21.9294 14.0137 21.9121C14.2725 21.9006 14.4853 21.9984 14.6405 22.1709C14.79 22.0731 14.9281 21.9926 15.0603 21.9006C15.2443 21.7626 15.4398 21.6361 15.6008 21.4693C16.0379 21.0323 16.5209 20.6643 17.1017 20.4342C17.4295 20.302 17.7573 20.2962 18.039 20.5665C18.131 20.6528 18.2288 20.739 18.3323 20.808C18.3783 20.8368 18.4761 20.8425 18.5048 20.808C18.7348 20.578 18.9591 20.3365 19.0281 20.003C19.0626 19.8247 19.0338 19.6349 19.0338 19.3992C18.9361 19.4682 18.8843 19.5084 18.8268 19.5487C18.4703 19.8017 18.085 19.9397 17.6422 19.888C17.372 19.8592 17.1017 19.8477 16.8257 19.8592C16.2104 19.8765 15.5893 19.934 14.9741 19.9397C14.3703 19.9455 13.7607 19.9225 13.1512 19.8995C12.9729 19.8937 12.8004 19.8535 12.6221 19.819C12.4266 19.7844 12.2311 19.7327 12.0298 19.7039C11.5123 19.6349 10.9948 19.6004 10.5117 19.3704C10.0977 19.1749 9.68368 18.9794 9.28115 18.7724C8.87287 18.5654 8.48759 18.3123 8.07356 18.1341C7.57902 17.9213 7.13049 17.6453 6.72221 17.306C6.61871 17.2198 6.5267 17.1048 6.4807 16.9782C6.38294 16.731 6.42894 16.4895 6.58995 16.2767C6.71646 16.1042 6.90623 16.1157 7.07874 16.1444C7.36626 16.2019 7.65378 16.2767 7.93555 16.3572C8.41283 16.4895 8.88437 16.662 9.3674 16.7712C10.0805 16.938 10.7993 17.0703 11.5238 17.2083C11.9436 17.2888 12.3634 17.3578 12.7889 17.4038C13.3122 17.467 13.8355 17.5073 14.3588 17.5533C14.629 17.5763 14.8993 17.5935 15.1696 17.6108C15.6239 17.6395 16.0781 17.6798 16.5324 17.6913C16.8774 17.697 17.2282 17.6855 17.5732 17.651C17.9585 17.6108 18.3553 17.5935 18.6831 17.352C19.2351 16.9495 19.5571 16.3917 19.6779 15.7247C19.7584 15.2704 19.3789 14.7413 18.9821 14.4941C18.7981 14.8793 18.4588 14.9829 18.062 14.9714C17.9758 14.9714 17.855 15.0116 17.8493 14.8736C17.8493 14.8448 17.9815 14.7988 18.0563 14.7873C18.1655 14.7701 18.2748 14.7873 18.384 14.7701C18.5911 14.7413 18.7291 14.6206 18.7578 14.4538C18.5968 14.4538 18.4358 14.4653 18.2748 14.4538C18.1828 14.4423 18.0965 14.3848 18.0103 14.3503C18.1023 14.3273 18.1943 14.2756 18.2863 14.2813C18.5393 14.2928 18.7866 14.2813 18.9936 14.1203C19.2581 13.9133 19.4479 13.643 19.5629 13.3267C19.5974 13.2347 19.5916 13.1312 19.6089 13.0277C19.5801 13.0105 19.5514 12.999 19.5226 12.9817C19.4824 13.045 19.4479 13.114 19.3961 13.1657C19.2581 13.3037 19.1201 13.4475 18.9591 13.5568C18.5566 13.8328 18.085 13.827 17.625 13.8385C17.326 13.8443 17.027 13.8213 16.7222 13.8098C16.2851 13.7983 15.8481 13.7925 15.4226 13.6545C15.1466 13.5683 15.0546 13.4475 15.1178 13.1715C15.1868 12.8725 15.3766 12.6482 15.5778 12.4297C15.7159 12.2802 15.8424 12.1249 15.9689 11.9696C16.2564 11.6189 16.6187 11.3371 17.0442 11.2163C17.5847 11.0668 18.1425 11.1071 18.6946 11.2163C18.9361 11.2623 19.1374 11.3716 19.2639 11.6016C19.3214 11.7109 19.4019 11.8144 19.4824 11.9179C19.5054 11.9524 19.5456 11.9696 19.5744 11.9984C19.5916 11.9926 19.6089 11.9869 19.6261 11.9811C19.6146 11.7799 19.6089 11.5729 19.5801 11.3716C19.5686 11.2853 19.5054 11.1761 19.4364 11.1416C19.2524 11.0496 19.0568 10.9691 18.8613 10.9288C18.5738 10.8771 18.2748 10.8598 17.9815 10.8368C17.3547 10.7966 16.7394 10.8253 16.2046 11.2163C16.0321 11.3428 15.8826 11.4981 15.7159 11.6304C15.6814 11.6591 15.6181 11.6534 15.5663 11.6649C15.5663 11.6189 15.5491 11.5556 15.5721 11.5326C15.9689 11.0956 16.4289 10.7793 17.027 10.693C17.6422 10.6068 18.2518 10.6873 18.8613 10.739C19.1719 10.7678 19.4536 10.8771 19.6836 11.1013C19.7066 11.1243 19.7469 11.1301 19.7757 11.1473C19.7814 11.1358 19.7929 11.1186 19.7987 11.1071C19.5226 10.8253 19.2121 10.5378 18.8326 10.463C18.0333 10.3078 17.2282 10.279 16.4519 10.6183C16.4117 10.6355 16.3484 10.6183 16.2967 10.6183C16.3254 10.5665 16.3369 10.4918 16.3772 10.4745C16.5152 10.4055 16.6589 10.325 16.8084 10.302C17.372 10.2158 17.9413 10.141 18.5163 10.2388C18.5566 10.2445 18.6026 10.2273 18.6486 10.2215C18.6371 10.1755 18.6486 10.118 18.6141 10.0835C18.3035 9.70397 17.9528 9.3877 17.4122 9.4107C16.6072 9.43946 15.8079 9.45671 15.0028 9.49696C14.6693 9.51421 14.3358 9.59472 13.962 9.64647C14.031 9.76723 14.077 9.84199 14.1172 9.92249C14.2553 10.1755 14.4163 10.4228 14.33 10.739C14.3185 10.7851 14.353 10.8483 14.3875 10.8886C14.4795 11.0036 14.5945 11.1071 14.6865 11.2221C14.9626 11.5786 14.9568 11.9926 14.9396 12.4124C14.9396 12.4354 14.8878 12.4584 14.859 12.4872C14.836 12.4584 14.7958 12.4297 14.79 12.4009C14.7728 12.2457 14.7785 12.0846 14.7498 11.9351C14.7095 11.7511 14.6923 11.5326 14.5773 11.4003C14.2783 11.0553 13.939 10.7333 13.594 10.4285C13.4904 10.3365 13.3122 10.302 13.1627 10.2905C12.8694 10.2675 12.5704 10.279 12.2771 10.279C12.2426 10.279 12.2081 10.302 12.1219 10.3308C12.2369 10.3825 12.3001 10.417 12.3634 10.44C12.6394 10.532 12.9039 10.647 13.1167 10.8483C13.548 11.2566 13.985 11.6591 14.4105 12.0789C14.6635 12.3262 14.8418 12.6252 14.836 12.999C14.836 13.0507 14.79 13.1025 14.767 13.1542C14.7383 13.1082 14.6808 13.0622 14.675 13.0105C14.6405 12.6712 14.4853 12.3952 14.238 12.1652C13.9332 11.8834 13.6055 11.6189 13.3294 11.3141C13.0017 10.9576 12.6221 10.6988 12.1621 10.532C11.7021 10.3653 11.242 10.2503 10.7475 10.279C10.2472 10.3078 9.74118 10.2963 9.24089 10.3193C9.00513 10.3308 8.76361 10.3538 8.54509 10.4285C8.32083 10.5033 8.09656 10.6125 7.91255 10.7621C7.66528 10.9633 7.45827 11.2048 7.2455 11.4406C7.1765 11.5211 7.13049 11.6419 7.11324 11.7454C7.08449 11.9006 7.1765 11.9696 7.32026 11.9006C7.41226 11.8546 7.49852 11.7741 7.55602 11.6879C7.77454 11.3543 8.05631 11.0956 8.43584 10.9633C9.19489 10.6873 9.9827 10.6068 10.7878 10.601C11.2823 10.601 11.7078 10.7678 12.1219 11.0208C12.4669 11.2336 12.8349 11.4233 13.2029 11.6016C13.525 11.7626 13.801 11.9696 13.962 12.2859C14.123 12.6022 14.238 12.9472 14.376 13.275C14.399 13.3325 14.4393 13.39 14.491 13.4245C14.6693 13.5395 14.7785 13.7005 14.7153 13.8845C14.6693 14.011 14.56 14.1318 14.445 14.2008C14.1115 14.4193 13.755 14.6033 13.5135 14.9311C13.4732 14.9829 13.4329 15.0289 13.3869 15.0749C13.1282 15.3624 12.8407 15.6269 12.4726 15.7707C12.0643 15.9317 11.6503 16.0812 11.2363 16.2192C11.0868 16.2709 10.9258 16.2939 10.7648 16.3112C10.7245 16.3112 10.6727 16.2652 10.6267 16.2422C10.667 16.2134 10.7072 16.1732 10.7533 16.1559C10.9028 16.1099 11.058 16.0869 11.2018 16.0409C11.3915 15.9777 11.5756 15.8799 11.7653 15.8224C12.2139 15.6959 12.6451 15.5349 12.9902 15.2071C13.1799 15.0231 13.3582 14.8218 13.5767 14.5976C13.4674 14.5861 13.4214 14.5803 13.3697 14.5746C13.0592 14.5573 12.7486 14.5573 12.4381 14.5286C11.7366 14.4653 11.035 14.3963 10.3392 14.3158C9.9712 14.2698 9.61467 14.149 9.31565 13.919C9.01088 13.6833 8.72911 13.413 8.44734 13.1542C8.42434 13.1312 8.43009 13.0795 8.41859 13.0392C8.45884 13.0335 8.50484 13.0047 8.53934 13.022C8.59685 13.045 8.6486 13.0852 8.6946 13.1255C8.89012 13.3037 9.08563 13.4877 9.28115 13.666C9.61467 13.965 10.0172 14.1145 10.46 14.1548C11.2305 14.2238 12.0011 14.2871 12.7716 14.3561C12.9039 14.3676 13.0362 14.3561 13.1684 14.3848C13.5077 14.4481 13.824 14.3733 14.1172 14.2008C14.2495 14.1203 14.376 14.0283 14.4853 13.919C14.5255 13.8788 14.537 13.7695 14.514 13.7063C14.4968 13.6545 14.4048 13.5913 14.3588 13.6028C14.1805 13.6373 14.0022 13.6833 13.8355 13.7523C13.3639 13.9535 12.8752 14.0455 12.3634 13.9593C11.9321 13.8845 11.5008 13.804 11.0753 13.712C10.851 13.6603 10.6325 13.5855 10.414 13.5107C10.046 13.3785 9.66067 13.2922 9.3674 12.999C9.16614 12.7977 8.93612 12.6367 8.6601 12.5447C8.39558 12.4527 8.13681 12.3377 7.8723 12.2342C7.66528 12.1537 7.48127 12.0329 7.234 12.0904C7.06724 12.1306 6.94073 12.0214 6.92923 11.8604C6.91198 11.6591 6.95223 11.4694 7.10174 11.3141C7.2455 11.1703 7.39501 11.0323 7.52152 10.8771C8.01606 10.2848 8.67735 10.1123 9.41341 10.1238C9.68368 10.1238 9.95395 10.1238 10.2242 10.1238C10.3335 10.1238 10.4427 10.1008 10.552 10.1008C11.1673 10.1008 11.7883 10.1123 12.4036 10.1123C12.5761 10.1123 12.7486 10.0893 12.9212 10.0893C13.2949 10.0893 13.6457 10.1525 13.916 10.4515C13.9677 10.509 14.031 10.5608 14.0827 10.6125H14.0885ZM18.3208 9.52571C18.4818 9.70973 18.6313 9.88799 18.7981 10.0548C18.8326 10.0893 18.9246 10.0778 18.9878 10.0835C19.3156 10.095 19.6549 10.0548 19.9654 10.1295C20.4369 10.2388 20.8912 10.4228 21.3455 10.5953C21.7193 10.739 22.0758 10.9116 22.4438 11.0668C22.6911 11.1703 22.8234 11.0841 22.8291 10.8138C22.8349 10.5378 22.7026 10.3365 22.4956 10.1813C22.3863 10.1008 22.2713 10.0202 22.1563 9.94549C21.8228 9.73273 21.4778 9.54871 21.0867 9.46821C20.7245 9.39345 20.3622 9.3302 19.9999 9.25544C18.5623 8.94492 17.1075 8.81841 15.6411 8.87017C15.1868 8.88742 14.7268 8.90467 14.2725 8.95067C13.8125 8.99667 13.3582 9.08868 12.8982 9.15194C12.4784 9.20944 12.0586 9.24394 11.6388 9.28995C11.1213 9.34745 10.6037 9.39345 10.092 9.47396C9.41916 9.57747 8.77511 9.47396 8.14257 9.27269C7.80329 9.16919 7.49852 8.96792 7.18225 8.80116C7.13049 8.77241 7.11899 8.6804 7.08449 8.61715C7.15349 8.60565 7.2225 8.57689 7.28575 8.58839C7.49277 8.6229 7.69403 8.7149 7.8953 8.7149C8.32658 8.7149 8.76361 8.7034 9.18914 8.62865C10.1667 8.45614 11.1385 8.23187 12.1161 8.05361C12.7716 7.9386 13.4329 7.84084 14.0942 7.79484C14.836 7.74308 15.5836 7.77184 16.3312 7.74883C17.2857 7.72008 18.1828 8.0076 19.0971 8.19162C19.2121 8.21462 19.2754 8.23187 19.2581 8.07661C19.1489 7.00703 19.0396 5.93746 18.9361 4.86788C18.8901 4.40785 18.7521 3.99382 18.4703 3.62004C17.6883 2.59072 16.6014 2.17093 15.3593 2.07318C14.4105 1.99842 13.4732 2.07318 12.5474 2.25144C11.7366 2.4067 10.92 2.54471 10.115 2.74023C9.12589 2.97599 8.14257 3.25201 7.165 3.52803C6.86022 3.61429 6.5612 3.73505 6.28518 3.88456C5.8194 4.13758 5.45712 4.5171 5.17535 4.97139C5.09485 5.0979 4.98559 5.21865 4.94534 5.35666C4.75557 6.02946 4.58881 6.70801 4.4163 7.38656C4.37029 7.57057 4.43355 7.72583 4.57731 7.83509C4.71532 7.94435 4.85908 8.06511 5.02584 8.12836C5.41112 8.27212 5.8079 8.37563 6.19893 8.50214C6.29668 8.53664 6.38869 8.5999 6.47495 8.66315C6.64171 8.79541 6.77972 8.97942 6.96373 9.06568C7.44677 9.30145 7.9413 9.51996 8.44159 9.69822C9.01663 9.90524 9.62617 9.96274 10.2357 9.90524C11.2363 9.80173 12.2311 9.68672 13.2317 9.57747C13.4559 9.55446 13.6802 9.53721 13.9045 9.49696C14.629 9.3532 15.3593 9.31295 16.0954 9.28419C16.8544 9.25544 17.6077 9.20944 18.361 9.3302C18.8786 9.41645 19.4076 9.43946 19.9252 9.53146C20.6325 9.65797 21.3168 9.87074 21.9263 10.2733C21.9723 10.3078 22.0011 10.371 22.0356 10.4228C21.9723 10.4228 21.9033 10.4458 21.8573 10.4228C21.7308 10.3653 21.6215 10.279 21.495 10.2215C20.6497 9.82473 19.7469 9.62922 18.8211 9.52571C18.6543 9.50846 18.4876 9.52571 18.338 9.52571H18.3208ZM17.9873 22.9069C17.9873 22.9069 18.016 22.9357 18.0275 22.9529C18.085 22.9127 18.1425 22.8782 18.2 22.8322C18.4013 22.6712 18.6026 22.5044 18.8096 22.3491C18.8383 22.3261 18.9016 22.3491 18.9476 22.3491C18.9361 22.3951 18.9361 22.4526 18.9016 22.4814C18.8153 22.5561 18.7118 22.6137 18.6256 22.6942C18.2575 23.0449 17.832 23.321 17.372 23.5222C16.9809 23.6947 16.7567 23.9995 16.5669 24.3445C16.5267 24.4193 16.5209 24.5515 16.5554 24.6378C16.6762 24.9368 16.9004 25.1668 17.188 25.2991C17.5157 25.4486 17.7803 25.4946 17.9815 25.0461C18.1828 24.5975 18.4703 24.1778 18.9361 23.9362C18.9763 23.9132 19.0281 23.9247 19.0741 23.919C19.0626 23.9707 19.0511 24.0225 19.0338 24.0685C19.0223 24.0915 18.9936 24.1088 18.9706 24.1203C18.5968 24.3273 18.4128 24.6953 18.1885 25.0288C18.1138 25.1438 18.062 25.2761 18.016 25.4026C17.947 25.5924 18.0563 25.8626 18.2115 25.8799C18.4531 25.9086 18.6946 25.9201 18.9361 25.9201C19.0051 25.9201 19.0856 25.8799 19.1316 25.8339C19.3156 25.6441 19.4881 25.4429 19.6664 25.2473C19.8447 25.0518 20.0287 24.8563 20.2127 24.6665C20.2414 24.6378 20.3047 24.6435 20.3449 24.6378C20.3392 24.6896 20.3334 24.7356 20.3219 24.7873C20.3219 24.7988 20.3047 24.8046 20.2989 24.8103C20.0172 25.1036 19.7411 25.3911 19.4594 25.6844C19.2869 25.8626 19.3329 26.2192 19.5456 26.2882C19.7814 26.3572 20.0229 26.3514 20.2069 26.1617C20.3679 25.9949 20.506 25.8109 20.6612 25.6384C20.7935 25.4831 20.9257 25.3336 21.0637 25.1841C21.0925 25.1553 21.1615 25.1668 21.2133 25.1611C21.2075 25.2071 21.2133 25.2646 21.1845 25.2991C20.9027 25.6269 20.621 25.9604 20.3277 26.2767C20.1322 26.4837 19.8734 26.5182 19.5916 26.4779C19.3846 26.4434 19.2869 26.3169 19.2179 26.1387C19.2064 26.1099 19.1374 26.0869 19.0971 26.0812C18.8268 26.0696 18.5566 26.0697 18.292 26.0639C18.0505 26.0581 17.901 25.9316 17.8435 25.7016C17.8148 25.5751 17.7515 25.5521 17.6365 25.5579C17.3892 25.5694 17.1535 25.5234 16.9522 25.3566C16.6474 25.1093 16.3427 24.8621 16.0551 24.5975C15.9171 24.4768 15.7791 24.333 15.7044 24.172C15.6239 23.9938 15.6066 23.7867 15.5778 23.5855C15.5433 23.3095 15.4916 23.2289 15.2271 23.1772C14.8648 23.1024 14.6175 22.9357 14.5888 22.5216C14.583 22.4066 14.4565 22.2744 14.353 22.1996C14.1057 22.0214 13.847 22.0789 13.5767 22.3376C13.4157 22.4871 13.4099 22.6597 13.571 22.9357C13.6112 23.0047 13.6515 23.0794 13.709 23.1369C13.9735 23.39 14.1977 23.6717 14.3933 23.9822C14.4968 24.149 14.5715 24.3158 14.5715 24.5113C14.5715 24.7816 14.56 25.0576 14.6003 25.3221C14.6405 25.5809 14.7095 25.8339 14.9856 25.9776C15.2328 26.1099 15.4743 26.2652 15.6986 26.4377C16.2449 26.8632 16.8429 27.0875 17.5387 27.0875C17.9183 27.0875 18.2978 27.145 18.6773 27.1622C19.0108 27.1737 19.3501 27.2025 19.6779 27.1622C20.0919 27.1162 20.506 27.0185 20.9142 26.915C21.3628 26.8057 21.7538 26.5584 22.1161 26.2824C22.2023 26.2134 22.2656 26.0524 22.2598 25.9374C22.2483 25.7706 22.1908 25.5981 22.1161 25.4429C21.9436 25.0806 21.7308 24.7356 21.564 24.3733C21.3685 23.9535 21.0867 23.6027 20.8107 23.2404C20.3449 22.6137 19.7814 22.1191 19.0971 21.7568C18.8786 21.6418 18.6601 21.5383 18.4991 21.3256C18.338 21.1128 18.1253 20.9403 17.9413 20.7448C17.694 20.486 17.4007 20.5205 17.1075 20.6413C16.6244 20.8368 16.2161 21.1473 15.8366 21.4981C15.7101 21.6188 15.5721 21.7338 15.4283 21.8603C15.5491 21.9524 15.6411 22.0099 15.7159 22.0789C15.9746 22.3204 15.9804 22.5044 15.7274 22.7344C15.6699 22.7919 15.5203 22.8494 15.5088 22.8379C15.4168 22.7172 15.5548 22.6827 15.6124 22.6137C15.6814 22.5331 15.7849 22.4699 15.7044 22.3319C15.5261 22.0214 15.1466 21.9639 14.8935 22.2169C14.698 22.4124 14.7325 22.7747 14.9683 22.8897C15.2673 23.0392 15.5893 23.0909 15.8884 22.9299C16.2046 22.7574 16.5152 22.5504 16.7797 22.3089C17.2225 21.9121 17.8263 22.0559 18.177 22.2916C18.269 22.3491 18.2805 22.4009 18.2 22.4986C18.108 22.6137 18.0563 22.7632 17.9873 22.9012V22.9069ZM19.3904 17.9213C19.2121 18.0651 19.0281 18.1858 18.8728 18.3353C18.6716 18.5309 18.4358 18.6401 18.1655 18.6574C17.6422 18.6861 17.1132 18.7264 16.5899 18.7264C15.8711 18.7264 15.1581 18.7034 14.445 18.6516C13.9447 18.6171 13.4444 18.5309 12.9557 18.4216C12.4726 18.3181 11.9896 18.2433 11.4951 18.2548C10.851 18.2721 10.2357 18.1283 9.63192 17.9213C9.21789 17.7776 8.80386 17.6338 8.38408 17.5073C8.08506 17.421 7.80329 17.306 7.57903 17.0875C7.51577 17.0243 7.48127 16.9265 7.42951 16.846C7.51577 16.869 7.62503 16.869 7.68828 16.9207C7.95855 17.1335 8.25757 17.2658 8.5911 17.3348C8.76361 17.3693 8.93037 17.444 9.10288 17.4958C9.52266 17.628 9.93094 17.7891 10.3565 17.8926C10.69 17.9731 11.0408 18.0076 11.3858 18.0421C11.8343 18.0881 12.2944 18.0593 12.7256 18.1571C13.6515 18.3756 14.5773 18.4791 15.5261 18.4676C15.9459 18.4676 16.3714 18.5021 16.7912 18.4964C17.188 18.4964 17.5847 18.4446 17.9873 18.4389C18.3265 18.4389 18.6083 18.3353 18.8326 18.0766C18.8786 18.0248 18.9303 17.9788 18.9878 17.9386C19.4249 17.628 19.7009 17.1738 20.0574 16.7885C20.0804 16.7655 20.0919 16.731 20.1092 16.6965C20.2587 16.409 20.1494 15.9777 19.8619 15.7649C19.8044 16.3169 19.5226 16.754 19.2006 17.1738C18.9936 17.444 18.7233 17.628 18.3956 17.7258C17.7228 17.9156 17.0327 17.9271 16.3484 17.9041C15.3133 17.8638 14.284 17.7718 13.2547 17.6798C12.6969 17.628 12.1449 17.5418 11.5928 17.4383C11.012 17.3348 10.437 17.2025 9.86194 17.076C9.3789 16.9667 8.89587 16.846 8.41859 16.7252C7.98155 16.616 7.55027 16.4837 7.11324 16.3802C6.80847 16.3054 6.65321 16.4205 6.65321 16.7367C6.65321 16.8747 6.72221 17.0473 6.82572 17.145C6.99823 17.3175 7.20525 17.4728 7.41801 17.5935C7.93555 17.8868 8.46459 18.1571 8.99363 18.4331C9.36165 18.6229 9.74118 18.7954 10.115 18.9794C10.6325 19.2382 11.1615 19.4452 11.7423 19.4854C11.9896 19.5027 12.2426 19.5257 12.4784 19.5947C12.8579 19.7097 13.2374 19.7269 13.6285 19.7212C13.778 19.7212 13.9275 19.7212 14.077 19.7384C14.7498 19.8074 15.4168 19.7787 16.0839 19.7384C16.5209 19.7097 16.9637 19.6982 17.4007 19.7212C17.9413 19.7499 18.4531 19.6982 18.8556 19.3072C19.1029 19.0656 19.3156 18.7896 19.4996 18.5021C19.6434 18.2836 19.5916 18.1053 19.4076 17.9156L19.3904 17.9213ZM7.78029 8.89317C7.78029 8.89317 7.77454 8.92767 7.76879 8.93917C7.82054 8.96217 7.86655 8.99667 7.92405 9.00818C8.38983 9.11168 8.85562 9.25544 9.32715 9.3072C10.2932 9.4107 11.2363 9.14618 12.1909 9.06568C12.8004 9.01393 13.4042 8.89317 14.008 8.81266C14.3243 8.77241 14.6463 8.78391 14.9568 8.74366C15.7906 8.62865 16.6302 8.6689 17.464 8.70915C18.4761 8.75516 19.4709 8.92767 20.4542 9.19219C20.621 9.23819 20.7992 9.25544 20.966 9.28419C20.9545 9.22094 20.9257 9.18644 20.897 9.17494C20.6555 9.07143 20.4197 8.96792 20.1782 8.87592C19.8332 8.73791 19.4881 8.60565 19.1431 8.47914C18.9303 8.39863 18.7118 8.32963 18.4876 8.26637C18.3783 8.23187 18.2575 8.22037 18.1483 8.19162C17.533 8.01335 16.9062 7.9271 16.2621 7.9616C15.9171 7.97885 15.5663 7.9731 15.2213 7.9616C14.1862 7.9271 13.1684 8.04211 12.1506 8.23187C11.3283 8.38138 10.5002 8.53664 9.68943 8.73216C9.16614 8.85866 8.64285 8.92192 8.10806 8.91042C7.99305 8.91042 7.8838 8.89892 7.76879 8.89317H7.78029ZM12.8177 11.6994C12.8177 11.6994 12.8349 11.6591 12.8464 11.6361C12.8177 11.6189 12.7831 11.6074 12.7544 11.5901C12.4726 11.4291 12.1966 11.2738 11.9206 11.1071C11.6273 10.9346 11.3283 10.8023 10.9833 10.7793C10.3105 10.7333 9.65492 10.8138 9.00513 10.9633C8.52209 11.0783 8.05056 11.2508 7.75729 11.7109C7.63653 11.9064 7.65953 12.0099 7.8953 12.0444C7.94705 12.0501 8.00456 12.0271 8.06206 12.0099C8.14832 11.9811 8.23457 11.9351 8.32658 11.9236C8.81536 11.8604 9.2984 11.7741 9.78718 11.7569C10.5865 11.7281 11.38 11.7511 12.1794 11.7454C12.3921 11.7454 12.6106 11.7109 12.8234 11.6936L12.8177 11.6994ZM12.0471 13.7178C12.0471 13.7178 12.0816 13.7465 12.1046 13.7523C12.6106 13.8213 13.1167 13.8673 13.6055 13.6488C13.7377 13.5913 13.8757 13.5395 14.0137 13.505C14.1862 13.4647 14.2265 13.4302 14.1632 13.2692C14.054 12.9817 13.9677 12.6827 13.8125 12.4239C13.6917 12.2227 13.4789 12.0674 13.3064 11.8949C12.9097 11.8949 12.5186 11.9064 12.0988 11.9121C12.5474 12.5619 12.3576 13.137 12.0471 13.7178ZM19.5284 12.5102C19.5284 12.5102 19.5686 12.4872 19.5916 12.4699C19.5629 12.4009 19.5514 12.3262 19.5111 12.2687C19.3789 12.0789 19.2179 11.9121 19.0971 11.7166C18.9763 11.5154 18.7981 11.4348 18.5911 11.3946C18.131 11.3141 17.671 11.3026 17.211 11.3716C16.9464 11.4061 16.7394 11.5499 16.5209 11.7569C16.6014 11.7741 16.6417 11.7856 16.6877 11.7856C16.9579 11.7971 17.2282 11.8086 17.4985 11.8201C17.9585 11.8431 18.4013 11.8834 18.7981 12.1594C19.0166 12.3089 19.2811 12.3894 19.5284 12.5044V12.5102ZM18.0103 13.6488C18.4301 13.6373 18.7693 13.5395 19.0396 13.275C19.1661 13.1542 19.2754 13.022 19.3961 12.8955C19.5054 12.7747 19.4996 12.6999 19.3501 12.6252C19.0166 12.4584 18.6773 12.2917 18.338 12.1306C18.2403 12.0846 18.131 12.0731 18.0218 12.0444C18.0103 12.0559 18.0045 12.0674 17.993 12.0789C18.3495 12.5849 18.4186 13.1025 18.0045 13.6488H18.0103ZM15.7906 23.9592L15.8539 23.9822C16.1644 23.7005 16.4807 23.4245 16.7797 23.1312C17.0097 22.9069 17.234 22.6712 17.4525 22.4354C17.4927 22.3951 17.487 22.3146 17.4985 22.2514C17.4352 22.2399 17.3662 22.2169 17.303 22.2169C17.2685 22.2169 17.2282 22.2456 17.1937 22.2686C16.9982 22.4124 16.8084 22.5619 16.6072 22.6942C16.3082 22.8954 16.0034 23.0794 15.6871 23.2807C15.7159 23.482 15.7504 23.7235 15.7849 23.965L15.7906 23.9592ZM7.18225 3.32677C7.25125 3.31527 7.29725 3.30952 7.34326 3.29227C7.84929 3.16001 8.36108 3.02775 8.86712 2.89549C9.10863 2.83223 9.3444 2.76898 9.58592 2.69997C9.62617 2.68847 9.66067 2.64247 9.70093 2.60797C9.66642 2.57346 9.63767 2.52171 9.59742 2.50446C9.52266 2.47571 9.44216 2.45271 9.36165 2.45271C8.6601 2.4297 8.01031 2.60222 7.42376 2.98174C7.30876 3.0565 7.211 3.14851 7.18225 3.32677ZM16.3082 24.5975C16.3772 24.2238 16.5669 23.9822 16.7624 23.7465C16.8602 23.6315 16.9867 23.5165 17.119 23.459C17.5157 23.2979 17.7055 22.9587 17.9298 22.6367C17.947 22.6079 17.97 22.5676 17.9643 22.5389C17.9413 22.4641 17.924 22.3721 17.8723 22.3261C17.7918 22.2571 17.7228 22.3204 17.6595 22.3951C17.5042 22.5964 17.349 22.7977 17.1707 22.9759C16.7854 23.3497 16.3829 23.7062 15.9919 24.0743C15.9574 24.1088 15.9171 24.195 15.9344 24.2065C16.0436 24.333 16.1644 24.448 16.3082 24.5918V24.5975ZM8.23457 12.1076C8.23457 12.1076 8.23457 12.1537 8.23457 12.1824C8.6141 12.3434 8.99938 12.5102 9.36165 12.6654C9.49391 12.4469 9.63767 12.2054 9.81018 11.9179C9.26965 11.9811 8.75211 12.0444 8.23457 12.1076ZM11.4491 13.0795C11.7078 13.0795 11.8918 12.9127 11.8918 12.6769C11.8918 12.5102 11.7251 12.3664 11.5353 12.3722C11.3168 12.3779 11.081 12.5849 11.0868 12.7747C11.0868 12.953 11.242 13.0795 11.4491 13.0795ZM15.9861 12.3664C15.9861 12.3664 15.9516 12.3492 15.9401 12.3377C15.8079 12.4872 15.6526 12.6194 15.5433 12.7862C15.4341 12.9415 15.3651 13.1255 15.2903 13.3037C15.2731 13.344 15.3191 13.4417 15.3536 13.4532C15.4973 13.5107 15.6526 13.5453 15.8424 13.597C15.7274 13.137 15.8309 12.7459 15.9919 12.3607L15.9861 12.3664ZM17.9068 12.8437C17.9068 12.6367 17.786 12.5389 17.556 12.5447C17.4237 12.5447 17.3202 12.6827 17.3202 12.8552C17.3202 13.045 17.4295 13.1485 17.6192 13.1485C17.8148 13.1485 17.9068 13.045 17.9068 12.8437ZM10.253 12.5044C10.253 12.5044 10.3047 12.5044 10.3335 12.5044C10.3852 12.4297 10.483 12.3549 10.483 12.2802C10.483 12.2169 10.3565 12.0961 10.3047 12.1076C10.23 12.1249 10.1322 12.2227 10.115 12.2974C10.1035 12.3492 10.207 12.4297 10.2587 12.4987L10.253 12.5044ZM10.644 12.9127C10.5405 12.8149 10.4887 12.7344 10.4255 12.7229C10.3162 12.7057 10.2127 12.7747 10.2185 12.8955C10.2185 12.9587 10.3105 13.0565 10.3622 13.0622C10.437 13.0622 10.5117 12.9875 10.6382 12.9127H10.644ZM16.7452 12.4929C16.7452 12.4929 16.7452 12.4412 16.7452 12.4182C16.6762 12.3722 16.5957 12.2859 16.5382 12.2974C16.4749 12.3147 16.3944 12.4124 16.3887 12.4814C16.3887 12.5332 16.4922 12.6482 16.5324 12.6424C16.6072 12.6309 16.6762 12.5447 16.7452 12.4929ZM16.5842 12.9357C16.5037 13.0392 16.4232 13.1082 16.4347 13.1542C16.4519 13.2175 16.5324 13.2635 16.5899 13.3152C16.6359 13.2635 16.7164 13.2117 16.7279 13.1542C16.7337 13.1025 16.6589 13.045 16.5899 12.9357H16.5842Z" fill="black"/>
<path d="M14.0882 10.6118C14.0307 10.5601 13.9732 10.5083 13.9214 10.4508C13.6569 10.1518 13.3004 10.0943 12.9266 10.0885C12.7541 10.0885 12.5816 10.1115 12.4091 10.1115C11.7938 10.1115 11.1728 10.1 10.5575 10.1C10.4482 10.1 10.3389 10.123 10.2297 10.123C9.95941 10.123 9.68914 10.123 9.41887 10.123C8.68282 10.1115 8.02727 10.2841 7.52699 10.8763C7.40048 11.0316 7.25097 11.1696 7.10721 11.3134C6.9577 11.4686 6.91744 11.6584 6.9347 11.8597C6.9462 12.0149 7.07846 12.1299 7.23947 12.0897C7.48674 12.0264 7.6765 12.1472 7.87776 12.2334C8.14228 12.337 8.3953 12.4577 8.66557 12.544C8.94159 12.636 9.17161 12.797 9.37287 12.9983C9.66614 13.2915 10.0514 13.3778 10.4194 13.51C10.638 13.5848 10.8565 13.6653 11.0807 13.7113C11.5063 13.8033 11.9376 13.8896 12.3688 13.9586C12.8806 14.0448 13.3694 13.9586 13.8409 13.7516C14.0077 13.6825 14.186 13.6365 14.3642 13.602C14.4102 13.5905 14.5022 13.6595 14.5195 13.7056C14.5425 13.7688 14.531 13.8781 14.4907 13.9183C14.3815 14.0276 14.255 14.1253 14.1227 14.2001C13.8294 14.3726 13.5189 14.4474 13.1739 14.3841C13.0416 14.3611 12.9094 14.3668 12.7771 14.3553C12.0066 14.2921 11.236 14.2288 10.4654 14.1541C10.0227 14.1138 9.62014 13.9643 9.28661 13.6653C9.0911 13.487 8.89559 13.303 8.70007 13.1248C8.65407 13.0845 8.60232 13.0443 8.54481 13.0213C8.51031 13.0098 8.46431 13.0328 8.42405 13.0385C8.4298 13.0788 8.42405 13.1363 8.4528 13.1535C8.74033 13.4123 9.01634 13.6825 9.32112 13.9183C9.61439 14.1483 9.97091 14.2691 10.3447 14.3151C11.0462 14.3956 11.7478 14.4646 12.4436 14.5279C12.7541 14.5566 13.0646 14.5566 13.3752 14.5739C13.4269 14.5739 13.4729 14.5854 13.5822 14.5969C13.3637 14.8211 13.1911 15.0224 12.9956 15.2064C12.6506 15.5342 12.2193 15.6952 11.7708 15.8217C11.5753 15.8792 11.397 15.977 11.2073 16.0402C11.0635 16.092 10.9082 16.115 10.7587 16.1552C10.7127 16.1667 10.6725 16.2127 10.6322 16.2415C10.6782 16.2645 10.7242 16.3162 10.7702 16.3105C10.9255 16.2875 11.0922 16.2702 11.2418 16.2185C11.6558 16.0747 12.0698 15.9252 12.4781 15.7699C12.8461 15.6262 13.1336 15.3617 13.3924 15.0741C13.4327 15.0281 13.4787 14.9821 13.5189 14.9304C13.7662 14.6026 14.1227 14.4186 14.4505 14.2001C14.5655 14.1253 14.6748 14.0046 14.7208 13.8838C14.7898 13.6998 14.6805 13.5388 14.4965 13.4238C14.4447 13.3893 14.4045 13.3318 14.3815 13.2743C14.2435 12.9465 14.1285 12.6015 13.9675 12.2852C13.8064 11.9689 13.5304 11.7619 13.2084 11.6009C12.8404 11.4169 12.4781 11.2329 12.1273 11.0201C11.7133 10.7671 11.2878 10.5946 10.7932 10.6003C9.99392 10.6061 9.20036 10.6923 8.4413 10.9626C8.06178 11.1006 7.78001 11.3536 7.56149 11.6872C7.50399 11.7734 7.41773 11.8539 7.32572 11.8999C7.18196 11.9689 7.08996 11.8999 7.11871 11.7447C7.13596 11.6354 7.18196 11.5204 7.25097 11.4399C7.45798 11.2041 7.67075 10.9569 7.91802 10.7613C8.10203 10.6118 8.3263 10.5026 8.55056 10.4278C8.76908 10.3531 9.01059 10.3301 9.24636 10.3186C9.74665 10.2956 10.2527 10.3071 10.753 10.2783C11.2475 10.2496 11.7075 10.3646 12.1676 10.5313C12.6276 10.6981 13.0014 10.9511 13.3349 11.3134C13.6167 11.6182 13.9387 11.8827 14.2435 12.1644C14.4907 12.3945 14.6402 12.6705 14.6805 13.0098C14.6805 13.0615 14.738 13.1075 14.7725 13.1535C14.7955 13.1018 14.8415 13.05 14.8415 12.9983C14.8415 12.6245 14.6633 12.3312 14.416 12.0782C13.9962 11.6584 13.5534 11.2559 13.1221 10.8476C12.9094 10.6406 12.6449 10.5313 12.3688 10.4393C12.2998 10.4163 12.2366 10.3818 12.1273 10.3301C12.2136 10.3013 12.2481 10.2783 12.2826 10.2783C12.5759 10.2783 12.8749 10.2668 13.1681 10.2898C13.3177 10.3013 13.4959 10.3358 13.5994 10.4278C13.9444 10.7326 14.278 11.0546 14.5827 11.3996C14.6978 11.5319 14.715 11.7504 14.7553 11.9344C14.784 12.0839 14.7783 12.2449 14.7955 12.4002C14.7955 12.429 14.8415 12.4577 14.8645 12.4865C14.8933 12.4635 14.9393 12.4405 14.945 12.4117C14.968 11.9919 14.968 11.5779 14.692 11.2214C14.6 11.1006 14.4907 11.0029 14.393 10.8878C14.3585 10.8476 14.324 10.7786 14.3355 10.7383C14.4217 10.4221 14.255 10.1805 14.1227 9.92178C14.0825 9.84127 14.0365 9.76652 13.9675 9.64576C14.3412 9.58826 14.6748 9.5135 15.0083 9.49625C15.8076 9.45025 16.6126 9.43874 17.4177 9.40999C17.9582 9.38699 18.309 9.70326 18.6195 10.0828C18.6483 10.1173 18.6425 10.1748 18.654 10.2208C18.608 10.2266 18.562 10.2438 18.5218 10.2381C17.9467 10.1403 17.3832 10.2151 16.8139 10.3013C16.6644 10.3243 16.5206 10.4048 16.3826 10.4738C16.3424 10.4968 16.3251 10.5716 16.3021 10.6176C16.3539 10.6176 16.4114 10.6406 16.4574 10.6176C17.2337 10.2841 18.0445 10.3071 18.838 10.4623C19.2233 10.5371 19.5281 10.8246 19.8041 11.1064C19.7984 11.1179 19.7869 11.1351 19.7811 11.1466C19.7466 11.1294 19.7121 11.1236 19.6891 11.1006C19.4591 10.8763 19.1773 10.7671 18.8668 10.7383C18.2573 10.6866 17.6477 10.6061 17.0324 10.6923C16.4344 10.7786 15.9743 11.0949 15.5776 11.5319C15.5546 11.5549 15.5718 11.6182 15.5718 11.6642C15.6236 11.6527 15.6868 11.6584 15.7213 11.6297C15.8881 11.4974 16.0376 11.3421 16.2101 11.2156C16.7449 10.8246 17.3602 10.7958 17.987 10.8361C18.2803 10.8533 18.5793 10.8706 18.8668 10.9281C19.0681 10.9626 19.2636 11.0489 19.4418 11.1409C19.5108 11.1754 19.5741 11.2904 19.5856 11.3709C19.6201 11.5721 19.6201 11.7792 19.6316 11.9804C19.6144 11.9862 19.5971 11.9919 19.5799 11.9977C19.5511 11.9689 19.5108 11.9517 19.4878 11.9172C19.4131 11.8137 19.3326 11.7159 19.2693 11.6009C19.1486 11.3709 18.9416 11.2674 18.7 11.2156C18.148 11.1064 17.5845 11.0661 17.0497 11.2156C16.6241 11.3364 16.2619 11.6182 15.9743 11.9689C15.8478 12.1242 15.7213 12.2794 15.5833 12.429C15.3821 12.6475 15.1923 12.8775 15.1233 13.1708C15.06 13.4525 15.152 13.5675 15.4281 13.6538C15.8536 13.7918 16.2906 13.7918 16.7276 13.8091C17.0267 13.8206 17.3314 13.8436 17.6305 13.8378C18.0905 13.8263 18.562 13.8378 18.9646 13.556C19.1256 13.4468 19.2578 13.2973 19.4016 13.165C19.4533 13.1133 19.4878 13.0443 19.5281 12.981C19.5569 12.9983 19.5856 13.0098 19.6144 13.027C19.6029 13.1248 19.6029 13.234 19.5684 13.326C19.4533 13.6423 19.2636 13.9126 18.9991 14.1196C18.7863 14.2863 18.5448 14.2921 18.2918 14.2806C18.1998 14.2806 18.1077 14.3266 18.0157 14.3496C18.102 14.3841 18.1883 14.4416 18.2803 14.4531C18.4413 14.4704 18.6023 14.4531 18.7633 14.4531C18.7345 14.6199 18.6023 14.7406 18.3895 14.7694C18.2803 14.7866 18.171 14.7694 18.0617 14.7866C17.987 14.7981 17.8547 14.8499 17.8547 14.8729C17.8605 15.0109 17.987 14.9706 18.0675 14.9706C18.4585 14.9821 18.8035 14.8786 18.9876 14.4934C19.3843 14.7406 19.7696 15.2754 19.6834 15.7239C19.5626 16.391 19.2406 16.9488 18.6885 17.3513C18.3665 17.5871 17.964 17.6101 17.5787 17.6503C17.2337 17.6848 16.8829 17.7021 16.5379 17.6906C16.0836 17.6791 15.6293 17.6388 15.175 17.6101C14.9048 17.5928 14.6345 17.5756 14.3642 17.5526C13.8409 17.5066 13.3177 17.4663 12.7944 17.4031C12.3688 17.3513 11.9491 17.2823 11.5293 17.2076C10.8105 17.0695 10.0859 16.9373 9.37287 16.7705C8.88984 16.6613 8.4183 16.4888 7.94102 16.3565C7.65925 16.276 7.37173 16.2012 7.08421 16.1437C6.91169 16.1092 6.72193 16.0977 6.59542 16.276C6.43441 16.4888 6.38841 16.7303 6.48616 16.9775C6.53217 17.0983 6.62992 17.2191 6.72768 17.3053C7.13596 17.6446 7.58449 17.9264 8.07903 18.1334C8.49881 18.3116 8.88409 18.5647 9.28661 18.7717C9.69489 18.9787 10.1032 19.1742 10.5172 19.3697C10.9945 19.5997 11.5178 19.6342 12.0353 19.7032C12.2366 19.732 12.4321 19.7837 12.6276 19.8182C12.8059 19.847 12.9784 19.893 13.1566 19.8987C13.7604 19.9217 14.37 19.9447 14.9795 19.939C15.5948 19.9332 16.2159 19.8757 16.8312 19.8585C17.1014 19.847 17.3774 19.8585 17.6477 19.8872C18.0962 19.939 18.4758 19.801 18.8323 19.548C18.8841 19.5077 18.9416 19.4675 19.0393 19.3985C19.0393 19.6342 19.0681 19.824 19.0336 20.0023C18.9646 20.33 18.7403 20.5773 18.5103 20.8073C18.4815 20.8361 18.378 20.8303 18.3378 20.8073C18.2343 20.7383 18.1365 20.6521 18.0445 20.5658C17.7627 20.2955 17.4407 20.3013 17.1072 20.4335C16.5321 20.6636 16.0491 21.0316 15.6063 21.4686C15.4453 21.6296 15.2498 21.7619 15.0658 21.8999C14.9393 21.9919 14.7955 22.0724 14.646 22.1702C14.4907 21.9976 14.278 21.8999 14.0192 21.9114C13.6684 21.9286 13.3062 22.2449 13.2889 22.5957C13.2774 22.8602 13.4212 23.0845 13.5994 23.2512C13.8927 23.5215 14.1112 23.8435 14.3125 24.1828C14.3642 24.2691 14.393 24.3898 14.3987 24.4933C14.4102 24.7176 14.3987 24.9419 14.3987 25.1719C14.3987 25.1949 14.4045 25.2236 14.3987 25.2409C14.232 25.4536 14.1055 25.7412 13.8869 25.8504C13.4787 26.0574 13.0244 26.1609 12.5874 26.299C12.5413 26.3162 12.4838 26.3162 12.4321 26.3162C11.6213 26.3277 10.8105 26.3277 10.0054 26.3565C9.45913 26.3795 8.91284 26.46 8.36655 26.483C7.90652 26.5002 7.44073 26.483 6.9807 26.4657C6.72193 26.46 6.46316 26.4542 6.20439 26.4255C5.70986 26.368 5.22107 26.2932 4.73229 26.2357C4.14 26.1667 3.57646 25.9884 3.03592 25.7642C2.40337 25.4939 1.75357 25.2409 1.23604 24.7521C0.816257 24.3496 0.551738 23.8493 0.396477 23.303C0.287219 22.9177 0.206714 22.5152 0.15496 22.1184C0.126208 21.9171 0.177962 21.7044 0.200963 21.5031C0.229715 21.2213 0.275718 20.9396 0.304471 20.6636C0.338973 20.3703 0.361975 20.077 0.396477 19.7837C0.44248 19.41 0.488484 19.0419 0.540237 18.6682C0.609242 18.1679 0.678247 17.6618 0.753003 17.1615C0.827758 16.6613 0.983019 16.1897 1.12678 15.7067C1.28779 15.1547 1.52356 14.6371 1.75357 14.1138C1.91459 13.7458 2.1216 13.395 2.30561 13.0385C2.61039 12.4577 2.90941 11.8712 3.21418 11.2904C3.58796 10.5773 4.00199 9.89303 4.49077 9.24898C4.69779 8.97871 4.9278 8.72569 5.15782 8.47843C5.20382 8.42667 5.31308 8.39792 5.37633 8.41517C5.6581 8.48993 5.93987 8.58193 6.21589 8.67969C6.27915 8.70269 6.32515 8.7602 6.37691 8.8062C6.65868 9.05922 6.9347 9.31799 7.31422 9.43874C7.68225 9.55375 8.03302 9.73202 8.3953 9.86428C8.91859 10.054 9.46488 10.0828 10.0169 10.0655C11.19 10.0253 12.3401 9.80102 13.4959 9.68026C13.6742 9.66301 13.7892 9.68026 13.8639 9.87003C13.9329 10.0483 14.0422 10.2035 14.1227 10.3761C14.1515 10.4393 14.1457 10.5141 14.1515 10.5888C14.1342 10.5946 14.1112 10.6061 14.094 10.6118H14.0882ZM16.3826 14.6601C16.5149 14.6601 16.5896 14.6601 16.6586 14.6601C16.8599 14.6486 17.0612 14.6429 17.2624 14.6199C17.3084 14.6199 17.3429 14.5394 17.3832 14.4991C17.3314 14.4819 17.2739 14.4531 17.2222 14.4531C16.9404 14.4531 16.6586 14.4819 16.3826 14.4416C16.1066 14.3956 15.8478 14.2748 15.5776 14.1943C15.5316 14.1828 15.4741 14.1943 15.4223 14.1943C15.4453 14.2461 15.4626 14.3036 15.4913 14.3496C15.5086 14.3726 15.5488 14.3783 15.5833 14.3956C15.7616 14.4991 15.9571 14.5854 16.1181 14.7061C16.5149 15.0051 16.8197 15.3847 17.0957 15.793C17.1244 15.8332 17.1819 15.8505 17.2222 15.8792C17.2279 15.8217 17.2624 15.7527 17.2394 15.7124C17.1532 15.5687 17.0554 15.4307 16.9519 15.3042C16.7794 15.0972 16.5954 14.9016 16.3769 14.6544L16.3826 14.6601ZM7.42348 15.7067C7.42348 15.7067 7.42348 15.6894 7.42348 15.6837C7.18771 15.7239 6.9462 15.7584 6.71043 15.816C6.40566 15.8907 6.16989 16.069 5.99738 16.3277C5.96288 16.3737 5.97438 16.4485 5.96288 16.5118C6.02613 16.483 6.11239 16.4773 6.14114 16.4312C6.3194 16.1322 6.60117 15.9942 6.92319 15.9482C7.17046 15.908 7.42923 15.9022 7.6765 15.8677C7.71675 15.8677 7.75701 15.8217 7.79726 15.7987C7.76276 15.7699 7.72825 15.7182 7.688 15.7124C7.60174 15.7009 7.51549 15.7124 7.42923 15.7124L7.42348 15.7067ZM7.37748 14.9649C7.22797 14.9764 7.12446 14.9649 7.02095 14.9936C6.86569 15.0339 6.71618 15.0856 6.56667 15.1432C6.53792 15.1547 6.53792 15.2294 6.52642 15.2697C6.56667 15.2754 6.61267 15.2984 6.64718 15.2869C6.88294 15.2409 7.11296 15.1892 7.34873 15.1317C7.40048 15.1202 7.44073 15.0684 7.48099 15.0339C7.43498 14.9994 7.38323 14.9706 7.37173 14.9591L7.37748 14.9649Z" fill="#4E7E3B"/>
<path d="M18.3227 9.5259C18.4722 9.5259 18.6447 9.50865 18.8057 9.5259C19.7315 9.62366 20.6286 9.81917 21.4796 10.2217C21.6061 10.2792 21.7154 10.3655 21.8419 10.423C21.8937 10.446 21.9627 10.423 22.0202 10.423C21.9857 10.3712 21.9627 10.3022 21.9109 10.2735C21.3014 9.86518 20.6171 9.65816 19.9098 9.53165C19.3922 9.43965 18.8632 9.41665 18.3457 9.33039C17.5924 9.20963 16.8333 9.25563 16.08 9.28439C15.3439 9.31314 14.6136 9.35339 13.8891 9.49715C13.6706 9.54316 13.4406 9.55466 13.2163 9.57766C12.2157 9.68692 11.2209 9.80192 10.2203 9.90543C9.61079 9.96869 9.00124 9.90543 8.4262 9.69842C7.92016 9.52015 7.43138 9.30164 6.94834 9.06587C6.76433 8.97386 6.62632 8.7956 6.45956 8.66334C6.37905 8.60009 6.2813 8.53108 6.18354 8.50233C5.79251 8.37007 5.39573 8.26656 5.01046 8.12855C4.84944 8.07105 4.69993 7.95029 4.56192 7.83528C4.42391 7.72602 4.35491 7.57076 4.40091 7.38675C4.57342 6.7082 4.74019 6.02965 4.92995 5.35685C4.9702 5.21884 5.07946 5.09809 5.15997 4.97158C5.44174 4.51729 5.80401 4.13777 6.2698 3.88475C6.54582 3.73524 6.85059 3.61448 7.14961 3.52822C8.12718 3.2522 9.1105 2.97618 10.0996 2.74042C10.9046 2.55065 11.7212 2.40689 12.532 2.25163C13.4636 2.07912 14.4009 2.00436 15.3439 2.07337C16.5918 2.17113 17.6729 2.59091 18.4549 3.62023C18.7367 3.99401 18.8805 4.40804 18.9207 4.86807C19.0242 5.93765 19.1335 7.00722 19.2427 8.0768C19.26 8.22631 19.2025 8.21481 19.0817 8.19181C18.1674 8.0078 17.2646 7.72027 16.3158 7.74903C15.5682 7.77203 14.8207 7.74328 14.0789 7.79503C13.4176 7.84103 12.7563 7.93879 12.1007 8.0538C11.1231 8.22631 10.1513 8.45633 9.17375 8.62884C8.74822 8.7036 8.31119 8.70935 7.87991 8.7151C7.67865 8.7151 7.47738 8.62884 7.27037 8.58859C7.20711 8.57709 7.13811 8.60584 7.0691 8.61734C7.09786 8.68059 7.11511 8.7726 7.16686 8.80135C7.48313 8.96811 7.79366 9.16938 8.12718 9.27289C8.75972 9.4684 9.40952 9.57766 10.0766 9.47415C10.5884 9.39364 11.1059 9.34764 11.6234 9.29014C12.0432 9.24413 12.463 9.20388 12.8828 9.15213C13.3428 9.09462 13.7971 9.00262 14.2571 8.95086C14.7114 8.90486 15.1657 8.88761 15.6257 8.87036C17.0921 8.8186 18.5469 8.94511 19.9845 9.25563C20.3468 9.33614 20.7091 9.39364 21.0714 9.4684C21.4624 9.54891 21.8132 9.73292 22.1409 9.94568C22.2559 10.0204 22.371 10.1009 22.4802 10.1815C22.693 10.3367 22.8195 10.538 22.8137 10.814C22.808 11.0843 22.6757 11.1705 22.4285 11.067C22.0604 10.9118 21.7039 10.7335 21.3301 10.5955C20.8758 10.423 20.4216 10.2447 19.95 10.1297C19.6395 10.0549 19.3002 10.0952 18.9725 10.0837C18.9092 10.0837 18.8172 10.0952 18.7827 10.0549C18.6159 9.88818 18.4664 9.70417 18.3054 9.5259H18.3227Z" fill="#C72627"/>
<path d="M17.9852 22.9064C18.0542 22.7741 18.1059 22.6246 18.1979 22.5038C18.2784 22.4061 18.2612 22.3601 18.1749 22.2968C17.8242 22.0611 17.2204 21.9173 16.7776 22.3141C16.5073 22.5556 16.2026 22.7626 15.8863 22.9351C15.593 23.0961 15.2652 23.0444 14.9662 22.8949C14.7304 22.7799 14.6959 22.4176 14.8915 22.2221C15.1387 21.969 15.524 22.0266 15.7023 22.3371C15.777 22.4693 15.6793 22.5383 15.6103 22.6188C15.5528 22.6878 15.4147 22.7224 15.5068 22.8431C15.5183 22.8546 15.6678 22.7971 15.7253 22.7396C15.9725 22.5096 15.9725 22.3256 15.7138 22.0841C15.639 22.0151 15.5528 21.9575 15.4262 21.8655C15.57 21.739 15.7023 21.624 15.8345 21.5033C16.2141 21.1525 16.6223 20.842 17.1054 20.6465C17.3986 20.5257 17.6862 20.4912 17.9392 20.75C18.1232 20.9455 18.336 21.118 18.497 21.3308C18.658 21.5435 18.8765 21.647 19.095 21.762C19.7793 22.1243 20.3428 22.6188 20.8086 23.2456C21.0789 23.6137 21.3664 23.9644 21.5619 24.3785C21.7287 24.7407 21.9357 25.0858 22.114 25.448C22.1887 25.6033 22.252 25.7758 22.2577 25.9426C22.2635 26.0576 22.2002 26.2186 22.114 26.2876C21.7517 26.5636 21.3607 26.8109 20.9121 26.9202C20.5039 27.0179 20.0898 27.1157 19.6758 27.1674C19.348 27.2077 19.0088 27.1789 18.6752 27.1674C18.2957 27.1502 17.9162 27.0984 17.5366 27.0927C16.8408 27.0927 16.2428 26.8627 15.6965 26.4429C15.4722 26.2704 15.2307 26.1151 14.9835 25.9828C14.7074 25.8391 14.6384 25.5861 14.5982 25.3273C14.5579 25.0628 14.5694 24.7867 14.5694 24.5165C14.5694 24.3152 14.4947 24.1542 14.3912 23.9874C14.1957 23.6769 13.9714 23.3952 13.7069 23.1421C13.6494 23.0904 13.6091 23.0156 13.5689 22.9409C13.4136 22.6648 13.4136 22.4923 13.5746 22.3428C13.8449 22.0898 14.1094 22.0266 14.3509 22.2048C14.4544 22.2796 14.5752 22.4118 14.5867 22.5268C14.6154 22.9466 14.8685 23.1076 15.225 23.1824C15.4895 23.2399 15.5413 23.3204 15.5758 23.5907C15.5988 23.7919 15.6218 23.9989 15.7023 24.1772C15.777 24.3382 15.915 24.4762 16.053 24.6027C16.3463 24.8673 16.6511 25.1145 16.9501 25.3618C17.1456 25.5228 17.3871 25.5746 17.6344 25.5631C17.7494 25.5631 17.8127 25.5803 17.8414 25.7068C17.8989 25.9368 18.0484 26.0633 18.29 26.0691C18.5602 26.0748 18.8305 26.0748 19.095 26.0863C19.1353 26.0863 19.2043 26.1093 19.2158 26.1438C19.2848 26.3221 19.3825 26.4486 19.5895 26.4831C19.8713 26.5291 20.1301 26.4889 20.3256 26.2819C20.6246 25.9656 20.9006 25.6378 21.1824 25.3043C21.2112 25.2755 21.1997 25.2123 21.2112 25.1663C21.1594 25.1663 21.0904 25.1605 21.0617 25.1893C20.9236 25.333 20.7914 25.4883 20.6591 25.6436C20.5096 25.8161 20.3658 26.0001 20.2048 26.1669C20.0208 26.3566 19.7793 26.3681 19.5435 26.2934C19.3308 26.2301 19.2848 25.8678 19.4573 25.6896C19.7391 25.402 20.0151 25.1088 20.2968 24.8155C20.3026 24.8098 20.3198 24.7983 20.3198 24.7925C20.3313 24.7407 20.3371 24.6947 20.3428 24.643C20.2968 24.6545 20.2336 24.643 20.2106 24.6717C20.0266 24.8615 19.8426 25.057 19.6643 25.2525C19.486 25.448 19.3135 25.6493 19.1295 25.8391C19.0835 25.8851 18.9973 25.9253 18.934 25.9253C18.6925 25.9253 18.451 25.9138 18.2094 25.8851C18.0542 25.8678 17.9449 25.5976 18.0139 25.4078C18.0599 25.2755 18.1117 25.1433 18.1864 25.034C18.4165 24.7062 18.6005 24.3325 18.9685 24.1255C18.9915 24.114 19.026 24.0967 19.0318 24.0737C19.0548 24.0277 19.0605 23.9759 19.072 23.9242C19.026 23.9299 18.9743 23.9242 18.934 23.9414C18.4682 24.183 18.1807 24.6027 17.9794 25.0513C17.7782 25.4998 17.5136 25.4538 17.1859 25.3043C16.8984 25.172 16.6741 24.942 16.5533 24.643C16.5188 24.5567 16.5246 24.4302 16.5648 24.3497C16.7546 24.0047 16.9789 23.6999 17.3699 23.5274C17.8299 23.3261 18.2554 23.0501 18.6235 22.6994C18.704 22.6188 18.8132 22.5671 18.8995 22.4866C18.9282 22.4578 18.9282 22.4003 18.9455 22.3543C18.8995 22.3543 18.8362 22.3371 18.8075 22.3543C18.6005 22.5096 18.3992 22.6763 18.1979 22.8374C18.1462 22.8834 18.0829 22.9179 18.0254 22.9581C18.0139 22.9409 17.9967 22.9294 17.9852 22.9121V22.9064Z" fill="#4E7E3B"/>
<path d="M19.3911 17.9212C19.5751 18.1167 19.6212 18.2949 19.4831 18.5077C19.2934 18.7952 19.0806 19.077 18.8391 19.3128C18.4366 19.7038 17.9248 19.7555 17.3842 19.7268C16.9472 19.7038 16.5044 19.7153 16.0674 19.744C15.3946 19.7843 14.7276 19.813 14.0605 19.744C13.911 19.7268 13.7615 19.7268 13.612 19.7268C13.2209 19.7325 12.8414 19.721 12.4619 19.6003C12.2261 19.5255 11.9731 19.5083 11.7258 19.491C11.1393 19.4508 10.6103 19.2438 10.0985 18.985C9.72469 18.801 9.34516 18.6285 8.97714 18.4387C8.4481 18.1684 7.91906 17.8924 7.40152 17.5991C7.18876 17.4784 6.98174 17.3231 6.80923 17.1506C6.71147 17.0529 6.63672 16.8803 6.63672 16.7423C6.63672 16.4261 6.79198 16.3168 7.09675 16.3858C7.53378 16.4893 7.96506 16.6216 8.4021 16.7308C8.88513 16.8516 9.36242 16.9723 9.84545 17.0816C10.4205 17.2139 10.9955 17.3404 11.5763 17.4439C12.1284 17.5416 12.6804 17.6336 13.2382 17.6854C14.2675 17.7774 15.2968 17.8694 16.3319 17.9097C17.0162 17.9384 17.712 17.9269 18.3791 17.7314C18.7068 17.6394 18.9714 17.4496 19.1841 17.1794C19.5061 16.7596 19.7937 16.3225 19.8454 15.7705C20.1329 15.9775 20.2422 16.4146 20.0927 16.7021C20.0754 16.7308 20.0639 16.7653 20.0409 16.7941C19.6844 17.1794 19.4084 17.6394 18.9714 17.9442C18.9139 17.9844 18.8621 18.0304 18.8161 18.0822C18.5976 18.3467 18.3101 18.4445 17.9708 18.4445C17.574 18.4445 17.1772 18.4962 16.7747 18.502C16.3549 18.502 15.9294 18.4675 15.5096 18.4732C14.5608 18.479 13.635 18.3812 12.7092 18.1627C12.2779 18.0592 11.8178 18.0937 11.3693 18.0477C11.0243 18.0132 10.6793 17.9844 10.34 17.8982C9.91445 17.7947 9.50042 17.6336 9.08639 17.5014C8.91388 17.4439 8.74712 17.3749 8.57461 17.3404C8.24108 17.2714 7.94206 17.1391 7.67179 16.9263C7.60854 16.8746 7.49928 16.8746 7.41302 16.8516C7.45903 16.9321 7.49353 17.0298 7.56254 17.0931C7.7868 17.3116 8.06857 17.4209 8.36759 17.5129C8.78737 17.6394 9.2014 17.7832 9.61543 17.9269C10.2192 18.1339 10.8345 18.2777 11.4786 18.2604C11.9731 18.2489 12.4561 18.3237 12.9392 18.4272C13.428 18.5365 13.9282 18.617 14.4285 18.6572C15.1416 18.709 15.8604 18.7262 16.5734 18.732C17.0967 18.732 17.6258 18.6917 18.149 18.663C18.4251 18.6457 18.6551 18.5365 18.8563 18.3409C19.0116 18.1914 19.1956 18.0649 19.3739 17.9269L19.3911 17.9212Z" fill="#9A3F22"/>
<path d="M7.7793 8.89315C7.89431 8.89315 8.00356 8.90465 8.11857 8.9104C8.65336 8.9219 9.17665 8.85864 9.69994 8.73214C10.5165 8.53662 11.3388 8.38136 12.1611 8.23185C13.1732 8.04209 14.1968 7.92708 15.2318 7.96158C15.5769 7.97308 15.9276 7.97883 16.2727 7.96158C16.9167 7.92708 17.5435 8.01333 18.1588 8.1916C18.268 8.2261 18.3888 8.23185 18.4981 8.26635C18.7166 8.33536 18.9351 8.40436 19.1536 8.47912C19.4986 8.60563 19.8437 8.74364 20.1887 8.8759C20.4302 8.97365 20.6717 9.07716 20.9075 9.17492C20.942 9.18642 20.965 9.22092 20.9765 9.28418C20.804 9.25542 20.6315 9.23817 20.4647 9.19217C19.4871 8.9219 18.4866 8.75514 17.4745 8.70913C16.6407 8.66888 15.8011 8.62863 14.9673 8.74364C14.651 8.78389 14.3348 8.77239 14.0185 8.81264C13.409 8.8874 12.8109 9.01391 12.2014 9.06566C11.2468 9.14042 10.3037 9.41068 9.33766 9.30718C8.86612 9.25542 8.40034 9.11166 7.93456 9.00816C7.8828 8.99666 7.83105 8.96215 7.7793 8.93915C7.7793 8.9219 7.78505 8.90465 7.7908 8.89315H7.7793Z" fill="#C72627"/>
<path d="M12.8237 11.6987C12.6109 11.716 12.3924 11.7447 12.1796 11.7505C11.3803 11.7562 10.581 11.739 9.78745 11.762C9.29867 11.7792 8.80988 11.8655 8.32685 11.9287C8.23484 11.9402 8.15434 11.9862 8.06233 12.015C8.01058 12.0322 7.94732 12.0552 7.89557 12.0495C7.66555 12.015 7.6368 11.9115 7.75756 11.716C8.05083 11.2559 8.51661 11.0834 9.0054 10.9684C9.65519 10.8189 10.3107 10.7384 10.9835 10.7844C11.3286 10.8074 11.6333 10.9397 11.9209 11.1122C12.1969 11.2789 12.4786 11.4342 12.7547 11.5952C12.7834 11.6125 12.8179 11.624 12.8467 11.6412C12.8352 11.6642 12.8294 11.6815 12.8179 11.7045L12.8237 11.6987Z" fill="#4E7E3B"/>
<path d="M12.0527 13.7174C12.3633 13.1366 12.5473 12.5558 12.1045 11.9118C12.5243 11.906 12.921 11.9003 13.3121 11.8945C13.4846 12.067 13.6974 12.2223 13.8181 12.4236C13.9734 12.6823 14.0596 12.9814 14.1689 13.2689C14.2264 13.4299 14.1919 13.4586 14.0194 13.5046C13.8814 13.5392 13.7434 13.5909 13.6111 13.6484C13.1223 13.8669 12.6163 13.8209 12.1102 13.7519C12.0872 13.7519 12.07 13.7289 12.0527 13.7174Z" fill="white"/>
<path d="M19.5348 12.5098C19.2875 12.3948 19.023 12.3143 18.8045 12.1647C18.402 11.8887 17.9592 11.8427 17.5049 11.8255C17.2346 11.814 16.9644 11.8025 16.6941 11.791C16.6539 11.791 16.6078 11.7737 16.5273 11.7622C16.7459 11.5609 16.9529 11.4172 17.2174 11.3769C17.6774 11.3137 18.1375 11.3194 18.5975 11.3999C18.8103 11.4402 18.9828 11.5207 19.1035 11.722C19.2243 11.9175 19.3795 12.09 19.5176 12.274C19.5578 12.3315 19.5751 12.4063 19.5981 12.4753C19.5751 12.4868 19.5578 12.4983 19.5348 12.5155V12.5098Z" fill="#4E7E3B"/>
<path d="M18.0154 13.6493C18.4294 13.103 18.3604 12.5912 18.0039 12.0794C18.0154 12.0679 18.0212 12.0564 18.0327 12.0449C18.1362 12.0737 18.2512 12.0909 18.3489 12.1312C18.6882 12.2922 19.0217 12.459 19.361 12.6257C19.5105 12.7005 19.5163 12.7752 19.407 12.896C19.292 13.0225 19.177 13.1548 19.0505 13.2755C18.7802 13.54 18.4409 13.632 18.0212 13.6493H18.0154Z" fill="white"/>
<path d="M15.795 23.9591C15.7605 23.7175 15.726 23.476 15.6973 23.2748C16.0135 23.0735 16.3183 22.8895 16.6173 22.6882C16.8186 22.556 17.0084 22.4065 17.2039 22.2627C17.2384 22.2397 17.2729 22.2109 17.3131 22.2109C17.3764 22.2109 17.4454 22.2339 17.5086 22.2454C17.4914 22.3087 17.4971 22.3892 17.4626 22.4295C17.2441 22.6652 17.0256 22.9067 16.7898 23.1253C16.4851 23.4128 16.1746 23.6945 15.864 23.9763L15.8008 23.9533L15.795 23.9591Z" fill="#4E7E3B"/>
<path d="M7.18359 3.32628C7.21235 3.15377 7.3101 3.05601 7.42511 2.98125C8.0174 2.60173 8.6672 2.42346 9.363 2.45222C9.44351 2.45222 9.52401 2.47522 9.59877 2.50397C9.63902 2.52122 9.66777 2.57297 9.70227 2.60748C9.66202 2.63623 9.63327 2.68223 9.58727 2.69948C9.3515 2.76849 9.10998 2.83174 8.86846 2.895C8.36243 3.02726 7.85064 3.15952 7.34461 3.29178C7.2986 3.30328 7.24685 3.30903 7.18359 3.32628Z" fill="#C72627"/>
<path d="M8.23242 12.1068C8.74996 12.0435 9.2675 11.9802 9.80803 11.917C9.63552 12.2045 9.49176 12.446 9.3595 12.6645C8.99723 12.5093 8.61195 12.3483 8.23242 12.1815C8.23242 12.1585 8.23242 12.1355 8.23242 12.1068Z" fill="white"/>
<path d="M11.4424 13.0784C11.2353 13.0784 11.0801 12.9519 11.0801 12.7736C11.0801 12.5839 11.3101 12.3768 11.5286 12.3711C11.7184 12.3711 11.8851 12.5091 11.8851 12.6759C11.8851 12.9116 11.7011 13.0784 11.4424 13.0784Z" fill="white"/>
<path d="M15.9807 12.3658C15.8197 12.7511 15.7162 13.1421 15.8312 13.6021C15.6414 13.5504 15.4862 13.5159 15.3424 13.4584C15.3079 13.4411 15.2619 13.3433 15.2791 13.3088C15.3539 13.1306 15.4229 12.9466 15.5322 12.7913C15.6414 12.6303 15.7967 12.4923 15.9289 12.3428C15.9462 12.3543 15.9634 12.36 15.9749 12.3715L15.9807 12.3658Z" fill="white"/>
<path d="M17.8993 12.8439C17.8993 13.0452 17.8073 13.1487 17.6117 13.1487C17.4162 13.1487 17.307 13.0452 17.3127 12.8554C17.3127 12.6829 17.4162 12.5507 17.5485 12.5449C17.7785 12.5449 17.8993 12.6427 17.8993 12.8439Z" fill="white"/>
<path d="M10.2462 12.5051C10.1945 12.4361 10.0909 12.3556 10.1024 12.3038C10.1197 12.2233 10.2117 12.1313 10.2922 12.114C10.344 12.1025 10.4705 12.2233 10.4705 12.2866C10.4705 12.3613 10.3785 12.4361 10.321 12.5108C10.2922 12.5108 10.2692 12.5108 10.2405 12.5108L10.2462 12.5051Z" fill="white"/>
<path d="M10.6453 12.9131C10.5188 12.9878 10.444 13.0626 10.3692 13.0626C10.3175 13.0626 10.2255 12.9591 10.2255 12.8958C10.214 12.7751 10.3175 12.7061 10.4325 12.7233C10.4958 12.7348 10.5475 12.8211 10.651 12.9131H10.6453Z" fill="white"/>
<path d="M16.7474 12.4925C16.6784 12.5442 16.6094 12.6305 16.5346 12.642C16.4944 12.6477 16.3851 12.5327 16.3908 12.481C16.3966 12.412 16.4771 12.3084 16.5404 12.2969C16.5979 12.2854 16.6784 12.3717 16.7474 12.4177C16.7474 12.4407 16.7474 12.4695 16.7474 12.4925Z" fill="white"/>
<path d="M16.584 12.9355C16.6588 13.0391 16.7335 13.1023 16.722 13.1541C16.7163 13.2116 16.6358 13.2633 16.584 13.3151C16.5265 13.2633 16.446 13.2173 16.4288 13.1541C16.4173 13.1138 16.5035 13.0448 16.5783 12.9355H16.584Z" fill="white"/>
<path d="M16.3823 14.6591C16.6008 14.9006 16.7848 15.1019 16.9573 15.3089C17.0666 15.4354 17.1586 15.5734 17.2449 15.7172C17.2679 15.7574 17.2334 15.8264 17.2276 15.8839C17.1816 15.8552 17.1241 15.8379 17.1011 15.7977C16.8251 15.3894 16.5146 15.0099 16.1235 14.7109C15.9568 14.5844 15.767 14.5038 15.5887 14.4003C15.56 14.3831 15.514 14.3773 15.4967 14.3543C15.468 14.3083 15.4507 14.2508 15.4277 14.1991C15.4795 14.1991 15.537 14.1818 15.583 14.1991C15.8533 14.2796 16.1178 14.4061 16.3881 14.4463C16.6583 14.4923 16.9458 14.4521 17.2276 14.4578C17.2794 14.4578 17.3369 14.4866 17.3886 14.5038C17.3484 14.5441 17.3139 14.6189 17.2679 14.6246C17.0666 14.6476 16.8653 14.6534 16.6641 14.6649C16.5893 14.6649 16.5146 14.6649 16.3881 14.6649L16.3823 14.6591Z" fill="black"/>
<path d="M7.42925 15.7075C7.5155 15.7075 7.60176 15.696 7.68801 15.7075C7.72827 15.7132 7.76277 15.765 7.79727 15.7937C7.75702 15.8167 7.72252 15.8627 7.67651 15.8627C7.4235 15.8915 7.17048 15.903 6.92321 15.9432C6.59544 15.995 6.31942 16.133 6.14115 16.4263C6.1124 16.4723 6.02615 16.4838 5.96289 16.5068C5.97439 16.4435 5.96289 16.3688 5.99739 16.3228C6.16991 16.064 6.40567 15.88 6.71044 15.811C6.94621 15.7535 7.18773 15.7247 7.4235 15.6787C7.4235 15.6845 7.4235 15.696 7.4235 15.7017L7.42925 15.7075Z" fill="black"/>
<path d="M7.38437 14.9658C7.38437 14.9658 7.44763 15.0118 7.49363 15.0406C7.44763 15.0751 7.40738 15.1268 7.36137 15.1383C7.13136 15.1958 6.89559 15.2476 6.65982 15.2936C6.61957 15.2993 6.57932 15.2821 6.53906 15.2763C6.55056 15.2303 6.55056 15.1556 6.57932 15.1498C6.72883 15.0923 6.87834 15.0348 7.0336 15.0003C7.13135 14.9773 7.24061 14.9831 7.39012 14.9716L7.38437 14.9658Z" fill="black"/>
</g>
</svg>
