<svg width="24" height="24" viewBox="0 0 24 24" fill="none" xmlns="http://www.w3.org/2000/svg">
<rect width="24" height="24" rx="4" fill="#F00500"/>
<path d="M18.1078 12.4693C18.0974 12.5243 17.9339 12.6894 17.7705 12.8097C17.2906 13.157 16.4316 13.4802 15.5587 13.635C15.0614 13.7244 14.5641 13.7381 14.4146 13.6659C14.3172 13.6178 14.3033 13.58 14.3381 13.4562C14.4111 13.1983 14.6476 12.9163 15.0162 12.6516C15.204 12.5175 15.9656 12.0601 16.3203 11.8676C16.9046 11.5512 17.3775 11.3621 17.6975 11.3174C17.7983 11.3037 17.92 11.3002 17.9583 11.3174C18.0209 11.3415 18.0904 11.5237 18.1183 11.7438C18.1322 11.8607 18.1252 12.3765 18.1078 12.4693Z" fill="black"/>
<path d="M9.91497 13.6074C9.8941 13.6487 9.78978 13.6934 9.67154 13.7106C9.5533 13.7277 9.19163 13.7174 8.98645 13.6934C8.2492 13.5971 7.46673 13.3736 6.89641 13.0985C6.57647 12.9438 6.34694 12.789 6.17654 12.6206L6.07917 12.5208L6.06873 12.3902C6.05135 12.1632 6.05482 11.8056 6.08264 11.6784C6.10003 11.5718 6.13829 11.4687 6.19045 11.3758C6.21827 11.3414 6.21827 11.3414 6.34347 11.3414C6.49648 11.3414 6.62515 11.3655 6.83381 11.4308C7.26155 11.5615 7.89796 11.8778 8.67346 12.3386C9.31334 12.7168 9.5533 12.9025 9.73761 13.157C9.86281 13.3151 9.94627 13.5386 9.91497 13.6074Z" fill="black"/>
<path d="M14.839 18.3938C14.839 18.4041 14.7973 18.5691 14.7451 18.7651C14.693 18.9611 14.6512 19.1193 14.6512 19.1262C14.613 19.1296 14.5782 19.1331 14.54 19.1296H14.4287L14.2757 19.4872C14.1922 19.6832 14.1157 19.8655 14.1053 19.893L14.0844 19.9411L14.0114 19.8242L13.9383 19.7073V18.7548L13.9105 18.7617C13.8514 18.7755 13.4306 18.8305 13.2463 18.8477C12.4847 18.9233 11.7196 18.9061 10.9615 18.7995C10.8398 18.7823 10.7355 18.7686 10.732 18.772C10.7285 18.7755 10.732 18.9955 10.7389 19.2672L10.7494 19.7554L10.6902 19.8448C10.6589 19.893 10.6276 19.9342 10.6276 19.9377C10.6172 19.948 10.5824 19.893 10.5025 19.7348C10.4155 19.5698 10.3529 19.3944 10.3077 19.2121L10.2834 19.1124L10.1756 19.1193L10.0678 19.1296L10.0399 19.0024C10.026 18.9336 10.0086 18.827 10.0017 18.7686L9.99124 18.6585L9.90082 18.5795C9.84866 18.5348 9.7965 18.4901 9.78606 18.4832C9.76868 18.4694 9.76172 18.4454 9.76172 18.4247V18.3835L10.1964 18.3869L10.6311 18.3903L10.645 18.435L10.6589 18.4797L10.8085 18.4866C10.8919 18.4901 11.1562 18.4969 11.3927 18.5038L11.8274 18.5141L11.9387 18.3422L12.0535 18.1703H12.1995L12.196 17.8127L12.1926 17.4551L12.0013 17.3726C11.3858 17.1043 11.0241 16.7983 10.8885 16.427C10.8606 16.3513 10.8606 16.3238 10.8537 15.98C10.8502 15.6396 10.8502 15.6086 10.8746 15.533C10.9232 15.361 11.0589 15.2269 11.2327 15.1822C11.2919 15.165 11.4484 15.165 12.2691 15.165L13.2359 15.1685L13.3437 15.2201C13.4723 15.2819 13.5314 15.3266 13.6045 15.4229C13.6879 15.533 13.7123 15.6189 13.7123 15.8287C13.7123 16.1278 13.6914 16.3857 13.6601 16.4889C13.6149 16.6298 13.5454 16.7639 13.4584 16.8843C13.2845 17.1043 12.9681 17.3244 12.6794 17.4241L12.596 17.4551L12.5995 17.8161L12.6029 18.1772L12.6794 18.184L12.7559 18.1909L12.8603 18.3456L12.9611 18.5004H13.4271C13.6845 18.5004 13.9105 18.5038 13.9314 18.5073C13.9662 18.5141 13.9731 18.5107 14.0079 18.4522L14.0496 18.3903H14.4495C14.7486 18.3766 14.839 18.3835 14.839 18.3938Z" fill="black"/>
<path d="M13.0024 19.3807C12.9364 19.4185 12.8911 19.4357 12.8807 19.4288C12.8703 19.4254 12.8216 19.3841 12.7694 19.3463L12.6755 19.2706L12.5782 19.3738C12.366 19.6007 12.3591 19.611 12.2965 19.6145C12.1991 19.6248 12.1782 19.6076 12.06 19.4322C11.9974 19.3428 11.9487 19.2672 11.9487 19.2672C11.9487 19.2672 11.9035 19.2603 11.8513 19.2569L11.754 19.2465L11.7088 19.3394L11.6635 19.4322L11.5836 19.4082C11.521 19.3875 11.4584 19.3635 11.3993 19.3359L11.2949 19.2844V19.0884L12.22 19.0918L13.145 19.0953L13.1485 19.1881C13.152 19.2981 13.1554 19.2947 13.0024 19.3807Z" fill="black"/>
<path d="M21.6969 15.1857C21.6934 15.172 21.6934 15.1479 21.6899 15.1101C20.8553 15.0207 18.4731 14.9657 16.2614 16.7709C16.2614 16.7709 15.5484 13.5387 12.2099 13.5387C8.87143 13.5387 7.6334 16.7709 7.6334 16.7709C5.76245 14.78 3.25857 14.9244 2.35439 15.0551C2.35439 15.0757 2.35091 15.0998 2.35091 15.1204C2.32309 15.619 2.337 15.8562 2.42046 16.1691C2.68128 17.1491 3.48461 18.2288 4.74351 19.2879C6.80573 21.0209 9.60173 22.2725 11.7196 22.4169C13.9279 22.5647 17.1864 21.2891 19.3564 19.4254C19.6972 19.1262 20.0172 18.8099 20.3162 18.4729C20.5319 18.2254 20.8518 17.799 20.8275 17.799C20.8205 17.799 20.8275 17.7921 20.8414 17.7852C20.8518 17.7784 20.8622 17.768 20.8553 17.7612C20.8518 17.7577 20.8588 17.7474 20.8692 17.744C20.8796 17.7405 20.8866 17.7337 20.8831 17.7268C20.8796 17.7199 20.8831 17.713 20.897 17.7096C20.9074 17.7061 20.9109 17.6958 20.9074 17.689C20.904 17.6821 20.9074 17.6752 20.9144 17.6752C20.9214 17.6752 20.9283 17.6649 20.9283 17.658C20.9283 17.6511 20.9353 17.6408 20.9422 17.6408C20.9492 17.6408 20.9561 17.6339 20.9561 17.6271C20.9666 17.5996 20.984 17.572 21.0013 17.548C21.0535 17.4689 21.2622 17.101 21.29 17.0391C21.4882 16.5955 21.6134 16.2001 21.6725 15.8047C21.6934 15.6155 21.7108 15.2683 21.6969 15.1857ZM13.0028 19.3807C12.9368 19.4185 12.8915 19.4357 12.8811 19.4288C12.8707 19.4254 12.822 19.3841 12.7698 19.3463L12.6759 19.2707L12.5786 19.3738C12.3664 19.6008 12.3595 19.6111 12.2969 19.6145C12.1995 19.6248 12.1786 19.6076 12.0604 19.4323C11.9978 19.3429 11.9491 19.2672 11.9491 19.2672C11.9491 19.2672 11.9039 19.2603 11.8517 19.2569L11.7544 19.2466L11.7092 19.3394L11.664 19.4323L11.584 19.4082C11.5214 19.3876 11.4588 19.3635 11.3997 19.336L11.2953 19.2844V19.0884L12.2204 19.0919L13.1454 19.0953L13.1489 19.1881C13.1524 19.2982 13.1558 19.2947 13.0028 19.3807ZM14.7416 18.7618C14.6895 18.9578 14.6477 19.1159 14.6477 19.1228C14.6095 19.1262 14.5747 19.1297 14.5365 19.1262H14.4252L14.2756 19.4873C14.1922 19.6833 14.1157 19.8655 14.1052 19.893L14.0844 19.9412L14.0113 19.8243L13.9383 19.7074V18.7549L13.9105 18.7618C13.8514 18.7755 13.4306 18.8305 13.2463 18.8477C12.4847 18.9234 11.7196 18.9062 10.9615 18.7996C10.8398 18.7824 10.7354 18.7686 10.732 18.7721C10.7285 18.7755 10.732 18.9956 10.7389 19.2672L10.7493 19.7555L10.6902 19.8449C10.6589 19.893 10.6276 19.9343 10.6276 19.9377C10.6172 19.948 10.5824 19.893 10.5024 19.7349C10.4155 19.5698 10.3529 19.3945 10.3077 19.2122L10.2833 19.1125L10.1755 19.1194L10.0677 19.1297L10.0399 19.0025C10.026 18.9337 10.0086 18.8271 10.0017 18.7686L9.99122 18.6586L9.9008 18.5795C9.84864 18.5348 9.79648 18.4901 9.78604 18.4832C9.76866 18.4695 9.7617 18.4454 9.7617 18.4248V18.3835L10.1964 18.387L10.6311 18.3904L10.645 18.4351L10.6589 18.4798L10.8085 18.4867C10.8919 18.4901 11.1562 18.497 11.3927 18.5039L11.8274 18.5142L11.9387 18.3423L12.0534 18.1703H12.1995L12.196 17.8127L12.1925 17.4551L12.0013 17.3726C11.3857 17.1044 11.0241 16.7984 10.8884 16.427C10.8606 16.3514 10.8606 16.3239 10.8537 15.98C10.8502 15.6396 10.8502 15.6087 10.8745 15.533C10.9232 15.3611 11.0588 15.227 11.2327 15.1823C11.2918 15.1651 11.4483 15.1651 12.2691 15.1651L13.2358 15.1685L13.3436 15.2201C13.4723 15.282 13.5314 15.3267 13.6045 15.423C13.6879 15.533 13.7123 15.619 13.7123 15.8287C13.7123 16.1279 13.6914 16.3858 13.6601 16.4889C13.6149 16.6299 13.5453 16.764 13.4584 16.8843C13.2845 17.1044 12.9681 17.3245 12.6794 17.4242L12.596 17.4551L12.5994 17.8162L12.6029 18.1772L12.6794 18.1841L12.7559 18.191L12.8603 18.3457L12.9611 18.5004H13.4271C13.6844 18.5004 13.9105 18.5039 13.9314 18.5073C13.9661 18.5142 13.9731 18.5108 14.0079 18.4523L14.0496 18.3904H14.4495C14.759 18.3904 14.8494 18.3938 14.8494 18.4042C14.839 18.4007 14.7938 18.5692 14.7416 18.7618Z" fill="white"/>
<path d="M21.6693 14.835C21.6623 14.6802 21.6484 14.4636 21.638 14.357C21.4884 12.7959 21.085 11.5203 20.3199 10.1689C20.2886 10.1174 20.2608 10.0658 20.2434 10.0245C20.2365 10.0142 20.233 10.0039 20.2295 9.99701C20.3373 9.67723 20.779 8.33965 21.1302 6.80952C21.6067 4.73267 21.9092 2.3051 20.9842 1.57614C20.9842 1.57614 19.3845 1.45923 17.2423 3.53608C16.6615 4.11031 16.1294 4.73267 15.6565 5.3963L15.5069 5.34816C14.6445 5.06964 13.7507 4.89772 12.85 4.83927C12.5788 4.81864 11.5668 4.81864 11.2364 4.83927C10.2384 4.9046 9.47328 5.05245 8.60388 5.3516C8.5691 5.36536 8.5378 5.37567 8.5065 5.38599C8.01616 4.7258 7.47018 4.10687 6.86855 3.53952C4.6394 1.45235 2.98058 1.5727 2.98058 1.5727C1.9999 2.32573 2.33375 4.86334 2.84148 7.00896C3.17533 8.42905 3.58569 9.67723 3.7387 10.1277C3.72827 10.1517 3.71436 10.1792 3.70045 10.2033C2.89016 11.8263 2.45198 13.3908 2.34766 15.055C3.25531 14.9244 5.75571 14.7765 7.63015 16.7708C7.63015 16.7708 8.86817 13.5387 12.2067 13.5387C15.5452 13.5387 16.2581 16.7708 16.2581 16.7708C18.4699 14.9656 20.852 15.0241 21.6866 15.11C21.6832 15.0413 21.6762 14.9381 21.6693 14.835ZM4.39597 8.83136C4.39597 8.83136 3.09534 5.61637 3.42919 3.78021C3.48483 3.47075 3.58916 3.1991 3.75261 2.9928C3.75261 2.9928 5.22712 3.13721 7.6058 5.75047C7.6058 5.75047 7.15371 5.96709 6.54861 6.42785C6.54861 6.42785 6.54513 6.43129 6.54165 6.43129C5.88438 6.92987 5.0428 7.72072 4.39597 8.83136ZM9.91493 13.6074C9.89407 13.6487 9.78974 13.6934 9.6715 13.7106C9.55326 13.7278 9.19159 13.7175 8.98641 13.6934C8.24916 13.5971 7.4667 13.3736 6.89637 13.0985C6.57643 12.9438 6.34691 12.7891 6.1765 12.6206L6.07913 12.5209L6.0687 12.3902C6.05131 12.1633 6.05479 11.8057 6.08261 11.6784C6.1 11.5718 6.13825 11.4687 6.19042 11.3758C6.21824 11.3415 6.21824 11.3415 6.34343 11.3415C6.49645 11.3415 6.62512 11.3655 6.83377 11.4309C7.26152 11.5615 7.89792 11.8779 8.67343 12.3386C9.31331 12.7169 9.55326 12.9025 9.73758 13.157C9.86277 13.3152 9.94623 13.5387 9.91493 13.6074ZM18.1082 12.4693C18.0977 12.5243 17.9343 12.6893 17.7709 12.8097C17.2909 13.157 16.432 13.4802 15.5591 13.6349C15.0618 13.7243 14.5645 13.7381 14.415 13.6659C14.3176 13.6177 14.3037 13.5799 14.3385 13.4561C14.4115 13.1982 14.648 12.9163 15.0166 12.6515C15.2044 12.5174 15.966 12.0601 16.3207 11.8675C16.9049 11.5512 17.3779 11.3621 17.6978 11.3174C17.7987 11.3036 17.9204 11.3002 17.9586 11.3174C18.0212 11.3415 18.0908 11.5237 18.1186 11.7438C18.1325 11.8607 18.1256 12.3764 18.1082 12.4693ZM17.5309 6.42785L17.5239 6.42441C16.9397 5.96365 16.5015 5.74703 16.5015 5.74703C18.8002 3.13377 20.2226 2.98936 20.2226 2.98936C20.3791 3.19911 20.4799 3.46731 20.5356 3.77677C20.859 5.61293 19.6036 8.83136 19.6036 8.83136C19.0784 7.9064 18.3725 7.08804 17.5309 6.42785Z" fill="#FFA409"/>
<path d="M20.539 3.77679C20.2677 3.74241 18.9845 3.73553 17.5308 6.42787L17.5239 6.42443C16.9396 5.96368 16.5015 5.74705 16.5015 5.74705C18.8002 3.1338 20.2225 2.98938 20.2225 2.98938C20.3825 3.19913 20.4833 3.46733 20.539 3.77679Z" fill="#FF9300"/>
<path d="M19.6074 8.83144C19.0788 7.90304 18.3763 7.08812 17.5312 6.42793C18.9849 3.73559 20.2647 3.74246 20.5394 3.77685C20.8628 5.61644 19.6074 8.83144 19.6074 8.83144Z" fill="#FF8300"/>
<path d="M20.5912 3.78705C20.5738 3.78361 20.5565 3.78017 20.5391 3.77673L20.5912 3.78705Z" fill="#FF8300"/>
<path d="M7.60538 5.74705C7.60538 5.74705 7.15329 5.96368 6.54819 6.42443C6.54819 6.42443 6.54471 6.42787 6.54123 6.42787C5.03543 3.73209 3.71046 3.74241 3.42529 3.77679C3.48093 3.46733 3.58526 3.19569 3.74871 2.98938C3.75219 2.98938 5.22669 3.1338 7.60538 5.74705Z" fill="#FF9300"/>
<path d="M6.54476 6.42793C5.88402 6.92995 5.04244 7.71736 4.3956 8.83144C4.3956 8.83144 3.09497 5.61644 3.42882 3.77685C3.71051 3.74246 5.03896 3.73559 6.54476 6.42793Z" fill="#FF8300"/>
<path d="M3.42918 3.77673C3.41179 3.78017 3.39092 3.78361 3.37354 3.78705L3.42918 3.77673Z" fill="#FF8300"/>
<path d="M16.0878 10.6159C16.0878 10.6159 14.975 10.6847 15.1141 9.82508C15.2532 8.96546 16.1226 8.8623 16.366 8.89669C16.6095 8.93107 17.5832 9.27492 17.4093 9.997C17.2354 10.7191 16.992 10.5815 16.8529 10.6159C16.7138 10.6503 16.0878 10.6159 16.0878 10.6159Z" fill="white"/>
<path d="M7.88078 10.6159C7.88078 10.6159 6.76795 10.6847 6.90705 9.82508C7.04616 8.96546 7.91556 8.8623 8.15899 8.89669C8.40243 8.93107 9.37616 9.27492 9.20228 9.997C9.02839 10.7191 8.78496 10.5815 8.64586 10.6159C8.50675 10.6503 7.88078 10.6159 7.88078 10.6159Z" fill="white"/>
</svg>
