<svg width="20" height="21" viewBox="0 0 20 21" fill="none" xmlns="http://www.w3.org/2000/svg">
    <g filter="url(#a)" fill-rule="evenodd" clip-rule="evenodd" fill="#2F3045">
        <path d="M7 3.75v-2.5h1.25V0H12v1.25h1.25v2.5H7zm2.5-2.5V2.5h1.25V1.25H9.5z"/>
        <path d="M13.25 3.75V5H7V3.75H5.75V2.5h-2.5v1.25H2v15h1.25V20H17v-1.25h1.25v-15H17V2.5h-2.5v1.25h-1.25zM5.75 7.5H4.5v1.25h1.25V10H7V8.75h1.25V7.5H9.5V6.25H8.25V7.5H7v1.25H5.75V7.5zm0 3.75H4.5v1.25h1.25v1.25H7V12.5h1.25v-1.25H9.5V10H8.25v1.25H7v1.25H5.75v-1.25zm5 0h5v1.25h-5v-1.25zm0-3.75h5v1.25h-5V7.5zm-2.5 6.25H9.5V15H8.25v-1.25zM7 16.25V15h1.25v1.25H7zm-1.25 0H7v1.25H5.75v-1.25zm0 0H4.5V15h1.25v1.25zm10-1.25h-5v1.25h5V15z"/>
    </g>
    <defs>
        <filter id="a" x="2" y="0" width="16.25" height="21" filterUnits="userSpaceOnUse" color-interpolation-filters="sRGB">
            <feFlood flood-opacity="0" result="BackgroundImageFix"/>
            <feColorMatrix in="SourceAlpha" values="0 0 0 0 0 0 0 0 0 0 0 0 0 0 0 0 0 0 127 0" result="hardAlpha"/>
            <feOffset dy="1"/>
            <feColorMatrix values="0 0 0 0 0 0 0 0 0 0 0 0 0 0 0 0 0 0 0.25 0"/>
            <feBlend in2="BackgroundImageFix" result="effect1_dropShadow_10906:5851"/>
            <feBlend in="SourceGraphic" in2="effect1_dropShadow_10906:5851" result="shape"/>
        </filter>
    </defs>
</svg>
