<svg width="32" height="32" viewBox="0 0 32 32" fill="none" xmlns="http://www.w3.org/2000/svg">
    <path d="M29.913 10.435V6.26h-2.087V4.174H25.74V2.087h-4.174V0h-11.13v2.087H6.26v2.087H4.174V6.26H2.087v4.174H0v11.13h2.087v4.174h2.087v2.087H6.26v2.087h4.174V32h11.13v-2.087h4.174v-2.087h2.087V25.74h2.087v-4.174H32v-11.13h-2.087zM16.696 25.739h-2.087v-2.087h2.087v2.087zm4.87-10.435h-2.088v2.087h-2.782v4.174h-2.087v-4.174h2.087v-2.087h2.782V8.348h-7.652v4.174H9.74V8.348h2.087V6.26h7.652v2.087h2.087v6.956z" fill="#03E1E4"/>
</svg>
