<svg width="31" height="30" viewBox="0 0 31 30" fill="none" xmlns="http://www.w3.org/2000/svg">
    <path d="M24.13 7.826h-4.565V5.87h4.566v1.956zM24.13 14.348h-4.565V12.39h4.566v1.957zM26.09 12.39h-1.957V7.826h1.956v4.566zM19.559 12.39h-1.957V7.826h1.957v4.566zM13.046 1.957H9.133V.001h3.913v1.956zM13.046 7.826H9.133V5.87h3.913v1.956zM15.003 5.87h-1.956V1.957h1.956V5.87zM9.126 5.87H7.17V1.957h1.956V5.87zM5.87 16.304H0V30h5.87V16.304zM22.83 18.26v1.957h-2.609v1.957h-7.826v-1.957h7.826v-3.913H7.831v11.74h1.956V30H20.22v-1.957h3.913v-1.956h1.957V24.13h1.956v-1.956h1.957V18.26H22.83z" fill="#362E3D"/>
</svg>
