<svg width="24" height="24" viewBox="0 0 24 24" fill="none" xmlns="http://www.w3.org/2000/svg">
    <path d="M22.435 7.826v-3.13H20.87V3.13h-1.566V1.565h-3.13V0H7.826v1.565h-3.13V3.13H3.13v1.566H1.565v3.13H0v8.348h1.565v3.13H3.13v1.566h1.566v1.565h3.13V24h8.348v-1.565h3.13V20.87h1.566v-1.566h1.565v-3.13H24V7.826h-1.565zm-9.913 11.478h-1.566V17.74h1.566v1.565zm3.652-7.826h-1.565v1.566h-2.087v3.13h-1.566v-3.13h1.566v-1.566h2.087V6.261h-5.74v3.13H7.305v-3.13H8.87V4.696h5.739V6.26h1.565v5.217z" fill="#7E7DA1"/>
</svg>
