<svg width="15" height="15" viewBox="0 0 15 15" fill="none" xmlns="http://www.w3.org/2000/svg">
<path fill-rule="evenodd" clip-rule="evenodd" d="M1.19999 4.79999H0.299988V10.2H1.19999V12H2.09999V12.9H2.99999V13.8H4.79999V14.7H10.2V13.8H12V12.9H12.9V12H13.8V10.2H14.7V4.79999H13.8V2.99999H12.9V2.09999H12V1.19999H10.2V0.299988H4.79999V1.19999H2.99999V2.09999H2.09999V2.99999H1.19999V4.79999ZM3.89999 5.69999V4.34999H4.79999V3.44999H10.2V4.34999H11.1V7.04999H10.2V7.94999H9.29999V8.84999H10.2V9.74999H11.1V11.55H9.29999V9.74999H8.39999V8.84999H7.49999V7.94999H6.59999V11.55H4.79999V7.94999H3.89999V6.59999H4.79999V5.69999H3.89999Z" fill="#03E1E4"/>
<path d="M6.59999 4.34999V7.04999H8.84999V6.59999H9.29999V4.79999H8.84999V4.34999H6.59999Z" fill="#03E1E4"/>
</svg>
