<svg width="17" height="17" viewBox="0 0 17 17" fill="none" xmlns="http://www.w3.org/2000/svg">
<path fill-rule="evenodd" clip-rule="evenodd" d="M15.5 1H1.5V2.25H3.40909V4.125V4.75H4.04545V5.375H4.68182V6H5.31818V6.625H5.95455V7.25H6.59091V7.875H7.22727V8.5H6.59091V9.125H5.95455V9.75H5.31818V10.375H4.68182V11H4.04545V11.625H3.40909V12.25V14.75H1.5V16H15.5V14.75H13.5909V12.25V11.625H12.9545V11H12.3182V10.375H11.6818V9.75H11.0455V9.125H10.4091V8.5H9.77273V7.875H10.4091V7.25H11.0455V6.625H11.6818V6H12.3182V5.375H12.9545V4.75H13.5909V4.125V2.25H15.5V1ZM4.68182 2.25H12.3182V3.5V4.125H11.6818V4.75H11.0455V5.375H5.95455V4.75H5.31818V4.125H4.68182V3.5V2.25ZM5.31818 12.25H4.68182V12.875H5.95455V12.25H6.59091V11.625H7.22727V11H7.86364H9.13636H9.77273V11.625H10.4091V12.25H11.0455V12.875H12.3182V12.25H11.6818V11.625H11.0455V11H10.4091V10.375H9.77273V9.75H9.13636V9.125H7.86364V9.75H7.22727V10.375H6.59091V11H5.95455V11.625H5.31818V12.25Z" fill="white"/>
</svg>
