<svg width="32" height="32" viewBox="0 0 32 32" fill="none" xmlns="http://www.w3.org/2000/svg">
    <path fill-rule="evenodd" clip-rule="evenodd" d="M11.2 6V2h2V0h6v2h2v4h-10zm4-4v2h2V2h-2z" fill="#03E1E4"/>
    <path fill-rule="evenodd" clip-rule="evenodd" d="M21.2 6v2h-10V6h-2V4h-4v2h-2v24h2v2h22v-2h2V6h-2V4h-4v2h-2zm-12 6h-2v2h2v2h2v-2h2v-2h2v-2h-2v2h-2v2h-2v-2zm0 6h-2v2h2v2h2v-2h2v-2h2v-2h-2v2h-2v2h-2v-2zm8 0h8v2h-8v-2zm0-6h8v2h-8v-2zm-4 10h2v2h-2v-2zm-2 4v-2h2v2h-2zm-2 0h2v2h-2v-2zm0 0h-2v-2h2v2zm16-2h-8v2h8v-2z" fill="#03E1E4"/>
</svg>
