<svg xmlns="http://www.w3.org/2000/svg" width="47" height="48" fill="none" viewBox="0 0 47 48">
    <path fill="#2BD600" d="M43.934 14.304V9.196H40.87V6.13h-3.065V3.065h-5.109V0H14.304v3.065H9.195v3.066H6.13v3.065H3.064v5.108H0v18.392h3.064v5.109H6.13v3.065h3.065V43.935h5.109V47h18.391V43.935h5.109V40.87h3.065v-3.065h3.065v-5.109H47V14.304h-3.066z"/>
    <path fill="#209E00" d="M14.304 3.065H9.196v3.066H6.13v3.065H3.065v5.108H0V23.5h6.131v-9.196h3.065V9.196h5.108V6.13H23.5V0h-9.196v3.065zM26.566 0v6.131h3.065V0h-3.065zM0 26.566v3.065h6.131v-3.065H0z"/>
    <path fill="#135E01" d="M14.306 3.065H9.197v3.066h5.109V3.065zM9.197 6.13H6.13v3.066h3.066V6.13zM6.13 9.196H3.067v5.109H6.13v-5.11zM6.13 32.696H3.067v5.109H6.13v-5.109zM9.197 37.805H6.13v3.065h3.066v-3.065zM14.306 40.87H9.197v3.065h5.109V40.87zM32.695 0H14.303v3.065h18.392V0zM32.695 43.935H14.303V47h18.392v-3.065zM3.065 14.304H0v18.392h3.065V14.304zM37.806 3.065h-5.109v3.066h5.109V3.065z"/>
    <path fill="#135E01" d="M40.869 6.13h-3.066v3.066h3.066V6.13zM43.934 9.196H40.87v5.109h3.065v-5.11zM43.934 32.696H40.87v5.109h3.065v-5.109zM40.869 37.805h-3.066v3.065h3.066v-3.065zM37.806 40.87h-5.109v3.065h5.109V40.87zM47 14.304h-3.065v18.392H47V14.304z"/>
    <path fill="#fff" d="M31.675 12.261v3.066H28.61v3.065h-3.065v3.065H22.48v3.065h-3.066v3.065H16.35v-3.065h-3.065v-3.065H9.197v7.152h3.065v3.065h3.066v3.066h5.108v-3.066h3.065V28.61h3.066v-3.065h3.065v-3.065h3.065v-3.066h3.065v-7.152h-4.087z"/>
</svg>
