<svg xmlns="http://www.w3.org/2000/svg" width="206" height="164" fill="none" viewBox="0 0 206 164">
    <path fill="#000" fill-opacity="0" d="M0 0h205.744v164H0z"/>
    <path fill="#000" fill-opacity="0" d="M0 107.344h80.512v56.655H0z"/>
    <path fill="#000" fill-opacity="0" d="M0 161.014h80.512v2.983H0z"/>
    <path fill="#282826" d="M0 161.015h2.982v2.982H0zM77.529 161.014h2.982v2.982h-2.982zM5.96 161.014h68.582v2.982H5.96z"/>
    <path fill="#F19837" d="M20.873 110.325H17.89v8.946h2.982v11.927H17.89v23.854h2.982v5.964H17.89v2.982h50.69v-2.982H65.6v-5.964h2.982v-17.89h8.945v-5.964h-2.982v-2.982h-2.981v2.982H65.6v-11.927h2.982v-8.946H65.6v-2.982H53.673v2.982H32.8v-2.982H20.873v2.982z"/>
    <path fill="#000" fill-opacity="0" d="M17.89 161.014h50.693v2.983H17.89z"/>
    <path fill="#F0B3C3" d="M17.891 161.015h50.691v2.982H17.891z"/>
    <path fill="#583B21" d="M17.891 161.015h2.982v2.982h-2.982zM65.6 161.014h2.982v2.982H65.6zM26.84 161.014h32.8v2.982h-32.8z"/>
    <path fill="#B3722A" d="M38.76 116.29v-2.981h8.945v2.981h-2.982v5.964h-2.981v-5.964H38.76z"/>
    <path fill="#583B21" d="M23.853 155.054H20.87v5.963h5.963v-2.982h-2.981v-2.981zM62.618 155.054H65.6v5.963h-5.963v-2.982h2.981v-2.981z"/>
    <path fill="#fff" d="M56.65 131.199H29.815v2.981h-2.982v2.982h-2.981v14.909h2.982v2.982h2.981v2.982h26.837v-2.982h2.981v-2.982h2.982v-14.909h-2.982v-2.982h-2.981v-2.981z"/>
    <path fill="#583B21" d="M17.891 131.199h2.982v23.855h-2.982zM65.6 131.199h2.982v23.855H65.6z"/>
    <path fill="#583B21" d="M20.871 119.274h2.982v11.927h-2.982zM62.62 119.274h2.982v11.927H62.62zM65.6 110.323h2.982v8.945H65.6zM17.891 110.323h2.982v8.945h-2.982z"/>
    <path fill="#583B21" d="M20.871 107.343h11.927v2.982H20.871zM53.671 107.343h11.927v2.982H53.671z"/>
    <path fill="#583B21" d="M32.8 110.323h20.873v2.982H32.8zM35.78 131.199h5.963v5.963H35.78v-5.963zM44.73 131.199h5.963v5.963h-5.964v-5.963z"/>
    <path fill="#F0B3C3" d="M44.729 131.199h2.982v2.982h-2.982zM38.76 131.199h2.982v2.982H38.76z"/>
    <path fill="#803D23" d="M41.749 131.199h2.982v2.982h-2.982z"/>
    <path fill="#000" fill-opacity="0" d="M26.834 137.161h8.95v8.945h-8.95z"/>
    <path fill="#583B21" d="M35.784 140.143h-2.982v-2.982H29.82v2.982h-2.982v5.964h8.946v-5.964z"/>
    <path fill="#F0B3C3" d="M26.834 140.141h5.964v2.982h-5.964z"/>
    <path fill="#000" fill-opacity="0" d="M68.58 128.215h8.95v8.945h-8.95z"/>
    <path fill="#583B21" d="M77.53 131.197h-2.983v-2.982h-2.981v2.982h-2.982v5.964h8.945v-5.964z"/>
    <path fill="#F0B3C3" d="M68.58 131.195h5.964v2.982H68.58z"/>
    <path fill="#000" fill-opacity="0" d="M29.82 119.274h8.947v8.945H29.82z"/>
    <path fill="#B3722A" d="M29.82 119.274h8.946v8.945H29.82v-8.945z"/>
    <path fill="#0E0901" d="M32.802 122.255H29.82v5.964h5.964v-2.982h-2.982v-2.982z"/>
    <path fill="#fff" d="M32.8 122.255h2.982v2.982H32.8v-2.982z"/>
    <path fill="#000" fill-opacity="0" d="M47.71 119.274h8.945v8.945h-8.946z"/>
    <path fill="#B3722A" d="M47.71 119.274h8.945v8.945h-8.946v-8.945z"/>
    <path fill="#0E0901" d="M50.691 122.255h-2.982v5.964h5.964v-2.982H50.69v-2.982z"/>
    <path fill="#fff" d="M50.689 122.255h2.982v2.982h-2.982v-2.982z"/>
    <path fill="#B3722A" d="M23.853 158.035h2.981v-5.964h-2.981v-20.872H20.87v23.854h2.982v2.982zM62.618 158.035h-2.982v-5.964h2.982v-20.872H65.6v23.854h-2.982v2.982z"/>
    <path fill="#B3722A" d="M23.851 119.274h2.982v11.927h-2.982zM59.64 119.274h2.982v11.927H59.64zM29.82 110.323h2.982v2.982H29.82zM53.671 110.323h2.982v2.982h-2.982z"/>
    <path fill="#F0B3C3" d="M29.816 110.323h-8.945v8.946h2.982v-2.982h2.981v-2.982h2.982v-2.982zM56.655 110.323H65.6v8.946h-2.982v-2.982h-2.982v-2.982h-2.981v-2.982z"/>
    <path fill="#000" fill-opacity="0" d="M116.291 161.015h89.454v2.983H116.29z"/>
    <path fill="#282826" d="M122.251 161.015h74.545v2.982h-74.545zM116.291 161.016h2.982v2.982h-2.982zM199.782 161.015h5.964v2.982h-5.964z"/>
    <path fill="#000" fill-opacity="0" d="M89.45 47.71h29.819v20.873H89.451z"/>
    <path fill="#D7D2BC" d="M89.451 47.71h29.818v20.873H89.451z"/>
    <path fill="#CBC6AF" d="M89.45 47.71h5.964v14.91h23.855v5.963H89.451V47.71z"/>
    <path fill="#ACA790" d="M92.44 50.69h2.982v2.982H92.44zM95.42 53.675h2.982v2.982H95.42zM98.4-59.635h2.982v-2.982H98.4zM110.331 59.635h-2.982v-2.982h2.982z"/>
    <path fill="#ACA790" d="M113.311 56.655h-2.982v-2.982h2.982z"/>
    <path fill="#ACA790" d="M116.291 53.675h-2.982v-2.982h2.982zM113.311 62.62h-2.982v-2.982h2.982zM101.382-62.62h5.964v-2.982h-5.964zM95.42 59.635h2.982v2.982H95.42zM92.44 62.62h2.982v2.982H92.44z"/>
    <path fill="#000" fill-opacity="0" d="M113.309 0h74.545v164h-74.545z"/>
    <path fill="#4962AF" d="M131.2 163.999h14.909v-50.691H164v5.964h5.964v44.727h11.927v-2.982h-2.982V92.436h2.982v-2.982h2.982V53.672h-2.982v-2.981h-2.982v-2.982h-5.964v-5.964h-29.818v8.945h-8.945v2.982H131.2v17.891h-2.982v-2.982h-2.982V65.6h-2.981v-2.982h-8.946V65.6h2.982v2.981h2.982v5.964h2.982v2.982h2.981v2.981h2.982v2.982h8.946v74.545h-2.982v2.982H131.2v2.982z"/>
    <path fill="#713B23" d="M166.978 47.71h11.927v2.982h-11.927z"/>
    <path fill="#713B23" d="M163.998 50.69h2.982v50.691h17.891V89.454h2.982v29.818h-23.855V50.69z"/>
    <path fill="#5C2F1B" d="M169.962 104.363h-5.964v2.982h2.982v5.964h2.982v-8.946zM169.96 113.31h17.891v2.982H169.96z"/>
    <path fill="#BB8C27" d="M178.909 110.325h2.982v2.982h-2.982z"/>
    <path fill="#E3AF8A" d="M163.998 83.49h2.982v8.945h-2.982z"/>
    <path fill="#5C2F1B" d="M163.998 80.51h2.982v2.982h-2.982z"/>
    <path fill="#40569B" d="M119.269 71.562h2.982v2.982h2.982v2.982h2.981v2.982h8.946V59.635h2.982v98.4h-2.982V83.49h-8.946v-2.982h-2.981v-2.982h-2.982v-2.982h-2.982v-2.982z"/>
    <path fill="#40569B" d="M119.269 65.6h5.964v2.982h-5.964zM134.178 50.69h8.945v2.982h-8.945zM125.239 68.58h2.982v2.982h-2.982zM128.218 71.565h2.982v2.982h-2.982z"/>
    <path fill="#40569B" d="M131.198 53.675h2.982v17.891h-2.982zM178.909 50.69h2.982v2.982h-2.982zM143.129 47.71h2.982v2.982h-2.982zM166.978 89.455h14.909v2.982h-14.909zM166.978 80.508h5.964V59.635h2.982V83.49h-8.946v-2.982zM181.889 53.675h2.982v35.782h-2.982z"/>
    <path fill="#2D3039" d="M137.16 101.38h26.836v2.982H137.16z"/>
    <path fill="#FFC64C" d="M152.069 101.38h8.945v2.982h-8.945z"/>
    <path fill="#BB8C27" d="M152.069 101.38h2.982v2.982h-2.982z"/>
    <path fill="#E3AF8A" d="M122.255 62.62h-8.946v2.982h2.982v2.982h2.982v-2.982h2.982V62.62zM149.087 47.709v2.982h14.909v-2.982h8.946v-2.982h2.981v-2.982h2.982V26.836h2.982V14.91h-2.982V5.964h2.982V0h-47.709v5.964h2.982v2.981h-2.982v2.982h2.982v2.982h-2.982v8.946h2.982v17.89h2.982v2.982h2.982v2.982h5.963z"/>
    <path fill="#324E9F" d="M134.178 0h47.709v5.964h-2.982v2.981H137.16V5.964h-2.982V0z"/>
    <path fill="#4962AF" d="M137.16 5.965h41.745v2.982H137.16z"/>
    <path fill="#2F4486" d="M134.178 2.98h2.982v2.982h-2.982zM178.909 2.98h2.982v2.982h-2.982z"/>
    <path fill="#2D3039" d="M134.178 8.945h44.727v2.982h-44.727z"/>
    <path fill="#FFC64C" d="M152.069 2.98h5.964v5.964h-5.964z"/>
    <path fill="#DAA432" d="M152.069 2.98h2.982v2.982h-2.982z"/>
    <path fill="#D6782C" d="M134.178 14.91h2.982v8.945h-2.982zM137.16 14.911v-2.982h41.745v2.982h2.982v11.927h-2.982v2.982h-2.982v-5.964h2.982v-2.981h-2.982v2.981h-2.981v-8.945H137.16z"/>
    <path fill="#BF6822" d="M175.931 14.91h-2.981v8.945h2.981v-2.981h2.982v-2.982h-2.982V14.91zM175.929 26.835h2.982v2.982h-2.982z"/>
    <path fill="#AF876A" d="M137.16 14.91h2.982v26.836h-2.982zM140.15 41.745h2.982v2.982h-2.982z"/>
    <path fill="#AF876A" d="M143.129 44.725h2.982v2.982h-2.982z"/>
    <path fill="#CB9E7E" d="M140.15 14.91h2.982v26.836h-2.982z"/>
    <path fill="#CB9E7E" d="M143.129 41.745h2.982v2.982h-2.982z"/>
    <path fill="#CB9E7E" d="M146.109 44.725h2.982v2.982h-2.982z"/>
    <path fill="#000" fill-opacity="0" d="M178.909 29.82h-8.945v17.887h8.945z"/>
    <path fill="#CB9E7E" d="M-178.909 29.82h-2.982v11.927h2.982z"/>
    <path fill="#CB9E7E" d="M-175.929 41.745h-2.982v2.982h2.982zM-172.946 44.725h-2.982v2.982h2.982z"/>
    <path fill="#fff" d="M164 35.78h-17.891v2.982h2.982v2.982h11.927v-2.982H164V35.78z"/>
    <path fill="#F0F0F0" d="M146.109 35.78h2.982v2.982h-2.982zM149.089 38.765h2.982v2.982h-2.982z"/>
    <path fill="#363636" d="M143.129 20.875h5.964v8.945h-5.964z"/>
    <path fill="#fff" d="M146.109 20.875h2.982v2.982h-2.982z"/>
    <path fill="#363636" d="M161.018 20.875h5.964v8.945h-5.964z"/>
    <path fill="#fff" d="M163.998 20.875h2.982v2.982h-2.982z"/>
    <path fill="#F5F5F5" d="M146.109 47.71h2.982v2.982h-2.982zM163.998 47.71h2.982v2.982h-2.982z"/>
    <path fill="#F5F5F5" d="M149.089 50.69h2.982v5.964h-2.982zM161.018 50.69H164v5.964h-2.982z"/>
    <path fill="#A93C22" d="M152.069 50.69h8.946v20.873h-2.982v-5.964h-2.982v2.982h-2.982V50.69z"/>
    <path fill="#953620" d="M155.049 59.635h2.982v2.982h-2.982z"/>
    <path fill="#C84A2D" d="M158.039 65.6h2.982v2.982h-2.982zM152.069 59.635h2.982v2.982h-2.982zM158.039 50.69h2.982v2.982h-2.982z"/>
    <path fill="#953620" d="M152.069 65.6h2.982v2.982h-2.982zM152.069 50.69h2.982v2.982h-2.982zM158.039 53.675h2.982v2.982h-2.982z"/>
    <path fill="#713B23" d="M146.107 158.035v5.963h-14.909v-2.982h2.982v-2.981h11.927z"/>
    <path fill="#5C2F1B" d="M134.178 158.035h2.982v2.982h-2.982zM131.198 161.018h2.982V164h-2.982z"/>
    <path fill="#713B23" d="M178.905 158.035h-8.945v5.963h11.927v-2.982h-2.982v-2.981z"/>
    <path fill="#5C2F1B" d="M169.96 158.035h2.982v5.964h-2.982z"/>
    <path fill="#40569B" d="M169.96 119.273h2.982v38.764h-2.982zM140.15 104.363h23.855v2.982H140.15z"/>
    <path fill="#35477F" d="M161.018 104.363H164v8.945h-2.982zM169.96 119.273h8.945v2.982h-8.945zM166.978 92.435h11.927v8.945h-2.981v-2.981h-8.946v-5.964z"/>
</svg>
