<svg width="48" height="48" viewBox="0 0 48 48" fill="none" xmlns="http://www.w3.org/2000/svg">
<path d="M14 48H10V16H0V4H2V2H4V0H44V2H46V4H48V48H44V46H42V44H40V46H38V48H36V46H34V44H32V46H30V48H28V46H26V44H24V46H22V48H20V46H18V44H16V46H14V48Z" fill="#F2F2F2"/>
<path d="M20 8V6H22V8H20Z" fill="#808080"/>
<path d="M24 8V6H26V8H24Z" fill="#808080"/>
<path d="M28 8V6H30V8H28Z" fill="#808080"/>
<path d="M32 8V6H34V8H32Z" fill="#808080"/>
<path d="M36 8V6H38V8H36Z" fill="#808080"/>
<path d="M40 8V6H42V8H40Z" fill="#808080"/>
<path d="M16 20V18H42V20H16Z" fill="#808080"/>
<path d="M16 26V24H30V26H16Z" fill="#808080"/>
<path d="M16 6V8H18V6H16Z" fill="#808080"/>
<path d="M16 12V14H42V12H16Z" fill="#808080"/>
<path d="M0 16H10V4H8V2H2V4H0V16Z" fill="#B3B3B3"/>
<path d="M0 40V30H2V28H4V26H6V24H8V22H18V24H20V26H22V28H24V30H26V40H24V42H22V44H20V46H18V48H8V46H6V44H4V42H2V40H0Z" fill="#D22D1F"/>
<path d="M10 36H12V34H10V32H8V30H6V28H10V30H12V32H14V30H16V28H20V30H18V32H16V34H14V36H16V38H18V40H20V42H16V40H14V38H12V40H10V42H6V40H8V38H10V36Z" fill="white"/>
<path d="M8 46H6V44H4V42H2V40H0V30H2V28H4V26H6V24H8V22H18V24H8V26H6V28H4V30H2V40H4V42H6V44H8V46Z" fill="#E93323"/>
<path d="M18 24H20V26H22V28H24V30H26V40H24V42H22V44H20V46H18V48H8V46H18V44H20V42H22V40H24V30H22V28H20V26H18V24Z" fill="#BA271A"/>
</svg>
