<svg width="48" height="48" viewBox="0 0 48 48" fill="none" xmlns="http://www.w3.org/2000/svg">
<path d="M14 48H10V16H0V4H2V2H4V0H44V2H46V4H48V48H44V46H42V44H40V46H38V48H36V46H34V44H32V46H30V48H28V46H26V44H24V46H22V48H20V46H18V44H16V46H14V48Z" fill="#F2F2F2"/>
<path d="M20 8V6H22V8H20Z" fill="#808080"/>
<path d="M24 8V6H26V8H24Z" fill="#808080"/>
<path d="M28 8V6H30V8H28Z" fill="#808080"/>
<path d="M32 8V6H34V8H32Z" fill="#808080"/>
<path d="M36 8V6H38V8H36Z" fill="#808080"/>
<path d="M40 8V6H42V8H40Z" fill="#808080"/>
<path d="M16 20V18H42V20H16Z" fill="#808080"/>
<path d="M16 26V24H30V26H16Z" fill="#808080"/>
<path d="M16 6V8H18V6H16Z" fill="#808080"/>
<path d="M16 12V14H42V12H16Z" fill="#808080"/>
<path d="M0 16H10V4H8V2H2V4H0V16Z" fill="#B3B3B3"/>
</svg>
