<svg xmlns="http://www.w3.org/2000/svg" width="23" height="24" fill="none" viewBox="0 0 23 24">
    <g fill="#fff" filter="url(#a)">
        <path d="M13.5 3.5h-10V5h10V3.5zM13.5 7h-10v1.5h10V7zM8 18.5H3.5V20h9v-1.5h-3v-3H8v3z"/>
        <path d="M20 9.5V8h-1.5V6.5H17V0H0v23h17v-9h1.5v-1.5H20V11h1.5V9.5H20zm-4.5 0H14V11h-1.5v1.5H11V14H9.5v1.5H11V17h1.5v1.5H14V17h1.5v4.5h-14v-20h14v8zM23 6.5h-1.5v3H23v-3z"/>
        <path d="M21.5 5h-3v1.5h3V5z"/>
    </g>
    <defs>
        <filter id="a" width="23" height="24" x="0" y="0" color-interpolation-filters="sRGB" filterUnits="userSpaceOnUse">
            <feFlood flood-opacity="0" result="BackgroundImageFix"/>
            <feColorMatrix in="SourceAlpha" values="0 0 0 0 0 0 0 0 0 0 0 0 0 0 0 0 0 0 127 0"/>
            <feOffset dy="1"/>
            <feColorMatrix values="0 0 0 0 0 0 0 0 0 0 0 0 0 0 0 0 0 0 0.25 0"/>
            <feBlend in2="BackgroundImageFix" result="effect1_dropShadow"/>
            <feBlend in="SourceGraphic" in2="effect1_dropShadow" result="shape"/>
        </filter>
    </defs>
</svg>
