<svg width="20" height="20" viewBox="0 0 20 20" fill="none" xmlns="http://www.w3.org/2000/svg">
<path d="M10 20C4.478 20 0 15.522 0 10C0 4.478 4.478 0 10 0C15.522 0 20 4.478 20 10C20 15.522 15.522 20 10 20Z" fill="#FF4500"/>
<path d="M12.292 12.084C11.718 12.084 11.25 11.616 11.25 11.042C11.25 10.468 11.718 10 12.292 10C12.866 10 13.334 10.468 13.334 11.042C13.334 11.616 12.866 12.084 12.292 12.084ZM12.476 13.794C11.764 14.504 10.402 14.56 10.002 14.56C9.60197 14.56 8.23797 14.504 7.52797 13.794C7.42197 13.688 7.42197 13.518 7.52797 13.412C7.63397 13.306 7.80397 13.306 7.90997 13.412C8.35797 13.86 9.31597 14.02 10.002 14.02C10.686 14.02 11.646 13.86 12.094 13.412C12.2 13.306 12.37 13.306 12.476 13.412C12.58 13.518 12.58 13.688 12.476 13.794ZM6.66597 11.042C6.66597 10.468 7.13397 10 7.70797 10C8.28197 10 8.74997 10.468 8.74997 11.042C8.74997 11.616 8.28197 12.084 7.70797 12.084C7.13397 12.084 6.66597 11.616 6.66597 11.042ZM16.666 10C16.666 9.19401 16.014 8.54201 15.208 8.54201C14.814 8.54201 14.458 8.69801 14.196 8.95201C13.2 8.23201 11.826 7.76801 10.296 7.71401L10.96 4.58801L13.13 5.05001C13.156 5.60201 13.608 6.04201 14.166 6.04201C14.742 6.04201 15.208 5.57601 15.208 5.00001C15.208 4.42401 14.742 3.95801 14.166 3.95801C13.756 3.95801 13.406 4.19601 13.236 4.54001L10.812 4.02401C10.744 4.01001 10.674 4.02201 10.616 4.06001C10.558 4.09801 10.518 4.15601 10.504 4.22401L9.77597 7.65401C9.77197 7.67401 9.77597 7.69201 9.77597 7.71201C8.21797 7.75201 6.81797 8.21801 5.80597 8.94801C5.54397 8.69601 5.18997 8.54201 4.79797 8.54201C3.99197 8.54201 3.33997 9.19601 3.33997 10C3.33997 10.592 3.69397 11.102 4.20197 11.33C4.17997 11.474 4.16797 11.622 4.16797 11.772C4.16797 14.016 6.77997 15.834 10.002 15.834C13.224 15.834 15.836 14.016 15.836 11.772C15.836 11.624 15.824 11.478 15.802 11.334C16.308 11.106 16.666 10.596 16.666 10Z" fill="white"/>
</svg>
