<svg width="20" height="20" viewBox="0 0 20 20" fill="none" xmlns="http://www.w3.org/2000/svg">
<circle cx="10" cy="10" r="10" fill="white"/>
<path d="M7.97143 12.0358H7.36571V11.6815C7.13714 11.9501 6.93714 12.0815 6.72857 12.0815C6.54 12.0815 6.41429 11.9958 6.34571 11.8329C6.31143 11.7329 6.28286 11.5815 6.28286 11.3558V8.77864H6.88857V11.4244C6.90286 11.5101 6.94 11.5444 7.01714 11.5444C7.13143 11.5444 7.24 11.4386 7.36857 11.2586V8.77864H7.97429V12.0358H7.97143ZM5.82857 9.8415C5.82857 9.49292 5.76286 9.23292 5.64 9.07007C5.48 8.8415 5.22571 8.75578 4.96857 8.75578C4.67714 8.75578 4.45429 8.8415 4.29714 9.07007C4.17143 9.23292 4.10571 9.49864 4.10571 9.8415V11.0044C4.10571 11.3472 4.16286 11.5872 4.28857 11.7472C4.44857 11.9758 4.71143 12.0901 4.96571 12.0901C5.22286 12.0901 5.48571 11.9758 5.65143 11.7472C5.76571 11.5872 5.82286 11.3472 5.82286 11.0044V9.83578L5.82857 9.8415ZM5.22857 11.0701C5.25714 11.3929 5.15714 11.5558 4.97143 11.5558C4.78286 11.5558 4.68571 11.3929 4.71429 11.0701V9.77864C4.68571 9.45578 4.78286 9.30435 4.97143 9.30435C5.15714 9.30435 5.25714 9.45578 5.22857 9.77864V11.0701ZM3.43714 10.2644V12.0358H2.8V10.2644C2.8 10.2644 2.13429 8.0815 2 7.67578H2.67143L3.12 9.37864L3.56571 7.67864H4.23429L3.43429 10.2615" fill="#111111"/>
<path d="M14.2114 9.29297C14.1172 9.29297 14.0114 9.35011 13.9114 9.44154V11.4015C14.0057 11.4987 14.1114 11.5444 14.2086 11.5444C14.38 11.5444 14.4514 11.4244 14.4514 11.1015V9.71297C14.4514 9.39011 14.3743 9.29583 14.2057 9.29583L14.2114 9.29297ZM16.5943 9.6844C16.5943 9.3844 16.5172 9.29583 16.3257 9.29583C16.1343 9.29583 16.0514 9.38154 16.0514 9.68154V10.0387H16.5943V9.68725" fill="#E62117"/>
<path d="M17.9057 8.03004C17.9057 8.03004 17.8114 7.3729 17.5257 7.07861C17.1628 6.6929 16.7543 6.6929 16.5714 6.6729C15.2371 6.57861 13.2343 6.57861 13.2343 6.57861H13.2285C13.2285 6.57861 11.2285 6.57861 9.89426 6.6729C9.70854 6.69576 9.29997 6.69576 8.93712 7.07861C8.6514 7.37004 8.55997 8.03004 8.55997 8.03004C8.55997 8.03004 8.46283 8.80719 8.46283 9.58433V10.3129C8.46283 11.09 8.55997 11.8643 8.55997 11.8643C8.55997 11.8643 8.6514 12.5272 8.93712 12.8186C9.29997 13.2015 9.77711 13.19 9.98854 13.2272C10.7514 13.3015 13.2314 13.3243 13.2314 13.3243C13.2314 13.3243 15.24 13.3243 16.5743 13.2272C16.76 13.2043 17.1657 13.2043 17.5285 12.8215C17.8143 12.53 17.9085 11.8672 17.9085 11.8672C17.9085 11.8672 18 11.0929 18 10.3129V9.58433C18 8.80719 17.9057 8.03004 17.9057 8.03004ZM10.5571 12.0358H9.91997V8.32147H9.24854V7.71576H11.26V8.32147H10.56V12.0358H10.5571ZM12.8571 12.0358H12.2514V11.6815C12.0228 11.95 11.8228 12.0815 11.6143 12.0815C11.4257 12.0815 11.3 11.9958 11.2314 11.8329C11.1971 11.7329 11.1685 11.5815 11.1685 11.3558V8.80719H11.7743V11.4272C11.7885 11.5129 11.8257 11.5472 11.9028 11.5472C12.0171 11.5472 12.1257 11.4415 12.2543 11.2615V8.80719H12.8571V12.0358ZM15.0571 11.07C15.0571 11.3672 15.0371 11.5786 15 11.7158C14.92 11.9558 14.7514 12.0786 14.5228 12.0786C14.3171 12.0786 14.1057 11.9529 13.9114 11.7129V12.0386H13.3343V7.71576H13.9057V9.12147C14.0943 8.8929 14.3057 8.75861 14.52 8.75861C14.7485 8.75861 14.9028 8.8929 14.9771 9.13004C15.02 9.26433 15.0571 9.4729 15.0571 9.77861V11.07ZM16.3314 11.5472C16.4743 11.5472 16.56 11.4672 16.5885 11.31C16.5943 11.2815 16.5943 11.1386 16.5943 10.9043H17.2V10.9958C17.2 11.1843 17.1857 11.3186 17.18 11.3758C17.16 11.5072 17.1143 11.6243 17.0457 11.7272C16.8857 11.9615 16.6457 12.0758 16.3457 12.0758C16.0457 12.0758 15.8171 11.9672 15.6485 11.7443C15.5257 11.5815 15.4485 11.3443 15.4485 11.0015V9.87004C15.4485 9.52719 15.52 9.25861 15.6428 9.0929C15.8085 8.8729 16.0428 8.75576 16.3343 8.75576C16.6257 8.75576 16.8543 8.87004 17.02 9.0929C17.1343 9.25861 17.2057 9.51004 17.2057 9.85576V10.5215H16.0571V11.0986C16.0571 11.3986 16.1428 11.5472 16.3371 11.5472H16.3314Z" fill="#E62117"/>
</svg>
