<svg width="500" height="500" viewBox="0 0 500 500" fill="none" xmlns="http://www.w3.org/2000/svg">
<path d="M229.591 500H270.408L250 240.816L229.591 500ZM229.591 0H270.408L250 259.184L229.591 0Z" fill="url(#paint0_radial)"/>
<path d="M165.582 486.199L205.008 496.763L252.377 241.129L165.582 486.199ZM294.992 3.23647L334.417 13.8005L247.623 258.871L294.992 3.23647Z" fill="url(#paint1_radial)"/>
<path d="M107.326 456.302L142.674 476.71L254.591 242.047L107.326 456.302ZM357.326 23.2895L392.674 43.6977L245.408 257.953L357.326 23.2895Z" fill="url(#paint2_radial)"/>
<path d="M58.7922 412.346L87.6537 441.207L256.493 243.506L58.7922 412.346ZM412.346 58.7925L441.207 87.654L243.506 256.494L412.346 58.7925Z" fill="url(#paint3_radial)"/>
<path d="M23.2898 357.326L43.698 392.674L257.954 245.408L23.2898 357.326ZM456.303 107.326L476.711 142.674L242.047 254.592L456.303 107.326Z" fill="url(#paint4_radial)"/>
<path d="M3.2364 294.992L13.8004 334.417L258.871 247.623L3.2364 294.992ZM486.199 165.582L496.763 205.008L241.129 252.377L486.199 165.582Z" fill="url(#paint5_radial)"/>
<path d="M0 229.592V270.408L259.184 250L0 229.592ZM500 229.592V270.408L240.816 250L500 229.592Z" fill="url(#paint6_radial)"/>
<path d="M13.8005 165.582L3.2364 205.008L258.871 252.377L13.8005 165.582ZM496.763 294.992L486.199 334.418L241.129 247.623L496.763 294.992Z" fill="url(#paint7_radial)"/>
<path d="M43.698 107.326L23.2898 142.674L257.954 254.592L43.698 107.326ZM476.711 357.326L456.303 392.674L242.047 245.408L476.711 357.326Z" fill="url(#paint8_radial)"/>
<path d="M87.6537 58.7925L58.7922 87.654L256.493 256.494L87.6537 58.7925ZM441.207 412.346L412.346 441.207L243.506 243.506L441.207 412.346Z" fill="url(#paint9_radial)"/>
<path d="M142.674 23.2895L107.326 43.6977L254.592 257.953L142.674 23.2895ZM392.674 456.302L357.326 476.71L245.408 242.047L392.674 456.302Z" fill="url(#paint10_radial)"/>
<path d="M205.008 3.23647L165.582 13.8005L252.377 258.871L205.008 3.23647ZM334.417 486.199L294.992 496.764L247.623 241.129L334.417 486.199Z" fill="url(#paint11_radial)"/>
<defs>
<radialGradient id="paint0_radial" cx="0" cy="0" r="1" gradientUnits="userSpaceOnUse" gradientTransform="translate(250 250) rotate(90) scale(250)">
<stop stop-color="#FFDC00"/>
<stop offset="1" stop-color="#FFDC00" stop-opacity="0"/>
</radialGradient>
<radialGradient id="paint1_radial" cx="0" cy="0" r="1" gradientUnits="userSpaceOnUse" gradientTransform="translate(250 250) rotate(90) scale(250)">
<stop stop-color="#FFDC00"/>
<stop offset="1" stop-color="#FFDC00" stop-opacity="0"/>
</radialGradient>
<radialGradient id="paint2_radial" cx="0" cy="0" r="1" gradientUnits="userSpaceOnUse" gradientTransform="translate(250 250) rotate(90) scale(250)">
<stop stop-color="#FFDC00"/>
<stop offset="1" stop-color="#FFDC00" stop-opacity="0"/>
</radialGradient>
<radialGradient id="paint3_radial" cx="0" cy="0" r="1" gradientUnits="userSpaceOnUse" gradientTransform="translate(250 250) rotate(90) scale(250)">
<stop stop-color="#FFDC00"/>
<stop offset="1" stop-color="#FFDC00" stop-opacity="0"/>
</radialGradient>
<radialGradient id="paint4_radial" cx="0" cy="0" r="1" gradientUnits="userSpaceOnUse" gradientTransform="translate(250 250) rotate(90) scale(250)">
<stop stop-color="#FFDC00"/>
<stop offset="1" stop-color="#FFDC00" stop-opacity="0"/>
</radialGradient>
<radialGradient id="paint5_radial" cx="0" cy="0" r="1" gradientUnits="userSpaceOnUse" gradientTransform="translate(250 250) rotate(90) scale(250)">
<stop stop-color="#FFDC00"/>
<stop offset="1" stop-color="#FFDC00" stop-opacity="0"/>
</radialGradient>
<radialGradient id="paint6_radial" cx="0" cy="0" r="1" gradientUnits="userSpaceOnUse" gradientTransform="translate(250 250) rotate(90) scale(250)">
<stop stop-color="#FFDC00"/>
<stop offset="1" stop-color="#FFDC00" stop-opacity="0"/>
</radialGradient>
<radialGradient id="paint7_radial" cx="0" cy="0" r="1" gradientUnits="userSpaceOnUse" gradientTransform="translate(250 250) rotate(90) scale(250)">
<stop stop-color="#FFDC00"/>
<stop offset="1" stop-color="#FFDC00" stop-opacity="0"/>
</radialGradient>
<radialGradient id="paint8_radial" cx="0" cy="0" r="1" gradientUnits="userSpaceOnUse" gradientTransform="translate(250 250) rotate(90) scale(250)">
<stop stop-color="#FFDC00"/>
<stop offset="1" stop-color="#FFDC00" stop-opacity="0"/>
</radialGradient>
<radialGradient id="paint9_radial" cx="0" cy="0" r="1" gradientUnits="userSpaceOnUse" gradientTransform="translate(250 250) rotate(90) scale(250)">
<stop stop-color="#FFDC00"/>
<stop offset="1" stop-color="#FFDC00" stop-opacity="0"/>
</radialGradient>
<radialGradient id="paint10_radial" cx="0" cy="0" r="1" gradientUnits="userSpaceOnUse" gradientTransform="translate(250 250) rotate(90) scale(250)">
<stop stop-color="#FFDC00"/>
<stop offset="1" stop-color="#FFDC00" stop-opacity="0"/>
</radialGradient>
<radialGradient id="paint11_radial" cx="0" cy="0" r="1" gradientUnits="userSpaceOnUse" gradientTransform="translate(250 250) rotate(90) scale(250)">
<stop stop-color="#FFDC00"/>
<stop offset="1" stop-color="#FFDC00" stop-opacity="0"/>
</radialGradient>
</defs>
</svg>
