<svg xmlns="http://www.w3.org/2000/svg" width="34" height="34" fill="none" viewBox="0 0 34 34">
    <path fill="#03E1E4" d="M10.348 0v12.565H0V34h19.217V23.652h5.913V34H34V0H10.348zm0 31.783h-8.13v-17h8.13v17zM17 26.609h-2.957v-2.957H17v2.957zm0-5.913h-2.957v-2.957H17v2.957zm0-5.913h-2.957v-2.957H17v2.957zm0-5.913h-2.957V5.913H17V8.87zm6.652 11.826h-2.956v-2.957h2.956v2.957zm0-5.913h-2.956v-2.957h2.956v2.957zm0-5.913h-2.956V5.913h2.956V8.87zm6.652 17.739h-2.956v-2.957h2.956v2.957zm0-5.913h-2.956v-2.957h2.956v2.957zm0-5.913h-2.956v-2.957h2.956v2.957zm0-5.913h-2.956V5.913h2.956V8.87z"/>
</svg>
