<svg xmlns="http://www.w3.org/2000/svg" width="34" height="29" fill="none" viewBox="0 0 34 29">
    <path fill="#03E1E4" d="M2.125 2.125h29.75v1.063H2.125zM4.25 0h25.5v1.063H4.25zM8.5 12.75h3.188v-1.063H8.5v1.063zM7.438 12.75H6.375v1.063h1.063V12.75zM7.438 14.875v3.188H8.5v-3.188H7.437zM5.313 14.875h1.062v3.188H5.312v-3.188zM6.375 11.688H5.312v1.062h1.063v-1.063zM13.813 19.125H12.75v1.063h1.063v-1.063z"/>
    <path fill="#03E1E4" fill-rule="evenodd" d="M6.375 20.188H5.312v1.062h1.063v-1.063zm0 0h1.063v-1.063H6.375v1.063zm2.125 0h3.188v1.062H8.5v-1.063zm5.313 0h1.062v1.062h-1.063v-1.063zm-2.126-1.063v-1.063h1.063v-3.187h-1.063v-1.063H8.5v1.063h3.188v3.188H8.5v1.062h3.188zm2.126-4.25h1.062v3.188h-1.063v-3.188zM12.75 12.75v1.063h1.063V12.75h1.062v-1.063h-1.063v1.063H12.75z" clip-rule="evenodd"/>
    <path fill="#03E1E4" fill-rule="evenodd" d="M1.063 5.313V4.25h31.875v1.063H34v22.312h-1.063v1.063H1.064v-1.063H0V5.312h1.063zm2.125 4.25H4.25v1.062h1.063V9.562h2.125V8.5h5.312v1.063h2.125v1.062h1.063V9.562H17v1.063h-1.063v1.063H17v2.124h1.063v5.313H17v2.125h-1.063v1.063H17v1.062h-1.063v-1.063h-1.062v1.063H12.75v1.063H7.437v-1.063H5.313v-1.063H4.25v1.063H3.187v-1.063H4.25V21.25H3.187v-2.125H2.125v-5.313h1.063v-2.124H4.25v-1.063H3.187V9.562zm19.125 0h-2.125v2.124h2.125V9.563zm3.187 0h-2.125v2.124H25.5V9.563zm3.188 0h-2.125v2.124h2.125V9.563zm3.187 0H29.75v2.124h2.125V9.563zm0 4.25H29.75v2.124h2.125v-2.124zm-3.188 0h-2.125v2.124h2.125v-2.124zM25.5 15.937v-2.124h-2.125v2.124H25.5zm-3.188-2.124h-2.125v2.124h2.125v-2.124z" clip-rule="evenodd"/>
</svg>
