<svg xmlns="http://www.w3.org/2000/svg" width="34" height="34" fill="none" viewBox="0 0 34 34">
    <path fill="#03E1E4" d="M31.783 11.087V6.652h-2.218V4.435h-2.217V2.217h-4.435V0H11.087v2.217H6.652v2.218H4.435v2.217H2.217v4.435H0v11.826h2.217v4.435h2.218v2.217h2.217v2.218h4.435V34h11.826v-2.217h4.435v-2.218h2.217v-2.217h2.218v-4.435H34V11.087h-2.217zm-23.653-.74h2.218V8.13h2.956v2.218h2.218v2.956h-2.218v2.218h-2.956v-2.218H8.13v-2.956zm17.74 13.305h-2.218v2.218h-2.956v-2.218h-2.218v-2.956h2.218v-2.218h2.956v2.218h2.217v2.956zm0-13.304h-2.218v2.217h-2.217v2.218h-2.218V17H17v2.217h-2.217v2.218h-2.218v2.217h-2.217v2.217H8.13v-2.217h2.218v-2.217h2.217v-2.218h2.218V17H17v-2.217h2.217v-2.218h2.218v-2.217h2.217V8.13h2.217v2.217z"/>
    <path fill="#03E1E4" d="M23.652 20.695h-2.956v2.957h2.956v-2.957zM13.304 10.348h-2.956v2.956h2.956v-2.956z"/>
</svg>
