<svg width="48" height="48" viewBox="0 0 48 48" fill="none" xmlns="http://www.w3.org/2000/svg">
<path d="M0 38V10H2V6H4V4H6V2H10V0H38V2H42V4H44V6H46V10H48V38H46V42H44V44H42V46H38V48H10V46H6V44H4V42H2V38H0Z" fill="url(#paint0_linear_109_8348)"/>
<path d="M2 38V10H4V6H6V4H10V2H38V4H42V6H44V10H46V38H44V42H42V44H38V46H10V44H6V42H4V38H2Z" fill="#781067"/>
<path d="M7 21H11V25H15V21H19V25H17V27H15V29H17V31H19V35H15V31H11V35H7V31H9V29H11V27H9V25H7V21Z" fill="url(#paint1_linear_109_8348)"/>
<path d="M23 14H29V20H35V14H41V20H38V23H35V26H38V29H41V35H35V29H29V35H23V29H26V26H29V23H26V20H23V14Z" fill="url(#paint2_linear_109_8348)"/>
<defs>
<linearGradient id="paint0_linear_109_8348" x1="24" y1="0.761905" x2="24" y2="48.5079" gradientUnits="userSpaceOnUse">
<stop stop-color="#FFEA80"/>
<stop offset="0.415284" stop-color="#FFE14C"/>
<stop offset="1" stop-color="#FF9933"/>
</linearGradient>
<linearGradient id="paint1_linear_109_8348" x1="13" y1="21.2222" x2="13" y2="35.1482" gradientUnits="userSpaceOnUse">
<stop stop-color="#FFEA80"/>
<stop offset="0.415284" stop-color="#FFE14C"/>
<stop offset="1" stop-color="#FF9933"/>
</linearGradient>
<linearGradient id="paint2_linear_109_8348" x1="32" y1="14.3333" x2="32" y2="35.2222" gradientUnits="userSpaceOnUse">
<stop stop-color="#FFEA80"/>
<stop offset="0.415284" stop-color="#FFE14C"/>
<stop offset="1" stop-color="#FF9933"/>
</linearGradient>
</defs>
</svg>
