<svg xmlns="http://www.w3.org/2000/svg" width="17" height="9" fill="none" viewBox="0 0 17 9">
    <path fill="#C4C4C4" d="M17 9h-1.308V7.714H17z"/>
    <path fill="#C4C4C4" d="M15.693 7.715h-1.308V6.429h1.308zM14.384 6.428h-1.308V5.142h1.308z"/>
    <path fill="#C4C4C4" d="M13.077 5.143H11.77V3.857h1.308zM11.769 3.857h-1.308V2.571h1.308z"/>
    <path fill="#C4C4C4" d="M10.462 2.572H9.154V1.286h1.308zM9.154 1.285H7.846V0h1.308zM7.846 2.572H6.538V1.286h1.308zM6.538 3.857H5.23V2.571h1.308zM5.23 5.143H3.924V3.857H5.23zM3.923 6.428H2.615V5.142h1.308zM2.615 7.715H1.307V6.429h1.308z"/>
    <path fill="#C4C4C4" d="M1.307 9H0V7.714h1.308z"/>
</svg>
