<svg xmlns="http://www.w3.org/2000/svg" width="17" height="9" fill="none" viewBox="0 0 17 9">
    <path fill="#C4C4C4" d="M0 0h1.308v1.286H0zM1.308 1.286h1.308v1.286H1.308z"/>
    <path fill="#C4C4C4" d="M2.615 2.571h1.308v1.286H2.615zM3.923 3.857h1.308v1.286H3.923zM5.231 5.143h1.308v1.286H5.231zM6.539 6.429h1.308v1.286H6.539z"/>
    <path fill="#C4C4C4" d="M7.846 7.714h1.308V9H7.846zM9.154 6.429h1.308v1.286H9.154zM10.461 5.143h1.308v1.286h-1.308zM11.769 3.857h1.308v1.286h-1.308zM13.077 2.571h1.308v1.286h-1.308zM14.385 1.286h1.308v1.286h-1.308zM15.692 0H17v1.286h-1.308z"/>
</svg>
