<svg xmlns="http://www.w3.org/2000/svg" width="46" height="46" fill="none" viewBox="0 0 46 46">
    <path fill="#57A4FF" d="M4.696 10H0v2.348h4.696V10zM14.087 43.652V46H18v-2.348h2.347V39.74h4.696v3.913h2.348V46h3.913v-2.348h2.348V39.74h-2.348v-2.348H11.739v6.261h2.348zM7.044 16.26v-3.912H4.696v6.26h2.348v7.044H9.39v11.74h2.348v-2.349h19.565v-2.347h2.348v-7.044H36v-9.391H7.044z"/>
    <path fill="#57565C" d="M20.347 39.74H18V37.39h-3.913v2.348h-2.348v3.913h2.348V46H18v-2.348h2.347V39.74zM33.652 39.74h-2.348V37.39h-3.913v2.348h-2.347v3.913h2.347V46h3.913v-2.348h2.348V39.74z"/>
    <path fill="#747474" d="M36 23.304h-8.608v-7.043h-2.348v7.043H18v-7.043h-2.347v7.043h-8.61v2.348h8.61v9.391H18v-9.39h7.044v9.39h2.348v-9.39H36v-2.349z"/>
    <path fill="#7F808A" d="M4.696 10H0v2.348h4.696V10zM18 43.652h-3.913V46H18v-2.348zM31.304 43.652h-3.913V46h3.913v-2.348zM33.652 39.739h-2.348v3.913h2.348v-3.913z"/>
    <path fill="#7F808A" d="M14.087 43.652V39.74H18v3.913h2.347V39.74h4.696v3.913h2.348V39.74h3.913v-2.348H11.739v6.261h2.348zM7.044 16.26v-3.912H4.696v6.26h2.348v7.044H9.39V18.61h24.261v7.043H36v-9.391H7.044z"/>
    <path fill="#7F808A" d="M33.652 25.652h-2.348v7.044h2.348v-7.044z"/>
    <path fill="#7F808A" d="M11.74 32.696v-7.044H9.392v11.74h2.348v-2.349h19.565v-2.347H11.74z"/>
    <path fill="#2BD600" d="M40.75 21h-10.5v-1.75H28.5V17.5h-1.75v-1.75H25V5.25h1.75V3.5h1.75V1.75h1.75V0h10.5v1.75h1.75V3.5h1.75v1.75H46v10.5h-1.75v1.75H42.5v1.75h-1.75V21z"/>
    <path fill="#fff" d="M28.5 10.5h1.75v1.75H28.5zM30.25 12.25H32V14h-1.75zM32 14h1.75v1.75H32zM33.75 12.25h1.75V14h-1.75zM35.5 10.5h1.75v1.75H35.5zM37.25 8.75H39v1.75h-1.75zM39 7h1.75v1.75H39zM40.75 5.25h1.75V7h-1.75z"/>
</svg>
