<svg xmlns="http://www.w3.org/2000/svg" width="38" height="38" fill="none" viewBox="0 0 38 38">
    <path fill="#318F31" d="M0 20v-4h2v-2h2v-2h2v2h2v2h2v2h2v2h2v2h2v-2h2v-2h2v-2h2v-2h2v-2h2v-2h2V8h2V6h2V4h2v2h2v2h2v4h-2v2h-2v2h-2v2h-2v2h-2v2h-2v2h-2v2h-2v2h-2v2h-2v2h-2v2h-2v-2h-2v-2h-2v-2H8v-2H6v-2H4v-2H2v-2H0z"/>
    <path fill="#AFFF99" d="M0 18v-2h2v-2h2v-2h2v2h2v2h2v2h2v2h2v2h2v-2h2v-2h2v-2h2v-2h2v-2h2v-2h2V8h2V6h2V4h2v2h2v2h2v2h-2v2h-2v2h-2v2h-2v2h-2v2h-2v2h-2v2h-2v2h-2v2h-2v2h-2v2h-2v-2h-2v-2h-2v-2H8v-2H6v-2H4v-2H2v-2H0z"/>
    <path fill="#44C944" d="M4 18H2v-2h2v-2h2v2h2v2h2v2h2v2h2v2h2v-2h2v-2h2v-2h2v-2h2v-2h2v-2h2v-2h2V8h2V6h2v2h2v2h-2v2h-2v2h-2v2h-2v2h-2v2h-2v2h-2v2h-2v2h-2v2h-2v2h-2v-2h-2v-2h-2v-2H8v-2H6v-2H4v-2z"/>
</svg>
