<svg xmlns="http://www.w3.org/2000/svg" width="71" height="54" fill="none" viewBox="0 0 71 54">
    <path fill="none" d="M0 0h71v54H0z"/>
    <path fill="#25202A" stroke="#595467" stroke-width="2" d="M69 3h1v48h-1v1h-1v1H3v-1H2v-1H1V3h1V2h1V1h65v1h1v1z"/>
    <path fill="none" d="M22 13h27v27H22z"/>
    <path fill="none" d="M22 13h27v27H22z"/>
    <path fill="none" d="M22 13h27v27H22z"/>
    <path fill="#fff" d="M41.286 25.214v-1.928h1.928v-1.929h1.929V19.43h1.928V17.5H49v-2.572h-1.928V13H44.5v1.928h-1.929v1.93h-1.928v1.928h-1.929v1.928h-1.928v1.929h-2.572v-1.929h-1.928v-1.928h-1.929v-1.929H28.43V14.93H26.5V13h-2.572v1.928H22V17.5h1.928v1.929h1.93v1.928h1.928v1.929h1.928v1.928h1.929v2.572h-1.929v1.928h-1.928v1.929h-1.929v1.928H23.93V35.5H22v2.572h1.928V40H26.5v-1.928h1.929v-1.93h1.928v-1.928h1.929v-1.928h1.928v-1.929h2.572v1.929h1.928v1.928h1.929v1.929h1.928v1.928H44.5V40h2.572v-1.928H49V35.5h-1.928v-1.929h-1.93v-1.928h-1.928v-1.929h-1.928v-1.928h-1.929v-2.572h1.929z"/>
</svg>
