<svg width="18" height="19" viewBox="0 0 18 19" fill="none" xmlns="http://www.w3.org/2000/svg">
<path d="M0 1V3H2V1H0Z" fill="#181928"/>
<path d="M4 5V3H2V5H4Z" fill="#181928"/>
<path d="M4 7H6V5H4V7Z" fill="#181928"/>
<path d="M8 9V7H6V9H8Z" fill="#181928"/>
<path d="M8 11H10V9H8V11Z" fill="#181928"/>
<path d="M6 13H8V11H6V13Z" fill="#181928"/>
<path d="M4 13V15H6V13H4Z" fill="#181928"/>
<path d="M2 17H4V15H2V17Z" fill="#181928"/>
<path d="M0 17V19H2V17H0Z" fill="#181928"/>
<path d="M12 13V11H10V13H12Z" fill="#181928"/>
<path d="M12 15H14V13H12V15Z" fill="#181928"/>
<path d="M16 17V15H14V17H16Z" fill="#181928"/>
<path d="M16 19H18V17H16V19Z" fill="#181928"/>
<path d="M12 7H10V9H12V7Z" fill="#181928"/>
<path d="M14 7V5H12V7H14Z" fill="#181928"/>
<path d="M16 3H14V5H16V3Z" fill="#181928"/>
<path d="M18 3V1H16V3H18Z" fill="#181928"/>
<path d="M0 0V2H2V0H0Z" fill="#8984B1"/>
<path d="M4 4V2H2V4H4Z" fill="#8984B1"/>
<path d="M4 6H6V4H4V6Z" fill="#8984B1"/>
<path d="M8 8V6H6V8H8Z" fill="#8984B1"/>
<path d="M8 10H10V8H8V10Z" fill="#8984B1"/>
<path d="M6 12H8V10H6V12Z" fill="#8984B1"/>
<path d="M4 12V14H6V12H4Z" fill="#8984B1"/>
<path d="M2 16H4V14H2V16Z" fill="#8984B1"/>
<path d="M0 16V18H2V16H0Z" fill="#8984B1"/>
<path d="M12 12V10H10V12H12Z" fill="#8984B1"/>
<path d="M12 14H14V12H12V14Z" fill="#8984B1"/>
<path d="M16 16V14H14V16H16Z" fill="#8984B1"/>
<path d="M16 18H18V16H16V18Z" fill="#8984B1"/>
<path d="M12 6H10V8H12V6Z" fill="#8984B1"/>
<path d="M14 6V4H12V6H14Z" fill="#8984B1"/>
<path d="M16 2H14V4H16V2Z" fill="#8984B1"/>
<path d="M18 2V0H16V2H18Z" fill="#8984B1"/>
</svg>
