<svg width="24" height="24" viewBox="0 0 24 24" fill="none" xmlns="http://www.w3.org/2000/svg">
<path d="M19.3045 4.69568H15.6523V6.26088H19.3045V4.69568Z" fill="#03E1E4"/>
<path d="M19.3045 9.91309H15.6523V11.4783H19.3045V9.91309Z" fill="#03E1E4"/>
<path d="M20.8699 6.26086H19.3047V9.91304H20.8699V6.26086Z" fill="#03E1E4"/>
<path d="M15.6521 6.26086H14.0869V9.91304H15.6521V6.26086Z" fill="#03E1E4"/>
<path d="M10.4351 0H7.30469V1.5652H10.4351V0Z" fill="#03E1E4"/>
<path d="M10.4351 4.69568H7.30469V6.26088H10.4351V4.69568Z" fill="#03E1E4"/>
<path d="M11.9998 1.56519H10.4346V4.69564H11.9998V1.56519Z" fill="#03E1E4"/>
<path d="M7.30349 1.56519H5.73828V4.69564H7.30349V1.56519Z" fill="#03E1E4"/>
<path d="M4.69566 13.0435H0V24H4.69566V13.0435Z" fill="#03E1E4"/>
<path d="M18.2617 14.6087V16.1739H16.1748V17.7391H9.91389V16.1739H16.1748V13.0435H6.26172V22.4348H7.82697V24H16.1748V22.4348H19.3052V20.8695H20.8704V19.3043H22.4357V17.7391H24.0009V14.6087H18.2617Z" fill="#03E1E4"/>
</svg>
