<svg xmlns="http://www.w3.org/2000/svg" width="30" height="32" fill="none" viewBox="0 0 30 32">
    <g fill="#fff" filter="url(#a)">
        <path d="M8.824 0H7.059v1.765h1.765V0z"/>
        <path d="M10.588 0H8.823v1.765h1.765V0z"/>
        <path d="M12.353 0h-1.765v1.765h1.765V0zM14.118 0h-1.765v1.765h1.765V0zM15.882 0h-1.764v1.765h1.764V0z"/>
        <path d="M17.647 0h-1.765v1.765h1.765V0zM19.412 0h-1.765v1.765h1.765V0zM22.941 0h-1.764v1.765h1.764V0zM1.765 1.765H0v1.764h1.765V1.765z"/>
        <path d="M3.53 1.765H1.764v1.764h1.764V1.765z"/>
        <path d="M5.294 1.765H3.529v1.764h1.765V1.765zM8.824 1.765H7.059v1.764h1.765V1.765z"/>
        <path d="M10.588 1.765H8.823v1.764h1.765V1.765z"/>
        <path d="M12.353 1.765h-1.765v1.764h1.765V1.765zM14.118 1.765h-1.765v1.764h1.765V1.765zM15.882 1.765h-1.764v1.764h1.764V1.765z"/>
        <path d="M17.647 1.765h-1.765v1.764h1.765V1.765zM19.412 1.765h-1.765v1.764h1.765V1.765zM22.941 1.765h-1.764v1.764h1.764V1.765z"/>
        <path d="M24.706 1.765H22.94v1.764h1.765V1.765zM1.765 3.53H0v1.764h1.765V3.53z"/>
        <path d="M3.53 3.53H1.764v1.764h1.764V3.53z"/>
        <path d="M5.294 3.53H3.529v1.764h1.765V3.53zM8.824 3.53H7.059v1.764h1.765V3.53z"/>
        <path d="M10.588 3.53H8.823v1.764h1.765V3.53z"/>
        <path d="M12.353 3.53h-1.765v1.764h1.765V3.53zM14.118 3.53h-1.765v1.764h1.765V3.53zM15.882 3.53h-1.764v1.764h1.764V3.53z"/>
        <path d="M17.647 3.53h-1.765v1.764h1.765V3.53zM19.412 3.53h-1.765v1.764h1.765V3.53zM22.941 3.53h-1.764v1.764h1.764V3.53z"/>
        <path d="M24.706 3.53H22.94v1.764h1.765V3.53zM26.47 3.53h-1.764v1.764h1.765V3.53zM1.765 5.294H0V7.06h1.765V5.294z"/>
        <path d="M3.53 5.294H1.764V7.06h1.764V5.294z"/>
        <path d="M5.294 5.294H3.529V7.06h1.765V5.294zM8.824 5.294H7.059V7.06h1.765V5.294z"/>
        <path d="M10.588 5.294H8.823V7.06h1.765V5.294z"/>
        <path d="M12.353 5.294h-1.765V7.06h1.765V5.294zM14.118 5.294h-1.765V7.06h1.765V5.294zM15.882 5.294h-1.764V7.06h1.764V5.294z"/>
        <path d="M17.647 5.294h-1.765V7.06h1.765V5.294zM19.412 5.294h-1.765V7.06h1.765V5.294zM1.765 7.059H0v1.765h1.765V7.059z"/>
        <path d="M3.53 7.059H1.764v1.765h1.764V7.059z"/>
        <path d="M5.294 7.059H3.529v1.765h1.765V7.059zM8.824 7.059H7.059v1.765h1.765V7.059z"/>
        <path d="M10.588 7.059H8.823v1.765h1.765V7.059z"/>
        <path d="M12.353 7.059h-1.765v1.765h1.765V7.059zM14.118 7.059h-1.765v1.765h1.765V7.059zM15.882 7.059h-1.764v1.765h1.764V7.059z"/>
        <path d="M17.647 7.059h-1.765v1.765h1.765V7.059zM19.412 7.059h-1.765v1.765h1.765V7.059zM21.177 7.059h-1.765v1.765h1.765V7.059zM22.941 7.059h-1.764v1.765h1.764V7.059z"/>
        <path d="M24.706 7.059H22.94v1.765h1.765V7.059zM26.47 7.059h-1.764v1.765h1.765V7.059zM1.765 8.824H0v1.764h1.765V8.824z"/>
        <path d="M3.53 8.824H1.764v1.764h1.764V8.824z"/>
        <path d="M5.294 8.824H3.529v1.764h1.765V8.824zM8.824 8.824H7.059v1.764h1.765V8.824z"/>
        <path d="M10.588 8.824H8.823v1.764h1.765V8.824z"/>
        <path d="M12.353 8.824h-1.765v1.764h1.765V8.824zM14.118 8.824h-1.765v1.764h1.765V8.824zM15.882 8.824h-1.764v1.764h1.764V8.824z"/>
        <path d="M17.647 8.824h-1.765v1.764h1.765V8.824zM19.412 8.824h-1.765v1.764h1.765V8.824zM21.177 8.824h-1.765v1.764h1.765V8.824zM22.941 8.824h-1.764v1.764h1.764V8.824z"/>
        <path d="M24.706 8.824H22.94v1.764h1.765V8.824zM26.47 8.824h-1.764v1.764h1.765V8.824zM1.765 10.588H0v1.765h1.765v-1.765z"/>
        <path d="M3.53 10.588H1.764v1.765h1.764v-1.765z"/>
        <path d="M5.294 10.588H3.529v1.765h1.765v-1.765zM8.824 10.588H7.059v1.765h1.765v-1.765z"/>
        <path d="M10.588 10.588H8.823v1.765h1.765v-1.765z"/>
        <path d="M12.353 10.588h-1.765v1.765h1.765v-1.765zM14.118 10.588h-1.765v1.765h1.765v-1.765zM15.882 10.588h-1.764v1.765h1.764v-1.765z"/>
        <path d="M17.647 10.588h-1.765v1.765h1.765v-1.765zM1.765 12.353H0v1.765h1.765v-1.765z"/>
        <path d="M3.53 12.353H1.764v1.765h1.764v-1.765z"/>
        <path d="M5.294 12.353H3.529v1.765h1.765v-1.765zM8.824 12.353H7.059v1.765h1.765v-1.765z"/>
        <path d="M10.588 12.353H8.823v1.765h1.765v-1.765z"/>
        <path d="M12.353 12.353h-1.765v1.765h1.765v-1.765zM14.118 12.353h-1.765v1.765h1.765v-1.765zM15.882 12.353h-1.764v1.765h1.764v-1.765z"/>
        <path d="M17.647 12.353h-1.765v1.765h1.765v-1.765zM21.177 12.353h-1.765v1.765h1.765v-1.765zM22.941 12.353h-1.764v1.765h1.764v-1.765z"/>
        <path d="M24.706 12.353H22.94v1.765h1.765v-1.765zM26.47 12.353h-1.764v1.765h1.765v-1.765zM1.765 14.118H0v1.764h1.765v-1.764z"/>
        <path d="M3.53 14.118H1.764v1.764h1.764v-1.764z"/>
        <path d="M5.294 14.118H3.529v1.764h1.765v-1.764zM8.824 14.118H7.059v1.764h1.765v-1.764z"/>
        <path d="M10.588 14.118H8.823v1.764h1.765v-1.764z"/>
        <path d="M12.353 14.118h-1.765v1.764h1.765v-1.764zM14.118 14.118h-1.765v1.764h1.765v-1.764zM15.882 14.118h-1.764v1.764h1.764v-1.764z"/>
        <path d="M17.647 14.118h-1.765v1.764h1.765v-1.764zM21.177 14.118h-1.765v1.764h1.765v-1.764zM22.941 14.118h-1.764v1.764h1.764v-1.764z"/>
        <path d="M24.706 14.118H22.94v1.764h1.765v-1.764zM26.47 14.118h-1.764v1.764h1.765v-1.764zM1.765 15.882H0v1.765h1.765v-1.765z"/>
        <path d="M3.53 15.882H1.764v1.765h1.764v-1.765z"/>
        <path d="M5.294 15.882H3.529v1.765h1.765v-1.765zM8.824 15.882H7.059v1.765h1.765v-1.765z"/>
        <path d="M10.588 15.882H8.823v1.765h1.765v-1.765z"/>
        <path d="M12.353 15.882h-1.765v1.765h1.765v-1.765zM14.118 15.882h-1.765v1.765h1.765v-1.765zM15.882 15.882h-1.764v1.765h1.764v-1.765z"/>
        <path d="M17.647 15.882h-1.765v1.765h1.765v-1.765zM21.177 15.882h-1.765v1.765h1.765v-1.765zM22.941 15.882h-1.764v1.765h1.764v-1.765z"/>
        <path d="M24.706 15.882H22.94v1.765h1.765v-1.765zM26.47 15.882h-1.764v1.765h1.765v-1.765zM1.765 17.647H0v1.765h1.765v-1.765z"/>
        <path d="M3.53 17.647H1.764v1.765h1.764v-1.765z"/>
        <path d="M5.294 17.647H3.529v1.765h1.765v-1.765zM8.824 17.647H7.059v1.765h1.765v-1.765z"/>
        <path d="M10.588 17.647H8.823v1.765h1.765v-1.765z"/>
        <path d="M12.353 17.647h-1.765v1.765h1.765v-1.765zM14.118 17.647h-1.765v1.765h1.765v-1.765zM15.882 17.647h-1.764v1.765h1.764v-1.765z"/>
        <path d="M17.647 17.647h-1.765v1.765h1.765v-1.765zM21.177 17.647h-1.765v1.765h1.765v-1.765zM22.941 17.647h-1.764v1.765h1.764v-1.765z"/>
        <path d="M24.706 17.647H22.94v1.765h1.765v-1.765zM26.47 17.647h-1.764v1.765h1.765v-1.765zM1.765 19.412H0v1.764h1.765v-1.764z"/>
        <path d="M3.53 19.412H1.764v1.764h1.764v-1.764z"/>
        <path d="M5.294 19.412H3.529v1.764h1.765v-1.764zM8.824 19.412H7.059v1.764h1.765v-1.764z"/>
        <path d="M10.588 19.412H8.823v1.764h1.765v-1.764z"/>
        <path d="M12.353 19.412h-1.765v1.764h1.765v-1.764zM14.118 19.412h-1.765v1.764h1.765v-1.764zM15.882 19.412h-1.764v1.764h1.764v-1.764z"/>
        <path d="M17.647 19.412h-1.765v1.764h1.765v-1.764zM21.177 19.412h-1.765v1.764h1.765v-1.764zM22.941 19.412h-1.764v1.764h1.764v-1.764z"/>
        <path d="M24.706 19.412H22.94v1.764h1.765v-1.764zM26.47 19.412h-1.764v1.764h1.765v-1.764zM1.765 21.176H0v1.765h1.765v-1.765z"/>
        <path d="M3.53 21.176H1.764v1.765h1.764v-1.765z"/>
        <path d="M5.294 21.176H3.529v1.765h1.765v-1.765zM8.824 21.176H7.059v1.765h1.765v-1.765z"/>
        <path d="M10.588 21.176H8.823v1.765h1.765v-1.765z"/>
        <path d="M12.353 21.176h-1.765v1.765h1.765v-1.765zM14.118 21.176h-1.765v1.765h1.765v-1.765zM21.177 21.176h-1.765v1.765h1.765v-1.765zM22.941 21.176h-1.764v1.765h1.764v-1.765z"/>
        <path d="M24.706 21.176H22.94v1.765h1.765v-1.765zM26.47 21.176h-1.764v1.765h1.765v-1.765zM1.765 22.941H0v1.765h1.765V22.94z"/>
        <path d="M3.53 22.941H1.764v1.765h1.764V22.94z"/>
        <path d="M5.294 22.941H3.529v1.765h1.765V22.94zM8.824 22.941H7.059v1.765h1.765V22.94z"/>
        <path d="M10.588 22.941H8.823v1.765h1.765V22.94z"/>
        <path d="M12.353 22.941h-1.765v1.765h1.765V22.94zM14.118 22.941h-1.765v1.765h1.765V22.94zM17.647 22.941h-1.765v1.765h1.765V22.94zM19.412 22.941h-1.765v1.765h1.765V22.94zM21.177 22.941h-1.765v1.765h1.765V22.94zM22.941 22.941h-1.764v1.765h1.764V22.94z"/>
        <path d="M24.706 22.941H22.94v1.765h1.765V22.94zM26.47 22.941h-1.764v1.765h1.765V22.94zM28.235 22.941h-1.764v1.765h1.764V22.94zM30 22.941h-1.765v1.765H30V22.94zM1.765 24.706H0v1.765h1.765v-1.765z"/>
        <path d="M3.53 24.706H1.764v1.765h1.764v-1.765z"/>
        <path d="M5.294 24.706H3.529v1.765h1.765v-1.765zM8.824 24.706H7.059v1.765h1.765v-1.765z"/>
        <path d="M10.588 24.706H8.823v1.765h1.765v-1.765z"/>
        <path d="M12.353 24.706h-1.765v1.765h1.765v-1.765zM14.118 24.706h-1.765v1.765h1.765v-1.765zM15.882 24.706h-1.764v1.765h1.764v-1.765zM19.412 24.706h-1.765v1.765h1.765v-1.765zM21.177 24.706h-1.765v1.765h1.765v-1.765zM22.941 24.706h-1.764v1.765h1.764v-1.765z"/>
        <path d="M24.706 24.706H22.94v1.765h1.765v-1.765zM26.47 24.706h-1.764v1.765h1.765v-1.765zM28.235 24.706h-1.764v1.765h1.764v-1.765zM1.765 26.47H0v1.765h1.765v-1.764z"/>
        <path d="M3.53 26.47H1.764v1.765h1.764v-1.764z"/>
        <path d="M5.294 26.47H3.529v1.765h1.765v-1.764zM21.177 26.47h-1.765v1.765h1.765v-1.764zM22.941 26.47h-1.764v1.765h1.764v-1.764z"/>
        <path d="M24.706 26.47H22.94v1.765h1.765v-1.764zM26.47 26.47h-1.764v1.765h1.765v-1.764zM1.765 28.235H0V30h1.765v-1.765z"/>
        <path d="M3.53 28.235H1.764V30h1.764v-1.765z"/>
        <path d="M5.294 28.235H3.529V30h1.765v-1.765zM7.059 28.235H5.294V30H7.06v-1.765z"/>
        <path d="M8.824 28.235H7.059V30h1.765v-1.765z"/>
        <path d="M10.588 28.235H8.823V30h1.765v-1.765z"/>
        <path d="M12.353 28.235h-1.765V30h1.765v-1.765zM14.118 28.235h-1.765V30h1.765v-1.765zM15.882 28.235h-1.764V30h1.764v-1.765z"/>
        <path d="M17.647 28.235h-1.765V30h1.765v-1.765zM19.412 28.235h-1.765V30h1.765v-1.765zM22.941 28.235h-1.764V30h1.764v-1.765z"/>
        <path d="M24.706 28.235H22.94V30h1.765v-1.765z"/>
    </g>
    <defs>
        <filter id="a" width="30" height="32" x="0" y="0" color-interpolation-filters="sRGB" filterUnits="userSpaceOnUse">
            <feFlood flood-opacity="0" result="BackgroundImageFix"/>
            <feColorMatrix in="SourceAlpha" values="0 0 0 0 0 0 0 0 0 0 0 0 0 0 0 0 0 0 127 0"/>
            <feOffset dy="2"/>
            <feColorMatrix values="0 0 0 0 0 0 0 0 0 0 0 0 0 0 0 0 0 0 0.25 0"/>
            <feBlend in2="BackgroundImageFix" result="effect1_dropShadow"/>
            <feBlend in="SourceGraphic" in2="effect1_dropShadow" result="shape"/>
        </filter>
    </defs>
</svg>
