<svg xmlns="http://www.w3.org/2000/svg" width="29" height="32" fill="none" viewBox="0 0 29 32">
    <g fill="#fff" filter="url(#a)">
        <path d="M1.875 0H0v1.875h1.875V0zM3.75 0H1.875v1.875H3.75V0zM5.625 0H3.75v1.875h1.875V0zM7.5 0H5.625v1.875H7.5V0zM9.375 0H7.5v1.875h1.875V0zM11.25 0H9.375v1.875h1.875V0zM13.125 0H11.25v1.875h1.875V0zM16.875 0H15v1.875h1.875V0zM1.875 1.875H0V3.75h1.875V1.875zM3.75 1.875H1.875V3.75H3.75V1.875zM5.625 1.875H3.75V3.75h1.875V1.875zM7.5 1.875H5.625V3.75H7.5V1.875zM9.375 1.875H7.5V3.75h1.875V1.875zM11.25 1.875H9.375V3.75h1.875V1.875zM13.125 1.875H11.25V3.75h1.875V1.875zM16.875 1.875H15V3.75h1.875V1.875zM18.75 1.875h-1.875V3.75h1.875V1.875zM1.875 3.75H0v1.875h1.875V3.75zM3.75 3.75H1.875v1.875H3.75V3.75zM5.625 3.75H3.75v1.875h1.875V3.75zM7.5 3.75H5.625v1.875H7.5V3.75zM9.375 3.75H7.5v1.875h1.875V3.75zM11.25 3.75H9.375v1.875h1.875V3.75zM13.125 3.75H11.25v1.875h1.875V3.75zM16.875 3.75H15v1.875h1.875V3.75zM18.75 3.75h-1.875v1.875h1.875V3.75zM20.625 3.75H18.75v1.875h1.875V3.75zM1.875 5.625H0V7.5h1.875V5.625zM3.75 5.625H1.875V7.5H3.75V5.625zM13.125 5.625H11.25V7.5h1.875V5.625zM1.875 7.5H0v1.875h1.875V7.5zM3.75 7.5H1.875v1.875H3.75V7.5zM5.625 7.5H3.75v1.875h1.875V7.5zM7.5 7.5H5.625v1.875H7.5V7.5zM9.375 7.5H7.5v1.875h1.875V7.5zM11.25 7.5H9.375v1.875h1.875V7.5zM13.125 7.5H11.25v1.875h1.875V7.5zM15 7.5h-1.875v1.875H15V7.5zM16.875 7.5H15v1.875h1.875V7.5zM18.75 7.5h-1.875v1.875h1.875V7.5zM20.625 7.5H18.75v1.875h1.875V7.5zM1.875 9.375H0v1.875h1.875V9.375zM3.75 9.375H1.875v1.875H3.75V9.375zM15 9.375h-1.875v1.875H15V9.375zM1.875 11.25H0v1.875h1.875V11.25zM3.75 11.25H1.875v1.875H3.75V11.25zM5.625 11.25H3.75v1.875h1.875V11.25zM7.5 11.25H5.625v1.875H7.5V11.25zM9.375 11.25H7.5v1.875h1.875V11.25zM11.25 11.25H9.375v1.875h1.875V11.25zM13.125 11.25H11.25v1.875h1.875V11.25zM15 11.25h-1.875v1.875H15V11.25zM18.75 11.25h-1.875v1.875h1.875V11.25zM20.625 11.25H18.75v1.875h1.875V11.25zM22.5 11.25h-1.875v1.875H22.5V11.25zM24.375 11.25H22.5v1.875h1.875V11.25zM1.875 13.125H0V15h1.875v-1.875zM3.75 13.125H1.875V15H3.75v-1.875zM15 13.125h-1.875V15H15v-1.875zM18.75 13.125h-1.875V15h1.875v-1.875zM20.625 13.125H18.75V15h1.875v-1.875zM22.5 13.125h-1.875V15H22.5v-1.875zM24.375 13.125H22.5V15h1.875v-1.875zM1.875 15H0v1.875h1.875V15zM3.75 15H1.875v1.875H3.75V15zM5.625 15H3.75v1.875h1.875V15zM7.5 15H5.625v1.875H7.5V15zM9.375 15H7.5v1.875h1.875V15zM11.25 15H9.375v1.875h1.875V15zM13.125 15H11.25v1.875h1.875V15zM15 15h-1.875v1.875H15V15zM18.75 15h-1.875v1.875h1.875V15zM20.625 15H18.75v1.875h1.875V15zM22.5 15h-1.875v1.875H22.5V15zM24.375 15H22.5v1.875h1.875V15zM1.875 16.875H0v1.875h1.875v-1.875zM3.75 16.875H1.875v1.875H3.75v-1.875zM15 16.875h-1.875v1.875H15v-1.875zM18.75 16.875h-1.875v1.875h1.875v-1.875zM20.625 16.875H18.75v1.875h1.875v-1.875zM22.5 16.875h-1.875v1.875H22.5v-1.875zM24.375 16.875H22.5v1.875h1.875v-1.875zM1.875 18.75H0v1.875h1.875V18.75zM3.75 18.75H1.875v1.875H3.75V18.75zM5.625 18.75H3.75v1.875h1.875V18.75zM7.5 18.75H5.625v1.875H7.5V18.75zM9.375 18.75H7.5v1.875h1.875V18.75zM11.25 18.75H9.375v1.875h1.875V18.75zM13.125 18.75H11.25v1.875h1.875V18.75zM15 18.75h-1.875v1.875H15V18.75zM18.75 18.75h-1.875v1.875h1.875V18.75zM20.625 18.75H18.75v1.875h1.875V18.75zM22.5 18.75h-1.875v1.875H22.5V18.75zM24.375 18.75H22.5v1.875h1.875V18.75zM1.875 20.625H0V22.5h1.875v-1.875zM3.75 20.625H1.875V22.5H3.75v-1.875zM5.625 20.625H3.75V22.5h1.875v-1.875zM7.5 20.625H5.625V22.5H7.5v-1.875zM9.375 20.625H7.5V22.5h1.875v-1.875zM11.25 20.625H9.375V22.5h1.875v-1.875zM18.75 20.625h-1.875V22.5h1.875v-1.875zM20.625 20.625H18.75V22.5h1.875v-1.875zM22.5 20.625h-1.875V22.5H22.5v-1.875zM24.375 20.625H22.5V22.5h1.875v-1.875zM1.875 22.5H0v1.875h1.875V22.5zM3.75 22.5H1.875v1.875H3.75V22.5zM5.625 22.5H3.75v1.875h1.875V22.5zM7.5 22.5H5.625v1.875H7.5V22.5zM9.375 22.5H7.5v1.875h1.875V22.5zM11.25 22.5H9.375v1.875h1.875V22.5zM15 22.5h-1.875v1.875H15V22.5zM16.875 22.5H15v1.875h1.875V22.5zM18.75 22.5h-1.875v1.875h1.875V22.5zM20.625 22.5H18.75v1.875h1.875V22.5zM22.5 22.5h-1.875v1.875H22.5V22.5zM24.375 22.5H22.5v1.875h1.875V22.5zM26.25 22.5h-1.875v1.875h1.875V22.5zM28.125 22.5H26.25v1.875h1.875V22.5zM1.875 24.375H0v1.875h1.875v-1.875zM3.75 24.375H1.875v1.875H3.75v-1.875zM5.625 24.375H3.75v1.875h1.875v-1.875zM7.5 24.375H5.625v1.875H7.5v-1.875zM9.375 24.375H7.5v1.875h1.875v-1.875zM11.25 24.375H9.375v1.875h1.875v-1.875zM13.125 24.375H11.25v1.875h1.875v-1.875zM16.875 24.375H15v1.875h1.875v-1.875zM18.75 24.375h-1.875v1.875h1.875v-1.875zM20.625 24.375H18.75v1.875h1.875v-1.875zM22.5 24.375h-1.875v1.875H22.5v-1.875zM24.375 24.375H22.5v1.875h1.875v-1.875zM26.25 24.375h-1.875v1.875h1.875v-1.875zM1.875 26.25H0v1.875h1.875V26.25zM3.75 26.25H1.875v1.875H3.75V26.25zM5.625 26.25H3.75v1.875h1.875V26.25zM7.5 26.25H5.625v1.875H7.5V26.25zM9.375 26.25H7.5v1.875h1.875V26.25zM11.25 26.25H9.375v1.875h1.875V26.25zM13.125 26.25H11.25v1.875h1.875V26.25zM15 26.25h-1.875v1.875H15V26.25zM18.75 26.25h-1.875v1.875h1.875V26.25zM20.625 26.25H18.75v1.875h1.875V26.25zM22.5 26.25h-1.875v1.875H22.5V26.25zM24.375 26.25H22.5v1.875h1.875V26.25zM20.625 28.125H18.75V30h1.875v-1.875zM22.5 28.125h-1.875V30H22.5v-1.875z"/>
    </g>
    <defs>
        <filter id="a" width="28.125" height="32" x="0" y="0" color-interpolation-filters="sRGB" filterUnits="userSpaceOnUse">
            <feFlood flood-opacity="0" result="BackgroundImageFix"/>
            <feColorMatrix in="SourceAlpha" values="0 0 0 0 0 0 0 0 0 0 0 0 0 0 0 0 0 0 127 0"/>
            <feOffset dy="2"/>
            <feColorMatrix values="0 0 0 0 0 0 0 0 0 0 0 0 0 0 0 0 0 0 0.25 0"/>
            <feBlend in2="BackgroundImageFix" result="effect1_dropShadow"/>
            <feBlend in="SourceGraphic" in2="effect1_dropShadow" result="shape"/>
        </filter>
    </defs>
</svg>
