<svg width="40" height="40" viewBox="0 0 40 40" fill="none" xmlns="http://www.w3.org/2000/svg">
    <path d="M3.333 25v-6.667H5v-6.666h1.667V5h1.667V0h28.333v3.333H35V5h-1.666v1.667h-1.667v1.666H30V10h-1.666v1.667h-1.667v1.666H25V15h-1.666v1.667h-1.667v1.666h11.666v3.334h-1.666v1.666H30V25h-1.666v1.667h-1.667v1.666H25V30h-1.666v1.667h-1.667v1.666H20V35h-1.666v1.667h-1.667v1.666H15V40h-1.666V25h-10z" fill="#2E451B"/>
    <path d="M3.333 23.333v-5H5v-6.666h1.667V5h1.667V0h28.333v1.667H35v1.666h-1.666V5h-1.667v1.667H30v1.666h-1.666V10h-1.667v1.667H25v1.666h-1.666V15h-1.667v3.333h11.666V20h-1.666v1.667H30v1.666h-1.666V25h-1.667v1.667H25v1.666h-1.666V30h-1.667v1.667H20v1.666h-1.666V35h-1.667v1.667H15v1.666h-1.666v-15h-10z" fill="#8DE842"/>
    <path d="M8.334 0v5H10V1.667h23.334v1.666H35V1.667h1.667V0H8.333zM6.667 11.667h1.667V5H6.667v6.667zM5 11.667v6.666h1.667v-6.666H5zM15 21.667H5v-3.334H3.333v5h10v15H15v-1.666h1.667V35H15V21.667zM30 21.667h1.667V20h1.666v-1.667H21.668V15H20v5h10v1.667zM28.334 21.667v1.666H30v-1.666h-1.666zM26.667 25h1.666v-1.667h-1.666V25zM25 25v1.667h1.667V25H25zM23.334 28.333H25v-1.666h-1.666v1.666zM21.667 28.333V30h1.666v-1.667h-1.666zM20 31.667h1.667V30H20v1.667zM18.334 31.667v1.666H20v-1.666h-1.666zM16.667 33.333V35h1.666v-1.667h-1.666zM23.334 13.333h-1.667V15h1.666v-1.667zM25 13.333v-1.666h-1.666v1.666H25zM26.667 10H25v1.667h1.667V10zM28.334 10V8.333h-1.667V10h1.666zM30 6.667h-1.666v1.666H30V6.667zM31.667 6.667V5H30v1.667h1.667z" fill="#73CC29"/>
    <path d="M33.334 5V3.333h-1.667V5h1.666z" fill="#73CC29"/>
    <path d="M8.334 13.333v-1.666H6.667v1.666h1.667zM10 10H8.334V5H10V1.667h8.334v1.666h-6.667V5H10v5zM20 3.333V1.667h1.667v1.666H20zM26.667 3.333V1.667H30v1.666h-3.333zM31.667 3.333V1.667h1.667v1.666h-1.667zM15 35v-3.333h1.667V35H15zM15 28.333V30h1.667v-1.667H15z" fill="#C1FA92"/>
</svg>
