<svg width="32" height="32" viewBox="0 0 32 32" fill="none" xmlns="http://www.w3.org/2000/svg">
<g filter="url(#filter0_d)">
<path d="M0 17.3333V13.7778H0.888889V12.8889H1.77778V12H5.33333V12.8889H6.22222V13.7778H7.11111V17.3333H6.22222V18.2222H5.33333V19.1111H1.77778V18.2222H0.888889V17.3333H0Z" fill="white"/>
<path d="M12.4445 17.3333V13.7778H13.3333V12.8889H14.2222V12H17.7778V12.8889H18.6667V13.7778H19.5556V17.3333H18.6667V18.2222H17.7778V19.1111H14.2222V18.2222H13.3333V17.3333H12.4445Z" fill="white"/>
<path d="M24.8889 17.3333V13.7778H25.7778V12.8889H26.6667V12H30.2222V12.8889H31.1111V13.7778H32V17.3333H31.1111V18.2222H30.2222V19.1111H26.6667V18.2222H25.7778V17.3333H24.8889Z" fill="white"/>
</g>
<defs>
<filter id="filter0_d" x="0" y="12" width="32" height="9.11111" filterUnits="userSpaceOnUse" color-interpolation-filters="sRGB">
<feFlood flood-opacity="0" result="BackgroundImageFix"/>
<feColorMatrix in="SourceAlpha" type="matrix" values="0 0 0 0 0 0 0 0 0 0 0 0 0 0 0 0 0 0 127 0" result="hardAlpha"/>
<feOffset dy="2"/>
<feComposite in2="hardAlpha" operator="out"/>
<feColorMatrix type="matrix" values="0 0 0 0 0 0 0 0 0 0 0 0 0 0 0 0 0 0 0.25 0"/>
<feBlend mode="normal" in2="BackgroundImageFix" result="effect1_dropShadow"/>
<feBlend mode="normal" in="SourceGraphic" in2="effect1_dropShadow" result="shape"/>
</filter>
</defs>
</svg>
