<svg xmlns="http://www.w3.org/2000/svg" width="28" height="32" fill="none" viewBox="0 0 28 32">
    <path fill="#fff" d="M10 14v2h8v-2h2V8h-2V6h-8v2H8v6h2z"/>
    <path fill="#fff" fill-rule="evenodd" d="M8 0v2H6v2H4v2H2v14h2v-2h2v2h2v2h12v-2h2v-2h2v2h2V6h-2V4h-2V2h-2V0H8zM6 14V8h2V6h2V4h8v2h2v2h2v6h-2v2h-2v2h-8v-2H8v-2H6z" clip-rule="evenodd"/>
    <path fill="#fff" d="M8 26h2v2h2v-2h4v2h2v-2h2v-2H8v2zM8 30h2v-2H8v2zM4 30v2h4v-2H4zM0 24v6h4v-2H2v-4H0zM4 22H2v2h2v-2zM6 22v-2H4v2h2zM8 24v-2H6v2h2zM22 22h-2v2h2v-2zM24 22v-2h-2v2h2zM24 24h2v-2h-2v2zM28 30v-6h-2v4h-2v2h4zM20 32h4v-2h-4v2zM20 28h-2v2h2v-2z"/>
</svg>
