<svg xmlns="http://www.w3.org/2000/svg" width="24" height="24" fill="none" viewBox="0 0 24 24">
    <path fill="#595467" d="M22.434 11.478H24V9.913h-1.566V8.348H20.87v1.565h-7.304v1.565h7.304v1.565h1.566v-1.565zM20.874 8.348V6.783h-1.565v1.565h1.565zM20.874 14.609v-1.565h-1.565v1.565h1.565z"/>
    <path fill="#595467" d="M17.739 0H0v20.348h1.565v.521H3.13v.522h1.566v.522H6.26v.522h1.565v.521h1.565v.522h1.565V24h1.566v-3.652h5.217v-7.305h-1.565v5.74h-3.652V4.695h-1.566v-.522H9.391v-.522H7.826V3.13H6.261V2.61H4.696v-.522H3.13v-.522h13.044v6.783h1.565V0z"/>
</svg>
