<svg width="12" height="16" viewBox="0 0 12 16" fill="none" xmlns="http://www.w3.org/2000/svg">
<path d="M2 4V5H10V4H2Z" fill="#03E1E4"/>
<path d="M2 6H10V7H2V6Z" fill="#03E1E4"/>
<path d="M2 2V3H10V2H2Z" fill="#03E1E4"/>
<path d="M1 0V1H11V0H1Z" fill="#03E1E4"/>
<path d="M2 8V9H10V8H2Z" fill="#03E1E4"/>
<path d="M0 15H1V1H0V15Z" fill="#03E1E4"/>
<path d="M1 16H9V15H8V12H7V15H1V16Z" fill="#03E1E4"/>
<path d="M11 14V13H10V14H11Z" fill="#03E1E4"/>
<path d="M10 15V14H9V15H10Z" fill="#03E1E4"/>
<path d="M12 1H11V11H8V12H11V13H12V1Z" fill="#03E1E4"/>
<path d="M2 10H6V11H2V10Z" fill="#03E1E4"/>
</svg>
