<svg width="28" height="28" viewBox="0 0 28 28" fill="none" xmlns="http://www.w3.org/2000/svg">
<g filter="url(#filter0_d_904_1061)">
<path fill-rule="evenodd" clip-rule="evenodd" d="M6.47368 5H21.5263V6.38462H22.8947V7.76923H24.2632V9.15385H25.6316V14.6923H27V20.2308H25.6316V21.6154H24.2632V23H21.5263V21.6154H20.1579V20.2308H18.7895V18.8462H17.4211V17.4615H10.5789V18.8462H9.21053V20.2308H7.84211V21.6154H6.47368V23H3.73684V21.6154H2.36842V20.2308H1V17.4615V14.6923H2.36842V9.15385H3.73684V7.76923H5.10526V6.38462H6.47368V5ZM7.15789 11.9231V13.3077H9.89474V11.9231H11.2632V9.15385H9.89474V7.76923H7.15789V9.15385H5.78947V11.9231H7.15789ZM7.15789 11.9231V9.15385H9.89474V11.9231H7.15789ZM15.3684 10.5385H18.1053V11.9231H15.3684V10.5385ZM22.2105 11.9231H19.4737V13.3077H22.2105V11.9231Z" fill="white"/>
</g>
<defs>
<filter id="filter0_d_904_1061" x="1" y="5" width="26" height="19" filterUnits="userSpaceOnUse" color-interpolation-filters="sRGB">
<feFlood flood-opacity="0" result="BackgroundImageFix"/>
<feColorMatrix in="SourceAlpha" type="matrix" values="0 0 0 0 0 0 0 0 0 0 0 0 0 0 0 0 0 0 127 0" result="hardAlpha"/>
<feOffset dy="1"/>
<feComposite in2="hardAlpha" operator="out"/>
<feColorMatrix type="matrix" values="0 0 0 0 0 0 0 0 0 0 0 0 0 0 0 0 0 0 0.25 0"/>
<feBlend mode="normal" in2="BackgroundImageFix" result="effect1_dropShadow_904_1061"/>
<feBlend mode="normal" in="SourceGraphic" in2="effect1_dropShadow_904_1061" result="shape"/>
</filter>
</defs>
</svg>
