<svg width="115" height="140" viewBox="0 0 115 140" fill="none" xmlns="http://www.w3.org/2000/svg">
<path d="M100 130H15V125H20V115H15V75H20V55H15V40H20V35H40V40H75V35H95V40H100V55H95V75H100V115H95V125H100V130Z" fill="#613819"/>
<path d="M20 40H40V45H75V40H95V55H90V75H95V115H90V120H25V115H20V75H25V55H20V40Z" fill="#C7731D"/>
<path d="M20 40V55H25V50H30V45H35V40H20Z" fill="#FFB4C5"/>
<path d="M95 40V55H90V50H85V45H80V40H95Z" fill="#FFB4C5"/>
<path d="M75 90V95H85V90H75Z" fill="#FFB4C5"/>
<path d="M95 125V130H85V125H95Z" fill="#FFB4C5"/>
<path d="M20 125V130H30V125H20Z" fill="#FFB4C5"/>
<path d="M30 90V95H40V90H30Z" fill="#FFB4C5"/>
<path d="M30 80H25V85H90V80H85V55H90V50H85V45H65V50H60V60H55V50H50V45H30V50H25V55H30V80Z" fill="#FF9929"/>
<path d="M25 110V85H30V80H85V85H90V110H25Z" fill="white"/>
<path d="M30 125V100H45V85H70V100H85V125H80V130H75V135H70V140H45V135H40V130H35V125H30Z" fill="#F0BC00"/>
<path d="M35 125V100H45V90H70V100H80V125H75V130H70V135H45V130H40V125H35Z" fill="#FFDC00"/>
<path fill-rule="evenodd" clip-rule="evenodd" d="M50 100V95H60V100H65V105H70V110H65V115H70V120H65V125H60V130H50V125H45V100H50ZM60 115V120H55V115H60ZM60 110V105H55V110H60Z" fill="#F0BC00"/>
<path d="M50 100V125H55V130H60V125H65V120H55V115H65V110H55V105H65V100H60V95H55V100H50Z" fill="#B98500"/>
<path d="M65 105V110H70V105H65Z" fill="#B98500"/>
<path d="M65 115V120H70V115H65Z" fill="#B98500"/>
<path d="M45 100H30V90H35V85H40V90H45V100Z" fill="#613819"/>
<path d="M40 90V95H30V90H40Z" fill="#FFB4C5"/>
<path d="M70 100H85V90H80V85H75V90H70V100Z" fill="#613819"/>
<path d="M75 90V95H85V90H75Z" fill="#FFB4C5"/>
<path d="M50 70V55H35V70H50Z" fill="#C7731D"/>
<path d="M45 70V60H35V70H45Z" fill="#070200"/>
<path d="M45 65H40V60H45V65Z" fill="white"/>
<path d="M80 70V55H65V70H80Z" fill="#C7731D"/>
<path d="M75 70V60H65V70H75Z" fill="#070200"/>
<path d="M75 65H70V60H75V65Z" fill="white"/>
<path d="M45 75V85H70V75H45Z" fill="#613819"/>
<path d="M65 75V80H50V75H65Z" fill="#FFB4C5"/>
<path d="M60 80H55V75H60V80Z" fill="#933B1C"/>
<path d="M60 85H55V80H60V85Z" fill="white"/>
<path d="M10 65H20V60H25V55H90V60H95V65H105V60H110V55H115V40H110V35H100V40H95V15H90V10H85V5H75V0H40V5H30V10H25V15H20V40H15V35H5V40H0V55H5V60H10V65Z" fill="#4D6534"/>
<path d="M5 40H15V45H20V40H25V15H30V10H40V5H75V10H85V15H90V40H95V45H100V40H110V55H105V60H90V55H25V60H10V55H5V40Z" fill="#6E8D4A"/>
<path d="M85 15H90V45H100V40H110V45H100V50H90V45H25V50H15V45H5V40H15V45H25V35H35V15H40V10H50V5H75V10H85V15Z" fill="#7EA155"/>
<path d="M95 45H90V40H25V45H20V35H25V30H90V35H95V45Z" fill="#373D32"/>
<path d="M65 40V30H50V40H45V30H50V25H65V30H70V40H65Z" fill="#FAF15F"/>
</svg>
