<svg width="51" height="63" viewBox="0 0 51 63" fill="none" xmlns="http://www.w3.org/2000/svg">
<path d="M51 57H39H36V60H33V63H18V60H15V57H12H0V54H3V48H0V24H3V12H0V3H3V0H15V3H36V0H48V3H51V12H48V24H51V48H48V54H51V57Z" fill="#613819"/>
<path d="M9 39H18V30H33V39H42V54H39V57H36V60H33V63H18V60H15V57H12V54H9V39Z" fill="#FFDC00"/>
<path d="M33 33V30H18V33H33Z" fill="#F0BC00"/>
<path d="M24 39V36H21V39H24Z" fill="#F0BC00"/>
<path d="M21 39H18V54H21V39Z" fill="#F0BC00"/>
<path d="M21 54V57H24V54H21Z" fill="#F0BC00"/>
<path d="M33 63V60H18V63H33Z" fill="#F0BC00"/>
<path d="M12 57H15V54H12V57Z" fill="#F0BC00"/>
<path d="M9 54H12V39H9V54Z" fill="#F0BC00"/>
<path d="M36 60V57H33V60H36Z" fill="#F0BC00"/>
<path d="M39 57V54H36V57H39Z" fill="#F0BC00"/>
<path d="M39 54H42V39H39V54Z" fill="#F0BC00"/>
<path d="M15 60H18V57H15V60Z" fill="#F0BC00"/>
<path d="M30 45V42H27V45H30Z" fill="#F0BC00"/>
<path d="M30 51V48H27V51H30Z" fill="#F0BC00"/>
<path d="M27 36H24V39H21V54H24V57H27V54H30V51H24V48H30V45H24V42H30V39H27V36Z" fill="#B98500"/>
<path d="M33 42H30V45H33V42Z" fill="#B98500"/>
<path d="M33 48H30V51H33V48Z" fill="#B98500"/>
<path d="M45 24V27H39V30H36V33H33V30H18V33H15V30H12V27H6V24H3V21H6V24H12V21H21V18H30V21H39V24H45V21H48V24H45Z" fill="#B8D3E6"/>
<path d="M36 30H39V24H30V21H21V24H12V30H15V33H18V30H33V33H36V30Z" fill="#C0DDF0"/>
<path d="M36 33H33V30H18V33H15V24H21V21H30V24H36V33Z" fill="#C4E2F5"/>
<path d="M33 30H18V24H21V21H30V24H33V30Z" fill="#C8E7FA"/>
<path d="M21 30H30V24H21V30Z" fill="#CCEBFF"/>
<path d="M9 30V27H12V33H9V45H6V30H9Z" fill="white"/>
<path d="M39 27H42V30H45V45H42V33H39V27Z" fill="white"/>
<path d="M18 18V15H15V18H18Z" fill="white"/>
<path d="M33 18V15H36V18H33Z" fill="white"/>
<path d="M3 24H6V12H9V24H6V45H9V51H6V48H3V24Z" fill="#C7731D"/>
<path d="M42 45H45V24H42V12H45V24H48V48H45V51H42V45Z" fill="#C7731D"/>
<path d="M39 21H36V15H30V12H39V21Z" fill="#C7731D"/>
<path d="M21 12V21H18V15H12V12H21Z" fill="#C7731D"/>
<path d="M27 15H24V9H21V6H30V9H27V15Z" fill="#C7731D"/>
<path d="M39 6H36V3H39V6Z" fill="#C7731D"/>
<path d="M12 6H15V3H12V6Z" fill="#C7731D"/>
<path d="M9 30V27H6V30H9Z" fill="#FF9929"/>
<path d="M9 24H12V12H21V18H30V12H39V24H42V12H45V9H42V6H30V9H27V15H24V9H21V6H9V9H6V12H9V24Z" fill="#FF9929"/>
<path d="M45 30V27H42V30H45Z" fill="#FF9929"/>
<path d="M18 21V18H15V15H12V21H18Z" fill="#070200"/>
<path d="M33 15V18H36V21H30V15H33Z" fill="#070200"/>
<path d="M9 57V54H3V57H9Z" fill="#FFB4C5"/>
<path d="M48 54H42V57H48V54Z" fill="#FFB4C5"/>
<path d="M36 36H42V33H36V36Z" fill="#FFB4C5"/>
<path d="M15 33V36H9V33H15Z" fill="#FFB4C5"/>
<path d="M6 12H3V3H12V6H9V9H6V12Z" fill="#FFB4C5"/>
<path d="M39 6V3H48V12H45V9H42V6H39Z" fill="#FFB4C5"/>
</svg>
