<svg width="90" height="150" viewBox="0 0 90 150" fill="none" xmlns="http://www.w3.org/2000/svg">
<path d="M85 140H0V135H5V125H0V85H5V65H0V50H5V45H25V50H60V45H80V50H85V65H80V85H85V125H80V135H85V140Z" fill="#613819"/>
<path d="M5 50H25V55H60V50H80V65H75V85H80V125H75V130H10V125H5V85H10V65H5V50Z" fill="#C7731D"/>
<path d="M5 50V65H10V60H15V55H20V50H5Z" fill="#FFB4C5"/>
<path d="M80 50V65H75V60H70V55H65V50H80Z" fill="#FFB4C5"/>
<path d="M60 100V105H70V100H60Z" fill="#FFB4C5"/>
<path d="M80 135V140H70V135H80Z" fill="#FFB4C5"/>
<path d="M5 135V140H15V135H5Z" fill="#FFB4C5"/>
<path d="M15 100V105H25V100H15Z" fill="#FFB4C5"/>
<path d="M15 90H10V95H75V90H70V65H75V60H70V55H50V60H45V70H40V60H35V55H15V60H10V65H15V90Z" fill="#FF9929"/>
<path d="M10 120V95H15V90H70V95H75V120H10Z" fill="white"/>
<path d="M80 5H75V0H55V25H80V5Z" fill="#CCCCCC"/>
<path d="M80 125H90V140H85V135H80V125Z" fill="#E6E6E6"/>
<path d="M0 75V90H5V95H10V100H20V95H25V100H30H60V95H65V100H75V95H80V90H85V75H80V80H75V85H60V90H25V85H10V80H5V75H0Z" fill="#E6E6E6"/>
<path d="M0 40V55H25V60H65V65H75V70H85V35H80V30H75V15H70V10H65V5H35V10H25V15H20V20H15V25H10V35H5V40H0Z" fill="#E6E6E6"/>
<path d="M25 40H5V35H10V30H25V35H65V40H80V45H85V55H75V50H65V45H25V40Z" fill="#CCCCCC"/>
<path d="M65 10V5H35V10H65Z" fill="#AC3232"/>
<path d="M85 125V140H90V125H85Z" fill="#AC3232"/>
<path fill-rule="evenodd" clip-rule="evenodd" d="M10 35H25V30H10V35Z" fill="#AC3232"/>
<path d="M70 15H25V20H70V15Z" fill="#AC3232"/>
<path d="M75 25V20H70V25H75Z" fill="#AC3232"/>
<path d="M25 25V30H65V25H25Z" fill="#AC3232"/>
<path d="M80 30H65V35H80V30Z" fill="#AC3232"/>
<path d="M85 40V35H80V40H85Z" fill="#AC3232"/>
<path d="M85 45H80V40H65V45H75V50H85V45Z" fill="#AC3232"/>
<path d="M25 35V40H65V35H25Z" fill="#AC3232"/>
<path d="M15 20V25H25V20H15Z" fill="#AC3232"/>
<path d="M25 40H0V55H25V60H65V65H75V70H85V55H75V50H65V45H25V40Z" fill="#AC3232"/>
<path d="M0 75V90H5V95H10V100H20V95H25V100H30H60V95H65V100H75V95H80V90H85V75H80V80H75V85H60V90H25V85H10V80H5V75H0Z" fill="#AC3232"/>
<path d="M15 135V110H30V95H55V110H70V135H65V140H60V145H55V150H30V145H25V140H20V135H15Z" fill="#F0BC00"/>
<path d="M20 135V110H30V100H55V110H65V135H60V140H55V145H30V140H25V135H20Z" fill="#FFDC00"/>
<path fill-rule="evenodd" clip-rule="evenodd" d="M35 110V105H45V110H50V115H55V120H50V125H55V130H50V135H45V140H35V135H30V110H35ZM45 125V130H40V125H45ZM45 120V115H40V120H45Z" fill="#F0BC00"/>
<path d="M35 110V135H40V140H45V135H50V130H40V125H50V120H40V115H50V110H45V105H40V110H35Z" fill="#B98500"/>
<path d="M50 115V120H55V115H50Z" fill="#B98500"/>
<path d="M50 125V130H55V125H50Z" fill="#B98500"/>
<path d="M30 110H15V100H20V95H25V100H30V110Z" fill="#613819"/>
<path d="M25 100V105H15V100H25Z" fill="#FFB4C5"/>
<path d="M55 110H70V100H65V95H60V100H55V110Z" fill="#613819"/>
<path d="M60 100V105H70V100H60Z" fill="#FFB4C5"/>
<path d="M35 80V65H20V80H35Z" fill="#C7731D"/>
<path d="M30 80V70H20V80H30Z" fill="#070200"/>
<path d="M30 75H25V70H30V75Z" fill="white"/>
<path d="M65 80V65H50V80H65Z" fill="#C7731D"/>
<path d="M60 80V70H50V80H60Z" fill="#070200"/>
<path d="M60 75H55V70H60V75Z" fill="white"/>
<path d="M30 85V95H55V85H30Z" fill="#613819"/>
<path d="M50 85V90H35V85H50Z" fill="#FFB4C5"/>
<path d="M45 90H40V85H45V90Z" fill="#933B1C"/>
<path d="M45 95H40V90H45V95Z" fill="white"/>
</svg>
