<?xml version="1.0" encoding="utf-8"?>
<!-- Generator: Adobe Illustrator 27.1.1, SVG Export Plug-In . SVG Version: 6.00 Build 0)  -->
<svg version="1.1" id="Layer_1" shape-rendering="crispEdges"
	 xmlns="http://www.w3.org/2000/svg" xmlns:xlink="http://www.w3.org/1999/xlink" x="0px" y="0px" viewBox="0 0 32 23"
	 style="enable-background:new 0 0 32 23;" xml:space="preserve">
<style type="text/css">
	.st0{fill:#88A3BC;}
	.st1{fill:#FFFFFF;}
	.st2{fill:#060200;}
	.st3{fill:#FF9929;}
	.st4{fill:#C7731D;}
	.st5{fill:#7C442C;}
	.st6{fill:#B8CCD8;}
	.st7{fill:#5E718E;}
	.st8{fill:#CBDBFC;}
	.st9{fill:#9FB2D9;}
	.st10{fill:#687BC5;}
	.st11{fill:#5D6EB0;}
	.st12{fill:#343D61;}
	.st13{fill:#F2B7C5;}
	.st14{fill:#5A3A1F;}
</style>
<polygon class="st0" points="1,8 2,8 2,9 1,9 1,8 "/>
<polygon class="st0" points="30,8 31,8 31,9 30,9 30,8 "/>
<polygon class="st1" points="12,9 13,9 13,10 12,10 12,9 "/>
<polygon class="st1" points="18,9 19,9 19,10 18,10 18,9 "/>
<g>
	<polygon class="st2" points="12,9 11,9 11,11 13,11 13,10 12,10 12,9 	"/>
	<polygon class="st2" points="18,10 18,9 17,9 17,11 19,11 19,10 18,10 	"/>
</g>
<polygon class="st0" points="1,11 2,11 2,12 1,12 1,11 "/>
<path class="st3" d="M21,7V6h-4v1h-1v2h-1V7h-1V6h-4v1H9v1h1v4h11V8h1V7H21L21,7z M12,11h-1V8h3v2h-1v1H12L12,11z M20,9v2h-3V8h3V9
	L20,9z"/>
<g>
	<polygon class="st4" points="17,6 14,6 14,7 15,7 15,9 16,9 16,7 17,7 17,6 17,6 	"/>
	<polygon class="st4" points="9,9 9,12 10,12 10,8 9,8 9,9 9,9 	"/>
	<polygon class="st4" points="12,8 11,8 11,9 13,9 13,10 14,10 14,8 12,8 12,8 	"/>
	<polygon class="st4" points="18,8 17,8 17,9 19,9 19,11 20,11 20,8 18,8 18,8 	"/>
	<polygon class="st4" points="21,8 21,12 22,12 22,8 21,8 21,8 	"/>
</g>
<polygon class="st0" points="30,11 31,11 31,12 30,12 30,11 "/>
<polygon class="st0" points="4,12 5,12 5,13 4,13 4,12 "/>
<polygon class="st1" points="11,12 12,12 12,13 11,13 11,12 "/>
<polygon class="st1" points="12,12 13,12 13,13 12,13 12,12 "/>
<polygon class="st5" points="15,12 16,12 16,13 15,13 15,12 "/>
<polygon class="st1" points="18,12 19,12 19,13 18,13 18,12 "/>
<polygon class="st1" points="19,12 20,12 20,13 19,13 19,12 "/>
<polygon class="st0" points="27,12 28,12 28,13 27,13 27,12 "/>
<polygon class="st0" points="5,13 6,13 6,14 5,14 5,13 "/>
<polygon class="st1" points="12,13 13,13 13,14 12,14 12,13 "/>
<polygon class="st1" points="15,13 16,13 16,14 15,14 15,13 "/>
<polygon class="st1" points="18,13 19,13 19,14 18,14 18,13 "/>
<g>
	<polygon class="st6" points="2,8 2,9 3,9 3,8 2,8 	"/>
	<polygon class="st6" points="30,8 29,8 29,9 30,9 30,8 	"/>
	<polygon class="st6" points="29,9 28,9 28,11 27,11 27,12 30,12 30,11 29,11 29,9 	"/>
	<polygon class="st6" points="4,11 4,9 3,9 3,11 2,11 2,12 5,12 5,11 4,11 	"/>
	<polygon class="st6" points="5,12 5,13 6,13 6,12 5,12 	"/>
	<polygon class="st6" points="26,13 27,13 27,12 26,12 26,13 	"/>
	<polygon class="st6" points="6,14 7,14 7,13 6,13 6,14 	"/>
	<polygon class="st6" points="25,14 26,14 26,13 25,13 25,14 	"/>
</g>
<polygon class="st0" points="26,13 27,13 27,14 26,14 26,13 "/>
<g>
	<polygon class="st7" points="3,8 3,7 1,7 1,8 3,8 	"/>
	<polygon class="st7" points="31,8 31,7 29,7 29,8 31,8 	"/>
	<polygon class="st7" points="0,8 0,9 1,9 1,8 0,8 	"/>
	<polygon class="st7" points="3,8 3,9 4,9 4,8 3,8 	"/>
	<polygon class="st7" points="28,8 28,9 29,9 29,8 28,8 	"/>
	<polygon class="st7" points="32,9 32,8 31,8 31,9 32,9 	"/>
	<polygon class="st7" points="1,9 1,11 3,11 3,9 1,9 	"/>
	<polygon class="st7" points="5,9 4,9 4,11 5,11 5,9 	"/>
	<polygon class="st7" points="27,10 27,11 28,11 28,9 27,9 27,10 	"/>
	<polygon class="st7" points="31,9 29,9 29,11 31,11 31,9 	"/>
	<polygon class="st7" points="0,12 1,12 1,11 0,11 0,12 	"/>
	<polygon class="st7" points="5,11 5,12 6,12 6,11 5,11 	"/>
	<polygon class="st7" points="26,12 27,12 27,11 26,11 26,12 	"/>
	<polygon class="st7" points="32,12 32,11 31,11 31,12 32,12 	"/>
	<polygon class="st7" points="2,13 4,13 4,12 1,12 1,13 2,13 	"/>
	<polygon class="st7" points="6,12 6,13 7,13 7,12 6,12 	"/>
	<polygon class="st7" points="25,13 26,13 26,12 25,12 25,13 	"/>
	<polygon class="st7" points="29,12 28,12 28,13 31,13 31,12 29,12 	"/>
	<polygon class="st7" points="5,14 5,13 4,13 4,14 5,14 	"/>
	<polygon class="st7" points="7,14 8,14 8,13 7,13 7,14 	"/>
	<polygon class="st7" points="24,14 25,14 25,13 24,13 24,14 	"/>
	<polygon class="st7" points="27,14 28,14 28,13 27,13 27,14 	"/>
</g>
<polygon class="st0" points="6,14 7,14 7,15 6,15 6,14 "/>
<polygon class="st1" points="13,14 14,14 14,15 13,15 13,14 "/>
<polygon class="st1" points="14,14 15,14 15,15 14,15 14,14 "/>
<polygon class="st1" points="15,14 16,14 16,15 15,15 15,14 "/>
<polygon class="st1" points="16,14 17,14 17,15 16,15 16,14 "/>
<polygon class="st1" points="17,14 18,14 18,15 17,15 17,14 "/>
<polygon class="st0" points="25,14 26,14 26,15 25,15 25,14 "/>
<polygon class="st8" points="19,15 20,15 20,16 19,16 19,15 "/>
<polygon class="st9" points="20,15 20,16 19,16 19,17 21,17 21,15 20,15 "/>
<g>
	<polygon class="st10" points="13,2 12,2 12,3 13,3 13,2 	"/>
	<polygon class="st10" points="19,2 18,2 18,3 19,3 19,2 	"/>
	<polygon class="st10" points="12,3 11,3 11,4 12,4 12,3 	"/>
	<polygon class="st10" points="14,4 15,4 15,2 14,2 14,3 13,3 13,4 14,4 	"/>
	<polygon class="st10" points="18,4 18,3 17,3 17,2 16,2 16,4 18,4 	"/>
	<polygon class="st10" points="20,4 20,3 19,3 19,4 20,4 	"/>
	<polygon class="st10" points="17,6 19,6 19,5 11,5 11,6 17,6 	"/>
	<polygon class="st10" points="21,13 20,13 20,14 19,14 19,15 21,15 21,17 22,17 22,13 21,13 	"/>
	<polygon class="st10" points="11,14 11,13 9,13 9,14 10,14 10,15 12,15 12,14 11,14 	"/>
	<polygon class="st10" points="13,15 12,15 12,16 13,16 13,15 	"/>
	<polygon class="st10" points="18,16 19,16 19,15 18,15 18,16 	"/>
	<polygon class="st10" points="14,17 12,17 12,16 10,16 10,20 12,20 12,21 15,21 15,16 14,16 14,17 	"/>
	<polygon class="st10" points="19,17 17,17 17,16 16,16 16,21 19,21 19,20 21,20 21,17 19,17 	"/>
</g>
<g>
	<polygon class="st11" points="12,2 11,2 11,3 12,3 12,2 	"/>
	<polygon class="st11" points="20,2 19,2 19,3 20,3 20,2 	"/>
	<polygon class="st11" points="12,5 19,5 19,6 20,6 20,5 21,5 21,3 20,3 20,4 19,4 19,3 18,3 18,4 16,4 16,2 17,2 17,3 18,3 18,1 
		13,1 13,3 14,3 14,2 15,2 15,4 13,4 13,3 12,3 12,4 11,4 11,3 10,3 10,5 12,5 	"/>
	<polygon class="st11" points="10,13 11,13 11,12 8,12 8,14 9,14 9,13 10,13 	"/>
	<polygon class="st11" points="22,12 20,12 20,13 22,13 22,17 21,17 21,20 19,20 19,21 16,21 16,16 17,16 17,17 19,17 19,16 18,16 
		18,15 13,15 13,16 12,16 12,17 14,17 14,16 15,16 15,21 12,21 12,20 10,20 10,16 12,16 12,15 10,15 10,14 9,14 9,16 8,16 8,20 
		9,20 9,21 10,21 10,22 21,22 21,21 22,21 22,20 23,20 23,12 22,12 	"/>
	<polygon class="st11" points="12,14 12,13 11,13 11,14 12,14 	"/>
	<polygon class="st11" points="20,13 19,13 19,14 20,14 20,13 	"/>
	<polygon class="st11" points="13,15 13,14 12,14 12,15 13,15 	"/>
	<polygon class="st11" points="19,14 18,14 18,15 19,15 19,14 	"/>
</g>
<g>
	<polygon class="st12" points="18,1 18,0 13,0 13,1 18,1 	"/>
	<polygon class="st12" points="13,2 13,1 11,1 11,2 13,2 	"/>
	<polygon class="st12" points="20,2 20,1 18,1 18,2 20,2 	"/>
	<polygon class="st12" points="11,2 10,2 10,3 11,3 11,2 	"/>
	<polygon class="st12" points="21,3 21,2 20,2 20,3 21,3 	"/>
	<polygon class="st12" points="10,3 9,3 9,4 10,4 10,3 	"/>
	<polygon class="st12" points="22,4 22,3 21,3 21,4 22,4 	"/>
	<polygon class="st12" points="8,12 7,12 7,13 8,13 8,12 	"/>
	<polygon class="st12" points="23,12 23,20 24,20 24,12 23,12 	"/>
	<polygon class="st12" points="8,18 8,17 7,17 7,20 8,20 8,18 	"/>
	<polygon class="st12" points="22,21 21,21 21,22 23,22 23,20 22,20 22,21 	"/>
	<polygon class="st12" points="9,21 9,20 8,20 8,22 10,22 10,21 9,21 	"/>
	<polygon class="st12" points="19,22 10,22 10,23 21,23 21,22 19,22 	"/>
</g>
<g>
	<polygon class="st13" points="9,5 8,5 8,8 9,8 9,7 10,7 10,6 11,6 11,5 9,5 	"/>
	<polygon class="st13" points="21,5 20,5 20,6 21,6 21,7 22,7 22,8 23,8 23,5 21,5 	"/>
	<polygon class="st13" points="14,13 15,13 15,12 14,12 14,13 	"/>
	<polygon class="st13" points="16,13 17,13 17,12 16,12 16,13 	"/>
	<polygon class="st13" points="8,15 8,14 7,14 7,15 6,15 6,16 8,16 8,15 	"/>
	<polygon class="st13" points="25,15 25,14 24,14 24,16 26,16 26,15 25,15 	"/>
	<polygon class="st13" points="8,22 8,23 10,23 10,22 8,22 	"/>
	<polygon class="st13" points="21,22 21,23 23,23 23,22 21,22 	"/>
</g>
<g>
	<polygon class="st14" points="8,4 8,5 10,5 10,4 8,4 	"/>
	<polygon class="st14" points="22,4 21,4 21,5 23,5 23,4 22,4 	"/>
	<polygon class="st14" points="7,6 7,8 8,8 8,5 7,5 7,6 	"/>
	<polygon class="st14" points="23,7 23,8 24,8 24,5 23,5 23,7 	"/>
	<polygon class="st14" points="22,9 22,12 23,12 23,8 22,8 22,9 	"/>
	<polygon class="st14" points="8,10 8,12 9,12 9,8 8,8 8,10 	"/>
	<polygon class="st14" points="14,12 13,12 13,14 15,14 15,13 14,13 14,12 	"/>
	<polygon class="st14" points="17,13 16,13 16,14 18,14 18,12 17,12 17,13 	"/>
	<polygon class="st14" points="6,14 5,14 5,16 6,16 6,14 	"/>
	<polygon class="st14" points="8,15 8,16 9,16 9,14 8,14 8,15 	"/>
	<polygon class="st14" points="26,14 26,16 27,16 27,14 26,14 	"/>
	<polygon class="st14" points="6,16 6,17 8,17 8,16 6,16 	"/>
	<polygon class="st14" points="24,16 24,17 26,17 26,16 24,16 	"/>
	<polygon class="st14" points="7,23 8,23 8,22 7,22 7,23 	"/>
	<polygon class="st14" points="23,23 24,23 24,22 23,22 23,23 	"/>
</g>
</svg>
