<svg width="85" height="105" viewBox="0 0 85 105" fill="none" xmlns="http://www.w3.org/2000/svg">
<path d="M85 95H0V90H5V80H0V40H5V20H0V5H5V0H25V5H60V0H80V5H85V20H80V40H85V80H80V90H85V95Z" fill="#8B3A00"/>
<path d="M5 5H25V10H60V5H80V20H75V40H80V80H75V85H10V80H5V40H10V20H5V5Z" fill="#D34A08"/>
<path d="M5 5V20H10V15H15V10H20V5H5Z" fill="#E9A5B5"/>
<path d="M80 5V20H75V15H70V10H65V5H80Z" fill="#E9A5B5"/>
<path d="M60 55V60H70V55H60Z" fill="#E9A5B5"/>
<path d="M80 90V95H70V90H80Z" fill="#E9A5B5"/>
<path d="M5 90V95H15V90H5Z" fill="#E9A5B5"/>
<path d="M15 55V60H25V55H15Z" fill="#E9A5B5"/>
<path d="M15 45H10V50H75V45H70V20H75V15H70V10H50V15H45V25H40V15H35V10H15V15H10V20H15V45Z" fill="#ED8219"/>
<path d="M15 90H70V75H15V90Z" fill="#ED8219"/>
<path d="M10 75V50H15V45H20V40H65V45H70V50H75V75H70V80H65V85H20V80H15V75H10Z" fill="#FFED89"/>
<path d="M30 65V50H55V65H70V90H65V95H60V100H55V105H30V100H25V95H20V90H15V65H30Z" fill="#579928"/>
<path d="M20 90V65H30V55H55V65H65V90H60V95H55V100H30V95H25V90H20Z" fill="#6DBF32"/>
<path d="M30 85V60H55V65H60V90H35V85H30Z" fill="#74CC35"/>
<path d="M45 65V60H55V65H60V75H55V80H45V75H40V65H45Z" fill="#7BD938"/>
<path d="M45 75V65H55V75H45Z" fill="#82E63C"/>
<path d="M15 70H20V60H40V65H45V70H35V75H25V80H20V85H15V70Z" fill="#A6A6A6"/>
<path d="M45 55V50H55V55H70V75H65V70H55V65H50V55H45Z" fill="#A6A6A6"/>
<path d="M35 105V100H40V95H45V85H50V75H55V80H60V90H55V100H50V105H35Z" fill="#A6A6A6"/>
<path d="M20 80V60H40V65H45V70H35V75H25V80H20Z" fill="#D9D9D9"/>
<path d="M50 65V55H65V70H55V65H50Z" fill="#D9D9D9"/>
<path d="M45 95V85H50V75H55V80H60V90H55V100H40V95H45Z" fill="#D9D9D9"/>
<path d="M35 65V60H40V65H45V70H35V75H30V65H35Z" fill="#EBEBEB"/>
<path d="M50 65V60H60V70H55V65H50Z" fill="#EBEBEB"/>
<path d="M50 85V75H55V80H60V85H55V90H45V85H50Z" fill="#EBEBEB"/>
<path d="M55 70V65H60V70H55Z" fill="#F2F2F2"/>
<path d="M40 70V65H45V70H40Z" fill="#F2F2F2"/>
<path d="M50 80V75H55V80H50Z" fill="#F2F2F2"/>
<path d="M55 65H70V55H65V50H60V55H55V65Z" fill="#8B3A00"/>
<path d="M60 55V60H70V55H60Z" fill="#E9A5B5"/>
<path d="M30 65H15V55H20V50H25V55H30V65Z" fill="#8B3A00"/>
<path d="M25 55V60H15V55H25Z" fill="#E9A5B5"/>
<path d="M35 35V20H20V35H35Z" fill="#D34A08"/>
<path d="M30 35V25H20V35H30Z" fill="#070200"/>
<path d="M30 30H25V25H30V30Z" fill="white"/>
<path d="M65 35V20H50V35H65Z" fill="#D34A08"/>
<path d="M60 35V25H50V35H60Z" fill="#070200"/>
<path d="M60 30H55V25H60V30Z" fill="white"/>
<path d="M30 40V50H55V40H30Z" fill="#8B3A00"/>
<path d="M50 40V45H35V40H50Z" fill="#E9A5B5"/>
<path d="M45 45H40V40H45V45Z" fill="#933B1C"/>
<path d="M45 50H40V45H45V50Z" fill="white"/>
<path d="M80 20H5V25H10V30H15V35H40V30H45V35H70V30H75V25H80V20Z" fill="#060200"/>
<path d="M20 25V20H25V25H20V30H15V25H20Z" fill="white"/>
<path d="M50 25V20H55V25H50V30H45V25H50Z" fill="white"/>
</svg>
