<svg width="170" height="210" viewBox="0 0 170 210" fill="none" xmlns="http://www.w3.org/2000/svg">
<path d="M40 130H60V110H110V130H130V180H120V190H110V200H60V190H50V180H40V130Z" fill="#FFDC00"/>
<path d="M110 110V100H60V110H110Z" fill="#F0BC00"/>
<path d="M80 130V120H70V130H80Z" fill="#F0BC00"/>
<path d="M70 130H60V180H70V130Z" fill="#F0BC00"/>
<path d="M70 180V190H80V180H70Z" fill="#F0BC00"/>
<path d="M110 210V200H60V210H110Z" fill="#F0BC00"/>
<path d="M40 190H50V180H40V190Z" fill="#F0BC00"/>
<path d="M30 180H40V130H30V180Z" fill="#F0BC00"/>
<path d="M120 200V190H110V200H120Z" fill="#F0BC00"/>
<path d="M130 190V180H120V190H130Z" fill="#F0BC00"/>
<path d="M130 180H140V130H130V180Z" fill="#F0BC00"/>
<path d="M50 200H60V190H50V200Z" fill="#F0BC00"/>
<path d="M100 150V140H90V150H100Z" fill="#F0BC00"/>
<path d="M100 170V160H90V170H100Z" fill="#F0BC00"/>
<path d="M90 120H80V130H70V180H80V190H90V180H100V170H80V160H100V150H80V140H100V130H90V120Z" fill="#B98500"/>
<path d="M110 140H100V150H110V140Z" fill="#B98500"/>
<path d="M110 160H100V170H110V160Z" fill="#B98500"/>
<path d="M70 100H100V80H70V100Z" fill="#CCEBFF"/>
<path d="M70 80V100H60V80H70V70H100V80H110V100H100V80H70Z" fill="#C8E7FA"/>
<path d="M60 110V80H50V110H60Z" fill="#C4E2F5"/>
<path d="M110 110V80H120V110H110Z" fill="#C4E2F5"/>
<path d="M50 100V80H40V100H50Z" fill="#C0DDF0"/>
<path d="M130 100V80H120V100H130Z" fill="#C0DDF0"/>
<path d="M70 80H40V90H20V80H10V70H20V80H40V70H70V60H100V70H130V80H150V70H160V80H150V90H130V80H100V70H70V80Z" fill="#B8D3E6"/>
<path d="M30 100V90H40V110H30V150H20V100H30Z" fill="white"/>
<path d="M130 90H140V100H150V150H140V110H130V90Z" fill="white"/>
<path d="M60 60V50H50V60H60Z" fill="white"/>
<path d="M110 60V50H120V60H110Z" fill="white"/>
<path d="M10 80H20V40H30V80H20V150H30V170H20V160H10V80Z" fill="#C7731D"/>
<path d="M140 150H150V80H140V40H150V80H160V160H150V170H140V150Z" fill="#C7731D"/>
<path d="M130 70H120V50H100V40H130V70Z" fill="#C7731D"/>
<path d="M70 40V70H60V50H40V40H70Z" fill="#C7731D"/>
<path d="M90 50H80V30H70V20H100V30H90V50Z" fill="#C7731D"/>
<path d="M130 20H120V10H130V20Z" fill="#C7731D"/>
<path d="M40 20H50V10H40V20Z" fill="#C7731D"/>
<path d="M30 100V90H20V100H30Z" fill="#FF9929"/>
<path d="M30 80H40V40H70V60H100V40H130V80H140V40H150V30H140V20H100V30H90V50H80V30H70V20H30V30H20V40H30V80Z" fill="#FF9929"/>
<path d="M150 100V90H140V100H150Z" fill="#FF9929"/>
<path d="M60 70V60H50V50H40V70H60Z" fill="#070200"/>
<path d="M110 50V60H120V70H100V50H110Z" fill="#070200"/>
<path d="M30 190V180H10V190H30Z" fill="#FFB4C5"/>
<path d="M160 180H140V190H160V180Z" fill="#FFB4C5"/>
<path d="M120 120H140V110H120V120Z" fill="#FFB4C5"/>
<path d="M50 110V120H30V110H50Z" fill="#FFB4C5"/>
<path d="M20 40H10V10H40V20H30V30H20V40Z" fill="#FFB4C5"/>
<path d="M130 20V10H160V40H150V30H140V20H130Z" fill="#FFB4C5"/>
<path d="M40 190H30V180H10V190H0V180H10V160H0V80H10V160H20V170H30V180H40V190Z" fill="#613819"/>
<path d="M130 180H140V170H150V160H160V80H170V160H160V180H170V190H160V180H140V190H130V180Z" fill="#613819"/>
<path d="M20 70H10V40H0V10H10V0H50V10H120V0H160V10H170V40H160V70H150V40H160V10H120V20H50V10H10V40H20V70Z" fill="#613819"/>
<path d="M30 130V120H50V110H40V100H50V110H60V130H30Z" fill="#613819"/>
<path d="M130 100V110H120V120H140V130H110V110H120V100H130Z" fill="#613819"/>
</svg>
