<svg width="28" height="28" viewBox="0 0 28 28" fill="none" xmlns="http://www.w3.org/2000/svg">
<g filter="url(#filter0_d_904_996)">
<path d="M15.087 1H12.913V2.63042H15.087V1Z" fill="white"/>
<path d="M11.2826 4.26092H9.65217V5.89134H11.2826V4.26092Z" fill="white"/>
<path d="M9.65217 5.89134L8.02179 5.89135V7.52178H9.65221L9.65217 5.89134Z" fill="white"/>
<path d="M8.02179 7.52178H6.39136V9.1522H8.02179V7.52178Z" fill="white"/>
<path d="M6.39136 9.1522L4.76093 9.15215V10.7826H6.39135L6.39136 9.1522Z" fill="white"/>
<path d="M4.76093 10.7826L3.13043 10.7826V12.413H4.76085L4.76093 10.7826Z" fill="white"/>
<path d="M3.13043 12.413H1.5V14.0434H3.13042L3.13043 12.413Z" fill="white"/>
<path d="M18.3478 1V4.26088H16.7174V5.8913H18.3478V7.52172H19.9783V2.63042H21.6087V10.7826H23.2391V1H18.3478Z" fill="white"/>
<path d="M16.7174 2.63042L15.087 2.63042V4.26084L16.7174 4.26088L16.7174 2.63042Z" fill="white"/>
<path d="M12.913 2.63042L11.2826 2.63042L11.2826 4.26092L12.913 4.26084V2.63042Z" fill="white"/>
<path d="M24.8695 10.7826L23.2391 10.7826L23.2391 12.413H24.8695V10.7826Z" fill="white"/>
<path d="M26.5 12.413H24.8695L24.8696 14.0434H26.5V12.413Z" fill="white"/>
<path d="M23.2391 14.0435L23.2391 12.413L21.6087 12.4131L21.6087 10.7826L19.9783 10.7826V9.15222H18.3478L18.3478 7.52172L16.7174 7.52176L16.7174 5.8913L15.087 5.89134L15.087 4.26084H12.913L12.913 5.89134H11.2826L11.2826 7.52176L9.65221 7.52178L9.6522 9.15222L8.02179 9.1522L8.02174 10.7826L6.39135 10.7826L6.39132 12.4131L4.76085 12.413L4.7609 14.0435L3.13042 14.0434L3.13043 26H10.7391V16.2174H17.2609V26H24.8696L24.8696 14.0434L23.2391 14.0435Z" fill="white"/>
</g>
<defs>
<filter id="filter0_d_904_996" x="1.5" y="1" width="25" height="26" filterUnits="userSpaceOnUse" color-interpolation-filters="sRGB">
<feFlood flood-opacity="0" result="BackgroundImageFix"/>
<feColorMatrix in="SourceAlpha" type="matrix" values="0 0 0 0 0 0 0 0 0 0 0 0 0 0 0 0 0 0 127 0" result="hardAlpha"/>
<feOffset dy="1"/>
<feComposite in2="hardAlpha" operator="out"/>
<feColorMatrix type="matrix" values="0 0 0 0 0 0 0 0 0 0 0 0 0 0 0 0 0 0 0.25 0"/>
<feBlend mode="normal" in2="BackgroundImageFix" result="effect1_dropShadow_904_996"/>
<feBlend mode="normal" in="SourceGraphic" in2="effect1_dropShadow_904_996" result="shape"/>
</filter>
</defs>
</svg>
