<svg width="20" height="20" viewBox="0 0 20 20" fill="none" xmlns="http://www.w3.org/2000/svg">
    <path fill-rule="evenodd" clip-rule="evenodd" d="M6.667 4.444h2.222v2.223H6.667v2.222H4.444V6.667H2.222v2.222H0v2.222h2.222v2.222h2.222v-2.222h2.223v2.222h2.222v2.223H6.667v2.222h2.222V20h2.222v-2.222h2.222v-2.222h-2.222v-2.223h2.222v-2.222h2.223v2.222h2.222v-2.222H20V8.89h-2.222V6.667h-2.222v2.222h-2.223V6.667h-2.222V4.444h2.222V2.222h-2.222V0H8.89v2.222H6.667v2.222zm2.222 6.667V8.89h2.222v2.222H8.89z" fill="#03E1E4"/>
    <path d="M4.444 4.444v2.223h2.223V4.444H4.444zM2.222 2.222v2.222h2.222V2.222H2.222zM13.333 4.444v2.223h2.223V4.444h-2.223zM17.778 4.444V2.222h-2.222v2.222h2.222zM15.556 17.778h2.222v-2.222h-2.222v2.222zM15.556 13.333h-2.223v2.223h2.223v-2.223zM4.444 15.556h2.223v-2.223H4.444v2.223zM2.222 15.556v2.222h2.222v-2.222H2.222z" fill="#03E1E4"/>
</svg>
