<svg width="51" height="75" viewBox="0 0 51 75" fill="none" xmlns="http://www.w3.org/2000/svg">
<path d="M6 75V72H9V69H12V66H15V69H18V72H21V75H30V72H33V69H36V66H39V69H42V72H45V75H51V12H48V6H45V3H39V0H12V3H6V6H3V12H0V75H6Z" fill="#CCCCCC"/>
<path d="M0 75V66H6V63H9V60H42V63H45V12H42V6H36V0H39V3H45V6H48V12H51V75H45V72H42V69H39V66H36V69H33V72H30V75H21V72H18V69H15V66H12V69H9V72H6V75H0Z" fill="#BFBFBF"/>
<path d="M18 0V3H12V6H6V12H3V75H0V12H3V6H6V3H12V0H18Z" fill="#D9D9D9"/>
<path d="M15 3H39V0H15V3Z" fill="#A6A6A6"/>
<path d="M45 6V3H39V6H45Z" fill="#A6A6A6"/>
<path d="M45 12H48V6H45V12Z" fill="#A6A6A6"/>
<path d="M45 72V75H51V12H48V72H45Z" fill="#A6A6A6"/>
<path d="M45 69H42V72H45V69Z" fill="#A6A6A6"/>
<path d="M39 66V69H42V66H39Z" fill="#A6A6A6"/>
<path d="M36 63V66H39V63H36Z" fill="#A6A6A6"/>
<path d="M33 69H36V66H33V69Z" fill="#A6A6A6"/>
<path d="M30 69V72H33V69H30Z" fill="#A6A6A6"/>
<path d="M21 72V75H30V72H21Z" fill="#A6A6A6"/>
<path d="M21 69H18V72H21V69Z" fill="#A6A6A6"/>
<path d="M15 66V69H18V66H15Z" fill="#A6A6A6"/>
<path d="M12 63V66H15V63H12Z" fill="#A6A6A6"/>
<path d="M9 69H12V66H9V69Z" fill="#A6A6A6"/>
<path d="M6 69V72H9V69H6Z" fill="#A6A6A6"/>
<path d="M0 75H6V72H0V75Z" fill="#A6A6A6"/>
<path d="M45 39V45H39V39H45Z" fill="#A6A6A6"/>
<path d="M12 39V45H6V39H12Z" fill="#A6A6A6"/>
<path d="M9 45V42V39H12V36H15V39H18V45H9Z" fill="#613819"/>
<path d="M33 39H36V36H39V39H42V45H33V39Z" fill="#613819"/>
<path d="M15 42V39H9V42H15Z" fill="#FFB4C5"/>
<path d="M36 42V39H42V42H36Z" fill="#FFB4C5"/>
<path d="M9 45H18V36H33V45H42V60H39V63H36V66H33V69H18V66H15V63H12V60H9V45Z" fill="#F0BC00"/>
<path d="M39 60V45H33V39H18V45H12V60H15V63H18V66H33V63H36V60H39Z" fill="#FFDC00"/>
<path fill-rule="evenodd" clip-rule="evenodd" d="M27 42H21V45H18V60H21V63H27V60H30V57H33V54H30V51H33V48H30V45H27V42ZM27 48V51H24V48H27ZM27 57V54H24V57H27Z" fill="#F0BC00"/>
<path d="M24 42V45H21V60H24V63H27V60H30V57H24V54H30V51H24V48H30V45H27V42H24Z" fill="#B98500"/>
<path d="M30 48V51H33V48H30Z" fill="#B98500"/>
<path d="M30 54V57H33V54H30Z" fill="#B98500"/>
<path d="M12 27H21V18V15H12V18H9V27H12Z" fill="#A6A6A6"/>
<path d="M24 18H12V30H21V27H24V18Z" fill="#D9D9D9"/>
<path d="M21 27V18H12V27H21Z" fill="#C7731D"/>
<path d="M18 27V21H12V27H18Z" fill="#070200"/>
<path d="M18 24H15V21H18V24Z" fill="white"/>
<path d="M30 27H39V18V15H30V18H27V27H30Z" fill="#A6A6A6"/>
<path d="M42 18H30V30H39V27H42V18Z" fill="#D9D9D9"/>
<path d="M39 27V18H30V27H39Z" fill="#C7731D"/>
<path d="M36 27V21H30V27H36Z" fill="#070200"/>
<path d="M36 24H33V21H36V24Z" fill="white"/>
</svg>
