<svg width="20" height="16" viewBox="0 0 20 16" fill="none" xmlns="http://www.w3.org/2000/svg">
<g filter="url(#filter0_d_1005_1007)">
<path d="M1.25 0V1.25H2.5V2.5H3.75V3.75H5V5H6.25V6.25H7.5V7.5H8.75V8.75H11.25V7.5H12.5V6.25H13.75V5H15V3.75H16.25V2.5H17.5V1.25H18.75V0H1.25Z" fill="#2F3045"/>
<path d="M11.25 10H8.75V8.75H7.5V7.5H6.25V6.25H5V5H3.75V3.75H2.5V2.5H1.25V1.25H0V13.75H1.25V12.5H2.5V11.25H3.75V10H5V8.75H6.25V10H5V11.25H3.75V12.5H2.5V13.75H1.25V15H18.75V13.75H17.5V12.5H16.25V11.25H15V10H13.75V8.75H15V10H16.25V11.25H17.5V12.5H18.75V13.75H20V1.25H18.75V2.5H17.5V3.75H16.25V5H15V6.25H13.75V7.5H12.5V8.75H11.25V10Z" fill="#2F3045"/>
</g>
<defs>
<filter id="filter0_d_1005_1007" x="0" y="0" width="20" height="16" filterUnits="userSpaceOnUse" color-interpolation-filters="sRGB">
<feFlood flood-opacity="0" result="BackgroundImageFix"/>
<feColorMatrix in="SourceAlpha" type="matrix" values="0 0 0 0 0 0 0 0 0 0 0 0 0 0 0 0 0 0 127 0" result="hardAlpha"/>
<feOffset dy="1"/>
<feComposite in2="hardAlpha" operator="out"/>
<feColorMatrix type="matrix" values="0 0 0 0 0 0 0 0 0 0 0 0 0 0 0 0 0 0 0.25 0"/>
<feBlend mode="normal" in2="BackgroundImageFix" result="effect1_dropShadow_1005_1007"/>
<feBlend mode="normal" in="SourceGraphic" in2="effect1_dropShadow_1005_1007" result="shape"/>
</filter>
</defs>
</svg>
