<svg width="28" height="29" viewBox="0 0 28 29" fill="none" xmlns="http://www.w3.org/2000/svg">
    <g filter="url(#mbqm7a7r6a)" fill="#fff">
        <path d="M10.938 9.406H7.874v1.531h3.063v-1.53zM20.125 9.406h-3.063v1.531h3.063v-1.53z"/>
        <path fill-rule="evenodd" clip-rule="evenodd" d="M12.469 12.469h9.187v6.125H12.47v-6.125zM20.125 14H14v3.063h6.125V14z"/>
        <path fill-rule="evenodd" clip-rule="evenodd" d="M7.875 10.938V9.405h3.063v1.531H7.874zm12.25-1.532v1.531h-3.063v-1.53h3.063zm-7.656 3.063v6.125h9.187v-6.125H12.47zm7.656 4.594V14H14v3.063h6.125z"/>
        <path fill-rule="evenodd" clip-rule="evenodd" d="M3.281 9.406H1.75V6.344h1.531V3.28h1.531V1.75h18.375v1.531h1.532v3.063h1.531v3.062h-1.531v13.781H3.28V9.408zm0 13.781v1.532H24.72v-1.532h1.531v3.063H1.75v-3.063h1.531zM7.875 3.282h3.063v6.125h1.53v1.531h3.063v-1.53h1.531V3.28h3.063v6.125h1.531v1.531h1.532v10.72h-12.25v-9.188H6.343v9.187H4.812V10.938h1.532V9.405h1.531V3.281zm0 10.719h1.531v7.656H7.875V14z"/>
    </g>
    <defs>
        <filter id="mbqm7a7r6a" x="1.75" y="1.75" width="24.5" height="26.5" filterUnits="userSpaceOnUse" color-interpolation-filters="sRGB">
            <feFlood flood-opacity="0" result="BackgroundImageFix"/>
            <feColorMatrix in="SourceAlpha" values="0 0 0 0 0 0 0 0 0 0 0 0 0 0 0 0 0 0 127 0" result="hardAlpha"/>
            <feOffset dy="2"/>
            <feColorMatrix values="0 0 0 0 0 0 0 0 0 0 0 0 0 0 0 0 0 0 0.25 0"/>
            <feBlend in2="BackgroundImageFix" result="effect1_dropShadow_450_6057"/>
            <feBlend in="SourceGraphic" in2="effect1_dropShadow_450_6057" result="shape"/>
        </filter>
    </defs>
</svg>
