<svg width="16" height="16" fill="none" xmlns="http://www.w3.org/2000/svg">
    <path d="M1.684 14.316H4.21v-.842h.842v-.842h.842v-.842h.842v-.843h.843v-.842h.842v.842h.842v.843h.842v.842h.842v.842h.842v.842h2.526v-3.369h-.842v-.842h-.842v-.842h-.842v-.842h-.842V6.737h.842v-.842h.842v-.842h.842V4.21h.842V.842H11.79v.842h-.842v.842h-.842v.842h-.842v.843H8.42v.842h-.842V4.21h-.843v-.843h-.842v-.842h-.842v-.842H4.21V.842H1.684v3.369h.842v.842h.842v.842h.842v.842h.842V8.42H4.21v.842h-.842v.842h-.842v.842h-.842v3.369z" fill="#963338"/>
    <path d="M1.684 13.474H4.21v-.842h.842v-.842h.842v-.843h.842v-.842h.843v-.842h.842v.842h.842v.842h.842v.843h.842v.842h.842v.842h2.526v-2.527h-.842v-.842h-.842v-.842h-.842v-.842h-.842V7.58h-.842v-.842h.842v-.842h.842v-.842h.842V4.21h.842v-.843h.842V.842H11.79v.842h-.842v.842h-.842v.842h-.842v.843H8.42v.842h-.842V4.21h-.843v-.843h-.842v-.842h-.842v-.842H4.21V.842H1.684v2.526h.842v.843h.842v.842h.842v.842h.842v.842h.842v.842h-.842v.842H4.21v.842h-.842v.842h-.842v.842h-.842v2.527z" fill="#EE8B92"/>
    <path d="M2.526 12.632H4.21v-.842h.842v-.843h.842v-.842h.843v-.842h.842v-.842h.842v.842h.842v.842h.842v.842h.842v.843h.842v.842h1.684v-1.685h-.842v-.842h-.842v-.842h-.842v-.842h-.842v-.842h-.842v-.842h.842v-.842h.842v-.842h.842V4.21h.842v-.843h.842V1.684H11.79v.842h-.842v.842h-.842v.843h-.842v.842H8.42v.842h-.842v-.842h-.842V4.21h-.843v-.843h-.842v-.842H4.21v-.842H2.526v1.684h.842v.843h.842v.842h.842v.842h.842v.842h.843v.842h-.843v.842h-.842v.842H4.21v.842h-.842v.842h-.842v1.685z" fill="#CA444A"/>
</svg>
