<svg xmlns="http://www.w3.org/2000/svg" width="26" height="24" fill="none" viewBox="0 0 26 24">
    <path fill="#03E1E4" d="M0 8h1.6v4.8H0zM1.6 6.4h1.6v8H1.6zM3.2 4.8h1.6v17.6H3.2zM8 4.8h1.6v17.6H8z"/>
    <path fill="#03E1E4" d="M4.8 22.4H8V24H4.8zM3.2 4.8h9.6v1.6H3.2zM3.2 14.4h9.6V16H3.2zM12.8 3.2H16v1.6h-3.2zM12.8 16H16v1.6h-3.2zM17.6 19.2h3.2v1.6h-3.2zM17.6 0h3.2v1.6h-3.2zM16 1.6h1.6v1.6H16zM16 17.6h1.6v1.6H16zM20.8 1.6h1.6v17.6h-1.6zM22.401 6.4h1.6v8h-1.6z"/>
    <path fill="#03E1E4" d="M24 8h1.6v4.8H24zM3.2 4.8h6.4V16H3.2z"/>
</svg>
