<svg width="24" height="24" fill="none" xmlns="http://www.w3.org/2000/svg">
    <path fill-rule="evenodd" clip-rule="evenodd" d="M8.4 4.5v-3h1.5V0h4.5v1.5h1.5v3H8.4zm3-3V3h1.5V1.5h-1.5z" fill="#03E1E4"/>
    <path fill-rule="evenodd" clip-rule="evenodd" d="M15.9 4.5V6H8.4V4.5H6.9V3h-3v1.5H2.4v18h1.5V24h16.5v-1.5h1.5v-18h-1.5V3h-3v1.5h-1.5zM6.9 9H5.4v1.5h1.5V12h1.5v-1.5h1.5V9h1.5V7.5H9.9V9H8.4v1.5H6.9V9zm0 4.5H5.4V15h1.5v1.5h1.5V15h1.5v-1.5h1.5V12H9.9v1.5H8.4V15H6.9v-1.5zm6 0h6V15h-6v-1.5zm0-4.5h6v1.5h-6V9zm-3 7.5h1.5V18H9.9v-1.5zm-1.5 3V18h1.5v1.5H8.4zm-1.5 0h1.5V21H6.9v-1.5zm0 0H5.4V18h1.5v1.5zm12-1.5h-6v1.5h6V18z" fill="#03E1E4"/>
</svg>
