<svg xmlns="http://www.w3.org/2000/svg" width="20" height="21" fill="none" viewBox="0 0 20 21">
    <g filter="url(#filter0_d)">
        <path fill="#2F3045" d="M18.696 7.826V5.217H17.39V3.913h1.305V2.61H20V0H9.565v10.435h2.609V9.13h1.304V7.826h1.305V9.13h1.304v4.348h-1.304v1.305h-1.305v1.304H6.522v-1.304H5.217v-1.305H3.913V6.522h1.304V2.609H2.61v1.304H1.304v2.609H0v6.956h1.304v2.609H2.61v1.304h1.304v1.305h2.609V20h6.956v-1.304h2.609V17.39h1.304v-1.304h1.305v-2.609H20V7.826h-1.304z"/>
    </g>
    <defs>
        <filter id="filter0_d" width="20" height="21" x="0" y="0" color-interpolation-filters="sRGB" filterUnits="userSpaceOnUse">
            <feFlood flood-opacity="0" result="BackgroundImageFix"/>
            <feColorMatrix in="SourceAlpha" values="0 0 0 0 0 0 0 0 0 0 0 0 0 0 0 0 0 0 127 0"/>
            <feOffset dy="1"/>
            <feColorMatrix values="0 0 0 0 0 0 0 0 0 0 0 0 0 0 0 0 0 0 0.25 0"/>
            <feBlend in2="BackgroundImageFix" result="effect1_dropShadow"/>
            <feBlend in="SourceGraphic" in2="effect1_dropShadow" result="shape"/>
        </filter>
    </defs>
</svg>
