<svg xmlns="http://www.w3.org/2000/svg" width="15" height="20" fill="none" viewBox="0 0 15 20">
    <path fill="#03E1E4" d="M11.764 0v1.538H10.25V0zM10.25 1.538v1.538H8.737V1.538zM8.74 3.077v1.538H7.227V3.077zM7.227 4.616v1.538H5.714V4.616zM5.713 6.154v1.538H4.2V6.154zM4.2 7.692V9.23H2.687V7.692zM2.689 9.23v1.538H1.176V9.23zM4.2 10.769v1.538H2.685v-1.538zM5.713 12.308v1.538H4.2v-1.538zM7.227 13.847v1.538H5.714v-1.538zM8.74 15.385v1.538H7.227v-1.538zM10.25 16.923v1.538H8.737v-1.538zM11.763 18.462V20H10.25v-1.538z"/>
    <path fill="#03E1E4" d="M10.586 0v1.538H9.073V0zM9.072 1.538v1.538H7.559V1.538zM7.563 3.078v1.538H6.05V3.078zM6.05 4.615v1.538H4.535V4.615zM4.535 6.154v1.538H3.022V6.154zM3.022 7.693V9.23H1.509V7.693zM1.511 9.23v1.539H-.002V9.23zM3.022 10.77v1.538H1.509V10.77zM4.535 12.308v1.538H3.022v-1.538zM6.05 13.846v1.538H4.535v-1.538zM7.562 15.385v1.538H6.05v-1.538zM9.072 16.923v1.538H7.56v-1.538zM10.585 18.462V20H9.072v-1.538zM12.941 0v1.538h-1.513V0zM11.427 1.539v1.538H9.914V1.539zM9.918 3.077v1.538H8.405V3.077z"/>
    <path fill="#03E1E4" d="M8.405 4.615v1.538H6.892V4.615zM6.89 6.154v1.538H5.379V6.154zM5.377 7.692V9.23H3.864V7.692zM3.867 9.23v1.538H2.354V9.23zM5.377 10.77v1.537H3.864V10.77zM6.89 12.308v1.538H5.377v-1.538zM8.405 13.846v1.538H6.892v-1.538zM9.918 15.385v1.538H8.405v-1.538zM11.428 16.923v1.538H9.915v-1.538zM12.941 18.461v1.538h-1.513v-1.538zM14.12 0v1.538h-1.514V0zM12.605 1.538v1.538h-1.513V1.538zM11.096 3.077v1.538H9.583V3.077z"/>
    <path fill="#03E1E4" d="M9.582 4.615v1.538H8.07V4.615zM8.068 6.153v1.538H6.555V6.153zM6.555 7.693V9.23H5.042V7.693zM5.044 9.23v1.539H3.531V9.23zM6.555 10.77v1.537H5.042V10.77zM8.068 12.307v1.538H6.555v-1.538zM9.582 13.846v1.538H8.07v-1.538zM11.096 15.385v1.538H9.583v-1.538z"/>
    <path fill="#03E1E4" d="M12.605 16.922v1.538h-1.513v-1.538zM14.119 18.461V20h-1.513v-1.538z"/>
</svg>
