<svg width="24" height="26" fill="none" xmlns="http://www.w3.org/2000/svg">
    <g filter="url(#a)" fill="#2F3045">
        <path d="M9 10.5V12h6v-1.5h1.5V6H15V4.5H9V6H7.5v4.5H9z"/>
        <path fill-rule="evenodd" clip-rule="evenodd" d="M7.5 0v1.5H6V3H4.5v1.5H3V15h1.5v-1.5H6V15h1.5v1.5h9V15H18v-1.5h1.5V15H21V4.5h-1.5V3H18V1.5h-1.5V0h-9zM6 10.5V6h1.5V4.5H9V3h6v1.5h1.5V6H18v4.5h-1.5V12H15v1.5H9V12H7.5v-1.5H6z"/>
        <path d="M7.5 19.5H9V21h1.5v-1.5h3V21H15v-1.5h1.5V18h-9v1.5zM7.5 22.5H9V21H7.5v1.5zM4.5 22.5V24h3v-1.5h-3zM1.5 18v4.5h3V21H3v-3H1.5zM4.5 16.5H3V18h1.5v-1.5zM6 16.5V15H4.5v1.5H6zM7.5 18v-1.5H6V18h1.5zM18 16.5h-1.5V18H18v-1.5zM19.5 16.5V15H18v1.5h1.5zM19.5 18H21v-1.5h-1.5V18zM22.5 22.5V18H21v3h-1.5v1.5h3zM16.5 24h3v-1.5h-3V24zM16.5 21H15v1.5h1.5V21z"/>
    </g>
    <defs>
        <filter id="a" x="1.5" y="0" width="21" height="26" filterUnits="userSpaceOnUse" color-interpolation-filters="sRGB">
            <feFlood flood-opacity="0" result="BackgroundImageFix"/>
            <feColorMatrix in="SourceAlpha" values="0 0 0 0 0 0 0 0 0 0 0 0 0 0 0 0 0 0 127 0" result="hardAlpha"/>
            <feOffset dy="2"/>
            <feColorMatrix values="0 0 0 0 0 0 0 0 0 0 0 0 0 0 0 0 0 0 0.25 0"/>
            <feBlend in2="BackgroundImageFix" result="effect1_dropShadow"/>
            <feBlend in="SourceGraphic" in2="effect1_dropShadow" result="shape"/>
        </filter>
    </defs>
</svg>
