<svg width="32" height="32" viewBox="0 0 32 32" fill="none" xmlns="http://www.w3.org/2000/svg">
<path d="M4.91323 0H1V1.95658H4.91323V0Z" fill="#2F3045"/>
<path d="M15.995 28.0434H12.734V30H15.995V28.0434Z" fill="#2F3045"/>
<path d="M27.0845 28.0434H23.8235V30H27.0845V28.0434Z" fill="#2F3045"/>
<path d="M29.0476 24.7843H27.091V28.0452H29.0476V24.7843Z" fill="#2F3045"/>
<path d="M10.7849 22.8273V28.0449H12.7414V24.7839H16.0024V28.0449H17.959V24.7839H21.8722V28.0449H23.8288V24.7839H27.0898V22.8273H10.7849Z" fill="#2F3045"/>
<path d="M6.86857 5.21653V1.9555H4.91199V7.17311H6.86857V13.0429H8.82516V11.0863H14.0428V7.17311H15.9994V11.0863H21.8692V7.17311H23.8258V11.0863H29.0434V13.0429H31V5.21653H6.86857Z" fill="#2F3045"/>
<path d="M23.8226 13.043V18.9128H21.8661V13.043H15.9962V18.9128H14.0397V13.043H8.82202V22.8259H10.7787V20.8693H27.0836V18.9128H29.0403V13.043H23.8226Z" fill="#2F3045"/>
</svg>
