<svg width="32" height="34" viewBox="0 0 32 34" fill="none" xmlns="http://www.w3.org/2000/svg">
<g filter="url(#filter0_d_11857_12696)">
<path d="M4 32H0V14H2V12H4V10H6V8H8V6H10V4H12V2H14V0H18V2H20V4H22V6H24V8H26V10H28V12H30V14H32V32H28V18H26V16H6V18H4V32Z" fill="white"/>
<path d="M12 18V24H20V18H17V20H15V18H12Z" fill="white"/>
<path d="M17 26V32H25V26H22V28H20V26H17Z" fill="white"/>
<path d="M7 26V32H15V26H12V28H10V26H7Z" fill="white"/>
</g>
<defs>
<filter id="filter0_d_11857_12696" x="0" y="0" width="32" height="34" filterUnits="userSpaceOnUse" color-interpolation-filters="sRGB">
<feFlood flood-opacity="0" result="BackgroundImageFix"/>
<feColorMatrix in="SourceAlpha" type="matrix" values="0 0 0 0 0 0 0 0 0 0 0 0 0 0 0 0 0 0 127 0" result="hardAlpha"/>
<feOffset dy="2"/>
<feComposite in2="hardAlpha" operator="out"/>
<feColorMatrix type="matrix" values="0 0 0 0 0 0 0 0 0 0 0 0 0 0 0 0 0 0 0.25 0"/>
<feBlend mode="normal" in2="BackgroundImageFix" result="effect1_dropShadow_11857_12696"/>
<feBlend mode="normal" in="SourceGraphic" in2="effect1_dropShadow_11857_12696" result="shape"/>
</filter>
</defs>
</svg>
