<svg width="28" height="28" viewBox="0 0 28 28" fill="none" xmlns="http://www.w3.org/2000/svg">
<g filter="url(#filter0_d_904_1088)">
<path d="M4.625 26H1.5V11.9375H3.0625V10.375H4.625V8.8125H6.1875V7.25H7.75V5.6875H9.3125V4.125H10.875V2.5625H12.4375V1H15.5625V2.5625H17.125V4.125H18.6875V5.6875H20.25V7.25H21.8125V8.8125H23.375V10.375H24.9375V11.9375H26.5V26H23.375V15.0625H21.8125V13.5H6.1875V15.0625H4.625V26Z" fill="white"/>
<path d="M10.875 15.0625V19.75H17.125V15.0625H14.7812V16.625H13.2188V15.0625H10.875Z" fill="white"/>
<path d="M14.7812 21.3125V26H21.0312V21.3125H18.6875V22.875H17.125V21.3125H14.7812Z" fill="white"/>
<path d="M6.96875 21.3125V26H13.2188V21.3125H10.875V22.875H9.3125V21.3125H6.96875Z" fill="white"/>
</g>
<defs>
<filter id="filter0_d_904_1088" x="1.5" y="1" width="25" height="26" filterUnits="userSpaceOnUse" color-interpolation-filters="sRGB">
<feFlood flood-opacity="0" result="BackgroundImageFix"/>
<feColorMatrix in="SourceAlpha" type="matrix" values="0 0 0 0 0 0 0 0 0 0 0 0 0 0 0 0 0 0 127 0" result="hardAlpha"/>
<feOffset dy="1"/>
<feComposite in2="hardAlpha" operator="out"/>
<feColorMatrix type="matrix" values="0 0 0 0 0 0 0 0 0 0 0 0 0 0 0 0 0 0 0.25 0"/>
<feBlend mode="normal" in2="BackgroundImageFix" result="effect1_dropShadow_904_1088"/>
<feBlend mode="normal" in="SourceGraphic" in2="effect1_dropShadow_904_1088" result="shape"/>
</filter>
</defs>
</svg>
