<svg width="28" height="28" viewBox="0 0 28 28" fill="none" xmlns="http://www.w3.org/2000/svg">
<g filter="url(#filter0_d_904_1067)">
<path fill-rule="evenodd" clip-rule="evenodd" d="M9.96154 6V2.66667H11.5769V1H16.4231V2.66667H18.0385V6H9.96154ZM13.1923 2.66667V4.33333H14.8077V2.66667H13.1923Z" fill="#2F3045"/>
<path fill-rule="evenodd" clip-rule="evenodd" d="M18.0385 6V7.66667H9.96154V6H8.34615V4.33333H5.11538V6H3.5V24.3333H5.11538V26H22.8846V24.3333H24.5V6H22.8846V4.33333H19.6538V6H18.0385ZM8.34615 10.1667H6.73077V11.8333H8.34615V13.5H9.96154V11.8333H11.5769V10.1667H13.1923V8.5H11.5769V10.1667H9.96154V11.8333H8.34615V10.1667ZM8.34615 15.1667H6.73077V16.8333H8.34615V18.5H9.96154V16.8333H11.5769V15.1667H13.1923V13.5H11.5769V15.1667H9.96154V16.8333H8.34615V15.1667ZM14.8077 15.1667H21.2692V16.8333H14.8077V15.1667ZM14.8077 10.1667H21.2692V11.8333H14.8077V10.1667ZM11.5769 18.5H13.1923V20.1667H11.5769V18.5ZM9.96154 21.8333V20.1667H11.5769V21.8333H9.96154ZM8.34615 21.8333H9.96154V23.5H8.34615V21.8333ZM8.34615 21.8333H6.73077V20.1667H8.34615V21.8333ZM21.2692 20.1667H14.8077V21.8333H21.2692V20.1667Z" fill="#2F3045"/>
</g>
<defs>
<filter id="filter0_d_904_1067" x="3.5" y="1" width="21" height="26" filterUnits="userSpaceOnUse" color-interpolation-filters="sRGB">
<feFlood flood-opacity="0" result="BackgroundImageFix"/>
<feColorMatrix in="SourceAlpha" type="matrix" values="0 0 0 0 0 0 0 0 0 0 0 0 0 0 0 0 0 0 127 0" result="hardAlpha"/>
<feOffset dy="1"/>
<feComposite in2="hardAlpha" operator="out"/>
<feColorMatrix type="matrix" values="0 0 0 0 0 0 0 0 0 0 0 0 0 0 0 0 0 0 0.25 0"/>
<feBlend mode="normal" in2="BackgroundImageFix" result="effect1_dropShadow_904_1067"/>
<feBlend mode="normal" in="SourceGraphic" in2="effect1_dropShadow_904_1067" result="shape"/>
</filter>
</defs>
</svg>
