<svg width="24" height="24" viewBox="0 0 24 24" fill="none" xmlns="http://www.w3.org/2000/svg">
<path d="M1 12.579V10.2632H2.15789V9.10527H3.31579V7.94737H4.47368V9.10527H5.63158V10.2632H6.78947V11.4211H7.94737V12.579H9.10526V13.7368H10.2632V12.579H11.4211V11.4211H12.5789V10.2632H13.7368V9.10527H14.8947V7.94737H16.0526V6.78948H17.2105V5.63159H18.3684V4.47369H19.5263V3.3158H20.6842V4.47369H21.8421V5.63159H23V7.94737H21.8421V9.10527H20.6842V10.2632H19.5263V11.4211H18.3684V12.579H17.2105V13.7368H16.0526V14.8947H14.8947V16.0526H13.7368V17.2105H12.5789V18.3684H11.4211V19.5263H10.2632V20.6842H9.10526V19.5263H7.94737V18.3684H6.78947V17.2105H5.63158V16.0526H4.47368V14.8947H3.31579V13.7368H2.15789V12.579H1Z" fill="#2F3045"/>
</svg>
