<svg xmlns="http://www.w3.org/2000/svg" width="27" height="27" fill="none" viewBox="0 0 27 27">
    <rect width="26.5" height="26.5" x=".25" y=".25" fill="#6A668A" stroke="#AA92BA" stroke-width=".5" rx="2.75"/>
    <path fill="#fff" d="M6 6h1.154v1.156H6zM7.154 7.156h1.154v1.156H7.154z"/>
    <path fill="#fff" d="M8.307 8.311h1.154v1.156H8.307zM9.462 9.467h1.154v1.156H9.462z"/>
    <path fill="#fff" d="M10.615 10.623h1.154v1.156h-1.154zM11.769 11.779h1.154v1.156h-1.154zM12.923 12.934h1.154v1.156h-1.154zM14.077 11.779h1.154v1.156h-1.154zM15.23 10.623h1.154v1.156H15.23zM16.384 9.467h1.154v1.156h-1.154zM17.538 8.311h1.154v1.156h-1.154zM18.692 7.156h1.154v1.156h-1.154zM19.846 6H21v1.156h-1.154zM21 21h-1.154v-1.156H21zM19.846 19.844h-1.154v-1.156h1.154zM18.692 18.689h-1.154v-1.156h1.154zM17.538 17.534h-1.154v-1.156h1.154zM16.386 16.377h-1.154v-1.156h1.154z"/>
    <path fill="#fff" d="M15.23 15.222h-1.154v-1.156h1.154zM12.923 15.222H11.77v-1.156h1.154zM11.77 16.377h-1.154v-1.156h1.154zM10.615 17.534H9.461v-1.156h1.154z"/>
    <path fill="#fff" d="M9.462 18.689H8.308v-1.156h1.154z"/>
    <path fill="#fff" d="M8.309 19.844H7.155v-1.156h1.154zM7.154 21H6v-1.156h1.154z"/>
</svg>
