<svg width="32" height="32" viewBox="0 0 32 32" fill="none" xmlns="http://www.w3.org/2000/svg">
    <path d="M18.6667 0H13.3333V1.28H12V3.84H10.6667V6.4H9.33333V8.96H8V11.52H6.66667V14.08H5.33333V16.64H4V19.2H2.66667V21.76H1.33333V24.32H0V29.44H1.33333V30.72H2.66667V32H29.3333V30.72H30.6667V29.44H32V24.32H30.6667V21.76H29.3333V19.2H28V16.64H26.6667V14.08H25.3333V11.52H24V8.96H22.6667V6.4H21.3333V3.84H20V1.28H18.6667V0Z" fill="#FDD73B"/>
    <path d="M14.6687 24.3252V23.0452H17.3354V24.3252H18.6687V26.8852H17.3354V28.1652H14.6687V26.8852H13.3354V24.3252H14.6687Z" fill="#393441"/>
    <path d="M18.6692 8.95483H13.3359V10.2348H12.0026V16.6348H13.3359V19.1948H14.6692V21.7548H17.3359V19.1948H18.6692V16.6348H20.0026V10.2348H18.6692V8.95483Z" fill="#393441"/>
</svg>