<svg width="25" height="25" viewBox="0 0 25 25" fill="none" xmlns="http://www.w3.org/2000/svg">
<path d="M8 0H17V1H19V2H20V3H21V4H22V5H23V6H24V8H25V17H24V19H23V20H22V21H21V22H20V23H19V24H17V25H8V24H6V23H5V22H4V21H3V20H2V19H1V17H0V8H1V6H2V5H3V4H4V3H5V2H6V1H8V0Z" fill="#BA271B"/>
<path d="M2 8H1V17H2V19H3V20H4V21H5V22H6V23H8V24H17V23H19V22H20V21H21V20H22V19H23V17H24V8H23V6H22V5H21V4H20V3H19V2H17V1H8V2H6V3H5V4H4V5H3V6H2V8Z" fill="#EA514C"/>
<path d="M2 8H1V17H2V19H3V20H4V21H5V22H6V23H8V24H17V23H19V22H20V21H21V20H22V19H23V17H24V8H23V6H22V5H21V4H20V3H19V2H17V1H8V2H6V3H5V4H4V5H3V6H2V8Z" fill="#EA514C"/>
<path d="M2 8V19H3V20H4V21H5V22H6V23H8V24H17V23H19V22H20V21H21V20H22V19H23V17H24V8H23V6H22V5H20V4H19V3H17V2H8V3H6V4H5V5H4V6H3V8H2Z" fill="#D22D20"/>
<path d="M23 17H22V19H21V20H20V21H19V22H17V23H8V22H6V21H5V20H4V19H2V8H3V6H4V5H5V4H6V3H8V2H17V3H19V4H20V5H22V6H23V17Z" fill="#E93324"/>
<path fill-rule="evenodd" clip-rule="evenodd" d="M6 18V17H5V16H4V9H5V8H6V7H19V8H20V9H21V16H20V17H19V18H6ZM11 15V10H12V11H14V12H15V13H14V14H12V15H11Z" fill="white"/>
</svg>
