<svg width="32" height="26" viewBox="0 0 32 26" fill="none" xmlns="http://www.w3.org/2000/svg">
<path d="M-0.00891113 13.8425V10.4722H1.67624V8.78708H3.36139V7.10193H5.04654V8.78708H6.73169V10.4722H8.41684V12.1574H10.102V13.8425H11.7871V15.5277H13.4723V13.8425H15.1574V12.1574H16.8426V10.4722H18.5277V8.78708H20.2129V7.10193H21.898V5.41678H23.5832V3.73163H25.2683V2.04648H26.9535V0.361328H28.6386V2.04648H30.3238V3.73163H32.0089V7.10193H30.3238V8.78708H28.6386V10.4722H26.9535V12.1574H25.2683V13.8425H23.5832V15.5277H21.898V17.2128H20.2129V18.898H18.5277V20.5831H16.8426V22.2683H15.1574V23.9534H13.4723V25.6386H11.7871V23.9534H10.102V22.2683H8.41684V20.5831H6.73169V18.898H5.04654V17.2128H3.36139V15.5277H1.67624V13.8425H-0.00891113Z" fill="#318F31"/>
<path d="M-0.00891113 12.1574V10.4722H1.67624V8.78708H3.36139V7.10193H5.04654V8.78708H6.73169V10.4722H8.41684V12.1574H10.102V13.8425H11.7871V15.5277H13.4723V13.8425H15.1574V12.1574H16.8426V10.4722H18.5277V8.78708H20.2129V7.10193H21.898V5.41678H23.5832V3.73163H25.2683V2.04648H26.9535V0.361328H28.6386V2.04648H30.3238V3.73163H32.0089V5.41678H30.3238V7.10193H28.6386V8.78708H26.9535V10.4722H25.2683V12.1574H23.5832V13.8425H21.898V15.5277H20.2129V17.2128H18.5277V18.898H16.8426V20.5831H15.1574V22.2683H13.4723V23.9534H11.7871V22.2683H10.102V20.5831H8.41684V18.898H6.73169V17.2128H5.04654V15.5277H3.36139V13.8425H1.67624V12.1574H-0.00891113Z" fill="#AFFF99"/>
<path d="M3.36081 12.1573H1.67566V10.4721H3.36081V8.78699H5.04596V10.4721H6.73111V12.1573H8.41626V13.8424H10.1014V15.5276H11.7866V17.2127H13.4717V15.5276H15.1569V13.8424H16.842V12.1573H18.5272V10.4721H20.2123V8.78699H21.8975V7.10184H23.5826V5.41669H25.2678V3.73154H26.9529V2.04639H28.6381V3.73154H30.3232V5.41669H28.6381V7.10184H26.9529V8.78699H25.2678V10.4721H23.5826V12.1573H21.8975V13.8424H20.2123V15.5276H18.5272V17.2127H16.842V18.8979H15.1569V20.583H13.4717V22.2682H11.7866V20.583H10.1014V18.8979H8.41626V17.2127H6.73111V15.5276H5.04596V13.8424H3.36081V12.1573Z" fill="#44C944"/>
</svg>
